%TF.GenerationSoftware,KiCad,Pcbnew,8.0.1*%
%TF.CreationDate,2024-05-29T13:53:09-05:00*%
%TF.ProjectId,eve PCB Project,65766520-5043-4422-9050-726f6a656374,rev?*%
%TF.SameCoordinates,Original*%
%TF.FileFunction,Profile,NP*%
%FSLAX46Y46*%
G04 Gerber Fmt 4.6, Leading zero omitted, Abs format (unit mm)*
G04 Created by KiCad (PCBNEW 8.0.1) date 2024-05-29 13:53:09*
%MOMM*%
%LPD*%
G01*
G04 APERTURE LIST*
%TA.AperFunction,Profile*%
%ADD10C,0.050000*%
%TD*%
%TA.AperFunction,Profile*%
%ADD11C,0.100000*%
%TD*%
G04 APERTURE END LIST*
D10*
X231200000Y-34640000D02*
X231200000Y-42640000D01*
X197360000Y-73180000D02*
X197360000Y-75360000D01*
X155520000Y-94720000D02*
X143600000Y-94720000D01*
X160520000Y-65000000D02*
X160520000Y-67180000D01*
X162520000Y-77360000D02*
G75*
G02*
X160520000Y-75360000I0J2000000D01*
G01*
X106760000Y-60000000D02*
X118680000Y-60000000D01*
X143600000Y-42640000D02*
X174440000Y-42640000D01*
X88840000Y-60000000D02*
G75*
G02*
X86840000Y-58000000I0J2000000D01*
G01*
X194360000Y-107900000D02*
X194360000Y-110080000D01*
X86840000Y-134440000D02*
X86840000Y-136620000D01*
X143600000Y-132440000D02*
X155520000Y-132440000D01*
X86840000Y-47640000D02*
G75*
G02*
X88840000Y-45640000I2000000J0D01*
G01*
X86840000Y-142620000D02*
X86840000Y-144800000D01*
X194360000Y-90540000D02*
X194360000Y-92720000D01*
X157520000Y-107900000D02*
X157520000Y-110080000D01*
X81840000Y-132440000D02*
G75*
G02*
X83840000Y-134440000I0J-2000000D01*
G01*
X123680000Y-82360000D02*
G75*
G02*
X125680000Y-80360000I2000000J0D01*
G01*
X88840000Y-77360000D02*
G75*
G02*
X86840000Y-75360000I0J2000000D01*
G01*
X100760000Y-77360000D02*
X88840000Y-77360000D01*
X106760000Y-42640000D02*
X137600000Y-42640000D01*
X197360000Y-134440000D02*
G75*
G02*
X199360000Y-132440000I2000000J0D01*
G01*
X199360000Y-80360000D02*
X211280000Y-80360000D01*
X69920000Y-115080000D02*
X81840000Y-115080000D01*
X143600000Y-80360000D02*
X155520000Y-80360000D01*
X100760000Y-149800000D02*
X69920000Y-149800000D01*
X231200000Y-117080000D02*
X231200000Y-127440000D01*
X50000000Y-149800000D02*
X50000000Y-157800000D01*
X83840000Y-55820000D02*
X83840000Y-58000000D01*
X197360000Y-47640000D02*
X197360000Y-49820000D01*
X86840000Y-134440000D02*
G75*
G02*
X88840000Y-132440000I2000000J0D01*
G01*
X52000000Y-80360000D02*
X63920000Y-80360000D01*
X123680000Y-125260000D02*
X123680000Y-127440000D01*
X123680000Y-55820000D02*
X123680000Y-58000000D01*
X160520000Y-73180000D02*
X160520000Y-75360000D01*
X194360000Y-75360000D02*
G75*
G02*
X192360000Y-77360000I-2000000J0D01*
G01*
X231200000Y-127440000D02*
G75*
G02*
X229200000Y-129440000I-2000000J0D01*
G01*
X50000000Y-34640000D02*
X50000000Y-42640000D01*
X217280000Y-60000000D02*
X229200000Y-60000000D01*
X157520000Y-136620000D02*
X157520000Y-134440000D01*
X63920000Y-129440000D02*
X52000000Y-129440000D01*
X120680000Y-99720000D02*
X120680000Y-101900000D01*
X125680000Y-94720000D02*
G75*
G02*
X123680000Y-92720000I0J2000000D01*
G01*
X162520000Y-132440000D02*
X174440000Y-132440000D01*
X83840000Y-110080000D02*
G75*
G02*
X81840000Y-112080000I-2000000J0D01*
G01*
X86840000Y-99720000D02*
G75*
G02*
X88840000Y-97720000I2000000J0D01*
G01*
X106760000Y-80360000D02*
X118680000Y-80360000D01*
X194360000Y-58000000D02*
G75*
G02*
X192360000Y-60000000I-2000000J0D01*
G01*
X231200000Y-149800000D02*
X217280000Y-149800000D01*
X69920000Y-97720000D02*
X81840000Y-97720000D01*
X162520000Y-60000000D02*
G75*
G02*
X160520000Y-58000000I0J2000000D01*
G01*
X83840000Y-99720000D02*
X83840000Y-101900000D01*
X123680000Y-90540000D02*
X123680000Y-92720000D01*
X194360000Y-55820000D02*
X194360000Y-58000000D01*
X180440000Y-80360000D02*
X192360000Y-80360000D01*
X231200000Y-82360000D02*
X231200000Y-92720000D01*
X157520000Y-110080000D02*
G75*
G02*
X155520000Y-112080000I-2000000J0D01*
G01*
X52000000Y-115080000D02*
X63920000Y-115080000D01*
X197360000Y-117080000D02*
G75*
G02*
X199360000Y-115080000I2000000J0D01*
G01*
X83840000Y-107900000D02*
X83840000Y-110080000D01*
X86840000Y-82360000D02*
X86840000Y-84540000D01*
X194360000Y-134440000D02*
X194360000Y-136620000D01*
X83840000Y-82360000D02*
X83840000Y-84540000D01*
X83840000Y-127440000D02*
G75*
G02*
X81840000Y-129440000I-2000000J0D01*
G01*
X120680000Y-107900000D02*
X120680000Y-110080000D01*
X157520000Y-144800000D02*
G75*
G02*
X155520000Y-146800000I-2000000J0D01*
G01*
X217280000Y-146800000D02*
X229200000Y-146800000D01*
X52000000Y-129440000D02*
G75*
G02*
X50000000Y-127440000I0J2000000D01*
G01*
X88840000Y-129440000D02*
G75*
G02*
X86840000Y-127440000I0J2000000D01*
G01*
X160520000Y-47640000D02*
X160520000Y-49820000D01*
X86840000Y-117080000D02*
X86840000Y-119260000D01*
X83840000Y-125260000D02*
X83840000Y-127440000D01*
X52000000Y-146800000D02*
X63920000Y-146800000D01*
X180440000Y-115080000D02*
X192360000Y-115080000D01*
X155520000Y-80360000D02*
G75*
G02*
X157520000Y-82360000I0J-2000000D01*
G01*
X81840000Y-129440000D02*
X69920000Y-129440000D01*
X118680000Y-80360000D02*
G75*
G02*
X120680000Y-82360000I0J-2000000D01*
G01*
X160520000Y-107900000D02*
X160520000Y-110080000D01*
X160520000Y-117080000D02*
G75*
G02*
X162520000Y-115080000I2000000J0D01*
G01*
X123680000Y-47640000D02*
X123680000Y-49820000D01*
X199360000Y-132440000D02*
X211280000Y-132440000D01*
X192360000Y-132440000D02*
G75*
G02*
X194360000Y-134440000I0J-2000000D01*
G01*
X120680000Y-117080000D02*
X120680000Y-119260000D01*
X160520000Y-117080000D02*
X160520000Y-119260000D01*
X123680000Y-117080000D02*
X123680000Y-119260000D01*
X69920000Y-45640000D02*
X81840000Y-45640000D01*
X160520000Y-99720000D02*
G75*
G02*
X162520000Y-97720000I2000000J0D01*
G01*
X50000000Y-75360000D02*
X50000000Y-65000000D01*
X197360000Y-107900000D02*
X197360000Y-110080000D01*
X197360000Y-55820000D02*
X197360000Y-58000000D01*
X160520000Y-47640000D02*
G75*
G02*
X162520000Y-45640000I2000000J0D01*
G01*
X180440000Y-63000000D02*
X192360000Y-63000000D01*
X194360000Y-127440000D02*
G75*
G02*
X192360000Y-129440000I-2000000J0D01*
G01*
X194360000Y-110080000D02*
G75*
G02*
X192360000Y-112080000I-2000000J0D01*
G01*
X162520000Y-94720000D02*
G75*
G02*
X160520000Y-92720000I0J2000000D01*
G01*
X118680000Y-129440000D02*
X106760000Y-129440000D01*
X231200000Y-47640000D02*
X231200000Y-58000000D01*
X50000000Y-92720000D02*
X50000000Y-82360000D01*
X160520000Y-90540000D02*
X160520000Y-92720000D01*
X192360000Y-45640000D02*
G75*
G02*
X194360000Y-47640000I0J-2000000D01*
G01*
X118680000Y-112080000D02*
X106760000Y-112080000D01*
X192360000Y-94720000D02*
X180440000Y-94720000D01*
X63920000Y-77360000D02*
X52000000Y-77360000D01*
X197360000Y-134440000D02*
X197360000Y-136620000D01*
X83840000Y-144800000D02*
G75*
G02*
X81840000Y-146800000I-2000000J0D01*
G01*
X137600000Y-149800000D02*
X106760000Y-149800000D01*
X120680000Y-65000000D02*
X120680000Y-67180000D01*
X197360000Y-125260000D02*
X197360000Y-127440000D01*
X162520000Y-63000000D02*
X174440000Y-63000000D01*
X69920000Y-42640000D02*
X100760000Y-42640000D01*
X180440000Y-146800000D02*
X192360000Y-146800000D01*
X174440000Y-112080000D02*
X162520000Y-112080000D01*
X157520000Y-99720000D02*
X157520000Y-101900000D01*
X123680000Y-99720000D02*
G75*
G02*
X125680000Y-97720000I2000000J0D01*
G01*
X123680000Y-134440000D02*
X123680000Y-136620000D01*
X231200000Y-65000000D02*
X231200000Y-75360000D01*
X120680000Y-134440000D02*
X120680000Y-136620000D01*
X197360000Y-65000000D02*
X197360000Y-67180000D01*
X157520000Y-92720000D02*
G75*
G02*
X155520000Y-94720000I-2000000J0D01*
G01*
X123680000Y-73180000D02*
X123680000Y-75360000D01*
X157520000Y-90540000D02*
X157520000Y-92720000D01*
X63920000Y-112080000D02*
X52000000Y-112080000D01*
X194360000Y-82360000D02*
X194360000Y-84540000D01*
X160520000Y-55820000D02*
X160520000Y-58000000D01*
X211280000Y-77360000D02*
X199360000Y-77360000D01*
X120680000Y-73180000D02*
X120680000Y-75360000D01*
X120680000Y-142620000D02*
X120680000Y-144800000D01*
X192360000Y-129440000D02*
X180440000Y-129440000D01*
X83840000Y-90540000D02*
X83840000Y-92720000D01*
X69920000Y-132440000D02*
X81840000Y-132440000D01*
X211280000Y-112080000D02*
X199360000Y-112080000D01*
X143600000Y-115080000D02*
X155520000Y-115080000D01*
X63920000Y-94720000D02*
X52000000Y-94720000D01*
X125680000Y-129440000D02*
G75*
G02*
X123680000Y-127440000I0J2000000D01*
G01*
X157520000Y-58000000D02*
G75*
G02*
X155520000Y-60000000I-2000000J0D01*
G01*
X143600000Y-97720000D02*
X155520000Y-97720000D01*
X162520000Y-112080000D02*
G75*
G02*
X160520000Y-110080000I0J2000000D01*
G01*
X83840000Y-134440000D02*
X83840000Y-136620000D01*
X157520000Y-47640000D02*
X157520000Y-49820000D01*
X125680000Y-60000000D02*
G75*
G02*
X123680000Y-58000000I0J2000000D01*
G01*
X192360000Y-77360000D02*
X180440000Y-77360000D01*
X123680000Y-65000000D02*
X123680000Y-67180000D01*
X50000000Y-117080000D02*
G75*
G02*
X52000000Y-115080000I2000000J0D01*
G01*
X160520000Y-142620000D02*
X160520000Y-144800000D01*
X120680000Y-82360000D02*
X120680000Y-84540000D01*
X194360000Y-99720000D02*
X194360000Y-101900000D01*
X86840000Y-107900000D02*
X86840000Y-110080000D01*
X52000000Y-132440000D02*
X63920000Y-132440000D01*
X88840000Y-45640000D02*
X100760000Y-45640000D01*
X194360000Y-125260000D02*
X194360000Y-127440000D01*
X231200000Y-58000000D02*
G75*
G02*
X229200000Y-60000000I-2000000J0D01*
G01*
X123680000Y-47640000D02*
G75*
G02*
X125680000Y-45640000I2000000J0D01*
G01*
X199360000Y-63000000D02*
X211280000Y-63000000D01*
X174440000Y-94720000D02*
X162520000Y-94720000D01*
X83840000Y-65000000D02*
X83840000Y-67180000D01*
X143600000Y-45640000D02*
X155520000Y-45640000D01*
X86840000Y-99720000D02*
X86840000Y-101900000D01*
X125680000Y-80360000D02*
X137600000Y-80360000D01*
X118680000Y-132440000D02*
G75*
G02*
X120680000Y-134440000I0J-2000000D01*
G01*
X231200000Y-92720000D02*
G75*
G02*
X229200000Y-94720000I-2000000J0D01*
G01*
X231200000Y-149800000D02*
X231200000Y-157800000D01*
X50000000Y-65000000D02*
G75*
G02*
X52000000Y-63000000I2000000J0D01*
G01*
X199360000Y-146800000D02*
X211280000Y-146800000D01*
X162520000Y-77360000D02*
X174440000Y-77360000D01*
X160520000Y-82360000D02*
G75*
G02*
X162520000Y-80360000I2000000J0D01*
G01*
X118680000Y-45640000D02*
G75*
G02*
X120680000Y-47640000I0J-2000000D01*
G01*
X180440000Y-42640000D02*
X211280000Y-42640000D01*
X157520000Y-65000000D02*
X157520000Y-67180000D01*
X100760000Y-112080000D02*
X88840000Y-112080000D01*
X81840000Y-112080000D02*
X69920000Y-112080000D01*
X100760000Y-97720000D02*
X88840000Y-97720000D01*
X162520000Y-146800000D02*
G75*
G02*
X160520000Y-144800000I0J2000000D01*
G01*
X118680000Y-63000000D02*
G75*
G02*
X120680000Y-65000000I0J-2000000D01*
G01*
X50000000Y-82360000D02*
G75*
G02*
X52000000Y-80360000I2000000J0D01*
G01*
X123680000Y-134440000D02*
G75*
G02*
X125680000Y-132440000I2000000J0D01*
G01*
X174440000Y-149800000D02*
X143600000Y-149800000D01*
X229200000Y-129440000D02*
X217280000Y-129440000D01*
X69920000Y-80360000D02*
X81840000Y-80360000D01*
X192360000Y-112080000D02*
X180440000Y-112080000D01*
X86840000Y-125260000D02*
X86840000Y-127440000D01*
X50000000Y-134440000D02*
G75*
G02*
X52000000Y-132440000I2000000J0D01*
G01*
X217280000Y-97720000D02*
X229200000Y-97720000D01*
X83840000Y-75360000D02*
G75*
G02*
X81840000Y-77360000I-2000000J0D01*
G01*
X199360000Y-94720000D02*
G75*
G02*
X197360000Y-92720000I0J2000000D01*
G01*
X194360000Y-92720000D02*
G75*
G02*
X192360000Y-94720000I-2000000J0D01*
G01*
X157520000Y-125260000D02*
X157520000Y-127440000D01*
X106760000Y-132440000D02*
X118680000Y-132440000D01*
X86840000Y-65000000D02*
X86840000Y-67180000D01*
X123680000Y-142620000D02*
X123680000Y-144800000D01*
X120680000Y-90540000D02*
X120680000Y-92720000D01*
X88840000Y-80360000D02*
X100760000Y-80360000D01*
X125680000Y-60000000D02*
X137600000Y-60000000D01*
X88840000Y-63000000D02*
X100760000Y-63000000D01*
X50000000Y-99720000D02*
G75*
G02*
X52000000Y-97720000I2000000J0D01*
G01*
X69920000Y-63000000D02*
X81840000Y-63000000D01*
X217280000Y-115080000D02*
X229200000Y-115080000D01*
X69920000Y-60000000D02*
X81840000Y-60000000D01*
X197360000Y-99720000D02*
X197360000Y-101900000D01*
X143600000Y-112080000D02*
X155520000Y-112080000D01*
X52000000Y-60000000D02*
X63920000Y-60000000D01*
X52000000Y-77360000D02*
G75*
G02*
X50000000Y-75360000I0J2000000D01*
G01*
X88840000Y-60000000D02*
X100760000Y-60000000D01*
X83840000Y-73180000D02*
X83840000Y-75360000D01*
X162520000Y-97720000D02*
X174440000Y-97720000D01*
X155520000Y-129440000D02*
X143600000Y-129440000D01*
X106760000Y-94720000D02*
X118680000Y-94720000D01*
X120680000Y-110080000D02*
G75*
G02*
X118680000Y-112080000I-2000000J0D01*
G01*
X125680000Y-132440000D02*
X137600000Y-132440000D01*
X106760000Y-63000000D02*
X118680000Y-63000000D01*
X83840000Y-47640000D02*
X83840000Y-49820000D01*
X52000000Y-60000000D02*
G75*
G02*
X50000000Y-58000000I0J2000000D01*
G01*
X194360000Y-65000000D02*
X194360000Y-67180000D01*
X229200000Y-112080000D02*
X217280000Y-112080000D01*
X162520000Y-129440000D02*
G75*
G02*
X160520000Y-127440000I0J2000000D01*
G01*
X180440000Y-45640000D02*
X192360000Y-45640000D01*
X143600000Y-60000000D02*
X155520000Y-60000000D01*
X160520000Y-82360000D02*
X160520000Y-84540000D01*
X88840000Y-146800000D02*
X100760000Y-146800000D01*
X86840000Y-47640000D02*
X86840000Y-49820000D01*
X199360000Y-115080000D02*
X211280000Y-115080000D01*
X162520000Y-45640000D02*
X174440000Y-45640000D01*
X192360000Y-97720000D02*
G75*
G02*
X194360000Y-99720000I0J-2000000D01*
G01*
X52000000Y-112080000D02*
G75*
G02*
X50000000Y-110080000I0J2000000D01*
G01*
X88840000Y-94720000D02*
X100760000Y-94720000D01*
X81840000Y-77360000D02*
X69920000Y-77360000D01*
X86840000Y-73180000D02*
X86840000Y-75360000D01*
X106760000Y-45640000D02*
X118680000Y-45640000D01*
X123680000Y-107900000D02*
X123680000Y-110080000D01*
X155520000Y-45640000D02*
G75*
G02*
X157520000Y-47640000I0J-2000000D01*
G01*
X197360000Y-82360000D02*
G75*
G02*
X199360000Y-80360000I2000000J0D01*
G01*
X125680000Y-97720000D02*
X137600000Y-97720000D01*
X106760000Y-146800000D02*
X118680000Y-146800000D01*
X162520000Y-115080000D02*
X174440000Y-115080000D01*
X137600000Y-94720000D02*
X125680000Y-94720000D01*
X231200000Y-134440000D02*
X231200000Y-144800000D01*
X50000000Y-42640000D02*
X63920000Y-42640000D01*
X81840000Y-97720000D02*
G75*
G02*
X83840000Y-99720000I0J-2000000D01*
G01*
X157520000Y-142620000D02*
X157520000Y-144800000D01*
X157520000Y-82360000D02*
X157520000Y-84540000D01*
X197360000Y-117080000D02*
X197360000Y-119260000D01*
X52000000Y-97720000D02*
X63920000Y-97720000D01*
X143600000Y-146800000D02*
X155520000Y-146800000D01*
X118680000Y-97720000D02*
G75*
G02*
X120680000Y-99720000I0J-2000000D01*
G01*
X120680000Y-55820000D02*
X120680000Y-58000000D01*
X50000000Y-127440000D02*
X50000000Y-117080000D01*
X197360000Y-65000000D02*
G75*
G02*
X199360000Y-63000000I2000000J0D01*
G01*
X125680000Y-63000000D02*
X137600000Y-63000000D01*
X125680000Y-77360000D02*
G75*
G02*
X123680000Y-75360000I0J2000000D01*
G01*
X120680000Y-92720000D02*
G75*
G02*
X118680000Y-94720000I-2000000J0D01*
G01*
X50000000Y-144800000D02*
X50000000Y-134440000D01*
X120680000Y-125260000D02*
X120680000Y-127440000D01*
X81840000Y-45640000D02*
G75*
G02*
X83840000Y-47640000I0J-2000000D01*
G01*
X229200000Y-77360000D02*
X217280000Y-77360000D01*
X52000000Y-63000000D02*
X63920000Y-63000000D01*
X180440000Y-60000000D02*
X192360000Y-60000000D01*
X83840000Y-92720000D02*
G75*
G02*
X81840000Y-94720000I-2000000J0D01*
G01*
X199360000Y-60000000D02*
G75*
G02*
X197360000Y-58000000I0J2000000D01*
G01*
X63920000Y-149800000D02*
X50000000Y-149800000D01*
X83840000Y-117080000D02*
X83840000Y-119260000D01*
X229200000Y-80360000D02*
G75*
G02*
X231200000Y-82360000I0J-2000000D01*
G01*
X160520000Y-99720000D02*
X160520000Y-101900000D01*
X231200000Y-75360000D02*
G75*
G02*
X229200000Y-77360000I-2000000J0D01*
G01*
X217280000Y-45640000D02*
X229200000Y-45640000D01*
X118680000Y-115080000D02*
G75*
G02*
X120680000Y-117080000I0J-2000000D01*
G01*
X52000000Y-94720000D02*
G75*
G02*
X50000000Y-92720000I0J2000000D01*
G01*
X52000000Y-146800000D02*
G75*
G02*
X50000000Y-144800000I0J2000000D01*
G01*
X229200000Y-45640000D02*
G75*
G02*
X231200000Y-47640000I0J-2000000D01*
G01*
X229200000Y-115080000D02*
G75*
G02*
X231200000Y-117080000I0J-2000000D01*
G01*
X199360000Y-60000000D02*
X211280000Y-60000000D01*
X83840000Y-58000000D02*
G75*
G02*
X81840000Y-60000000I-2000000J0D01*
G01*
X137600000Y-77360000D02*
X125680000Y-77360000D01*
X194360000Y-73180000D02*
X194360000Y-75360000D01*
X162520000Y-146800000D02*
X174440000Y-146800000D01*
X160520000Y-65000000D02*
G75*
G02*
X162520000Y-63000000I2000000J0D01*
G01*
X192360000Y-80360000D02*
G75*
G02*
X194360000Y-82360000I0J-2000000D01*
G01*
X192360000Y-115080000D02*
G75*
G02*
X194360000Y-117080000I0J-2000000D01*
G01*
X197360000Y-90540000D02*
X197360000Y-92720000D01*
X194360000Y-117080000D02*
X194360000Y-119260000D01*
X125680000Y-45640000D02*
X137600000Y-45640000D01*
X197360000Y-47640000D02*
G75*
G02*
X199360000Y-45640000I2000000J0D01*
G01*
X157520000Y-117080000D02*
X157520000Y-119260000D01*
X155520000Y-77360000D02*
X143600000Y-77360000D01*
X155520000Y-115080000D02*
G75*
G02*
X157520000Y-117080000I0J-2000000D01*
G01*
X81840000Y-80360000D02*
G75*
G02*
X83840000Y-82360000I0J-2000000D01*
G01*
X118680000Y-77360000D02*
X106760000Y-77360000D01*
X231200000Y-110080000D02*
G75*
G02*
X229200000Y-112080000I-2000000J0D01*
G01*
X81840000Y-63000000D02*
G75*
G02*
X83840000Y-65000000I0J-2000000D01*
G01*
X125680000Y-146800000D02*
G75*
G02*
X123680000Y-144800000I0J2000000D01*
G01*
X197360000Y-99720000D02*
G75*
G02*
X199360000Y-97720000I2000000J0D01*
G01*
X88840000Y-132440000D02*
X100760000Y-132440000D01*
X100760000Y-129440000D02*
X88840000Y-129440000D01*
X88840000Y-94720000D02*
G75*
G02*
X86840000Y-92720000I0J2000000D01*
G01*
X217280000Y-80360000D02*
X229200000Y-80360000D01*
X125680000Y-112080000D02*
G75*
G02*
X123680000Y-110080000I0J2000000D01*
G01*
X199360000Y-112080000D02*
G75*
G02*
X197360000Y-110080000I0J2000000D01*
G01*
X229200000Y-94720000D02*
X217280000Y-94720000D01*
X120680000Y-144800000D02*
G75*
G02*
X118680000Y-146800000I-2000000J0D01*
G01*
X197360000Y-142620000D02*
X197360000Y-144800000D01*
X69920000Y-146800000D02*
X81840000Y-146800000D01*
X162520000Y-80360000D02*
X174440000Y-80360000D01*
X199360000Y-45640000D02*
X211280000Y-45640000D01*
X118680000Y-97720000D02*
X106760000Y-97720000D01*
X199360000Y-129440000D02*
G75*
G02*
X197360000Y-127440000I0J2000000D01*
G01*
X199360000Y-94720000D02*
X211280000Y-94720000D01*
X194360000Y-47640000D02*
X194360000Y-49820000D01*
X137600000Y-129440000D02*
X125680000Y-129440000D01*
X157520000Y-55820000D02*
X157520000Y-58000000D01*
X217280000Y-132440000D02*
X229200000Y-132440000D01*
X52000000Y-45640000D02*
X63920000Y-45640000D01*
X86840000Y-65000000D02*
G75*
G02*
X88840000Y-63000000I2000000J0D01*
G01*
X123680000Y-65000000D02*
G75*
G02*
X125680000Y-63000000I2000000J0D01*
G01*
X160520000Y-125260000D02*
X160520000Y-127440000D01*
X81840000Y-94720000D02*
X69920000Y-94720000D01*
X120680000Y-47640000D02*
X120680000Y-49820000D01*
X180440000Y-132440000D02*
X192360000Y-132440000D01*
X50000000Y-110080000D02*
X50000000Y-99720000D01*
X50000000Y-157800000D02*
X231200000Y-157800000D01*
X229200000Y-63000000D02*
G75*
G02*
X231200000Y-65000000I0J-2000000D01*
G01*
X229200000Y-132440000D02*
G75*
G02*
X231200000Y-134440000I0J-2000000D01*
G01*
X123680000Y-82360000D02*
X123680000Y-84540000D01*
X88840000Y-115080000D02*
X100760000Y-115080000D01*
X194360000Y-142620000D02*
X194360000Y-144800000D01*
X199360000Y-97720000D02*
X211280000Y-97720000D01*
X155520000Y-63000000D02*
G75*
G02*
X157520000Y-65000000I0J-2000000D01*
G01*
X157520000Y-75360000D02*
G75*
G02*
X155520000Y-77360000I-2000000J0D01*
G01*
X157520000Y-127440000D02*
G75*
G02*
X155520000Y-129440000I-2000000J0D01*
G01*
X162520000Y-60000000D02*
X174440000Y-60000000D01*
X229200000Y-97720000D02*
G75*
G02*
X231200000Y-99720000I0J-2000000D01*
G01*
X231200000Y-99720000D02*
X231200000Y-110080000D01*
X192360000Y-63000000D02*
G75*
G02*
X194360000Y-65000000I0J-2000000D01*
G01*
X194360000Y-144800000D02*
G75*
G02*
X192360000Y-146800000I-2000000J0D01*
G01*
X160520000Y-136620000D02*
X160520000Y-134440000D01*
X88840000Y-112080000D02*
G75*
G02*
X86840000Y-110080000I0J2000000D01*
G01*
X50000000Y-34640000D02*
X231200000Y-34640000D01*
X86840000Y-55820000D02*
X86840000Y-58000000D01*
X50000000Y-47640000D02*
G75*
G02*
X52000000Y-45640000I2000000J0D01*
G01*
X120680000Y-127440000D02*
G75*
G02*
X118680000Y-129440000I-2000000J0D01*
G01*
X197360000Y-82360000D02*
X197360000Y-84540000D01*
X231200000Y-144800000D02*
G75*
G02*
X229200000Y-146800000I-2000000J0D01*
G01*
X143600000Y-63000000D02*
X155520000Y-63000000D01*
X160520000Y-134440000D02*
G75*
G02*
X162520000Y-132440000I2000000J0D01*
G01*
X88840000Y-146800000D02*
G75*
G02*
X86840000Y-144800000I0J2000000D01*
G01*
X199360000Y-146800000D02*
G75*
G02*
X197360000Y-144800000I0J2000000D01*
G01*
X81840000Y-115080000D02*
G75*
G02*
X83840000Y-117080000I0J-2000000D01*
G01*
X50000000Y-58000000D02*
X50000000Y-47640000D01*
X86840000Y-117080000D02*
G75*
G02*
X88840000Y-115080000I2000000J0D01*
G01*
X217280000Y-63000000D02*
X229200000Y-63000000D01*
X86840000Y-82360000D02*
G75*
G02*
X88840000Y-80360000I2000000J0D01*
G01*
X125680000Y-112080000D02*
X137600000Y-112080000D01*
X157520000Y-73180000D02*
X157520000Y-75360000D01*
X86840000Y-90540000D02*
X86840000Y-92720000D01*
X155520000Y-97720000D02*
G75*
G02*
X157520000Y-99720000I0J-2000000D01*
G01*
X211280000Y-129440000D02*
X199360000Y-129440000D01*
X125680000Y-146800000D02*
X137600000Y-146800000D01*
X199360000Y-77360000D02*
G75*
G02*
X197360000Y-75360000I0J2000000D01*
G01*
X106760000Y-115080000D02*
X118680000Y-115080000D01*
X217280000Y-42640000D02*
X231200000Y-42640000D01*
X120680000Y-58000000D02*
G75*
G02*
X118680000Y-60000000I-2000000J0D01*
G01*
X123680000Y-117080000D02*
G75*
G02*
X125680000Y-115080000I2000000J0D01*
G01*
X125680000Y-115080000D02*
X137600000Y-115080000D01*
X83840000Y-142620000D02*
X83840000Y-144800000D01*
X155520000Y-132440000D02*
G75*
G02*
X157520000Y-134440000I0J-2000000D01*
G01*
X174440000Y-129440000D02*
X162520000Y-129440000D01*
X211280000Y-149800000D02*
X180440000Y-149800000D01*
X120680000Y-75360000D02*
G75*
G02*
X118680000Y-77360000I-2000000J0D01*
G01*
X123680000Y-99720000D02*
X123680000Y-101900000D01*
X180440000Y-97720000D02*
X192360000Y-97720000D01*
%TO.C,mouse-bite-3mm-slot*%
X174440000Y-94720000D02*
G75*
G02*
X174440000Y-97720000I0J-1500000D01*
G01*
X180440000Y-97720000D02*
G75*
G02*
X180440000Y-94720000I0J1500000D01*
G01*
X174440000Y-112080000D02*
G75*
G02*
X174440000Y-115080000I0J-1500000D01*
G01*
X180440000Y-115080000D02*
G75*
G02*
X180440000Y-112080000I0J1500000D01*
G01*
X211280000Y-42640000D02*
G75*
G02*
X211280000Y-45640000I0J-1500000D01*
G01*
X217280000Y-45640000D02*
G75*
G02*
X217280000Y-42640000I0J1500000D01*
G01*
D11*
X157520000Y-90540000D02*
G75*
G02*
X160520000Y-90540000I1500000J0D01*
G01*
X160520000Y-84540000D02*
G75*
G02*
X157520000Y-84540000I-1500000J0D01*
G01*
X120680000Y-90540000D02*
G75*
G02*
X123680000Y-90540000I1500000J0D01*
G01*
X123680000Y-84540000D02*
G75*
G02*
X120680000Y-84540000I-1500000J0D01*
G01*
D10*
X100760000Y-94720000D02*
G75*
G02*
X100760000Y-97720000I0J-1500000D01*
G01*
X106760000Y-97720000D02*
G75*
G02*
X106760000Y-94720000I0J1500000D01*
G01*
D11*
X194360000Y-142620000D02*
G75*
G02*
X197360000Y-142620000I1500000J0D01*
G01*
X197360000Y-136620000D02*
G75*
G02*
X194360000Y-136620000I-1500000J0D01*
G01*
D10*
X100760000Y-112080000D02*
G75*
G02*
X100760000Y-115080000I0J-1500000D01*
G01*
X106760000Y-115080000D02*
G75*
G02*
X106760000Y-112080000I0J1500000D01*
G01*
D11*
X120680000Y-73180000D02*
G75*
G02*
X123680000Y-73180000I1500000J0D01*
G01*
X123680000Y-67180000D02*
G75*
G02*
X120680000Y-67180000I-1500000J0D01*
G01*
D10*
X63920000Y-42640000D02*
G75*
G02*
X63920000Y-45640000I0J-1500000D01*
G01*
X69920000Y-45640000D02*
G75*
G02*
X69920000Y-42640000I0J1500000D01*
G01*
D11*
X194360000Y-125260000D02*
G75*
G02*
X197360000Y-125260000I1500000J0D01*
G01*
X197360000Y-119260000D02*
G75*
G02*
X194360000Y-119260000I-1500000J0D01*
G01*
X157520000Y-73180000D02*
G75*
G02*
X160520000Y-73180000I1500000J0D01*
G01*
X160520000Y-67180000D02*
G75*
G02*
X157520000Y-67180000I-1500000J0D01*
G01*
X157520000Y-142620000D02*
G75*
G02*
X160520000Y-142620000I1500000J0D01*
G01*
X160520000Y-136620000D02*
G75*
G02*
X157520000Y-136620000I-1500000J0D01*
G01*
D10*
X137600000Y-94720000D02*
G75*
G02*
X137600000Y-97720000I0J-1500000D01*
G01*
X143600000Y-97720000D02*
G75*
G02*
X143600000Y-94720000I0J1500000D01*
G01*
D11*
X120680000Y-55820000D02*
G75*
G02*
X123680000Y-55820000I1500000J0D01*
G01*
X123680000Y-49820000D02*
G75*
G02*
X120680000Y-49820000I-1500000J0D01*
G01*
D10*
X211280000Y-112080000D02*
G75*
G02*
X211280000Y-115080000I0J-1500000D01*
G01*
X217280000Y-115080000D02*
G75*
G02*
X217280000Y-112080000I0J1500000D01*
G01*
X100760000Y-60000000D02*
G75*
G02*
X100760000Y-63000000I0J-1500000D01*
G01*
X106760000Y-63000000D02*
G75*
G02*
X106760000Y-60000000I0J1500000D01*
G01*
X211280000Y-94720000D02*
G75*
G02*
X211280000Y-97720000I0J-1500000D01*
G01*
X217280000Y-97720000D02*
G75*
G02*
X217280000Y-94720000I0J1500000D01*
G01*
X211280000Y-146800000D02*
G75*
G02*
X211280000Y-149800000I0J-1500000D01*
G01*
X217280000Y-149800000D02*
G75*
G02*
X217280000Y-146800000I0J1500000D01*
G01*
X100760000Y-77360000D02*
G75*
G02*
X100760000Y-80360000I0J-1500000D01*
G01*
X106760000Y-80360000D02*
G75*
G02*
X106760000Y-77360000I0J1500000D01*
G01*
X194360000Y-55820000D02*
G75*
G02*
X197360000Y-55820000I1500000J0D01*
G01*
X197360000Y-49820000D02*
G75*
G02*
X194360000Y-49820000I-1500000J0D01*
G01*
D11*
X157520000Y-107900000D02*
G75*
G02*
X160520000Y-107900000I1500000J0D01*
G01*
X160520000Y-101900000D02*
G75*
G02*
X157520000Y-101900000I-1500000J0D01*
G01*
D10*
X137600000Y-112080000D02*
G75*
G02*
X137600000Y-115080000I0J-1500000D01*
G01*
X143600000Y-115080000D02*
G75*
G02*
X143600000Y-112080000I0J1500000D01*
G01*
X211280000Y-129440000D02*
G75*
G02*
X211280000Y-132440000I0J-1500000D01*
G01*
X217280000Y-132440000D02*
G75*
G02*
X217280000Y-129440000I0J1500000D01*
G01*
D11*
X194360000Y-90540000D02*
G75*
G02*
X197360000Y-90540000I1500000J0D01*
G01*
X197360000Y-84540000D02*
G75*
G02*
X194360000Y-84540000I-1500000J0D01*
G01*
D10*
X63920000Y-146800000D02*
G75*
G02*
X63920000Y-149800000I0J-1500000D01*
G01*
X69920000Y-149800000D02*
G75*
G02*
X69920000Y-146800000I0J1500000D01*
G01*
X174440000Y-60000000D02*
G75*
G02*
X174440000Y-63000000I0J-1500000D01*
G01*
X180440000Y-63000000D02*
G75*
G02*
X180440000Y-60000000I0J1500000D01*
G01*
D11*
X83840000Y-125260000D02*
G75*
G02*
X86840000Y-125260000I1500000J0D01*
G01*
X86840000Y-119260000D02*
G75*
G02*
X83840000Y-119260000I-1500000J0D01*
G01*
D10*
X100760000Y-129440000D02*
G75*
G02*
X100760000Y-132440000I0J-1500000D01*
G01*
X106760000Y-132440000D02*
G75*
G02*
X106760000Y-129440000I0J1500000D01*
G01*
X100760000Y-146800000D02*
G75*
G02*
X100760000Y-149800000I0J-1500000D01*
G01*
X106760000Y-149800000D02*
G75*
G02*
X106760000Y-146800000I0J1500000D01*
G01*
X137600000Y-146800000D02*
G75*
G02*
X137600000Y-149800000I0J-1500000D01*
G01*
X143600000Y-149800000D02*
G75*
G02*
X143600000Y-146800000I0J1500000D01*
G01*
X211280000Y-60000000D02*
G75*
G02*
X211280000Y-63000000I0J-1500000D01*
G01*
X217280000Y-63000000D02*
G75*
G02*
X217280000Y-60000000I0J1500000D01*
G01*
X63920000Y-60000000D02*
G75*
G02*
X63920000Y-63000000I0J-1500000D01*
G01*
X69920000Y-63000000D02*
G75*
G02*
X69920000Y-60000000I0J1500000D01*
G01*
X83840000Y-73180000D02*
G75*
G02*
X86840000Y-73180000I1500000J0D01*
G01*
X86840000Y-67180000D02*
G75*
G02*
X83840000Y-67180000I-1500000J0D01*
G01*
X100760000Y-42640000D02*
G75*
G02*
X100760000Y-45640000I0J-1500000D01*
G01*
X106760000Y-45640000D02*
G75*
G02*
X106760000Y-42640000I0J1500000D01*
G01*
X137600000Y-60000000D02*
G75*
G02*
X137600000Y-63000000I0J-1500000D01*
G01*
X143600000Y-63000000D02*
G75*
G02*
X143600000Y-60000000I0J1500000D01*
G01*
X63920000Y-112080000D02*
G75*
G02*
X63920000Y-115080000I0J-1500000D01*
G01*
X69920000Y-115080000D02*
G75*
G02*
X69920000Y-112080000I0J1500000D01*
G01*
D11*
X157520000Y-55820000D02*
G75*
G02*
X160520000Y-55820000I1500000J0D01*
G01*
X160520000Y-49820000D02*
G75*
G02*
X157520000Y-49820000I-1500000J0D01*
G01*
D10*
X211280000Y-77360000D02*
G75*
G02*
X211280000Y-80360000I0J-1500000D01*
G01*
X217280000Y-80360000D02*
G75*
G02*
X217280000Y-77360000I0J1500000D01*
G01*
D11*
X194360000Y-107900000D02*
G75*
G02*
X197360000Y-107900000I1500000J0D01*
G01*
X197360000Y-101900000D02*
G75*
G02*
X194360000Y-101900000I-1500000J0D01*
G01*
X83840000Y-90540000D02*
G75*
G02*
X86840000Y-90540000I1500000J0D01*
G01*
X86840000Y-84540000D02*
G75*
G02*
X83840000Y-84540000I-1500000J0D01*
G01*
D10*
X174440000Y-42640000D02*
G75*
G02*
X174440000Y-45640000I0J-1500000D01*
G01*
X180440000Y-45640000D02*
G75*
G02*
X180440000Y-42640000I0J1500000D01*
G01*
X63920000Y-94720000D02*
G75*
G02*
X63920000Y-97720000I0J-1500000D01*
G01*
X69920000Y-97720000D02*
G75*
G02*
X69920000Y-94720000I0J1500000D01*
G01*
X174440000Y-129440000D02*
G75*
G02*
X174440000Y-132440000I0J-1500000D01*
G01*
X180440000Y-132440000D02*
G75*
G02*
X180440000Y-129440000I0J1500000D01*
G01*
D11*
X83840000Y-142620000D02*
G75*
G02*
X86840000Y-142620000I1500000J0D01*
G01*
X86840000Y-136620000D02*
G75*
G02*
X83840000Y-136620000I-1500000J0D01*
G01*
X83840000Y-107900000D02*
G75*
G02*
X86840000Y-107900000I1500000J0D01*
G01*
X86840000Y-101900000D02*
G75*
G02*
X83840000Y-101900000I-1500000J0D01*
G01*
X83840000Y-55820000D02*
G75*
G02*
X86840000Y-55820000I1500000J0D01*
G01*
X86840000Y-49820000D02*
G75*
G02*
X83840000Y-49820000I-1500000J0D01*
G01*
X157520000Y-125260000D02*
G75*
G02*
X160520000Y-125260000I1500000J0D01*
G01*
X160520000Y-119260000D02*
G75*
G02*
X157520000Y-119260000I-1500000J0D01*
G01*
D10*
X137600000Y-77360000D02*
G75*
G02*
X137600000Y-80360000I0J-1500000D01*
G01*
X143600000Y-80360000D02*
G75*
G02*
X143600000Y-77360000I0J1500000D01*
G01*
X137600000Y-42640000D02*
G75*
G02*
X137600000Y-45640000I0J-1500000D01*
G01*
X143600000Y-45640000D02*
G75*
G02*
X143600000Y-42640000I0J1500000D01*
G01*
D11*
X120680000Y-107900000D02*
G75*
G02*
X123680000Y-107900000I1500000J0D01*
G01*
X123680000Y-101900000D02*
G75*
G02*
X120680000Y-101900000I-1500000J0D01*
G01*
D10*
X137600000Y-129440000D02*
G75*
G02*
X137600000Y-132440000I0J-1500000D01*
G01*
X143600000Y-132440000D02*
G75*
G02*
X143600000Y-129440000I0J1500000D01*
G01*
X63920000Y-77360000D02*
G75*
G02*
X63920000Y-80360000I0J-1500000D01*
G01*
X69920000Y-80360000D02*
G75*
G02*
X69920000Y-77360000I0J1500000D01*
G01*
X174440000Y-77360000D02*
G75*
G02*
X174440000Y-80360000I0J-1500000D01*
G01*
X180440000Y-80360000D02*
G75*
G02*
X180440000Y-77360000I0J1500000D01*
G01*
D11*
X120680000Y-142620000D02*
G75*
G02*
X123680000Y-142620000I1500000J0D01*
G01*
X123680000Y-136620000D02*
G75*
G02*
X120680000Y-136620000I-1500000J0D01*
G01*
X194360000Y-73180000D02*
G75*
G02*
X197360000Y-73180000I1500000J0D01*
G01*
X197360000Y-67180000D02*
G75*
G02*
X194360000Y-67180000I-1500000J0D01*
G01*
D10*
X63920000Y-129440000D02*
G75*
G02*
X63920000Y-132440000I0J-1500000D01*
G01*
X69920000Y-132440000D02*
G75*
G02*
X69920000Y-129440000I0J1500000D01*
G01*
X174440000Y-146800000D02*
G75*
G02*
X174440000Y-149800000I0J-1500000D01*
G01*
X180440000Y-149800000D02*
G75*
G02*
X180440000Y-146800000I0J1500000D01*
G01*
D11*
X120680000Y-125260000D02*
G75*
G02*
X123680000Y-125260000I1500000J0D01*
G01*
X123680000Y-119260000D02*
G75*
G02*
X120680000Y-119260000I-1500000J0D01*
G01*
%TD*%
M02*
