%TF.GenerationSoftware,KiCad,Pcbnew,8.0.1*%
%TF.CreationDate,2024-05-29T13:53:08-05:00*%
%TF.ProjectId,eve PCB Project,65766520-5043-4422-9050-726f6a656374,rev?*%
%TF.SameCoordinates,Original*%
%TF.FileFunction,Paste,Top*%
%TF.FilePolarity,Positive*%
%FSLAX46Y46*%
G04 Gerber Fmt 4.6, Leading zero omitted, Abs format (unit mm)*
G04 Created by KiCad (PCBNEW 8.0.1) date 2024-05-29 13:53:08*
%MOMM*%
%LPD*%
G01*
G04 APERTURE LIST*
G04 Aperture macros list*
%AMRoundRect*
0 Rectangle with rounded corners*
0 $1 Rounding radius*
0 $2 $3 $4 $5 $6 $7 $8 $9 X,Y pos of 4 corners*
0 Add a 4 corners polygon primitive as box body*
4,1,4,$2,$3,$4,$5,$6,$7,$8,$9,$2,$3,0*
0 Add four circle primitives for the rounded corners*
1,1,$1+$1,$2,$3*
1,1,$1+$1,$4,$5*
1,1,$1+$1,$6,$7*
1,1,$1+$1,$8,$9*
0 Add four rect primitives between the rounded corners*
20,1,$1+$1,$2,$3,$4,$5,0*
20,1,$1+$1,$4,$5,$6,$7,0*
20,1,$1+$1,$6,$7,$8,$9,0*
20,1,$1+$1,$8,$9,$2,$3,0*%
G04 Aperture macros list end*
%ADD10RoundRect,0.150000X0.300000X-0.150000X0.300000X0.150000X-0.300000X0.150000X-0.300000X-0.150000X0*%
%ADD11RoundRect,0.150000X-0.150000X-0.300000X0.150000X-0.300000X0.150000X0.300000X-0.150000X0.300000X0*%
%ADD12RoundRect,0.150000X-0.150000X-0.375000X0.150000X-0.375000X0.150000X0.375000X-0.150000X0.375000X0*%
%ADD13RoundRect,0.150000X0.512500X0.150000X-0.512500X0.150000X-0.512500X-0.150000X0.512500X-0.150000X0*%
%ADD14RoundRect,0.250000X0.625000X-0.375000X0.625000X0.375000X-0.625000X0.375000X-0.625000X-0.375000X0*%
G04 APERTURE END LIST*
D10*
%TO.C,Q1*%
X168500000Y-87155000D03*
X169650000Y-87155000D03*
X170800000Y-87155000D03*
X168500000Y-86305000D03*
X169650000Y-86305000D03*
X170800000Y-86305000D03*
X168500000Y-85455000D03*
X169650000Y-85455000D03*
X170800000Y-85455000D03*
D11*
X167770000Y-83605000D03*
X169050000Y-83605000D03*
X170250000Y-83605000D03*
X171530000Y-83605000D03*
D12*
X167740000Y-89325000D03*
X169010000Y-89325000D03*
X170290000Y-89325000D03*
X171560000Y-89325000D03*
%TD*%
D13*
%TO.C,U1*%
X128227500Y-121090000D03*
X128227500Y-120140000D03*
X128227500Y-119190000D03*
X125952500Y-119190000D03*
X125952500Y-120140000D03*
X125952500Y-121090000D03*
%TD*%
D10*
%TO.C,Q4*%
X148160000Y-87155000D03*
X149310000Y-87155000D03*
X150460000Y-87155000D03*
X148160000Y-86305000D03*
X149310000Y-86305000D03*
X150460000Y-86305000D03*
X148160000Y-85455000D03*
X149310000Y-85455000D03*
X150460000Y-85455000D03*
D11*
X147430000Y-83605000D03*
X148710000Y-83605000D03*
X149910000Y-83605000D03*
X151190000Y-83605000D03*
D12*
X147400000Y-89325000D03*
X148670000Y-89325000D03*
X149950000Y-89325000D03*
X151220000Y-89325000D03*
%TD*%
D14*
%TO.C,F1*%
X117760000Y-105340000D03*
X117760000Y-102540000D03*
%TD*%
D10*
%TO.C,Q3*%
X68980000Y-121875000D03*
X70130000Y-121875000D03*
X71280000Y-121875000D03*
X68980000Y-121025000D03*
X70130000Y-121025000D03*
X71280000Y-121025000D03*
X68980000Y-120175000D03*
X70130000Y-120175000D03*
X71280000Y-120175000D03*
D11*
X68250000Y-118325000D03*
X69530000Y-118325000D03*
X70730000Y-118325000D03*
X72010000Y-118325000D03*
D12*
X68220000Y-124045000D03*
X69490000Y-124045000D03*
X70770000Y-124045000D03*
X72040000Y-124045000D03*
%TD*%
D14*
%TO.C,F1*%
X117760000Y-140060000D03*
X117760000Y-137260000D03*
%TD*%
D10*
%TO.C,Q1*%
X205340000Y-121875000D03*
X206490000Y-121875000D03*
X207640000Y-121875000D03*
X205340000Y-121025000D03*
X206490000Y-121025000D03*
X207640000Y-121025000D03*
X205340000Y-120175000D03*
X206490000Y-120175000D03*
X207640000Y-120175000D03*
D11*
X204610000Y-118325000D03*
X205890000Y-118325000D03*
X207090000Y-118325000D03*
X208370000Y-118325000D03*
D12*
X204580000Y-124045000D03*
X205850000Y-124045000D03*
X207130000Y-124045000D03*
X208400000Y-124045000D03*
%TD*%
D13*
%TO.C,U1*%
X91387500Y-51650000D03*
X91387500Y-50700000D03*
X91387500Y-49750000D03*
X89112500Y-49750000D03*
X89112500Y-50700000D03*
X89112500Y-51650000D03*
%TD*%
D10*
%TO.C,Q3*%
X105820000Y-104515000D03*
X106970000Y-104515000D03*
X108120000Y-104515000D03*
X105820000Y-103665000D03*
X106970000Y-103665000D03*
X108120000Y-103665000D03*
X105820000Y-102815000D03*
X106970000Y-102815000D03*
X108120000Y-102815000D03*
D11*
X105090000Y-100965000D03*
X106370000Y-100965000D03*
X107570000Y-100965000D03*
X108850000Y-100965000D03*
D12*
X105060000Y-106685000D03*
X106330000Y-106685000D03*
X107610000Y-106685000D03*
X108880000Y-106685000D03*
%TD*%
D10*
%TO.C,Q2*%
X137160000Y-139235000D03*
X138310000Y-139235000D03*
X139460000Y-139235000D03*
X137160000Y-138385000D03*
X138310000Y-138385000D03*
X139460000Y-138385000D03*
X137160000Y-137535000D03*
X138310000Y-137535000D03*
X139460000Y-137535000D03*
D11*
X136430000Y-135685000D03*
X137710000Y-135685000D03*
X138910000Y-135685000D03*
X140190000Y-135685000D03*
D12*
X136400000Y-141405000D03*
X137670000Y-141405000D03*
X138950000Y-141405000D03*
X140220000Y-141405000D03*
%TD*%
D10*
%TO.C,Q3*%
X216340000Y-69795000D03*
X217490000Y-69795000D03*
X218640000Y-69795000D03*
X216340000Y-68945000D03*
X217490000Y-68945000D03*
X218640000Y-68945000D03*
X216340000Y-68095000D03*
X217490000Y-68095000D03*
X218640000Y-68095000D03*
D11*
X215610000Y-66245000D03*
X216890000Y-66245000D03*
X218090000Y-66245000D03*
X219370000Y-66245000D03*
D12*
X215580000Y-71965000D03*
X216850000Y-71965000D03*
X218130000Y-71965000D03*
X219400000Y-71965000D03*
%TD*%
D10*
%TO.C,Q3*%
X179500000Y-121875000D03*
X180650000Y-121875000D03*
X181800000Y-121875000D03*
X179500000Y-121025000D03*
X180650000Y-121025000D03*
X181800000Y-121025000D03*
X179500000Y-120175000D03*
X180650000Y-120175000D03*
X181800000Y-120175000D03*
D11*
X178770000Y-118325000D03*
X180050000Y-118325000D03*
X181250000Y-118325000D03*
X182530000Y-118325000D03*
D12*
X178740000Y-124045000D03*
X180010000Y-124045000D03*
X181290000Y-124045000D03*
X182560000Y-124045000D03*
%TD*%
D13*
%TO.C,U1*%
X91387500Y-69010000D03*
X91387500Y-68060000D03*
X91387500Y-67110000D03*
X89112500Y-67110000D03*
X89112500Y-68060000D03*
X89112500Y-69010000D03*
%TD*%
D10*
%TO.C,Q3*%
X68980000Y-87155000D03*
X70130000Y-87155000D03*
X71280000Y-87155000D03*
X68980000Y-86305000D03*
X70130000Y-86305000D03*
X71280000Y-86305000D03*
X68980000Y-85455000D03*
X70130000Y-85455000D03*
X71280000Y-85455000D03*
D11*
X68250000Y-83605000D03*
X69530000Y-83605000D03*
X70730000Y-83605000D03*
X72010000Y-83605000D03*
D12*
X68220000Y-89325000D03*
X69490000Y-89325000D03*
X70770000Y-89325000D03*
X72040000Y-89325000D03*
%TD*%
D10*
%TO.C,Q4*%
X185000000Y-104515000D03*
X186150000Y-104515000D03*
X187300000Y-104515000D03*
X185000000Y-103665000D03*
X186150000Y-103665000D03*
X187300000Y-103665000D03*
X185000000Y-102815000D03*
X186150000Y-102815000D03*
X187300000Y-102815000D03*
D11*
X184270000Y-100965000D03*
X185550000Y-100965000D03*
X186750000Y-100965000D03*
X188030000Y-100965000D03*
D12*
X184240000Y-106685000D03*
X185510000Y-106685000D03*
X186790000Y-106685000D03*
X188060000Y-106685000D03*
%TD*%
D10*
%TO.C,Q3*%
X105820000Y-52435000D03*
X106970000Y-52435000D03*
X108120000Y-52435000D03*
X105820000Y-51585000D03*
X106970000Y-51585000D03*
X108120000Y-51585000D03*
X105820000Y-50735000D03*
X106970000Y-50735000D03*
X108120000Y-50735000D03*
D11*
X105090000Y-48885000D03*
X106370000Y-48885000D03*
X107570000Y-48885000D03*
X108850000Y-48885000D03*
D12*
X105060000Y-54605000D03*
X106330000Y-54605000D03*
X107610000Y-54605000D03*
X108880000Y-54605000D03*
%TD*%
D13*
%TO.C,U1*%
X128227500Y-69010000D03*
X128227500Y-68060000D03*
X128227500Y-67110000D03*
X125952500Y-67110000D03*
X125952500Y-68060000D03*
X125952500Y-69010000D03*
%TD*%
D10*
%TO.C,Q4*%
X111320000Y-121875000D03*
X112470000Y-121875000D03*
X113620000Y-121875000D03*
X111320000Y-121025000D03*
X112470000Y-121025000D03*
X113620000Y-121025000D03*
X111320000Y-120175000D03*
X112470000Y-120175000D03*
X113620000Y-120175000D03*
D11*
X110590000Y-118325000D03*
X111870000Y-118325000D03*
X113070000Y-118325000D03*
X114350000Y-118325000D03*
D12*
X110560000Y-124045000D03*
X111830000Y-124045000D03*
X113110000Y-124045000D03*
X114380000Y-124045000D03*
%TD*%
D13*
%TO.C,U1*%
X165067500Y-121090000D03*
X165067500Y-120140000D03*
X165067500Y-119190000D03*
X162792500Y-119190000D03*
X162792500Y-120140000D03*
X162792500Y-121090000D03*
%TD*%
%TO.C,U1*%
X54547500Y-103730000D03*
X54547500Y-102780000D03*
X54547500Y-101830000D03*
X52272500Y-101830000D03*
X52272500Y-102780000D03*
X52272500Y-103730000D03*
%TD*%
D10*
%TO.C,Q3*%
X68980000Y-52435000D03*
X70130000Y-52435000D03*
X71280000Y-52435000D03*
X68980000Y-51585000D03*
X70130000Y-51585000D03*
X71280000Y-51585000D03*
X68980000Y-50735000D03*
X70130000Y-50735000D03*
X71280000Y-50735000D03*
D11*
X68250000Y-48885000D03*
X69530000Y-48885000D03*
X70730000Y-48885000D03*
X72010000Y-48885000D03*
D12*
X68220000Y-54605000D03*
X69490000Y-54605000D03*
X70770000Y-54605000D03*
X72040000Y-54605000D03*
%TD*%
D14*
%TO.C,F1*%
X80920000Y-53260000D03*
X80920000Y-50460000D03*
%TD*%
D10*
%TO.C,Q4*%
X185000000Y-139235000D03*
X186150000Y-139235000D03*
X187300000Y-139235000D03*
X185000000Y-138385000D03*
X186150000Y-138385000D03*
X187300000Y-138385000D03*
X185000000Y-137535000D03*
X186150000Y-137535000D03*
X187300000Y-137535000D03*
D11*
X184270000Y-135685000D03*
X185550000Y-135685000D03*
X186750000Y-135685000D03*
X188030000Y-135685000D03*
D12*
X184240000Y-141405000D03*
X185510000Y-141405000D03*
X186790000Y-141405000D03*
X188060000Y-141405000D03*
%TD*%
D10*
%TO.C,Q4*%
X148160000Y-104515000D03*
X149310000Y-104515000D03*
X150460000Y-104515000D03*
X148160000Y-103665000D03*
X149310000Y-103665000D03*
X150460000Y-103665000D03*
X148160000Y-102815000D03*
X149310000Y-102815000D03*
X150460000Y-102815000D03*
D11*
X147430000Y-100965000D03*
X148710000Y-100965000D03*
X149910000Y-100965000D03*
X151190000Y-100965000D03*
D12*
X147400000Y-106685000D03*
X148670000Y-106685000D03*
X149950000Y-106685000D03*
X151220000Y-106685000D03*
%TD*%
D10*
%TO.C,Q3*%
X216340000Y-52435000D03*
X217490000Y-52435000D03*
X218640000Y-52435000D03*
X216340000Y-51585000D03*
X217490000Y-51585000D03*
X218640000Y-51585000D03*
X216340000Y-50735000D03*
X217490000Y-50735000D03*
X218640000Y-50735000D03*
D11*
X215610000Y-48885000D03*
X216890000Y-48885000D03*
X218090000Y-48885000D03*
X219370000Y-48885000D03*
D12*
X215580000Y-54605000D03*
X216850000Y-54605000D03*
X218130000Y-54605000D03*
X219400000Y-54605000D03*
%TD*%
D10*
%TO.C,Q3*%
X216340000Y-87155000D03*
X217490000Y-87155000D03*
X218640000Y-87155000D03*
X216340000Y-86305000D03*
X217490000Y-86305000D03*
X218640000Y-86305000D03*
X216340000Y-85455000D03*
X217490000Y-85455000D03*
X218640000Y-85455000D03*
D11*
X215610000Y-83605000D03*
X216890000Y-83605000D03*
X218090000Y-83605000D03*
X219370000Y-83605000D03*
D12*
X215580000Y-89325000D03*
X216850000Y-89325000D03*
X218130000Y-89325000D03*
X219400000Y-89325000D03*
%TD*%
D13*
%TO.C,U1*%
X165067500Y-86370000D03*
X165067500Y-85420000D03*
X165067500Y-84470000D03*
X162792500Y-84470000D03*
X162792500Y-85420000D03*
X162792500Y-86370000D03*
%TD*%
D10*
%TO.C,Q3*%
X179500000Y-87155000D03*
X180650000Y-87155000D03*
X181800000Y-87155000D03*
X179500000Y-86305000D03*
X180650000Y-86305000D03*
X181800000Y-86305000D03*
X179500000Y-85455000D03*
X180650000Y-85455000D03*
X181800000Y-85455000D03*
D11*
X178770000Y-83605000D03*
X180050000Y-83605000D03*
X181250000Y-83605000D03*
X182530000Y-83605000D03*
D12*
X178740000Y-89325000D03*
X180010000Y-89325000D03*
X181290000Y-89325000D03*
X182560000Y-89325000D03*
%TD*%
D10*
%TO.C,Q3*%
X142660000Y-52435000D03*
X143810000Y-52435000D03*
X144960000Y-52435000D03*
X142660000Y-51585000D03*
X143810000Y-51585000D03*
X144960000Y-51585000D03*
X142660000Y-50735000D03*
X143810000Y-50735000D03*
X144960000Y-50735000D03*
D11*
X141930000Y-48885000D03*
X143210000Y-48885000D03*
X144410000Y-48885000D03*
X145690000Y-48885000D03*
D12*
X141900000Y-54605000D03*
X143170000Y-54605000D03*
X144450000Y-54605000D03*
X145720000Y-54605000D03*
%TD*%
D10*
%TO.C,Q3*%
X179500000Y-104515000D03*
X180650000Y-104515000D03*
X181800000Y-104515000D03*
X179500000Y-103665000D03*
X180650000Y-103665000D03*
X181800000Y-103665000D03*
X179500000Y-102815000D03*
X180650000Y-102815000D03*
X181800000Y-102815000D03*
D11*
X178770000Y-100965000D03*
X180050000Y-100965000D03*
X181250000Y-100965000D03*
X182530000Y-100965000D03*
D12*
X178740000Y-106685000D03*
X180010000Y-106685000D03*
X181290000Y-106685000D03*
X182560000Y-106685000D03*
%TD*%
D10*
%TO.C,Q2*%
X210840000Y-87155000D03*
X211990000Y-87155000D03*
X213140000Y-87155000D03*
X210840000Y-86305000D03*
X211990000Y-86305000D03*
X213140000Y-86305000D03*
X210840000Y-85455000D03*
X211990000Y-85455000D03*
X213140000Y-85455000D03*
D11*
X210110000Y-83605000D03*
X211390000Y-83605000D03*
X212590000Y-83605000D03*
X213870000Y-83605000D03*
D12*
X210080000Y-89325000D03*
X211350000Y-89325000D03*
X212630000Y-89325000D03*
X213900000Y-89325000D03*
%TD*%
D10*
%TO.C,Q4*%
X74480000Y-121875000D03*
X75630000Y-121875000D03*
X76780000Y-121875000D03*
X74480000Y-121025000D03*
X75630000Y-121025000D03*
X76780000Y-121025000D03*
X74480000Y-120175000D03*
X75630000Y-120175000D03*
X76780000Y-120175000D03*
D11*
X73750000Y-118325000D03*
X75030000Y-118325000D03*
X76230000Y-118325000D03*
X77510000Y-118325000D03*
D12*
X73720000Y-124045000D03*
X74990000Y-124045000D03*
X76270000Y-124045000D03*
X77540000Y-124045000D03*
%TD*%
D13*
%TO.C,U1*%
X128227500Y-138450000D03*
X128227500Y-137500000D03*
X128227500Y-136550000D03*
X125952500Y-136550000D03*
X125952500Y-137500000D03*
X125952500Y-138450000D03*
%TD*%
D10*
%TO.C,Q3*%
X216340000Y-104515000D03*
X217490000Y-104515000D03*
X218640000Y-104515000D03*
X216340000Y-103665000D03*
X217490000Y-103665000D03*
X218640000Y-103665000D03*
X216340000Y-102815000D03*
X217490000Y-102815000D03*
X218640000Y-102815000D03*
D11*
X215610000Y-100965000D03*
X216890000Y-100965000D03*
X218090000Y-100965000D03*
X219370000Y-100965000D03*
D12*
X215580000Y-106685000D03*
X216850000Y-106685000D03*
X218130000Y-106685000D03*
X219400000Y-106685000D03*
%TD*%
D14*
%TO.C,F1*%
X191440000Y-87980000D03*
X191440000Y-85180000D03*
%TD*%
D10*
%TO.C,Q1*%
X205340000Y-139235000D03*
X206490000Y-139235000D03*
X207640000Y-139235000D03*
X205340000Y-138385000D03*
X206490000Y-138385000D03*
X207640000Y-138385000D03*
X205340000Y-137535000D03*
X206490000Y-137535000D03*
X207640000Y-137535000D03*
D11*
X204610000Y-135685000D03*
X205890000Y-135685000D03*
X207090000Y-135685000D03*
X208370000Y-135685000D03*
D12*
X204580000Y-141405000D03*
X205850000Y-141405000D03*
X207130000Y-141405000D03*
X208400000Y-141405000D03*
%TD*%
D10*
%TO.C,Q2*%
X100320000Y-121875000D03*
X101470000Y-121875000D03*
X102620000Y-121875000D03*
X100320000Y-121025000D03*
X101470000Y-121025000D03*
X102620000Y-121025000D03*
X100320000Y-120175000D03*
X101470000Y-120175000D03*
X102620000Y-120175000D03*
D11*
X99590000Y-118325000D03*
X100870000Y-118325000D03*
X102070000Y-118325000D03*
X103350000Y-118325000D03*
D12*
X99560000Y-124045000D03*
X100830000Y-124045000D03*
X102110000Y-124045000D03*
X103380000Y-124045000D03*
%TD*%
D10*
%TO.C,Q3*%
X105820000Y-139235000D03*
X106970000Y-139235000D03*
X108120000Y-139235000D03*
X105820000Y-138385000D03*
X106970000Y-138385000D03*
X108120000Y-138385000D03*
X105820000Y-137535000D03*
X106970000Y-137535000D03*
X108120000Y-137535000D03*
D11*
X105090000Y-135685000D03*
X106370000Y-135685000D03*
X107570000Y-135685000D03*
X108850000Y-135685000D03*
D12*
X105060000Y-141405000D03*
X106330000Y-141405000D03*
X107610000Y-141405000D03*
X108880000Y-141405000D03*
%TD*%
D10*
%TO.C,Q1*%
X168500000Y-69795000D03*
X169650000Y-69795000D03*
X170800000Y-69795000D03*
X168500000Y-68945000D03*
X169650000Y-68945000D03*
X170800000Y-68945000D03*
X168500000Y-68095000D03*
X169650000Y-68095000D03*
X170800000Y-68095000D03*
D11*
X167770000Y-66245000D03*
X169050000Y-66245000D03*
X170250000Y-66245000D03*
X171530000Y-66245000D03*
D12*
X167740000Y-71965000D03*
X169010000Y-71965000D03*
X170290000Y-71965000D03*
X171560000Y-71965000D03*
%TD*%
D10*
%TO.C,Q4*%
X111320000Y-87155000D03*
X112470000Y-87155000D03*
X113620000Y-87155000D03*
X111320000Y-86305000D03*
X112470000Y-86305000D03*
X113620000Y-86305000D03*
X111320000Y-85455000D03*
X112470000Y-85455000D03*
X113620000Y-85455000D03*
D11*
X110590000Y-83605000D03*
X111870000Y-83605000D03*
X113070000Y-83605000D03*
X114350000Y-83605000D03*
D12*
X110560000Y-89325000D03*
X111830000Y-89325000D03*
X113110000Y-89325000D03*
X114380000Y-89325000D03*
%TD*%
D10*
%TO.C,Q4*%
X185000000Y-52435000D03*
X186150000Y-52435000D03*
X187300000Y-52435000D03*
X185000000Y-51585000D03*
X186150000Y-51585000D03*
X187300000Y-51585000D03*
X185000000Y-50735000D03*
X186150000Y-50735000D03*
X187300000Y-50735000D03*
D11*
X184270000Y-48885000D03*
X185550000Y-48885000D03*
X186750000Y-48885000D03*
X188030000Y-48885000D03*
D12*
X184240000Y-54605000D03*
X185510000Y-54605000D03*
X186790000Y-54605000D03*
X188060000Y-54605000D03*
%TD*%
D10*
%TO.C,Q4*%
X148160000Y-69795000D03*
X149310000Y-69795000D03*
X150460000Y-69795000D03*
X148160000Y-68945000D03*
X149310000Y-68945000D03*
X150460000Y-68945000D03*
X148160000Y-68095000D03*
X149310000Y-68095000D03*
X150460000Y-68095000D03*
D11*
X147430000Y-66245000D03*
X148710000Y-66245000D03*
X149910000Y-66245000D03*
X151190000Y-66245000D03*
D12*
X147400000Y-71965000D03*
X148670000Y-71965000D03*
X149950000Y-71965000D03*
X151220000Y-71965000D03*
%TD*%
D13*
%TO.C,U1*%
X128227500Y-51650000D03*
X128227500Y-50700000D03*
X128227500Y-49750000D03*
X125952500Y-49750000D03*
X125952500Y-50700000D03*
X125952500Y-51650000D03*
%TD*%
D10*
%TO.C,Q1*%
X131660000Y-69795000D03*
X132810000Y-69795000D03*
X133960000Y-69795000D03*
X131660000Y-68945000D03*
X132810000Y-68945000D03*
X133960000Y-68945000D03*
X131660000Y-68095000D03*
X132810000Y-68095000D03*
X133960000Y-68095000D03*
D11*
X130930000Y-66245000D03*
X132210000Y-66245000D03*
X133410000Y-66245000D03*
X134690000Y-66245000D03*
D12*
X130900000Y-71965000D03*
X132170000Y-71965000D03*
X133450000Y-71965000D03*
X134720000Y-71965000D03*
%TD*%
D14*
%TO.C,F1*%
X154600000Y-122700000D03*
X154600000Y-119900000D03*
%TD*%
D10*
%TO.C,Q4*%
X185000000Y-121875000D03*
X186150000Y-121875000D03*
X187300000Y-121875000D03*
X185000000Y-121025000D03*
X186150000Y-121025000D03*
X187300000Y-121025000D03*
X185000000Y-120175000D03*
X186150000Y-120175000D03*
X187300000Y-120175000D03*
D11*
X184270000Y-118325000D03*
X185550000Y-118325000D03*
X186750000Y-118325000D03*
X188030000Y-118325000D03*
D12*
X184240000Y-124045000D03*
X185510000Y-124045000D03*
X186790000Y-124045000D03*
X188060000Y-124045000D03*
%TD*%
D10*
%TO.C,Q1*%
X131660000Y-121875000D03*
X132810000Y-121875000D03*
X133960000Y-121875000D03*
X131660000Y-121025000D03*
X132810000Y-121025000D03*
X133960000Y-121025000D03*
X131660000Y-120175000D03*
X132810000Y-120175000D03*
X133960000Y-120175000D03*
D11*
X130930000Y-118325000D03*
X132210000Y-118325000D03*
X133410000Y-118325000D03*
X134690000Y-118325000D03*
D12*
X130900000Y-124045000D03*
X132170000Y-124045000D03*
X133450000Y-124045000D03*
X134720000Y-124045000D03*
%TD*%
D10*
%TO.C,Q3*%
X68980000Y-139235000D03*
X70130000Y-139235000D03*
X71280000Y-139235000D03*
X68980000Y-138385000D03*
X70130000Y-138385000D03*
X71280000Y-138385000D03*
X68980000Y-137535000D03*
X70130000Y-137535000D03*
X71280000Y-137535000D03*
D11*
X68250000Y-135685000D03*
X69530000Y-135685000D03*
X70730000Y-135685000D03*
X72010000Y-135685000D03*
D12*
X68220000Y-141405000D03*
X69490000Y-141405000D03*
X70770000Y-141405000D03*
X72040000Y-141405000D03*
%TD*%
D14*
%TO.C,F1*%
X117760000Y-122700000D03*
X117760000Y-119900000D03*
%TD*%
%TO.C,F1*%
X80920000Y-140060000D03*
X80920000Y-137260000D03*
%TD*%
D10*
%TO.C,Q4*%
X74480000Y-69795000D03*
X75630000Y-69795000D03*
X76780000Y-69795000D03*
X74480000Y-68945000D03*
X75630000Y-68945000D03*
X76780000Y-68945000D03*
X74480000Y-68095000D03*
X75630000Y-68095000D03*
X76780000Y-68095000D03*
D11*
X73750000Y-66245000D03*
X75030000Y-66245000D03*
X76230000Y-66245000D03*
X77510000Y-66245000D03*
D12*
X73720000Y-71965000D03*
X74990000Y-71965000D03*
X76270000Y-71965000D03*
X77540000Y-71965000D03*
%TD*%
D10*
%TO.C,Q1*%
X131660000Y-52435000D03*
X132810000Y-52435000D03*
X133960000Y-52435000D03*
X131660000Y-51585000D03*
X132810000Y-51585000D03*
X133960000Y-51585000D03*
X131660000Y-50735000D03*
X132810000Y-50735000D03*
X133960000Y-50735000D03*
D11*
X130930000Y-48885000D03*
X132210000Y-48885000D03*
X133410000Y-48885000D03*
X134690000Y-48885000D03*
D12*
X130900000Y-54605000D03*
X132170000Y-54605000D03*
X133450000Y-54605000D03*
X134720000Y-54605000D03*
%TD*%
D14*
%TO.C,F1*%
X228280000Y-70620000D03*
X228280000Y-67820000D03*
%TD*%
D13*
%TO.C,U1*%
X201907500Y-51650000D03*
X201907500Y-50700000D03*
X201907500Y-49750000D03*
X199632500Y-49750000D03*
X199632500Y-50700000D03*
X199632500Y-51650000D03*
%TD*%
D10*
%TO.C,Q3*%
X68980000Y-69795000D03*
X70130000Y-69795000D03*
X71280000Y-69795000D03*
X68980000Y-68945000D03*
X70130000Y-68945000D03*
X71280000Y-68945000D03*
X68980000Y-68095000D03*
X70130000Y-68095000D03*
X71280000Y-68095000D03*
D11*
X68250000Y-66245000D03*
X69530000Y-66245000D03*
X70730000Y-66245000D03*
X72010000Y-66245000D03*
D12*
X68220000Y-71965000D03*
X69490000Y-71965000D03*
X70770000Y-71965000D03*
X72040000Y-71965000D03*
%TD*%
D10*
%TO.C,Q2*%
X63480000Y-104515000D03*
X64630000Y-104515000D03*
X65780000Y-104515000D03*
X63480000Y-103665000D03*
X64630000Y-103665000D03*
X65780000Y-103665000D03*
X63480000Y-102815000D03*
X64630000Y-102815000D03*
X65780000Y-102815000D03*
D11*
X62750000Y-100965000D03*
X64030000Y-100965000D03*
X65230000Y-100965000D03*
X66510000Y-100965000D03*
D12*
X62720000Y-106685000D03*
X63990000Y-106685000D03*
X65270000Y-106685000D03*
X66540000Y-106685000D03*
%TD*%
D10*
%TO.C,Q1*%
X205340000Y-52435000D03*
X206490000Y-52435000D03*
X207640000Y-52435000D03*
X205340000Y-51585000D03*
X206490000Y-51585000D03*
X207640000Y-51585000D03*
X205340000Y-50735000D03*
X206490000Y-50735000D03*
X207640000Y-50735000D03*
D11*
X204610000Y-48885000D03*
X205890000Y-48885000D03*
X207090000Y-48885000D03*
X208370000Y-48885000D03*
D12*
X204580000Y-54605000D03*
X205850000Y-54605000D03*
X207130000Y-54605000D03*
X208400000Y-54605000D03*
%TD*%
D10*
%TO.C,Q2*%
X63480000Y-139235000D03*
X64630000Y-139235000D03*
X65780000Y-139235000D03*
X63480000Y-138385000D03*
X64630000Y-138385000D03*
X65780000Y-138385000D03*
X63480000Y-137535000D03*
X64630000Y-137535000D03*
X65780000Y-137535000D03*
D11*
X62750000Y-135685000D03*
X64030000Y-135685000D03*
X65230000Y-135685000D03*
X66510000Y-135685000D03*
D12*
X62720000Y-141405000D03*
X63990000Y-141405000D03*
X65270000Y-141405000D03*
X66540000Y-141405000D03*
%TD*%
D14*
%TO.C,F1*%
X228280000Y-105340000D03*
X228280000Y-102540000D03*
%TD*%
D10*
%TO.C,Q4*%
X111320000Y-52435000D03*
X112470000Y-52435000D03*
X113620000Y-52435000D03*
X111320000Y-51585000D03*
X112470000Y-51585000D03*
X113620000Y-51585000D03*
X111320000Y-50735000D03*
X112470000Y-50735000D03*
X113620000Y-50735000D03*
D11*
X110590000Y-48885000D03*
X111870000Y-48885000D03*
X113070000Y-48885000D03*
X114350000Y-48885000D03*
D12*
X110560000Y-54605000D03*
X111830000Y-54605000D03*
X113110000Y-54605000D03*
X114380000Y-54605000D03*
%TD*%
D10*
%TO.C,Q3*%
X216340000Y-139235000D03*
X217490000Y-139235000D03*
X218640000Y-139235000D03*
X216340000Y-138385000D03*
X217490000Y-138385000D03*
X218640000Y-138385000D03*
X216340000Y-137535000D03*
X217490000Y-137535000D03*
X218640000Y-137535000D03*
D11*
X215610000Y-135685000D03*
X216890000Y-135685000D03*
X218090000Y-135685000D03*
X219370000Y-135685000D03*
D12*
X215580000Y-141405000D03*
X216850000Y-141405000D03*
X218130000Y-141405000D03*
X219400000Y-141405000D03*
%TD*%
D10*
%TO.C,Q4*%
X111320000Y-69795000D03*
X112470000Y-69795000D03*
X113620000Y-69795000D03*
X111320000Y-68945000D03*
X112470000Y-68945000D03*
X113620000Y-68945000D03*
X111320000Y-68095000D03*
X112470000Y-68095000D03*
X113620000Y-68095000D03*
D11*
X110590000Y-66245000D03*
X111870000Y-66245000D03*
X113070000Y-66245000D03*
X114350000Y-66245000D03*
D12*
X110560000Y-71965000D03*
X111830000Y-71965000D03*
X113110000Y-71965000D03*
X114380000Y-71965000D03*
%TD*%
D13*
%TO.C,U1*%
X54547500Y-121090000D03*
X54547500Y-120140000D03*
X54547500Y-119190000D03*
X52272500Y-119190000D03*
X52272500Y-120140000D03*
X52272500Y-121090000D03*
%TD*%
D10*
%TO.C,Q3*%
X142660000Y-121875000D03*
X143810000Y-121875000D03*
X144960000Y-121875000D03*
X142660000Y-121025000D03*
X143810000Y-121025000D03*
X144960000Y-121025000D03*
X142660000Y-120175000D03*
X143810000Y-120175000D03*
X144960000Y-120175000D03*
D11*
X141930000Y-118325000D03*
X143210000Y-118325000D03*
X144410000Y-118325000D03*
X145690000Y-118325000D03*
D12*
X141900000Y-124045000D03*
X143170000Y-124045000D03*
X144450000Y-124045000D03*
X145720000Y-124045000D03*
%TD*%
D10*
%TO.C,Q1*%
X94820000Y-69795000D03*
X95970000Y-69795000D03*
X97120000Y-69795000D03*
X94820000Y-68945000D03*
X95970000Y-68945000D03*
X97120000Y-68945000D03*
X94820000Y-68095000D03*
X95970000Y-68095000D03*
X97120000Y-68095000D03*
D11*
X94090000Y-66245000D03*
X95370000Y-66245000D03*
X96570000Y-66245000D03*
X97850000Y-66245000D03*
D12*
X94060000Y-71965000D03*
X95330000Y-71965000D03*
X96610000Y-71965000D03*
X97880000Y-71965000D03*
%TD*%
D10*
%TO.C,Q1*%
X131660000Y-104515000D03*
X132810000Y-104515000D03*
X133960000Y-104515000D03*
X131660000Y-103665000D03*
X132810000Y-103665000D03*
X133960000Y-103665000D03*
X131660000Y-102815000D03*
X132810000Y-102815000D03*
X133960000Y-102815000D03*
D11*
X130930000Y-100965000D03*
X132210000Y-100965000D03*
X133410000Y-100965000D03*
X134690000Y-100965000D03*
D12*
X130900000Y-106685000D03*
X132170000Y-106685000D03*
X133450000Y-106685000D03*
X134720000Y-106685000D03*
%TD*%
D10*
%TO.C,Q2*%
X210840000Y-69795000D03*
X211990000Y-69795000D03*
X213140000Y-69795000D03*
X210840000Y-68945000D03*
X211990000Y-68945000D03*
X213140000Y-68945000D03*
X210840000Y-68095000D03*
X211990000Y-68095000D03*
X213140000Y-68095000D03*
D11*
X210110000Y-66245000D03*
X211390000Y-66245000D03*
X212590000Y-66245000D03*
X213870000Y-66245000D03*
D12*
X210080000Y-71965000D03*
X211350000Y-71965000D03*
X212630000Y-71965000D03*
X213900000Y-71965000D03*
%TD*%
D10*
%TO.C,Q3*%
X216340000Y-121875000D03*
X217490000Y-121875000D03*
X218640000Y-121875000D03*
X216340000Y-121025000D03*
X217490000Y-121025000D03*
X218640000Y-121025000D03*
X216340000Y-120175000D03*
X217490000Y-120175000D03*
X218640000Y-120175000D03*
D11*
X215610000Y-118325000D03*
X216890000Y-118325000D03*
X218090000Y-118325000D03*
X219370000Y-118325000D03*
D12*
X215580000Y-124045000D03*
X216850000Y-124045000D03*
X218130000Y-124045000D03*
X219400000Y-124045000D03*
%TD*%
D10*
%TO.C,Q3*%
X105820000Y-121875000D03*
X106970000Y-121875000D03*
X108120000Y-121875000D03*
X105820000Y-121025000D03*
X106970000Y-121025000D03*
X108120000Y-121025000D03*
X105820000Y-120175000D03*
X106970000Y-120175000D03*
X108120000Y-120175000D03*
D11*
X105090000Y-118325000D03*
X106370000Y-118325000D03*
X107570000Y-118325000D03*
X108850000Y-118325000D03*
D12*
X105060000Y-124045000D03*
X106330000Y-124045000D03*
X107610000Y-124045000D03*
X108880000Y-124045000D03*
%TD*%
D10*
%TO.C,Q3*%
X179500000Y-69795000D03*
X180650000Y-69795000D03*
X181800000Y-69795000D03*
X179500000Y-68945000D03*
X180650000Y-68945000D03*
X181800000Y-68945000D03*
X179500000Y-68095000D03*
X180650000Y-68095000D03*
X181800000Y-68095000D03*
D11*
X178770000Y-66245000D03*
X180050000Y-66245000D03*
X181250000Y-66245000D03*
X182530000Y-66245000D03*
D12*
X178740000Y-71965000D03*
X180010000Y-71965000D03*
X181290000Y-71965000D03*
X182560000Y-71965000D03*
%TD*%
D10*
%TO.C,Q1*%
X168500000Y-104515000D03*
X169650000Y-104515000D03*
X170800000Y-104515000D03*
X168500000Y-103665000D03*
X169650000Y-103665000D03*
X170800000Y-103665000D03*
X168500000Y-102815000D03*
X169650000Y-102815000D03*
X170800000Y-102815000D03*
D11*
X167770000Y-100965000D03*
X169050000Y-100965000D03*
X170250000Y-100965000D03*
X171530000Y-100965000D03*
D12*
X167740000Y-106685000D03*
X169010000Y-106685000D03*
X170290000Y-106685000D03*
X171560000Y-106685000D03*
%TD*%
D14*
%TO.C,F1*%
X191440000Y-122700000D03*
X191440000Y-119900000D03*
%TD*%
D10*
%TO.C,Q1*%
X94820000Y-87155000D03*
X95970000Y-87155000D03*
X97120000Y-87155000D03*
X94820000Y-86305000D03*
X95970000Y-86305000D03*
X97120000Y-86305000D03*
X94820000Y-85455000D03*
X95970000Y-85455000D03*
X97120000Y-85455000D03*
D11*
X94090000Y-83605000D03*
X95370000Y-83605000D03*
X96570000Y-83605000D03*
X97850000Y-83605000D03*
D12*
X94060000Y-89325000D03*
X95330000Y-89325000D03*
X96610000Y-89325000D03*
X97880000Y-89325000D03*
%TD*%
D10*
%TO.C,Q2*%
X137160000Y-104515000D03*
X138310000Y-104515000D03*
X139460000Y-104515000D03*
X137160000Y-103665000D03*
X138310000Y-103665000D03*
X139460000Y-103665000D03*
X137160000Y-102815000D03*
X138310000Y-102815000D03*
X139460000Y-102815000D03*
D11*
X136430000Y-100965000D03*
X137710000Y-100965000D03*
X138910000Y-100965000D03*
X140190000Y-100965000D03*
D12*
X136400000Y-106685000D03*
X137670000Y-106685000D03*
X138950000Y-106685000D03*
X140220000Y-106685000D03*
%TD*%
D10*
%TO.C,Q1*%
X94820000Y-121875000D03*
X95970000Y-121875000D03*
X97120000Y-121875000D03*
X94820000Y-121025000D03*
X95970000Y-121025000D03*
X97120000Y-121025000D03*
X94820000Y-120175000D03*
X95970000Y-120175000D03*
X97120000Y-120175000D03*
D11*
X94090000Y-118325000D03*
X95370000Y-118325000D03*
X96570000Y-118325000D03*
X97850000Y-118325000D03*
D12*
X94060000Y-124045000D03*
X95330000Y-124045000D03*
X96610000Y-124045000D03*
X97880000Y-124045000D03*
%TD*%
D10*
%TO.C,Q4*%
X148160000Y-121875000D03*
X149310000Y-121875000D03*
X150460000Y-121875000D03*
X148160000Y-121025000D03*
X149310000Y-121025000D03*
X150460000Y-121025000D03*
X148160000Y-120175000D03*
X149310000Y-120175000D03*
X150460000Y-120175000D03*
D11*
X147430000Y-118325000D03*
X148710000Y-118325000D03*
X149910000Y-118325000D03*
X151190000Y-118325000D03*
D12*
X147400000Y-124045000D03*
X148670000Y-124045000D03*
X149950000Y-124045000D03*
X151220000Y-124045000D03*
%TD*%
D10*
%TO.C,Q1*%
X168500000Y-139235000D03*
X169650000Y-139235000D03*
X170800000Y-139235000D03*
X168500000Y-138385000D03*
X169650000Y-138385000D03*
X170800000Y-138385000D03*
X168500000Y-137535000D03*
X169650000Y-137535000D03*
X170800000Y-137535000D03*
D11*
X167770000Y-135685000D03*
X169050000Y-135685000D03*
X170250000Y-135685000D03*
X171530000Y-135685000D03*
D12*
X167740000Y-141405000D03*
X169010000Y-141405000D03*
X170290000Y-141405000D03*
X171560000Y-141405000D03*
%TD*%
D10*
%TO.C,Q4*%
X221840000Y-139235000D03*
X222990000Y-139235000D03*
X224140000Y-139235000D03*
X221840000Y-138385000D03*
X222990000Y-138385000D03*
X224140000Y-138385000D03*
X221840000Y-137535000D03*
X222990000Y-137535000D03*
X224140000Y-137535000D03*
D11*
X221110000Y-135685000D03*
X222390000Y-135685000D03*
X223590000Y-135685000D03*
X224870000Y-135685000D03*
D12*
X221080000Y-141405000D03*
X222350000Y-141405000D03*
X223630000Y-141405000D03*
X224900000Y-141405000D03*
%TD*%
D13*
%TO.C,U1*%
X201907500Y-69010000D03*
X201907500Y-68060000D03*
X201907500Y-67110000D03*
X199632500Y-67110000D03*
X199632500Y-68060000D03*
X199632500Y-69010000D03*
%TD*%
D14*
%TO.C,F1*%
X117760000Y-70620000D03*
X117760000Y-67820000D03*
%TD*%
D10*
%TO.C,Q2*%
X137160000Y-69795000D03*
X138310000Y-69795000D03*
X139460000Y-69795000D03*
X137160000Y-68945000D03*
X138310000Y-68945000D03*
X139460000Y-68945000D03*
X137160000Y-68095000D03*
X138310000Y-68095000D03*
X139460000Y-68095000D03*
D11*
X136430000Y-66245000D03*
X137710000Y-66245000D03*
X138910000Y-66245000D03*
X140190000Y-66245000D03*
D12*
X136400000Y-71965000D03*
X137670000Y-71965000D03*
X138950000Y-71965000D03*
X140220000Y-71965000D03*
%TD*%
D10*
%TO.C,Q4*%
X74480000Y-139235000D03*
X75630000Y-139235000D03*
X76780000Y-139235000D03*
X74480000Y-138385000D03*
X75630000Y-138385000D03*
X76780000Y-138385000D03*
X74480000Y-137535000D03*
X75630000Y-137535000D03*
X76780000Y-137535000D03*
D11*
X73750000Y-135685000D03*
X75030000Y-135685000D03*
X76230000Y-135685000D03*
X77510000Y-135685000D03*
D12*
X73720000Y-141405000D03*
X74990000Y-141405000D03*
X76270000Y-141405000D03*
X77540000Y-141405000D03*
%TD*%
D10*
%TO.C,Q1*%
X57980000Y-69795000D03*
X59130000Y-69795000D03*
X60280000Y-69795000D03*
X57980000Y-68945000D03*
X59130000Y-68945000D03*
X60280000Y-68945000D03*
X57980000Y-68095000D03*
X59130000Y-68095000D03*
X60280000Y-68095000D03*
D11*
X57250000Y-66245000D03*
X58530000Y-66245000D03*
X59730000Y-66245000D03*
X61010000Y-66245000D03*
D12*
X57220000Y-71965000D03*
X58490000Y-71965000D03*
X59770000Y-71965000D03*
X61040000Y-71965000D03*
%TD*%
D10*
%TO.C,Q4*%
X148160000Y-139235000D03*
X149310000Y-139235000D03*
X150460000Y-139235000D03*
X148160000Y-138385000D03*
X149310000Y-138385000D03*
X150460000Y-138385000D03*
X148160000Y-137535000D03*
X149310000Y-137535000D03*
X150460000Y-137535000D03*
D11*
X147430000Y-135685000D03*
X148710000Y-135685000D03*
X149910000Y-135685000D03*
X151190000Y-135685000D03*
D12*
X147400000Y-141405000D03*
X148670000Y-141405000D03*
X149950000Y-141405000D03*
X151220000Y-141405000D03*
%TD*%
D14*
%TO.C,F1*%
X80920000Y-70620000D03*
X80920000Y-67820000D03*
%TD*%
%TO.C,F1*%
X228280000Y-87980000D03*
X228280000Y-85180000D03*
%TD*%
D10*
%TO.C,Q4*%
X221840000Y-87155000D03*
X222990000Y-87155000D03*
X224140000Y-87155000D03*
X221840000Y-86305000D03*
X222990000Y-86305000D03*
X224140000Y-86305000D03*
X221840000Y-85455000D03*
X222990000Y-85455000D03*
X224140000Y-85455000D03*
D11*
X221110000Y-83605000D03*
X222390000Y-83605000D03*
X223590000Y-83605000D03*
X224870000Y-83605000D03*
D12*
X221080000Y-89325000D03*
X222350000Y-89325000D03*
X223630000Y-89325000D03*
X224900000Y-89325000D03*
%TD*%
D14*
%TO.C,F1*%
X80920000Y-122700000D03*
X80920000Y-119900000D03*
%TD*%
D10*
%TO.C,Q1*%
X57980000Y-139235000D03*
X59130000Y-139235000D03*
X60280000Y-139235000D03*
X57980000Y-138385000D03*
X59130000Y-138385000D03*
X60280000Y-138385000D03*
X57980000Y-137535000D03*
X59130000Y-137535000D03*
X60280000Y-137535000D03*
D11*
X57250000Y-135685000D03*
X58530000Y-135685000D03*
X59730000Y-135685000D03*
X61010000Y-135685000D03*
D12*
X57220000Y-141405000D03*
X58490000Y-141405000D03*
X59770000Y-141405000D03*
X61040000Y-141405000D03*
%TD*%
D10*
%TO.C,Q1*%
X205340000Y-69795000D03*
X206490000Y-69795000D03*
X207640000Y-69795000D03*
X205340000Y-68945000D03*
X206490000Y-68945000D03*
X207640000Y-68945000D03*
X205340000Y-68095000D03*
X206490000Y-68095000D03*
X207640000Y-68095000D03*
D11*
X204610000Y-66245000D03*
X205890000Y-66245000D03*
X207090000Y-66245000D03*
X208370000Y-66245000D03*
D12*
X204580000Y-71965000D03*
X205850000Y-71965000D03*
X207130000Y-71965000D03*
X208400000Y-71965000D03*
%TD*%
D10*
%TO.C,Q2*%
X100320000Y-52435000D03*
X101470000Y-52435000D03*
X102620000Y-52435000D03*
X100320000Y-51585000D03*
X101470000Y-51585000D03*
X102620000Y-51585000D03*
X100320000Y-50735000D03*
X101470000Y-50735000D03*
X102620000Y-50735000D03*
D11*
X99590000Y-48885000D03*
X100870000Y-48885000D03*
X102070000Y-48885000D03*
X103350000Y-48885000D03*
D12*
X99560000Y-54605000D03*
X100830000Y-54605000D03*
X102110000Y-54605000D03*
X103380000Y-54605000D03*
%TD*%
D10*
%TO.C,Q3*%
X142660000Y-69795000D03*
X143810000Y-69795000D03*
X144960000Y-69795000D03*
X142660000Y-68945000D03*
X143810000Y-68945000D03*
X144960000Y-68945000D03*
X142660000Y-68095000D03*
X143810000Y-68095000D03*
X144960000Y-68095000D03*
D11*
X141930000Y-66245000D03*
X143210000Y-66245000D03*
X144410000Y-66245000D03*
X145690000Y-66245000D03*
D12*
X141900000Y-71965000D03*
X143170000Y-71965000D03*
X144450000Y-71965000D03*
X145720000Y-71965000D03*
%TD*%
D14*
%TO.C,F1*%
X154600000Y-53260000D03*
X154600000Y-50460000D03*
%TD*%
D10*
%TO.C,Q2*%
X63480000Y-121875000D03*
X64630000Y-121875000D03*
X65780000Y-121875000D03*
X63480000Y-121025000D03*
X64630000Y-121025000D03*
X65780000Y-121025000D03*
X63480000Y-120175000D03*
X64630000Y-120175000D03*
X65780000Y-120175000D03*
D11*
X62750000Y-118325000D03*
X64030000Y-118325000D03*
X65230000Y-118325000D03*
X66510000Y-118325000D03*
D12*
X62720000Y-124045000D03*
X63990000Y-124045000D03*
X65270000Y-124045000D03*
X66540000Y-124045000D03*
%TD*%
D10*
%TO.C,Q1*%
X168500000Y-121875000D03*
X169650000Y-121875000D03*
X170800000Y-121875000D03*
X168500000Y-121025000D03*
X169650000Y-121025000D03*
X170800000Y-121025000D03*
X168500000Y-120175000D03*
X169650000Y-120175000D03*
X170800000Y-120175000D03*
D11*
X167770000Y-118325000D03*
X169050000Y-118325000D03*
X170250000Y-118325000D03*
X171530000Y-118325000D03*
D12*
X167740000Y-124045000D03*
X169010000Y-124045000D03*
X170290000Y-124045000D03*
X171560000Y-124045000D03*
%TD*%
D10*
%TO.C,Q2*%
X174000000Y-69795000D03*
X175150000Y-69795000D03*
X176300000Y-69795000D03*
X174000000Y-68945000D03*
X175150000Y-68945000D03*
X176300000Y-68945000D03*
X174000000Y-68095000D03*
X175150000Y-68095000D03*
X176300000Y-68095000D03*
D11*
X173270000Y-66245000D03*
X174550000Y-66245000D03*
X175750000Y-66245000D03*
X177030000Y-66245000D03*
D12*
X173240000Y-71965000D03*
X174510000Y-71965000D03*
X175790000Y-71965000D03*
X177060000Y-71965000D03*
%TD*%
D13*
%TO.C,U1*%
X91387500Y-138450000D03*
X91387500Y-137500000D03*
X91387500Y-136550000D03*
X89112500Y-136550000D03*
X89112500Y-137500000D03*
X89112500Y-138450000D03*
%TD*%
D10*
%TO.C,Q2*%
X210840000Y-104515000D03*
X211990000Y-104515000D03*
X213140000Y-104515000D03*
X210840000Y-103665000D03*
X211990000Y-103665000D03*
X213140000Y-103665000D03*
X210840000Y-102815000D03*
X211990000Y-102815000D03*
X213140000Y-102815000D03*
D11*
X210110000Y-100965000D03*
X211390000Y-100965000D03*
X212590000Y-100965000D03*
X213870000Y-100965000D03*
D12*
X210080000Y-106685000D03*
X211350000Y-106685000D03*
X212630000Y-106685000D03*
X213900000Y-106685000D03*
%TD*%
D13*
%TO.C,U1*%
X128227500Y-86370000D03*
X128227500Y-85420000D03*
X128227500Y-84470000D03*
X125952500Y-84470000D03*
X125952500Y-85420000D03*
X125952500Y-86370000D03*
%TD*%
D10*
%TO.C,Q1*%
X94820000Y-139235000D03*
X95970000Y-139235000D03*
X97120000Y-139235000D03*
X94820000Y-138385000D03*
X95970000Y-138385000D03*
X97120000Y-138385000D03*
X94820000Y-137535000D03*
X95970000Y-137535000D03*
X97120000Y-137535000D03*
D11*
X94090000Y-135685000D03*
X95370000Y-135685000D03*
X96570000Y-135685000D03*
X97850000Y-135685000D03*
D12*
X94060000Y-141405000D03*
X95330000Y-141405000D03*
X96610000Y-141405000D03*
X97880000Y-141405000D03*
%TD*%
D14*
%TO.C,F1*%
X154600000Y-87980000D03*
X154600000Y-85180000D03*
%TD*%
D13*
%TO.C,U1*%
X91387500Y-103730000D03*
X91387500Y-102780000D03*
X91387500Y-101830000D03*
X89112500Y-101830000D03*
X89112500Y-102780000D03*
X89112500Y-103730000D03*
%TD*%
D10*
%TO.C,Q4*%
X74480000Y-87155000D03*
X75630000Y-87155000D03*
X76780000Y-87155000D03*
X74480000Y-86305000D03*
X75630000Y-86305000D03*
X76780000Y-86305000D03*
X74480000Y-85455000D03*
X75630000Y-85455000D03*
X76780000Y-85455000D03*
D11*
X73750000Y-83605000D03*
X75030000Y-83605000D03*
X76230000Y-83605000D03*
X77510000Y-83605000D03*
D12*
X73720000Y-89325000D03*
X74990000Y-89325000D03*
X76270000Y-89325000D03*
X77540000Y-89325000D03*
%TD*%
D13*
%TO.C,U1*%
X54547500Y-69010000D03*
X54547500Y-68060000D03*
X54547500Y-67110000D03*
X52272500Y-67110000D03*
X52272500Y-68060000D03*
X52272500Y-69010000D03*
%TD*%
D10*
%TO.C,Q2*%
X100320000Y-104515000D03*
X101470000Y-104515000D03*
X102620000Y-104515000D03*
X100320000Y-103665000D03*
X101470000Y-103665000D03*
X102620000Y-103665000D03*
X100320000Y-102815000D03*
X101470000Y-102815000D03*
X102620000Y-102815000D03*
D11*
X99590000Y-100965000D03*
X100870000Y-100965000D03*
X102070000Y-100965000D03*
X103350000Y-100965000D03*
D12*
X99560000Y-106685000D03*
X100830000Y-106685000D03*
X102110000Y-106685000D03*
X103380000Y-106685000D03*
%TD*%
D10*
%TO.C,Q4*%
X74480000Y-52435000D03*
X75630000Y-52435000D03*
X76780000Y-52435000D03*
X74480000Y-51585000D03*
X75630000Y-51585000D03*
X76780000Y-51585000D03*
X74480000Y-50735000D03*
X75630000Y-50735000D03*
X76780000Y-50735000D03*
D11*
X73750000Y-48885000D03*
X75030000Y-48885000D03*
X76230000Y-48885000D03*
X77510000Y-48885000D03*
D12*
X73720000Y-54605000D03*
X74990000Y-54605000D03*
X76270000Y-54605000D03*
X77540000Y-54605000D03*
%TD*%
D10*
%TO.C,Q1*%
X57980000Y-87155000D03*
X59130000Y-87155000D03*
X60280000Y-87155000D03*
X57980000Y-86305000D03*
X59130000Y-86305000D03*
X60280000Y-86305000D03*
X57980000Y-85455000D03*
X59130000Y-85455000D03*
X60280000Y-85455000D03*
D11*
X57250000Y-83605000D03*
X58530000Y-83605000D03*
X59730000Y-83605000D03*
X61010000Y-83605000D03*
D12*
X57220000Y-89325000D03*
X58490000Y-89325000D03*
X59770000Y-89325000D03*
X61040000Y-89325000D03*
%TD*%
D10*
%TO.C,Q1*%
X57980000Y-121875000D03*
X59130000Y-121875000D03*
X60280000Y-121875000D03*
X57980000Y-121025000D03*
X59130000Y-121025000D03*
X60280000Y-121025000D03*
X57980000Y-120175000D03*
X59130000Y-120175000D03*
X60280000Y-120175000D03*
D11*
X57250000Y-118325000D03*
X58530000Y-118325000D03*
X59730000Y-118325000D03*
X61010000Y-118325000D03*
D12*
X57220000Y-124045000D03*
X58490000Y-124045000D03*
X59770000Y-124045000D03*
X61040000Y-124045000D03*
%TD*%
D10*
%TO.C,Q2*%
X210840000Y-52435000D03*
X211990000Y-52435000D03*
X213140000Y-52435000D03*
X210840000Y-51585000D03*
X211990000Y-51585000D03*
X213140000Y-51585000D03*
X210840000Y-50735000D03*
X211990000Y-50735000D03*
X213140000Y-50735000D03*
D11*
X210110000Y-48885000D03*
X211390000Y-48885000D03*
X212590000Y-48885000D03*
X213870000Y-48885000D03*
D12*
X210080000Y-54605000D03*
X211350000Y-54605000D03*
X212630000Y-54605000D03*
X213900000Y-54605000D03*
%TD*%
D13*
%TO.C,U1*%
X91387500Y-86370000D03*
X91387500Y-85420000D03*
X91387500Y-84470000D03*
X89112500Y-84470000D03*
X89112500Y-85420000D03*
X89112500Y-86370000D03*
%TD*%
D10*
%TO.C,Q2*%
X63480000Y-87155000D03*
X64630000Y-87155000D03*
X65780000Y-87155000D03*
X63480000Y-86305000D03*
X64630000Y-86305000D03*
X65780000Y-86305000D03*
X63480000Y-85455000D03*
X64630000Y-85455000D03*
X65780000Y-85455000D03*
D11*
X62750000Y-83605000D03*
X64030000Y-83605000D03*
X65230000Y-83605000D03*
X66510000Y-83605000D03*
D12*
X62720000Y-89325000D03*
X63990000Y-89325000D03*
X65270000Y-89325000D03*
X66540000Y-89325000D03*
%TD*%
D14*
%TO.C,F1*%
X191440000Y-105340000D03*
X191440000Y-102540000D03*
%TD*%
%TO.C,F1*%
X228280000Y-122700000D03*
X228280000Y-119900000D03*
%TD*%
D10*
%TO.C,Q4*%
X185000000Y-87155000D03*
X186150000Y-87155000D03*
X187300000Y-87155000D03*
X185000000Y-86305000D03*
X186150000Y-86305000D03*
X187300000Y-86305000D03*
X185000000Y-85455000D03*
X186150000Y-85455000D03*
X187300000Y-85455000D03*
D11*
X184270000Y-83605000D03*
X185550000Y-83605000D03*
X186750000Y-83605000D03*
X188030000Y-83605000D03*
D12*
X184240000Y-89325000D03*
X185510000Y-89325000D03*
X186790000Y-89325000D03*
X188060000Y-89325000D03*
%TD*%
D13*
%TO.C,U1*%
X54547500Y-51650000D03*
X54547500Y-50700000D03*
X54547500Y-49750000D03*
X52272500Y-49750000D03*
X52272500Y-50700000D03*
X52272500Y-51650000D03*
%TD*%
D10*
%TO.C,Q2*%
X100320000Y-69795000D03*
X101470000Y-69795000D03*
X102620000Y-69795000D03*
X100320000Y-68945000D03*
X101470000Y-68945000D03*
X102620000Y-68945000D03*
X100320000Y-68095000D03*
X101470000Y-68095000D03*
X102620000Y-68095000D03*
D11*
X99590000Y-66245000D03*
X100870000Y-66245000D03*
X102070000Y-66245000D03*
X103350000Y-66245000D03*
D12*
X99560000Y-71965000D03*
X100830000Y-71965000D03*
X102110000Y-71965000D03*
X103380000Y-71965000D03*
%TD*%
D10*
%TO.C,Q2*%
X174000000Y-104515000D03*
X175150000Y-104515000D03*
X176300000Y-104515000D03*
X174000000Y-103665000D03*
X175150000Y-103665000D03*
X176300000Y-103665000D03*
X174000000Y-102815000D03*
X175150000Y-102815000D03*
X176300000Y-102815000D03*
D11*
X173270000Y-100965000D03*
X174550000Y-100965000D03*
X175750000Y-100965000D03*
X177030000Y-100965000D03*
D12*
X173240000Y-106685000D03*
X174510000Y-106685000D03*
X175790000Y-106685000D03*
X177060000Y-106685000D03*
%TD*%
D14*
%TO.C,F1*%
X154600000Y-105340000D03*
X154600000Y-102540000D03*
%TD*%
%TO.C,F1*%
X117760000Y-53260000D03*
X117760000Y-50460000D03*
%TD*%
D10*
%TO.C,Q4*%
X221840000Y-69795000D03*
X222990000Y-69795000D03*
X224140000Y-69795000D03*
X221840000Y-68945000D03*
X222990000Y-68945000D03*
X224140000Y-68945000D03*
X221840000Y-68095000D03*
X222990000Y-68095000D03*
X224140000Y-68095000D03*
D11*
X221110000Y-66245000D03*
X222390000Y-66245000D03*
X223590000Y-66245000D03*
X224870000Y-66245000D03*
D12*
X221080000Y-71965000D03*
X222350000Y-71965000D03*
X223630000Y-71965000D03*
X224900000Y-71965000D03*
%TD*%
D10*
%TO.C,Q1*%
X131660000Y-139235000D03*
X132810000Y-139235000D03*
X133960000Y-139235000D03*
X131660000Y-138385000D03*
X132810000Y-138385000D03*
X133960000Y-138385000D03*
X131660000Y-137535000D03*
X132810000Y-137535000D03*
X133960000Y-137535000D03*
D11*
X130930000Y-135685000D03*
X132210000Y-135685000D03*
X133410000Y-135685000D03*
X134690000Y-135685000D03*
D12*
X130900000Y-141405000D03*
X132170000Y-141405000D03*
X133450000Y-141405000D03*
X134720000Y-141405000D03*
%TD*%
D10*
%TO.C,Q2*%
X63480000Y-52435000D03*
X64630000Y-52435000D03*
X65780000Y-52435000D03*
X63480000Y-51585000D03*
X64630000Y-51585000D03*
X65780000Y-51585000D03*
X63480000Y-50735000D03*
X64630000Y-50735000D03*
X65780000Y-50735000D03*
D11*
X62750000Y-48885000D03*
X64030000Y-48885000D03*
X65230000Y-48885000D03*
X66510000Y-48885000D03*
D12*
X62720000Y-54605000D03*
X63990000Y-54605000D03*
X65270000Y-54605000D03*
X66540000Y-54605000D03*
%TD*%
D10*
%TO.C,Q3*%
X142660000Y-87155000D03*
X143810000Y-87155000D03*
X144960000Y-87155000D03*
X142660000Y-86305000D03*
X143810000Y-86305000D03*
X144960000Y-86305000D03*
X142660000Y-85455000D03*
X143810000Y-85455000D03*
X144960000Y-85455000D03*
D11*
X141930000Y-83605000D03*
X143210000Y-83605000D03*
X144410000Y-83605000D03*
X145690000Y-83605000D03*
D12*
X141900000Y-89325000D03*
X143170000Y-89325000D03*
X144450000Y-89325000D03*
X145720000Y-89325000D03*
%TD*%
D10*
%TO.C,Q2*%
X137160000Y-52435000D03*
X138310000Y-52435000D03*
X139460000Y-52435000D03*
X137160000Y-51585000D03*
X138310000Y-51585000D03*
X139460000Y-51585000D03*
X137160000Y-50735000D03*
X138310000Y-50735000D03*
X139460000Y-50735000D03*
D11*
X136430000Y-48885000D03*
X137710000Y-48885000D03*
X138910000Y-48885000D03*
X140190000Y-48885000D03*
D12*
X136400000Y-54605000D03*
X137670000Y-54605000D03*
X138950000Y-54605000D03*
X140220000Y-54605000D03*
%TD*%
D10*
%TO.C,Q3*%
X142660000Y-139235000D03*
X143810000Y-139235000D03*
X144960000Y-139235000D03*
X142660000Y-138385000D03*
X143810000Y-138385000D03*
X144960000Y-138385000D03*
X142660000Y-137535000D03*
X143810000Y-137535000D03*
X144960000Y-137535000D03*
D11*
X141930000Y-135685000D03*
X143210000Y-135685000D03*
X144410000Y-135685000D03*
X145690000Y-135685000D03*
D12*
X141900000Y-141405000D03*
X143170000Y-141405000D03*
X144450000Y-141405000D03*
X145720000Y-141405000D03*
%TD*%
D10*
%TO.C,Q2*%
X210840000Y-139235000D03*
X211990000Y-139235000D03*
X213140000Y-139235000D03*
X210840000Y-138385000D03*
X211990000Y-138385000D03*
X213140000Y-138385000D03*
X210840000Y-137535000D03*
X211990000Y-137535000D03*
X213140000Y-137535000D03*
D11*
X210110000Y-135685000D03*
X211390000Y-135685000D03*
X212590000Y-135685000D03*
X213870000Y-135685000D03*
D12*
X210080000Y-141405000D03*
X211350000Y-141405000D03*
X212630000Y-141405000D03*
X213900000Y-141405000D03*
%TD*%
D10*
%TO.C,Q2*%
X174000000Y-52435000D03*
X175150000Y-52435000D03*
X176300000Y-52435000D03*
X174000000Y-51585000D03*
X175150000Y-51585000D03*
X176300000Y-51585000D03*
X174000000Y-50735000D03*
X175150000Y-50735000D03*
X176300000Y-50735000D03*
D11*
X173270000Y-48885000D03*
X174550000Y-48885000D03*
X175750000Y-48885000D03*
X177030000Y-48885000D03*
D12*
X173240000Y-54605000D03*
X174510000Y-54605000D03*
X175790000Y-54605000D03*
X177060000Y-54605000D03*
%TD*%
D10*
%TO.C,Q2*%
X210840000Y-121875000D03*
X211990000Y-121875000D03*
X213140000Y-121875000D03*
X210840000Y-121025000D03*
X211990000Y-121025000D03*
X213140000Y-121025000D03*
X210840000Y-120175000D03*
X211990000Y-120175000D03*
X213140000Y-120175000D03*
D11*
X210110000Y-118325000D03*
X211390000Y-118325000D03*
X212590000Y-118325000D03*
X213870000Y-118325000D03*
D12*
X210080000Y-124045000D03*
X211350000Y-124045000D03*
X212630000Y-124045000D03*
X213900000Y-124045000D03*
%TD*%
D13*
%TO.C,U1*%
X165067500Y-103730000D03*
X165067500Y-102780000D03*
X165067500Y-101830000D03*
X162792500Y-101830000D03*
X162792500Y-102780000D03*
X162792500Y-103730000D03*
%TD*%
D10*
%TO.C,Q1*%
X57980000Y-52435000D03*
X59130000Y-52435000D03*
X60280000Y-52435000D03*
X57980000Y-51585000D03*
X59130000Y-51585000D03*
X60280000Y-51585000D03*
X57980000Y-50735000D03*
X59130000Y-50735000D03*
X60280000Y-50735000D03*
D11*
X57250000Y-48885000D03*
X58530000Y-48885000D03*
X59730000Y-48885000D03*
X61010000Y-48885000D03*
D12*
X57220000Y-54605000D03*
X58490000Y-54605000D03*
X59770000Y-54605000D03*
X61040000Y-54605000D03*
%TD*%
D10*
%TO.C,Q4*%
X74480000Y-104515000D03*
X75630000Y-104515000D03*
X76780000Y-104515000D03*
X74480000Y-103665000D03*
X75630000Y-103665000D03*
X76780000Y-103665000D03*
X74480000Y-102815000D03*
X75630000Y-102815000D03*
X76780000Y-102815000D03*
D11*
X73750000Y-100965000D03*
X75030000Y-100965000D03*
X76230000Y-100965000D03*
X77510000Y-100965000D03*
D12*
X73720000Y-106685000D03*
X74990000Y-106685000D03*
X76270000Y-106685000D03*
X77540000Y-106685000D03*
%TD*%
D10*
%TO.C,Q4*%
X221840000Y-121875000D03*
X222990000Y-121875000D03*
X224140000Y-121875000D03*
X221840000Y-121025000D03*
X222990000Y-121025000D03*
X224140000Y-121025000D03*
X221840000Y-120175000D03*
X222990000Y-120175000D03*
X224140000Y-120175000D03*
D11*
X221110000Y-118325000D03*
X222390000Y-118325000D03*
X223590000Y-118325000D03*
X224870000Y-118325000D03*
D12*
X221080000Y-124045000D03*
X222350000Y-124045000D03*
X223630000Y-124045000D03*
X224900000Y-124045000D03*
%TD*%
D10*
%TO.C,Q4*%
X221840000Y-104515000D03*
X222990000Y-104515000D03*
X224140000Y-104515000D03*
X221840000Y-103665000D03*
X222990000Y-103665000D03*
X224140000Y-103665000D03*
X221840000Y-102815000D03*
X222990000Y-102815000D03*
X224140000Y-102815000D03*
D11*
X221110000Y-100965000D03*
X222390000Y-100965000D03*
X223590000Y-100965000D03*
X224870000Y-100965000D03*
D12*
X221080000Y-106685000D03*
X222350000Y-106685000D03*
X223630000Y-106685000D03*
X224900000Y-106685000D03*
%TD*%
D10*
%TO.C,Q4*%
X111320000Y-139235000D03*
X112470000Y-139235000D03*
X113620000Y-139235000D03*
X111320000Y-138385000D03*
X112470000Y-138385000D03*
X113620000Y-138385000D03*
X111320000Y-137535000D03*
X112470000Y-137535000D03*
X113620000Y-137535000D03*
D11*
X110590000Y-135685000D03*
X111870000Y-135685000D03*
X113070000Y-135685000D03*
X114350000Y-135685000D03*
D12*
X110560000Y-141405000D03*
X111830000Y-141405000D03*
X113110000Y-141405000D03*
X114380000Y-141405000D03*
%TD*%
D14*
%TO.C,F1*%
X117760000Y-87980000D03*
X117760000Y-85180000D03*
%TD*%
D10*
%TO.C,Q1*%
X205340000Y-87155000D03*
X206490000Y-87155000D03*
X207640000Y-87155000D03*
X205340000Y-86305000D03*
X206490000Y-86305000D03*
X207640000Y-86305000D03*
X205340000Y-85455000D03*
X206490000Y-85455000D03*
X207640000Y-85455000D03*
D11*
X204610000Y-83605000D03*
X205890000Y-83605000D03*
X207090000Y-83605000D03*
X208370000Y-83605000D03*
D12*
X204580000Y-89325000D03*
X205850000Y-89325000D03*
X207130000Y-89325000D03*
X208400000Y-89325000D03*
%TD*%
D14*
%TO.C,F1*%
X191440000Y-53260000D03*
X191440000Y-50460000D03*
%TD*%
D10*
%TO.C,Q2*%
X100320000Y-87155000D03*
X101470000Y-87155000D03*
X102620000Y-87155000D03*
X100320000Y-86305000D03*
X101470000Y-86305000D03*
X102620000Y-86305000D03*
X100320000Y-85455000D03*
X101470000Y-85455000D03*
X102620000Y-85455000D03*
D11*
X99590000Y-83605000D03*
X100870000Y-83605000D03*
X102070000Y-83605000D03*
X103350000Y-83605000D03*
D12*
X99560000Y-89325000D03*
X100830000Y-89325000D03*
X102110000Y-89325000D03*
X103380000Y-89325000D03*
%TD*%
D10*
%TO.C,Q1*%
X57980000Y-104515000D03*
X59130000Y-104515000D03*
X60280000Y-104515000D03*
X57980000Y-103665000D03*
X59130000Y-103665000D03*
X60280000Y-103665000D03*
X57980000Y-102815000D03*
X59130000Y-102815000D03*
X60280000Y-102815000D03*
D11*
X57250000Y-100965000D03*
X58530000Y-100965000D03*
X59730000Y-100965000D03*
X61010000Y-100965000D03*
D12*
X57220000Y-106685000D03*
X58490000Y-106685000D03*
X59770000Y-106685000D03*
X61040000Y-106685000D03*
%TD*%
D13*
%TO.C,U1*%
X91387500Y-121090000D03*
X91387500Y-120140000D03*
X91387500Y-119190000D03*
X89112500Y-119190000D03*
X89112500Y-120140000D03*
X89112500Y-121090000D03*
%TD*%
D14*
%TO.C,F1*%
X191440000Y-70620000D03*
X191440000Y-67820000D03*
%TD*%
D10*
%TO.C,Q2*%
X174000000Y-139235000D03*
X175150000Y-139235000D03*
X176300000Y-139235000D03*
X174000000Y-138385000D03*
X175150000Y-138385000D03*
X176300000Y-138385000D03*
X174000000Y-137535000D03*
X175150000Y-137535000D03*
X176300000Y-137535000D03*
D11*
X173270000Y-135685000D03*
X174550000Y-135685000D03*
X175750000Y-135685000D03*
X177030000Y-135685000D03*
D12*
X173240000Y-141405000D03*
X174510000Y-141405000D03*
X175790000Y-141405000D03*
X177060000Y-141405000D03*
%TD*%
D10*
%TO.C,Q4*%
X221840000Y-52435000D03*
X222990000Y-52435000D03*
X224140000Y-52435000D03*
X221840000Y-51585000D03*
X222990000Y-51585000D03*
X224140000Y-51585000D03*
X221840000Y-50735000D03*
X222990000Y-50735000D03*
X224140000Y-50735000D03*
D11*
X221110000Y-48885000D03*
X222390000Y-48885000D03*
X223590000Y-48885000D03*
X224870000Y-48885000D03*
D12*
X221080000Y-54605000D03*
X222350000Y-54605000D03*
X223630000Y-54605000D03*
X224900000Y-54605000D03*
%TD*%
D13*
%TO.C,U1*%
X54547500Y-138450000D03*
X54547500Y-137500000D03*
X54547500Y-136550000D03*
X52272500Y-136550000D03*
X52272500Y-137500000D03*
X52272500Y-138450000D03*
%TD*%
D10*
%TO.C,Q3*%
X142660000Y-104515000D03*
X143810000Y-104515000D03*
X144960000Y-104515000D03*
X142660000Y-103665000D03*
X143810000Y-103665000D03*
X144960000Y-103665000D03*
X142660000Y-102815000D03*
X143810000Y-102815000D03*
X144960000Y-102815000D03*
D11*
X141930000Y-100965000D03*
X143210000Y-100965000D03*
X144410000Y-100965000D03*
X145690000Y-100965000D03*
D12*
X141900000Y-106685000D03*
X143170000Y-106685000D03*
X144450000Y-106685000D03*
X145720000Y-106685000D03*
%TD*%
D10*
%TO.C,Q1*%
X205340000Y-104515000D03*
X206490000Y-104515000D03*
X207640000Y-104515000D03*
X205340000Y-103665000D03*
X206490000Y-103665000D03*
X207640000Y-103665000D03*
X205340000Y-102815000D03*
X206490000Y-102815000D03*
X207640000Y-102815000D03*
D11*
X204610000Y-100965000D03*
X205890000Y-100965000D03*
X207090000Y-100965000D03*
X208370000Y-100965000D03*
D12*
X204580000Y-106685000D03*
X205850000Y-106685000D03*
X207130000Y-106685000D03*
X208400000Y-106685000D03*
%TD*%
D13*
%TO.C,U1*%
X165067500Y-51650000D03*
X165067500Y-50700000D03*
X165067500Y-49750000D03*
X162792500Y-49750000D03*
X162792500Y-50700000D03*
X162792500Y-51650000D03*
%TD*%
D14*
%TO.C,F1*%
X80920000Y-105340000D03*
X80920000Y-102540000D03*
%TD*%
D13*
%TO.C,U1*%
X201907500Y-138450000D03*
X201907500Y-137500000D03*
X201907500Y-136550000D03*
X199632500Y-136550000D03*
X199632500Y-137500000D03*
X199632500Y-138450000D03*
%TD*%
D10*
%TO.C,Q3*%
X68980000Y-104515000D03*
X70130000Y-104515000D03*
X71280000Y-104515000D03*
X68980000Y-103665000D03*
X70130000Y-103665000D03*
X71280000Y-103665000D03*
X68980000Y-102815000D03*
X70130000Y-102815000D03*
X71280000Y-102815000D03*
D11*
X68250000Y-100965000D03*
X69530000Y-100965000D03*
X70730000Y-100965000D03*
X72010000Y-100965000D03*
D12*
X68220000Y-106685000D03*
X69490000Y-106685000D03*
X70770000Y-106685000D03*
X72040000Y-106685000D03*
%TD*%
D10*
%TO.C,Q4*%
X111320000Y-104515000D03*
X112470000Y-104515000D03*
X113620000Y-104515000D03*
X111320000Y-103665000D03*
X112470000Y-103665000D03*
X113620000Y-103665000D03*
X111320000Y-102815000D03*
X112470000Y-102815000D03*
X113620000Y-102815000D03*
D11*
X110590000Y-100965000D03*
X111870000Y-100965000D03*
X113070000Y-100965000D03*
X114350000Y-100965000D03*
D12*
X110560000Y-106685000D03*
X111830000Y-106685000D03*
X113110000Y-106685000D03*
X114380000Y-106685000D03*
%TD*%
D10*
%TO.C,Q1*%
X94820000Y-104515000D03*
X95970000Y-104515000D03*
X97120000Y-104515000D03*
X94820000Y-103665000D03*
X95970000Y-103665000D03*
X97120000Y-103665000D03*
X94820000Y-102815000D03*
X95970000Y-102815000D03*
X97120000Y-102815000D03*
D11*
X94090000Y-100965000D03*
X95370000Y-100965000D03*
X96570000Y-100965000D03*
X97850000Y-100965000D03*
D12*
X94060000Y-106685000D03*
X95330000Y-106685000D03*
X96610000Y-106685000D03*
X97880000Y-106685000D03*
%TD*%
D10*
%TO.C,Q1*%
X131660000Y-87155000D03*
X132810000Y-87155000D03*
X133960000Y-87155000D03*
X131660000Y-86305000D03*
X132810000Y-86305000D03*
X133960000Y-86305000D03*
X131660000Y-85455000D03*
X132810000Y-85455000D03*
X133960000Y-85455000D03*
D11*
X130930000Y-83605000D03*
X132210000Y-83605000D03*
X133410000Y-83605000D03*
X134690000Y-83605000D03*
D12*
X130900000Y-89325000D03*
X132170000Y-89325000D03*
X133450000Y-89325000D03*
X134720000Y-89325000D03*
%TD*%
D10*
%TO.C,Q2*%
X100320000Y-139235000D03*
X101470000Y-139235000D03*
X102620000Y-139235000D03*
X100320000Y-138385000D03*
X101470000Y-138385000D03*
X102620000Y-138385000D03*
X100320000Y-137535000D03*
X101470000Y-137535000D03*
X102620000Y-137535000D03*
D11*
X99590000Y-135685000D03*
X100870000Y-135685000D03*
X102070000Y-135685000D03*
X103350000Y-135685000D03*
D12*
X99560000Y-141405000D03*
X100830000Y-141405000D03*
X102110000Y-141405000D03*
X103380000Y-141405000D03*
%TD*%
D14*
%TO.C,F1*%
X228280000Y-140060000D03*
X228280000Y-137260000D03*
%TD*%
D10*
%TO.C,Q1*%
X94820000Y-52435000D03*
X95970000Y-52435000D03*
X97120000Y-52435000D03*
X94820000Y-51585000D03*
X95970000Y-51585000D03*
X97120000Y-51585000D03*
X94820000Y-50735000D03*
X95970000Y-50735000D03*
X97120000Y-50735000D03*
D11*
X94090000Y-48885000D03*
X95370000Y-48885000D03*
X96570000Y-48885000D03*
X97850000Y-48885000D03*
D12*
X94060000Y-54605000D03*
X95330000Y-54605000D03*
X96610000Y-54605000D03*
X97880000Y-54605000D03*
%TD*%
D10*
%TO.C,Q3*%
X105820000Y-87155000D03*
X106970000Y-87155000D03*
X108120000Y-87155000D03*
X105820000Y-86305000D03*
X106970000Y-86305000D03*
X108120000Y-86305000D03*
X105820000Y-85455000D03*
X106970000Y-85455000D03*
X108120000Y-85455000D03*
D11*
X105090000Y-83605000D03*
X106370000Y-83605000D03*
X107570000Y-83605000D03*
X108850000Y-83605000D03*
D12*
X105060000Y-89325000D03*
X106330000Y-89325000D03*
X107610000Y-89325000D03*
X108880000Y-89325000D03*
%TD*%
D14*
%TO.C,F1*%
X80920000Y-87980000D03*
X80920000Y-85180000D03*
%TD*%
D13*
%TO.C,U1*%
X54547500Y-86370000D03*
X54547500Y-85420000D03*
X54547500Y-84470000D03*
X52272500Y-84470000D03*
X52272500Y-85420000D03*
X52272500Y-86370000D03*
%TD*%
D10*
%TO.C,Q2*%
X137160000Y-121875000D03*
X138310000Y-121875000D03*
X139460000Y-121875000D03*
X137160000Y-121025000D03*
X138310000Y-121025000D03*
X139460000Y-121025000D03*
X137160000Y-120175000D03*
X138310000Y-120175000D03*
X139460000Y-120175000D03*
D11*
X136430000Y-118325000D03*
X137710000Y-118325000D03*
X138910000Y-118325000D03*
X140190000Y-118325000D03*
D12*
X136400000Y-124045000D03*
X137670000Y-124045000D03*
X138950000Y-124045000D03*
X140220000Y-124045000D03*
%TD*%
D13*
%TO.C,U1*%
X165067500Y-69010000D03*
X165067500Y-68060000D03*
X165067500Y-67110000D03*
X162792500Y-67110000D03*
X162792500Y-68060000D03*
X162792500Y-69010000D03*
%TD*%
D10*
%TO.C,Q1*%
X168500000Y-52435000D03*
X169650000Y-52435000D03*
X170800000Y-52435000D03*
X168500000Y-51585000D03*
X169650000Y-51585000D03*
X170800000Y-51585000D03*
X168500000Y-50735000D03*
X169650000Y-50735000D03*
X170800000Y-50735000D03*
D11*
X167770000Y-48885000D03*
X169050000Y-48885000D03*
X170250000Y-48885000D03*
X171530000Y-48885000D03*
D12*
X167740000Y-54605000D03*
X169010000Y-54605000D03*
X170290000Y-54605000D03*
X171560000Y-54605000D03*
%TD*%
D10*
%TO.C,Q2*%
X137160000Y-87155000D03*
X138310000Y-87155000D03*
X139460000Y-87155000D03*
X137160000Y-86305000D03*
X138310000Y-86305000D03*
X139460000Y-86305000D03*
X137160000Y-85455000D03*
X138310000Y-85455000D03*
X139460000Y-85455000D03*
D11*
X136430000Y-83605000D03*
X137710000Y-83605000D03*
X138910000Y-83605000D03*
X140190000Y-83605000D03*
D12*
X136400000Y-89325000D03*
X137670000Y-89325000D03*
X138950000Y-89325000D03*
X140220000Y-89325000D03*
%TD*%
D13*
%TO.C,U1*%
X201907500Y-103730000D03*
X201907500Y-102780000D03*
X201907500Y-101830000D03*
X199632500Y-101830000D03*
X199632500Y-102780000D03*
X199632500Y-103730000D03*
%TD*%
%TO.C,U1*%
X201907500Y-121090000D03*
X201907500Y-120140000D03*
X201907500Y-119190000D03*
X199632500Y-119190000D03*
X199632500Y-120140000D03*
X199632500Y-121090000D03*
%TD*%
%TO.C,U1*%
X165067500Y-138450000D03*
X165067500Y-137500000D03*
X165067500Y-136550000D03*
X162792500Y-136550000D03*
X162792500Y-137500000D03*
X162792500Y-138450000D03*
%TD*%
D14*
%TO.C,F1*%
X154600000Y-140060000D03*
X154600000Y-137260000D03*
%TD*%
%TO.C,F1*%
X191440000Y-140060000D03*
X191440000Y-137260000D03*
%TD*%
D10*
%TO.C,Q2*%
X174000000Y-87155000D03*
X175150000Y-87155000D03*
X176300000Y-87155000D03*
X174000000Y-86305000D03*
X175150000Y-86305000D03*
X176300000Y-86305000D03*
X174000000Y-85455000D03*
X175150000Y-85455000D03*
X176300000Y-85455000D03*
D11*
X173270000Y-83605000D03*
X174550000Y-83605000D03*
X175750000Y-83605000D03*
X177030000Y-83605000D03*
D12*
X173240000Y-89325000D03*
X174510000Y-89325000D03*
X175790000Y-89325000D03*
X177060000Y-89325000D03*
%TD*%
D14*
%TO.C,F1*%
X154600000Y-70620000D03*
X154600000Y-67820000D03*
%TD*%
D10*
%TO.C,Q3*%
X179500000Y-52435000D03*
X180650000Y-52435000D03*
X181800000Y-52435000D03*
X179500000Y-51585000D03*
X180650000Y-51585000D03*
X181800000Y-51585000D03*
X179500000Y-50735000D03*
X180650000Y-50735000D03*
X181800000Y-50735000D03*
D11*
X178770000Y-48885000D03*
X180050000Y-48885000D03*
X181250000Y-48885000D03*
X182530000Y-48885000D03*
D12*
X178740000Y-54605000D03*
X180010000Y-54605000D03*
X181290000Y-54605000D03*
X182560000Y-54605000D03*
%TD*%
D10*
%TO.C,Q3*%
X105820000Y-69795000D03*
X106970000Y-69795000D03*
X108120000Y-69795000D03*
X105820000Y-68945000D03*
X106970000Y-68945000D03*
X108120000Y-68945000D03*
X105820000Y-68095000D03*
X106970000Y-68095000D03*
X108120000Y-68095000D03*
D11*
X105090000Y-66245000D03*
X106370000Y-66245000D03*
X107570000Y-66245000D03*
X108850000Y-66245000D03*
D12*
X105060000Y-71965000D03*
X106330000Y-71965000D03*
X107610000Y-71965000D03*
X108880000Y-71965000D03*
%TD*%
D13*
%TO.C,U1*%
X128227500Y-103730000D03*
X128227500Y-102780000D03*
X128227500Y-101830000D03*
X125952500Y-101830000D03*
X125952500Y-102780000D03*
X125952500Y-103730000D03*
%TD*%
D10*
%TO.C,Q2*%
X63480000Y-69795000D03*
X64630000Y-69795000D03*
X65780000Y-69795000D03*
X63480000Y-68945000D03*
X64630000Y-68945000D03*
X65780000Y-68945000D03*
X63480000Y-68095000D03*
X64630000Y-68095000D03*
X65780000Y-68095000D03*
D11*
X62750000Y-66245000D03*
X64030000Y-66245000D03*
X65230000Y-66245000D03*
X66510000Y-66245000D03*
D12*
X62720000Y-71965000D03*
X63990000Y-71965000D03*
X65270000Y-71965000D03*
X66540000Y-71965000D03*
%TD*%
D10*
%TO.C,Q4*%
X185000000Y-69795000D03*
X186150000Y-69795000D03*
X187300000Y-69795000D03*
X185000000Y-68945000D03*
X186150000Y-68945000D03*
X187300000Y-68945000D03*
X185000000Y-68095000D03*
X186150000Y-68095000D03*
X187300000Y-68095000D03*
D11*
X184270000Y-66245000D03*
X185550000Y-66245000D03*
X186750000Y-66245000D03*
X188030000Y-66245000D03*
D12*
X184240000Y-71965000D03*
X185510000Y-71965000D03*
X186790000Y-71965000D03*
X188060000Y-71965000D03*
%TD*%
D10*
%TO.C,Q3*%
X179500000Y-139235000D03*
X180650000Y-139235000D03*
X181800000Y-139235000D03*
X179500000Y-138385000D03*
X180650000Y-138385000D03*
X181800000Y-138385000D03*
X179500000Y-137535000D03*
X180650000Y-137535000D03*
X181800000Y-137535000D03*
D11*
X178770000Y-135685000D03*
X180050000Y-135685000D03*
X181250000Y-135685000D03*
X182530000Y-135685000D03*
D12*
X178740000Y-141405000D03*
X180010000Y-141405000D03*
X181290000Y-141405000D03*
X182560000Y-141405000D03*
%TD*%
D10*
%TO.C,Q4*%
X148160000Y-52435000D03*
X149310000Y-52435000D03*
X150460000Y-52435000D03*
X148160000Y-51585000D03*
X149310000Y-51585000D03*
X150460000Y-51585000D03*
X148160000Y-50735000D03*
X149310000Y-50735000D03*
X150460000Y-50735000D03*
D11*
X147430000Y-48885000D03*
X148710000Y-48885000D03*
X149910000Y-48885000D03*
X151190000Y-48885000D03*
D12*
X147400000Y-54605000D03*
X148670000Y-54605000D03*
X149950000Y-54605000D03*
X151220000Y-54605000D03*
%TD*%
D10*
%TO.C,Q2*%
X174000000Y-121875000D03*
X175150000Y-121875000D03*
X176300000Y-121875000D03*
X174000000Y-121025000D03*
X175150000Y-121025000D03*
X176300000Y-121025000D03*
X174000000Y-120175000D03*
X175150000Y-120175000D03*
X176300000Y-120175000D03*
D11*
X173270000Y-118325000D03*
X174550000Y-118325000D03*
X175750000Y-118325000D03*
X177030000Y-118325000D03*
D12*
X173240000Y-124045000D03*
X174510000Y-124045000D03*
X175790000Y-124045000D03*
X177060000Y-124045000D03*
%TD*%
D14*
%TO.C,F1*%
X228280000Y-53260000D03*
X228280000Y-50460000D03*
%TD*%
D13*
%TO.C,U1*%
X201907500Y-86370000D03*
X201907500Y-85420000D03*
X201907500Y-84470000D03*
X199632500Y-84470000D03*
X199632500Y-85420000D03*
X199632500Y-86370000D03*
%TD*%
M02*
