%TF.GenerationSoftware,KiCad,Pcbnew,8.0.1*%
%TF.CreationDate,2024-05-29T13:53:09-05:00*%
%TF.ProjectId,eve PCB Project,65766520-5043-4422-9050-726f6a656374,rev?*%
%TF.SameCoordinates,Original*%
%TF.FileFunction,Soldermask,Top*%
%TF.FilePolarity,Negative*%
%FSLAX46Y46*%
G04 Gerber Fmt 4.6, Leading zero omitted, Abs format (unit mm)*
G04 Created by KiCad (PCBNEW 8.0.1) date 2024-05-29 13:53:09*
%MOMM*%
%LPD*%
G01*
G04 APERTURE LIST*
G04 Aperture macros list*
%AMRoundRect*
0 Rectangle with rounded corners*
0 $1 Rounding radius*
0 $2 $3 $4 $5 $6 $7 $8 $9 X,Y pos of 4 corners*
0 Add a 4 corners polygon primitive as box body*
4,1,4,$2,$3,$4,$5,$6,$7,$8,$9,$2,$3,0*
0 Add four circle primitives for the rounded corners*
1,1,$1+$1,$2,$3*
1,1,$1+$1,$4,$5*
1,1,$1+$1,$6,$7*
1,1,$1+$1,$8,$9*
0 Add four rect primitives between the rounded corners*
20,1,$1+$1,$2,$3,$4,$5,0*
20,1,$1+$1,$4,$5,$6,$7,0*
20,1,$1+$1,$6,$7,$8,$9,0*
20,1,$1+$1,$8,$9,$2,$3,0*%
%AMFreePoly0*
4,1,9,2.975000,-2.350000,1.425000,-2.350000,1.425000,-2.100000,-1.650000,-2.100000,-1.650000,2.100000,1.425000,2.100000,1.425000,2.350000,2.975000,2.350000,2.975000,-2.350000,2.975000,-2.350000,$1*%
G04 Aperture macros list end*
%ADD10C,0.500000*%
%ADD11RoundRect,0.250000X-1.750000X-1.750000X1.750000X-1.750000X1.750000X1.750000X-1.750000X1.750000X0*%
%ADD12RoundRect,0.250000X0.550000X-0.550000X0.550000X0.550000X-0.550000X0.550000X-0.550000X-0.550000X0*%
%ADD13RoundRect,0.175000X-0.175000X-0.400000X0.175000X-0.400000X0.175000X0.400000X-0.175000X0.400000X0*%
%ADD14FreePoly0,90.000000*%
%ADD15RoundRect,0.150000X0.512500X0.150000X-0.512500X0.150000X-0.512500X-0.150000X0.512500X-0.150000X0*%
%ADD16RoundRect,0.250000X0.550000X0.550000X-0.550000X0.550000X-0.550000X-0.550000X0.550000X-0.550000X0*%
%ADD17RoundRect,0.250000X1.750000X1.750000X-1.750000X1.750000X-1.750000X-1.750000X1.750000X-1.750000X0*%
%ADD18RoundRect,0.250000X0.625000X-0.375000X0.625000X0.375000X-0.625000X0.375000X-0.625000X-0.375000X0*%
G04 APERTURE END LIST*
D10*
%TO.C,mouse-bite-3mm-slot*%
X175928000Y-94720000D03*
X175928000Y-97720000D03*
X176678000Y-97720000D03*
X176690000Y-94720000D03*
X177440000Y-94720000D03*
X177440000Y-97720000D03*
X178190000Y-94720000D03*
X178190000Y-97720000D03*
X178964000Y-94720000D03*
X178964000Y-97720000D03*
%TD*%
D11*
%TO.C,Lead (-)*%
X117770000Y-126090000D03*
%TD*%
D10*
%TO.C,mouse-bite-3mm-slot*%
X175928000Y-112080000D03*
X175928000Y-115080000D03*
X176678000Y-115080000D03*
X176690000Y-112080000D03*
X177440000Y-112080000D03*
X177440000Y-115080000D03*
X178190000Y-112080000D03*
X178190000Y-115080000D03*
X178964000Y-112080000D03*
X178964000Y-115080000D03*
%TD*%
D11*
%TO.C,Lead (-)*%
X191450000Y-143450000D03*
%TD*%
D12*
%TO.C,GND*%
X91890000Y-123140000D03*
%TD*%
D13*
%TO.C,Q1*%
X167740000Y-89325000D03*
X169010000Y-89325000D03*
X170290000Y-89325000D03*
X171560000Y-89325000D03*
D14*
X169650000Y-86055000D03*
%TD*%
D12*
%TO.C,5V*%
X91890000Y-134500000D03*
%TD*%
D11*
%TO.C,Lead (-)*%
X228290000Y-74010000D03*
%TD*%
D15*
%TO.C,U1*%
X128227500Y-121090000D03*
X128227500Y-120140000D03*
X128227500Y-119190000D03*
X125952500Y-119190000D03*
X125952500Y-120140000D03*
X125952500Y-121090000D03*
%TD*%
D12*
%TO.C,GND*%
X202410000Y-123140000D03*
%TD*%
%TO.C,GND*%
X165570000Y-71060000D03*
%TD*%
D11*
%TO.C,Lead (-)*%
X154610000Y-56650000D03*
%TD*%
D16*
%TO.C,SCL*%
X162960000Y-88420000D03*
%TD*%
D13*
%TO.C,Q4*%
X147400000Y-89325000D03*
X148670000Y-89325000D03*
X149950000Y-89325000D03*
X151220000Y-89325000D03*
D14*
X149310000Y-86055000D03*
%TD*%
D17*
%TO.C,GND*%
X53830000Y-92220000D03*
%TD*%
%TO.C,GND*%
X90670000Y-57500000D03*
%TD*%
D18*
%TO.C,F1*%
X117760000Y-105340000D03*
X117760000Y-102540000D03*
%TD*%
D12*
%TO.C,GND*%
X128730000Y-123140000D03*
%TD*%
D11*
%TO.C,Lead (-)*%
X191450000Y-74010000D03*
%TD*%
D12*
%TO.C,5V*%
X165570000Y-47700000D03*
%TD*%
D10*
%TO.C,mouse-bite-3mm-slot*%
X212768000Y-42640000D03*
X212768000Y-45640000D03*
X213518000Y-45640000D03*
X213530000Y-42640000D03*
X214280000Y-42640000D03*
X214280000Y-45640000D03*
X215030000Y-42640000D03*
X215030000Y-45640000D03*
X215804000Y-42640000D03*
X215804000Y-45640000D03*
%TD*%
D13*
%TO.C,Q3*%
X68220000Y-124045000D03*
X69490000Y-124045000D03*
X70770000Y-124045000D03*
X72040000Y-124045000D03*
D14*
X70130000Y-120775000D03*
%TD*%
D12*
%TO.C,GND*%
X55050000Y-53700000D03*
%TD*%
%TO.C,SDA*%
X162950000Y-117140000D03*
%TD*%
D18*
%TO.C,F1*%
X117760000Y-140060000D03*
X117760000Y-137260000D03*
%TD*%
D17*
%TO.C,GND*%
X90670000Y-144300000D03*
%TD*%
D10*
%TO.C,mouse-bite-3mm-slot*%
X157520000Y-89052000D03*
X160520000Y-89052000D03*
X160520000Y-88302000D03*
X157520000Y-88290000D03*
X157520000Y-87540000D03*
X160520000Y-87540000D03*
X157520000Y-86790000D03*
X160520000Y-86790000D03*
X157520000Y-86016000D03*
X160520000Y-86016000D03*
%TD*%
D13*
%TO.C,Q1*%
X204580000Y-124045000D03*
X205850000Y-124045000D03*
X207130000Y-124045000D03*
X208400000Y-124045000D03*
D14*
X206490000Y-120775000D03*
%TD*%
D12*
%TO.C,SDA*%
X162950000Y-99780000D03*
%TD*%
D15*
%TO.C,U1*%
X91387500Y-51650000D03*
X91387500Y-50700000D03*
X91387500Y-49750000D03*
X89112500Y-49750000D03*
X89112500Y-50700000D03*
X89112500Y-51650000D03*
%TD*%
D13*
%TO.C,Q3*%
X105060000Y-106685000D03*
X106330000Y-106685000D03*
X107610000Y-106685000D03*
X108880000Y-106685000D03*
D14*
X106970000Y-103415000D03*
%TD*%
D13*
%TO.C,Q2*%
X136400000Y-141405000D03*
X137670000Y-141405000D03*
X138950000Y-141405000D03*
X140220000Y-141405000D03*
D14*
X138310000Y-138135000D03*
%TD*%
D13*
%TO.C,Q3*%
X215580000Y-71965000D03*
X216850000Y-71965000D03*
X218130000Y-71965000D03*
X219400000Y-71965000D03*
D14*
X217490000Y-68695000D03*
%TD*%
D11*
%TO.C,Lead (-)*%
X117770000Y-143450000D03*
%TD*%
D13*
%TO.C,Q3*%
X178740000Y-124045000D03*
X180010000Y-124045000D03*
X181290000Y-124045000D03*
X182560000Y-124045000D03*
D14*
X180650000Y-120775000D03*
%TD*%
D12*
%TO.C,SDA*%
X52430000Y-82420000D03*
%TD*%
D11*
%TO.C,Lead (-)*%
X228290000Y-143450000D03*
%TD*%
D15*
%TO.C,U1*%
X91387500Y-69010000D03*
X91387500Y-68060000D03*
X91387500Y-67110000D03*
X89112500Y-67110000D03*
X89112500Y-68060000D03*
X89112500Y-69010000D03*
%TD*%
D12*
%TO.C,5V*%
X202410000Y-65060000D03*
%TD*%
D13*
%TO.C,Q3*%
X68220000Y-89325000D03*
X69490000Y-89325000D03*
X70770000Y-89325000D03*
X72040000Y-89325000D03*
D14*
X70130000Y-86055000D03*
%TD*%
D13*
%TO.C,Q4*%
X184240000Y-106685000D03*
X185510000Y-106685000D03*
X186790000Y-106685000D03*
X188060000Y-106685000D03*
D14*
X186150000Y-103415000D03*
%TD*%
D12*
%TO.C,SDA*%
X52430000Y-99780000D03*
%TD*%
D13*
%TO.C,Q3*%
X105060000Y-54605000D03*
X106330000Y-54605000D03*
X107610000Y-54605000D03*
X108880000Y-54605000D03*
D14*
X106970000Y-51335000D03*
%TD*%
D17*
%TO.C,GND*%
X53830000Y-126940000D03*
%TD*%
D12*
%TO.C,GND*%
X202410000Y-71060000D03*
%TD*%
D15*
%TO.C,U1*%
X128227500Y-69010000D03*
X128227500Y-68060000D03*
X128227500Y-67110000D03*
X125952500Y-67110000D03*
X125952500Y-68060000D03*
X125952500Y-69010000D03*
%TD*%
D13*
%TO.C,Q4*%
X110560000Y-124045000D03*
X111830000Y-124045000D03*
X113110000Y-124045000D03*
X114380000Y-124045000D03*
D14*
X112470000Y-120775000D03*
%TD*%
D12*
%TO.C,5V*%
X128730000Y-117140000D03*
%TD*%
D15*
%TO.C,U1*%
X165067500Y-121090000D03*
X165067500Y-120140000D03*
X165067500Y-119190000D03*
X162792500Y-119190000D03*
X162792500Y-120140000D03*
X162792500Y-121090000D03*
%TD*%
D10*
%TO.C,mouse-bite-3mm-slot*%
X120680000Y-89052000D03*
X123680000Y-89052000D03*
X123680000Y-88302000D03*
X120680000Y-88290000D03*
X120680000Y-87540000D03*
X123680000Y-87540000D03*
X120680000Y-86790000D03*
X123680000Y-86790000D03*
X120680000Y-86016000D03*
X123680000Y-86016000D03*
%TD*%
D12*
%TO.C,SDA*%
X199790000Y-47700000D03*
%TD*%
%TO.C,SDA*%
X126110000Y-117140000D03*
%TD*%
D15*
%TO.C,U1*%
X54547500Y-103730000D03*
X54547500Y-102780000D03*
X54547500Y-101830000D03*
X52272500Y-101830000D03*
X52272500Y-102780000D03*
X52272500Y-103730000D03*
%TD*%
D12*
%TO.C,SDA*%
X52430000Y-117140000D03*
%TD*%
D10*
%TO.C,mouse-bite-3mm-slot*%
X102248000Y-94720000D03*
X102248000Y-97720000D03*
X102998000Y-97720000D03*
X103010000Y-94720000D03*
X103760000Y-94720000D03*
X103760000Y-97720000D03*
X104510000Y-94720000D03*
X104510000Y-97720000D03*
X105284000Y-94720000D03*
X105284000Y-97720000D03*
%TD*%
D12*
%TO.C,SDA*%
X199790000Y-82420000D03*
%TD*%
%TO.C,5V*%
X165570000Y-65060000D03*
%TD*%
D13*
%TO.C,Q3*%
X68220000Y-54605000D03*
X69490000Y-54605000D03*
X70770000Y-54605000D03*
X72040000Y-54605000D03*
D14*
X70130000Y-51335000D03*
%TD*%
D18*
%TO.C,F1*%
X80920000Y-53260000D03*
X80920000Y-50460000D03*
%TD*%
D13*
%TO.C,Q4*%
X184240000Y-141405000D03*
X185510000Y-141405000D03*
X186790000Y-141405000D03*
X188060000Y-141405000D03*
D14*
X186150000Y-138135000D03*
%TD*%
D13*
%TO.C,Q4*%
X147400000Y-106685000D03*
X148670000Y-106685000D03*
X149950000Y-106685000D03*
X151220000Y-106685000D03*
D14*
X149310000Y-103415000D03*
%TD*%
D12*
%TO.C,GND*%
X202410000Y-105780000D03*
%TD*%
D17*
%TO.C,GND*%
X164350000Y-109580000D03*
%TD*%
%TO.C,GND*%
X164350000Y-57500000D03*
%TD*%
D11*
%TO.C,Lead (-)*%
X228290000Y-56650000D03*
%TD*%
D12*
%TO.C,SDA*%
X199790000Y-134500000D03*
%TD*%
D13*
%TO.C,Q3*%
X215580000Y-54605000D03*
X216850000Y-54605000D03*
X218130000Y-54605000D03*
X219400000Y-54605000D03*
D14*
X217490000Y-51335000D03*
%TD*%
D13*
%TO.C,Q3*%
X215580000Y-89325000D03*
X216850000Y-89325000D03*
X218130000Y-89325000D03*
X219400000Y-89325000D03*
D14*
X217490000Y-86055000D03*
%TD*%
D11*
%TO.C,Lead (-)*%
X228290000Y-126090000D03*
%TD*%
D15*
%TO.C,U1*%
X165067500Y-86370000D03*
X165067500Y-85420000D03*
X165067500Y-84470000D03*
X162792500Y-84470000D03*
X162792500Y-85420000D03*
X162792500Y-86370000D03*
%TD*%
D11*
%TO.C,Lead (-)*%
X117770000Y-108730000D03*
%TD*%
D17*
%TO.C,GND*%
X164350000Y-126940000D03*
%TD*%
%TO.C,GND*%
X90670000Y-109580000D03*
%TD*%
D10*
%TO.C,mouse-bite-3mm-slot*%
X194360000Y-141132000D03*
X197360000Y-141132000D03*
X197360000Y-140382000D03*
X194360000Y-140370000D03*
X194360000Y-139620000D03*
X197360000Y-139620000D03*
X194360000Y-138870000D03*
X197360000Y-138870000D03*
X194360000Y-138096000D03*
X197360000Y-138096000D03*
%TD*%
%TO.C,mouse-bite-3mm-slot*%
X102248000Y-112080000D03*
X102248000Y-115080000D03*
X102998000Y-115080000D03*
X103010000Y-112080000D03*
X103760000Y-112080000D03*
X103760000Y-115080000D03*
X104510000Y-112080000D03*
X104510000Y-115080000D03*
X105284000Y-112080000D03*
X105284000Y-115080000D03*
%TD*%
%TO.C,mouse-bite-3mm-slot*%
X120680000Y-71692000D03*
X123680000Y-71692000D03*
X123680000Y-70942000D03*
X120680000Y-70930000D03*
X120680000Y-70180000D03*
X123680000Y-70180000D03*
X120680000Y-69430000D03*
X123680000Y-69430000D03*
X120680000Y-68656000D03*
X123680000Y-68656000D03*
%TD*%
D13*
%TO.C,Q3*%
X178740000Y-89325000D03*
X180010000Y-89325000D03*
X181290000Y-89325000D03*
X182560000Y-89325000D03*
D14*
X180650000Y-86055000D03*
%TD*%
D12*
%TO.C,5V*%
X165570000Y-99780000D03*
%TD*%
D10*
%TO.C,mouse-bite-3mm-slot*%
X65408000Y-42640000D03*
X65408000Y-45640000D03*
X66158000Y-45640000D03*
X66170000Y-42640000D03*
X66920000Y-42640000D03*
X66920000Y-45640000D03*
X67670000Y-42640000D03*
X67670000Y-45640000D03*
X68444000Y-42640000D03*
X68444000Y-45640000D03*
%TD*%
D13*
%TO.C,Q3*%
X141900000Y-54605000D03*
X143170000Y-54605000D03*
X144450000Y-54605000D03*
X145720000Y-54605000D03*
D14*
X143810000Y-51335000D03*
%TD*%
D12*
%TO.C,5V*%
X55050000Y-82420000D03*
%TD*%
%TO.C,SDA*%
X126110000Y-82420000D03*
%TD*%
D13*
%TO.C,Q3*%
X178740000Y-106685000D03*
X180010000Y-106685000D03*
X181290000Y-106685000D03*
X182560000Y-106685000D03*
D14*
X180650000Y-103415000D03*
%TD*%
D17*
%TO.C,GND*%
X90670000Y-92220000D03*
%TD*%
D10*
%TO.C,mouse-bite-3mm-slot*%
X194360000Y-123772000D03*
X197360000Y-123772000D03*
X197360000Y-123022000D03*
X194360000Y-123010000D03*
X194360000Y-122260000D03*
X197360000Y-122260000D03*
X194360000Y-121510000D03*
X197360000Y-121510000D03*
X194360000Y-120736000D03*
X197360000Y-120736000D03*
%TD*%
D12*
%TO.C,SDA*%
X162950000Y-65060000D03*
%TD*%
D10*
%TO.C,mouse-bite-3mm-slot*%
X157520000Y-71692000D03*
X160520000Y-71692000D03*
X160520000Y-70942000D03*
X157520000Y-70930000D03*
X157520000Y-70180000D03*
X160520000Y-70180000D03*
X157520000Y-69430000D03*
X160520000Y-69430000D03*
X157520000Y-68656000D03*
X160520000Y-68656000D03*
%TD*%
D13*
%TO.C,Q2*%
X210080000Y-89325000D03*
X211350000Y-89325000D03*
X212630000Y-89325000D03*
X213900000Y-89325000D03*
D14*
X211990000Y-86055000D03*
%TD*%
D10*
%TO.C,mouse-bite-3mm-slot*%
X157520000Y-141132000D03*
X160520000Y-141132000D03*
X160520000Y-140382000D03*
X157520000Y-140370000D03*
X157520000Y-139620000D03*
X160520000Y-139620000D03*
X157520000Y-138870000D03*
X160520000Y-138870000D03*
X157520000Y-138096000D03*
X160520000Y-138096000D03*
%TD*%
D11*
%TO.C,Lead (-)*%
X191450000Y-56650000D03*
%TD*%
D13*
%TO.C,Q4*%
X73720000Y-124045000D03*
X74990000Y-124045000D03*
X76270000Y-124045000D03*
X77540000Y-124045000D03*
D14*
X75630000Y-120775000D03*
%TD*%
D17*
%TO.C,GND*%
X53830000Y-74860000D03*
%TD*%
D16*
%TO.C,SCL*%
X126120000Y-53700000D03*
%TD*%
D10*
%TO.C,mouse-bite-3mm-slot*%
X139088000Y-94720000D03*
X139088000Y-97720000D03*
X139838000Y-97720000D03*
X139850000Y-94720000D03*
X140600000Y-94720000D03*
X140600000Y-97720000D03*
X141350000Y-94720000D03*
X141350000Y-97720000D03*
X142124000Y-94720000D03*
X142124000Y-97720000D03*
%TD*%
D15*
%TO.C,U1*%
X128227500Y-138450000D03*
X128227500Y-137500000D03*
X128227500Y-136550000D03*
X125952500Y-136550000D03*
X125952500Y-137500000D03*
X125952500Y-138450000D03*
%TD*%
D13*
%TO.C,Q3*%
X215580000Y-106685000D03*
X216850000Y-106685000D03*
X218130000Y-106685000D03*
X219400000Y-106685000D03*
D14*
X217490000Y-103415000D03*
%TD*%
D18*
%TO.C,F1*%
X191440000Y-87980000D03*
X191440000Y-85180000D03*
%TD*%
D13*
%TO.C,Q1*%
X204580000Y-141405000D03*
X205850000Y-141405000D03*
X207130000Y-141405000D03*
X208400000Y-141405000D03*
D14*
X206490000Y-138135000D03*
%TD*%
D11*
%TO.C,Lead (-)*%
X117770000Y-56650000D03*
%TD*%
D10*
%TO.C,mouse-bite-3mm-slot*%
X120680000Y-54332000D03*
X123680000Y-54332000D03*
X123680000Y-53582000D03*
X120680000Y-53570000D03*
X120680000Y-52820000D03*
X123680000Y-52820000D03*
X120680000Y-52070000D03*
X123680000Y-52070000D03*
X120680000Y-51296000D03*
X123680000Y-51296000D03*
%TD*%
D13*
%TO.C,Q2*%
X99560000Y-124045000D03*
X100830000Y-124045000D03*
X102110000Y-124045000D03*
X103380000Y-124045000D03*
D14*
X101470000Y-120775000D03*
%TD*%
D13*
%TO.C,Q3*%
X105060000Y-141405000D03*
X106330000Y-141405000D03*
X107610000Y-141405000D03*
X108880000Y-141405000D03*
D14*
X106970000Y-138135000D03*
%TD*%
D16*
%TO.C,SCL*%
X89280000Y-71060000D03*
%TD*%
D13*
%TO.C,Q1*%
X167740000Y-71965000D03*
X169010000Y-71965000D03*
X170290000Y-71965000D03*
X171560000Y-71965000D03*
D14*
X169650000Y-68695000D03*
%TD*%
D12*
%TO.C,5V*%
X128730000Y-47700000D03*
%TD*%
D10*
%TO.C,mouse-bite-3mm-slot*%
X212768000Y-112080000D03*
X212768000Y-115080000D03*
X213518000Y-115080000D03*
X213530000Y-112080000D03*
X214280000Y-112080000D03*
X214280000Y-115080000D03*
X215030000Y-112080000D03*
X215030000Y-115080000D03*
X215804000Y-112080000D03*
X215804000Y-115080000D03*
%TD*%
D13*
%TO.C,Q4*%
X110560000Y-89325000D03*
X111830000Y-89325000D03*
X113110000Y-89325000D03*
X114380000Y-89325000D03*
D14*
X112470000Y-86055000D03*
%TD*%
D13*
%TO.C,Q4*%
X184240000Y-54605000D03*
X185510000Y-54605000D03*
X186790000Y-54605000D03*
X188060000Y-54605000D03*
D14*
X186150000Y-51335000D03*
%TD*%
D13*
%TO.C,Q4*%
X147400000Y-71965000D03*
X148670000Y-71965000D03*
X149950000Y-71965000D03*
X151220000Y-71965000D03*
D14*
X149310000Y-68695000D03*
%TD*%
D15*
%TO.C,U1*%
X128227500Y-51650000D03*
X128227500Y-50700000D03*
X128227500Y-49750000D03*
X125952500Y-49750000D03*
X125952500Y-50700000D03*
X125952500Y-51650000D03*
%TD*%
D10*
%TO.C,mouse-bite-3mm-slot*%
X102248000Y-60000000D03*
X102248000Y-63000000D03*
X102998000Y-63000000D03*
X103010000Y-60000000D03*
X103760000Y-60000000D03*
X103760000Y-63000000D03*
X104510000Y-60000000D03*
X104510000Y-63000000D03*
X105284000Y-60000000D03*
X105284000Y-63000000D03*
%TD*%
D11*
%TO.C,Lead (-)*%
X154610000Y-91370000D03*
%TD*%
D13*
%TO.C,Q1*%
X130900000Y-71965000D03*
X132170000Y-71965000D03*
X133450000Y-71965000D03*
X134720000Y-71965000D03*
D14*
X132810000Y-68695000D03*
%TD*%
D12*
%TO.C,5V*%
X128730000Y-134500000D03*
%TD*%
D10*
%TO.C,mouse-bite-3mm-slot*%
X212768000Y-94720000D03*
X212768000Y-97720000D03*
X213518000Y-97720000D03*
X213530000Y-94720000D03*
X214280000Y-94720000D03*
X214280000Y-97720000D03*
X215030000Y-94720000D03*
X215030000Y-97720000D03*
X215804000Y-94720000D03*
X215804000Y-97720000D03*
%TD*%
D18*
%TO.C,F1*%
X154600000Y-122700000D03*
X154600000Y-119900000D03*
%TD*%
D12*
%TO.C,SDA*%
X126110000Y-65060000D03*
%TD*%
%TO.C,GND*%
X165570000Y-105780000D03*
%TD*%
D13*
%TO.C,Q4*%
X184240000Y-124045000D03*
X185510000Y-124045000D03*
X186790000Y-124045000D03*
X188060000Y-124045000D03*
D14*
X186150000Y-120775000D03*
%TD*%
D12*
%TO.C,5V*%
X165570000Y-82420000D03*
%TD*%
D13*
%TO.C,Q1*%
X130900000Y-124045000D03*
X132170000Y-124045000D03*
X133450000Y-124045000D03*
X134720000Y-124045000D03*
D14*
X132810000Y-120775000D03*
%TD*%
D12*
%TO.C,GND*%
X128730000Y-53700000D03*
%TD*%
D13*
%TO.C,Q3*%
X68220000Y-141405000D03*
X69490000Y-141405000D03*
X70770000Y-141405000D03*
X72040000Y-141405000D03*
D14*
X70130000Y-138135000D03*
%TD*%
D18*
%TO.C,F1*%
X117760000Y-122700000D03*
X117760000Y-119900000D03*
%TD*%
%TO.C,F1*%
X80920000Y-140060000D03*
X80920000Y-137260000D03*
%TD*%
D13*
%TO.C,Q4*%
X73720000Y-71965000D03*
X74990000Y-71965000D03*
X76270000Y-71965000D03*
X77540000Y-71965000D03*
D14*
X75630000Y-68695000D03*
%TD*%
D10*
%TO.C,mouse-bite-3mm-slot*%
X212768000Y-146800000D03*
X212768000Y-149800000D03*
X213518000Y-149800000D03*
X213530000Y-146800000D03*
X214280000Y-146800000D03*
X214280000Y-149800000D03*
X215030000Y-146800000D03*
X215030000Y-149800000D03*
X215804000Y-146800000D03*
X215804000Y-149800000D03*
%TD*%
D13*
%TO.C,Q1*%
X130900000Y-54605000D03*
X132170000Y-54605000D03*
X133450000Y-54605000D03*
X134720000Y-54605000D03*
D14*
X132810000Y-51335000D03*
%TD*%
D10*
%TO.C,mouse-bite-3mm-slot*%
X102248000Y-77360000D03*
X102248000Y-80360000D03*
X102998000Y-80360000D03*
X103010000Y-77360000D03*
X103760000Y-77360000D03*
X103760000Y-80360000D03*
X104510000Y-77360000D03*
X104510000Y-80360000D03*
X105284000Y-77360000D03*
X105284000Y-80360000D03*
%TD*%
D12*
%TO.C,GND*%
X202410000Y-140500000D03*
%TD*%
D18*
%TO.C,F1*%
X228280000Y-70620000D03*
X228280000Y-67820000D03*
%TD*%
D16*
%TO.C,SCL*%
X89280000Y-88420000D03*
%TD*%
D15*
%TO.C,U1*%
X201907500Y-51650000D03*
X201907500Y-50700000D03*
X201907500Y-49750000D03*
X199632500Y-49750000D03*
X199632500Y-50700000D03*
X199632500Y-51650000D03*
%TD*%
D13*
%TO.C,Q3*%
X68220000Y-71965000D03*
X69490000Y-71965000D03*
X70770000Y-71965000D03*
X72040000Y-71965000D03*
D14*
X70130000Y-68695000D03*
%TD*%
D10*
%TO.C,mouse-bite-3mm-slot*%
X194360000Y-54332000D03*
X197360000Y-54332000D03*
X197360000Y-53582000D03*
X194360000Y-53570000D03*
X194360000Y-52820000D03*
X197360000Y-52820000D03*
X194360000Y-52070000D03*
X197360000Y-52070000D03*
X194360000Y-51296000D03*
X197360000Y-51296000D03*
%TD*%
D13*
%TO.C,Q2*%
X62720000Y-106685000D03*
X63990000Y-106685000D03*
X65270000Y-106685000D03*
X66540000Y-106685000D03*
D14*
X64630000Y-103415000D03*
%TD*%
D13*
%TO.C,Q1*%
X204580000Y-54605000D03*
X205850000Y-54605000D03*
X207130000Y-54605000D03*
X208400000Y-54605000D03*
D14*
X206490000Y-51335000D03*
%TD*%
D12*
%TO.C,SDA*%
X199790000Y-117140000D03*
%TD*%
%TO.C,5V*%
X202410000Y-47700000D03*
%TD*%
D13*
%TO.C,Q2*%
X62720000Y-141405000D03*
X63990000Y-141405000D03*
X65270000Y-141405000D03*
X66540000Y-141405000D03*
D14*
X64630000Y-138135000D03*
%TD*%
D12*
%TO.C,5V*%
X91890000Y-99780000D03*
%TD*%
D17*
%TO.C,GND*%
X127510000Y-109580000D03*
%TD*%
D12*
%TO.C,GND*%
X165570000Y-53700000D03*
%TD*%
%TO.C,SDA*%
X126110000Y-99780000D03*
%TD*%
D11*
%TO.C,Lead (-)*%
X117770000Y-91370000D03*
%TD*%
D16*
%TO.C,SCL*%
X199800000Y-53700000D03*
%TD*%
D18*
%TO.C,F1*%
X228280000Y-105340000D03*
X228280000Y-102540000D03*
%TD*%
D13*
%TO.C,Q4*%
X110560000Y-54605000D03*
X111830000Y-54605000D03*
X113110000Y-54605000D03*
X114380000Y-54605000D03*
D14*
X112470000Y-51335000D03*
%TD*%
D13*
%TO.C,Q3*%
X215580000Y-141405000D03*
X216850000Y-141405000D03*
X218130000Y-141405000D03*
X219400000Y-141405000D03*
D14*
X217490000Y-138135000D03*
%TD*%
D13*
%TO.C,Q4*%
X110560000Y-71965000D03*
X111830000Y-71965000D03*
X113110000Y-71965000D03*
X114380000Y-71965000D03*
D14*
X112470000Y-68695000D03*
%TD*%
D12*
%TO.C,5V*%
X128730000Y-65060000D03*
%TD*%
D11*
%TO.C,Lead (-)*%
X154610000Y-126090000D03*
%TD*%
D15*
%TO.C,U1*%
X54547500Y-121090000D03*
X54547500Y-120140000D03*
X54547500Y-119190000D03*
X52272500Y-119190000D03*
X52272500Y-120140000D03*
X52272500Y-121090000D03*
%TD*%
D10*
%TO.C,mouse-bite-3mm-slot*%
X157520000Y-106412000D03*
X160520000Y-106412000D03*
X160520000Y-105662000D03*
X157520000Y-105650000D03*
X157520000Y-104900000D03*
X160520000Y-104900000D03*
X157520000Y-104150000D03*
X160520000Y-104150000D03*
X157520000Y-103376000D03*
X160520000Y-103376000D03*
%TD*%
%TO.C,mouse-bite-3mm-slot*%
X139088000Y-112080000D03*
X139088000Y-115080000D03*
X139838000Y-115080000D03*
X139850000Y-112080000D03*
X140600000Y-112080000D03*
X140600000Y-115080000D03*
X141350000Y-112080000D03*
X141350000Y-115080000D03*
X142124000Y-112080000D03*
X142124000Y-115080000D03*
%TD*%
D13*
%TO.C,Q3*%
X141900000Y-124045000D03*
X143170000Y-124045000D03*
X144450000Y-124045000D03*
X145720000Y-124045000D03*
D14*
X143810000Y-120775000D03*
%TD*%
D16*
%TO.C,SCL*%
X52440000Y-105780000D03*
%TD*%
D12*
%TO.C,GND*%
X202410000Y-88420000D03*
%TD*%
D10*
%TO.C,mouse-bite-3mm-slot*%
X212768000Y-129440000D03*
X212768000Y-132440000D03*
X213518000Y-132440000D03*
X213530000Y-129440000D03*
X214280000Y-129440000D03*
X214280000Y-132440000D03*
X215030000Y-129440000D03*
X215030000Y-132440000D03*
X215804000Y-129440000D03*
X215804000Y-132440000D03*
%TD*%
D17*
%TO.C,GND*%
X90670000Y-126940000D03*
%TD*%
D13*
%TO.C,Q1*%
X94060000Y-71965000D03*
X95330000Y-71965000D03*
X96610000Y-71965000D03*
X97880000Y-71965000D03*
D14*
X95970000Y-68695000D03*
%TD*%
D13*
%TO.C,Q1*%
X130900000Y-106685000D03*
X132170000Y-106685000D03*
X133450000Y-106685000D03*
X134720000Y-106685000D03*
D14*
X132810000Y-103415000D03*
%TD*%
D12*
%TO.C,SDA*%
X89270000Y-47700000D03*
%TD*%
%TO.C,SDA*%
X52430000Y-134500000D03*
%TD*%
%TO.C,GND*%
X55050000Y-123140000D03*
%TD*%
D10*
%TO.C,mouse-bite-3mm-slot*%
X194360000Y-89052000D03*
X197360000Y-89052000D03*
X197360000Y-88302000D03*
X194360000Y-88290000D03*
X194360000Y-87540000D03*
X197360000Y-87540000D03*
X194360000Y-86790000D03*
X197360000Y-86790000D03*
X194360000Y-86016000D03*
X197360000Y-86016000D03*
%TD*%
D13*
%TO.C,Q2*%
X210080000Y-71965000D03*
X211350000Y-71965000D03*
X212630000Y-71965000D03*
X213900000Y-71965000D03*
D14*
X211990000Y-68695000D03*
%TD*%
D13*
%TO.C,Q3*%
X215580000Y-124045000D03*
X216850000Y-124045000D03*
X218130000Y-124045000D03*
X219400000Y-124045000D03*
D14*
X217490000Y-120775000D03*
%TD*%
D13*
%TO.C,Q3*%
X105060000Y-124045000D03*
X106330000Y-124045000D03*
X107610000Y-124045000D03*
X108880000Y-124045000D03*
D14*
X106970000Y-120775000D03*
%TD*%
D13*
%TO.C,Q3*%
X178740000Y-71965000D03*
X180010000Y-71965000D03*
X181290000Y-71965000D03*
X182560000Y-71965000D03*
D14*
X180650000Y-68695000D03*
%TD*%
D13*
%TO.C,Q1*%
X167740000Y-106685000D03*
X169010000Y-106685000D03*
X170290000Y-106685000D03*
X171560000Y-106685000D03*
D14*
X169650000Y-103415000D03*
%TD*%
D16*
%TO.C,SCL*%
X126120000Y-71060000D03*
%TD*%
D12*
%TO.C,GND*%
X165570000Y-140500000D03*
%TD*%
D17*
%TO.C,GND*%
X201190000Y-144300000D03*
%TD*%
D12*
%TO.C,GND*%
X128730000Y-105780000D03*
%TD*%
D16*
%TO.C,SCL*%
X52440000Y-88420000D03*
%TD*%
D12*
%TO.C,GND*%
X55050000Y-88420000D03*
%TD*%
%TO.C,GND*%
X55050000Y-105780000D03*
%TD*%
D18*
%TO.C,F1*%
X191440000Y-122700000D03*
X191440000Y-119900000D03*
%TD*%
D12*
%TO.C,GND*%
X128730000Y-71060000D03*
%TD*%
D13*
%TO.C,Q1*%
X94060000Y-89325000D03*
X95330000Y-89325000D03*
X96610000Y-89325000D03*
X97880000Y-89325000D03*
D14*
X95970000Y-86055000D03*
%TD*%
D13*
%TO.C,Q2*%
X136400000Y-106685000D03*
X137670000Y-106685000D03*
X138950000Y-106685000D03*
X140220000Y-106685000D03*
D14*
X138310000Y-103415000D03*
%TD*%
D17*
%TO.C,GND*%
X164350000Y-92220000D03*
%TD*%
D13*
%TO.C,Q1*%
X94060000Y-124045000D03*
X95330000Y-124045000D03*
X96610000Y-124045000D03*
X97880000Y-124045000D03*
D14*
X95970000Y-120775000D03*
%TD*%
D10*
%TO.C,mouse-bite-3mm-slot*%
X65408000Y-146800000D03*
X65408000Y-149800000D03*
X66158000Y-149800000D03*
X66170000Y-146800000D03*
X66920000Y-146800000D03*
X66920000Y-149800000D03*
X67670000Y-146800000D03*
X67670000Y-149800000D03*
X68444000Y-146800000D03*
X68444000Y-149800000D03*
%TD*%
D13*
%TO.C,Q4*%
X147400000Y-124045000D03*
X148670000Y-124045000D03*
X149950000Y-124045000D03*
X151220000Y-124045000D03*
D14*
X149310000Y-120775000D03*
%TD*%
D12*
%TO.C,5V*%
X91890000Y-47700000D03*
%TD*%
%TO.C,SDA*%
X199790000Y-99780000D03*
%TD*%
D16*
%TO.C,SCL*%
X199800000Y-71060000D03*
%TD*%
D12*
%TO.C,5V*%
X91890000Y-65060000D03*
%TD*%
%TO.C,SDA*%
X89270000Y-117140000D03*
%TD*%
D16*
%TO.C,SCL*%
X89280000Y-123140000D03*
%TD*%
D10*
%TO.C,mouse-bite-3mm-slot*%
X175928000Y-60000000D03*
X175928000Y-63000000D03*
X176678000Y-63000000D03*
X176690000Y-60000000D03*
X177440000Y-60000000D03*
X177440000Y-63000000D03*
X178190000Y-60000000D03*
X178190000Y-63000000D03*
X178964000Y-60000000D03*
X178964000Y-63000000D03*
%TD*%
D16*
%TO.C,SCL*%
X52440000Y-140500000D03*
%TD*%
%TO.C,SCL*%
X126120000Y-123140000D03*
%TD*%
D13*
%TO.C,Q1*%
X167740000Y-141405000D03*
X169010000Y-141405000D03*
X170290000Y-141405000D03*
X171560000Y-141405000D03*
D14*
X169650000Y-138135000D03*
%TD*%
D13*
%TO.C,Q4*%
X221080000Y-141405000D03*
X222350000Y-141405000D03*
X223630000Y-141405000D03*
X224900000Y-141405000D03*
D14*
X222990000Y-138135000D03*
%TD*%
D10*
%TO.C,mouse-bite-3mm-slot*%
X83840000Y-123772000D03*
X86840000Y-123772000D03*
X86840000Y-123022000D03*
X83840000Y-123010000D03*
X83840000Y-122260000D03*
X86840000Y-122260000D03*
X83840000Y-121510000D03*
X86840000Y-121510000D03*
X83840000Y-120736000D03*
X86840000Y-120736000D03*
%TD*%
D15*
%TO.C,U1*%
X201907500Y-69010000D03*
X201907500Y-68060000D03*
X201907500Y-67110000D03*
X199632500Y-67110000D03*
X199632500Y-68060000D03*
X199632500Y-69010000D03*
%TD*%
D18*
%TO.C,F1*%
X117760000Y-70620000D03*
X117760000Y-67820000D03*
%TD*%
D13*
%TO.C,Q2*%
X136400000Y-71965000D03*
X137670000Y-71965000D03*
X138950000Y-71965000D03*
X140220000Y-71965000D03*
D14*
X138310000Y-68695000D03*
%TD*%
D13*
%TO.C,Q4*%
X73720000Y-141405000D03*
X74990000Y-141405000D03*
X76270000Y-141405000D03*
X77540000Y-141405000D03*
D14*
X75630000Y-138135000D03*
%TD*%
D17*
%TO.C,GND*%
X127510000Y-57500000D03*
%TD*%
D16*
%TO.C,SCL*%
X89280000Y-105780000D03*
%TD*%
D17*
%TO.C,GND*%
X127510000Y-126940000D03*
%TD*%
D12*
%TO.C,SDA*%
X162950000Y-82420000D03*
%TD*%
D13*
%TO.C,Q1*%
X57220000Y-71965000D03*
X58490000Y-71965000D03*
X59770000Y-71965000D03*
X61040000Y-71965000D03*
D14*
X59130000Y-68695000D03*
%TD*%
D13*
%TO.C,Q4*%
X147400000Y-141405000D03*
X148670000Y-141405000D03*
X149950000Y-141405000D03*
X151220000Y-141405000D03*
D14*
X149310000Y-138135000D03*
%TD*%
D11*
%TO.C,Lead (-)*%
X154610000Y-143450000D03*
%TD*%
D10*
%TO.C,mouse-bite-3mm-slot*%
X102248000Y-129440000D03*
X102248000Y-132440000D03*
X102998000Y-132440000D03*
X103010000Y-129440000D03*
X103760000Y-129440000D03*
X103760000Y-132440000D03*
X104510000Y-129440000D03*
X104510000Y-132440000D03*
X105284000Y-129440000D03*
X105284000Y-132440000D03*
%TD*%
D18*
%TO.C,F1*%
X80920000Y-70620000D03*
X80920000Y-67820000D03*
%TD*%
%TO.C,F1*%
X228280000Y-87980000D03*
X228280000Y-85180000D03*
%TD*%
D13*
%TO.C,Q4*%
X221080000Y-89325000D03*
X222350000Y-89325000D03*
X223630000Y-89325000D03*
X224900000Y-89325000D03*
D14*
X222990000Y-86055000D03*
%TD*%
D12*
%TO.C,SDA*%
X126110000Y-134500000D03*
%TD*%
D18*
%TO.C,F1*%
X80920000Y-122700000D03*
X80920000Y-119900000D03*
%TD*%
D13*
%TO.C,Q1*%
X57220000Y-141405000D03*
X58490000Y-141405000D03*
X59770000Y-141405000D03*
X61040000Y-141405000D03*
D14*
X59130000Y-138135000D03*
%TD*%
D12*
%TO.C,GND*%
X91890000Y-53700000D03*
%TD*%
D13*
%TO.C,Q1*%
X204580000Y-71965000D03*
X205850000Y-71965000D03*
X207130000Y-71965000D03*
X208400000Y-71965000D03*
D14*
X206490000Y-68695000D03*
%TD*%
D13*
%TO.C,Q2*%
X99560000Y-54605000D03*
X100830000Y-54605000D03*
X102110000Y-54605000D03*
X103380000Y-54605000D03*
D14*
X101470000Y-51335000D03*
%TD*%
D12*
%TO.C,GND*%
X91890000Y-105780000D03*
%TD*%
D13*
%TO.C,Q3*%
X141900000Y-71965000D03*
X143170000Y-71965000D03*
X144450000Y-71965000D03*
X145720000Y-71965000D03*
D14*
X143810000Y-68695000D03*
%TD*%
D18*
%TO.C,F1*%
X154600000Y-53260000D03*
X154600000Y-50460000D03*
%TD*%
D13*
%TO.C,Q2*%
X62720000Y-124045000D03*
X63990000Y-124045000D03*
X65270000Y-124045000D03*
X66540000Y-124045000D03*
D14*
X64630000Y-120775000D03*
%TD*%
D13*
%TO.C,Q1*%
X167740000Y-124045000D03*
X169010000Y-124045000D03*
X170290000Y-124045000D03*
X171560000Y-124045000D03*
D14*
X169650000Y-120775000D03*
%TD*%
D12*
%TO.C,5V*%
X165570000Y-134500000D03*
%TD*%
D16*
%TO.C,SCL*%
X89280000Y-140500000D03*
%TD*%
D13*
%TO.C,Q2*%
X173240000Y-71965000D03*
X174510000Y-71965000D03*
X175790000Y-71965000D03*
X177060000Y-71965000D03*
D14*
X175150000Y-68695000D03*
%TD*%
D15*
%TO.C,U1*%
X91387500Y-138450000D03*
X91387500Y-137500000D03*
X91387500Y-136550000D03*
X89112500Y-136550000D03*
X89112500Y-137500000D03*
X89112500Y-138450000D03*
%TD*%
D13*
%TO.C,Q2*%
X210080000Y-106685000D03*
X211350000Y-106685000D03*
X212630000Y-106685000D03*
X213900000Y-106685000D03*
D14*
X211990000Y-103415000D03*
%TD*%
D15*
%TO.C,U1*%
X128227500Y-86370000D03*
X128227500Y-85420000D03*
X128227500Y-84470000D03*
X125952500Y-84470000D03*
X125952500Y-85420000D03*
X125952500Y-86370000D03*
%TD*%
D13*
%TO.C,Q1*%
X94060000Y-141405000D03*
X95330000Y-141405000D03*
X96610000Y-141405000D03*
X97880000Y-141405000D03*
D14*
X95970000Y-138135000D03*
%TD*%
D12*
%TO.C,5V*%
X128730000Y-82420000D03*
%TD*%
D17*
%TO.C,GND*%
X201190000Y-92220000D03*
%TD*%
D16*
%TO.C,SCL*%
X162960000Y-140500000D03*
%TD*%
D12*
%TO.C,5V*%
X202410000Y-134500000D03*
%TD*%
D18*
%TO.C,F1*%
X154600000Y-87980000D03*
X154600000Y-85180000D03*
%TD*%
D15*
%TO.C,U1*%
X91387500Y-103730000D03*
X91387500Y-102780000D03*
X91387500Y-101830000D03*
X89112500Y-101830000D03*
X89112500Y-102780000D03*
X89112500Y-103730000D03*
%TD*%
D13*
%TO.C,Q4*%
X73720000Y-89325000D03*
X74990000Y-89325000D03*
X76270000Y-89325000D03*
X77540000Y-89325000D03*
D14*
X75630000Y-86055000D03*
%TD*%
D15*
%TO.C,U1*%
X54547500Y-69010000D03*
X54547500Y-68060000D03*
X54547500Y-67110000D03*
X52272500Y-67110000D03*
X52272500Y-68060000D03*
X52272500Y-69010000D03*
%TD*%
D10*
%TO.C,mouse-bite-3mm-slot*%
X102248000Y-146800000D03*
X102248000Y-149800000D03*
X102998000Y-149800000D03*
X103010000Y-146800000D03*
X103760000Y-146800000D03*
X103760000Y-149800000D03*
X104510000Y-146800000D03*
X104510000Y-149800000D03*
X105284000Y-146800000D03*
X105284000Y-149800000D03*
%TD*%
D13*
%TO.C,Q2*%
X99560000Y-106685000D03*
X100830000Y-106685000D03*
X102110000Y-106685000D03*
X103380000Y-106685000D03*
D14*
X101470000Y-103415000D03*
%TD*%
D13*
%TO.C,Q4*%
X73720000Y-54605000D03*
X74990000Y-54605000D03*
X76270000Y-54605000D03*
X77540000Y-54605000D03*
D14*
X75630000Y-51335000D03*
%TD*%
D13*
%TO.C,Q1*%
X57220000Y-89325000D03*
X58490000Y-89325000D03*
X59770000Y-89325000D03*
X61040000Y-89325000D03*
D14*
X59130000Y-86055000D03*
%TD*%
D13*
%TO.C,Q1*%
X57220000Y-124045000D03*
X58490000Y-124045000D03*
X59770000Y-124045000D03*
X61040000Y-124045000D03*
D14*
X59130000Y-120775000D03*
%TD*%
D13*
%TO.C,Q2*%
X210080000Y-54605000D03*
X211350000Y-54605000D03*
X212630000Y-54605000D03*
X213900000Y-54605000D03*
D14*
X211990000Y-51335000D03*
%TD*%
D15*
%TO.C,U1*%
X91387500Y-86370000D03*
X91387500Y-85420000D03*
X91387500Y-84470000D03*
X89112500Y-84470000D03*
X89112500Y-85420000D03*
X89112500Y-86370000D03*
%TD*%
D12*
%TO.C,5V*%
X202410000Y-99780000D03*
%TD*%
D17*
%TO.C,GND*%
X164350000Y-144300000D03*
%TD*%
D12*
%TO.C,SDA*%
X89270000Y-82420000D03*
%TD*%
D16*
%TO.C,SCL*%
X162960000Y-123140000D03*
%TD*%
D13*
%TO.C,Q2*%
X62720000Y-89325000D03*
X63990000Y-89325000D03*
X65270000Y-89325000D03*
X66540000Y-89325000D03*
D14*
X64630000Y-86055000D03*
%TD*%
D11*
%TO.C,Lead (-)*%
X191450000Y-126090000D03*
%TD*%
%TO.C,Lead (-)*%
X191450000Y-91370000D03*
%TD*%
D18*
%TO.C,F1*%
X191440000Y-105340000D03*
X191440000Y-102540000D03*
%TD*%
%TO.C,F1*%
X228280000Y-122700000D03*
X228280000Y-119900000D03*
%TD*%
D13*
%TO.C,Q4*%
X184240000Y-89325000D03*
X185510000Y-89325000D03*
X186790000Y-89325000D03*
X188060000Y-89325000D03*
D14*
X186150000Y-86055000D03*
%TD*%
D17*
%TO.C,GND*%
X164350000Y-74860000D03*
%TD*%
D10*
%TO.C,mouse-bite-3mm-slot*%
X139088000Y-146800000D03*
X139088000Y-149800000D03*
X139838000Y-149800000D03*
X139850000Y-146800000D03*
X140600000Y-146800000D03*
X140600000Y-149800000D03*
X141350000Y-146800000D03*
X141350000Y-149800000D03*
X142124000Y-146800000D03*
X142124000Y-149800000D03*
%TD*%
D11*
%TO.C,Lead (-)*%
X80930000Y-143450000D03*
%TD*%
D15*
%TO.C,U1*%
X54547500Y-51650000D03*
X54547500Y-50700000D03*
X54547500Y-49750000D03*
X52272500Y-49750000D03*
X52272500Y-50700000D03*
X52272500Y-51650000D03*
%TD*%
D10*
%TO.C,mouse-bite-3mm-slot*%
X212768000Y-60000000D03*
X212768000Y-63000000D03*
X213518000Y-63000000D03*
X213530000Y-60000000D03*
X214280000Y-60000000D03*
X214280000Y-63000000D03*
X215030000Y-60000000D03*
X215030000Y-63000000D03*
X215804000Y-60000000D03*
X215804000Y-63000000D03*
%TD*%
D13*
%TO.C,Q2*%
X99560000Y-71965000D03*
X100830000Y-71965000D03*
X102110000Y-71965000D03*
X103380000Y-71965000D03*
D14*
X101470000Y-68695000D03*
%TD*%
D10*
%TO.C,mouse-bite-3mm-slot*%
X65408000Y-60000000D03*
X65408000Y-63000000D03*
X66158000Y-63000000D03*
X66170000Y-60000000D03*
X66920000Y-60000000D03*
X66920000Y-63000000D03*
X67670000Y-60000000D03*
X67670000Y-63000000D03*
X68444000Y-60000000D03*
X68444000Y-63000000D03*
%TD*%
%TO.C,mouse-bite-3mm-slot*%
X83840000Y-71692000D03*
X86840000Y-71692000D03*
X86840000Y-70942000D03*
X83840000Y-70930000D03*
X83840000Y-70180000D03*
X86840000Y-70180000D03*
X83840000Y-69430000D03*
X86840000Y-69430000D03*
X83840000Y-68656000D03*
X86840000Y-68656000D03*
%TD*%
D12*
%TO.C,GND*%
X91890000Y-140500000D03*
%TD*%
D10*
%TO.C,mouse-bite-3mm-slot*%
X102248000Y-42640000D03*
X102248000Y-45640000D03*
X102998000Y-45640000D03*
X103010000Y-42640000D03*
X103760000Y-42640000D03*
X103760000Y-45640000D03*
X104510000Y-42640000D03*
X104510000Y-45640000D03*
X105284000Y-42640000D03*
X105284000Y-45640000D03*
%TD*%
D12*
%TO.C,GND*%
X55050000Y-140500000D03*
%TD*%
D16*
%TO.C,SCL*%
X126120000Y-140500000D03*
%TD*%
D10*
%TO.C,mouse-bite-3mm-slot*%
X139088000Y-60000000D03*
X139088000Y-63000000D03*
X139838000Y-63000000D03*
X139850000Y-60000000D03*
X140600000Y-60000000D03*
X140600000Y-63000000D03*
X141350000Y-60000000D03*
X141350000Y-63000000D03*
X142124000Y-60000000D03*
X142124000Y-63000000D03*
%TD*%
D17*
%TO.C,GND*%
X201190000Y-126940000D03*
%TD*%
D16*
%TO.C,SCL*%
X162960000Y-53700000D03*
%TD*%
D12*
%TO.C,5V*%
X128730000Y-99780000D03*
%TD*%
D10*
%TO.C,mouse-bite-3mm-slot*%
X65408000Y-112080000D03*
X65408000Y-115080000D03*
X66158000Y-115080000D03*
X66170000Y-112080000D03*
X66920000Y-112080000D03*
X66920000Y-115080000D03*
X67670000Y-112080000D03*
X67670000Y-115080000D03*
X68444000Y-112080000D03*
X68444000Y-115080000D03*
%TD*%
%TO.C,mouse-bite-3mm-slot*%
X157520000Y-54332000D03*
X160520000Y-54332000D03*
X160520000Y-53582000D03*
X157520000Y-53570000D03*
X157520000Y-52820000D03*
X160520000Y-52820000D03*
X157520000Y-52070000D03*
X160520000Y-52070000D03*
X157520000Y-51296000D03*
X160520000Y-51296000D03*
%TD*%
D13*
%TO.C,Q2*%
X173240000Y-106685000D03*
X174510000Y-106685000D03*
X175790000Y-106685000D03*
X177060000Y-106685000D03*
D14*
X175150000Y-103415000D03*
%TD*%
D17*
%TO.C,GND*%
X127510000Y-74860000D03*
%TD*%
D10*
%TO.C,mouse-bite-3mm-slot*%
X212768000Y-77360000D03*
X212768000Y-80360000D03*
X213518000Y-80360000D03*
X213530000Y-77360000D03*
X214280000Y-77360000D03*
X214280000Y-80360000D03*
X215030000Y-77360000D03*
X215030000Y-80360000D03*
X215804000Y-77360000D03*
X215804000Y-80360000D03*
%TD*%
D18*
%TO.C,F1*%
X154600000Y-105340000D03*
X154600000Y-102540000D03*
%TD*%
%TO.C,F1*%
X117760000Y-53260000D03*
X117760000Y-50460000D03*
%TD*%
D13*
%TO.C,Q4*%
X221080000Y-71965000D03*
X222350000Y-71965000D03*
X223630000Y-71965000D03*
X224900000Y-71965000D03*
D14*
X222990000Y-68695000D03*
%TD*%
D13*
%TO.C,Q1*%
X130900000Y-141405000D03*
X132170000Y-141405000D03*
X133450000Y-141405000D03*
X134720000Y-141405000D03*
D14*
X132810000Y-138135000D03*
%TD*%
D10*
%TO.C,mouse-bite-3mm-slot*%
X194360000Y-106412000D03*
X197360000Y-106412000D03*
X197360000Y-105662000D03*
X194360000Y-105650000D03*
X194360000Y-104900000D03*
X197360000Y-104900000D03*
X194360000Y-104150000D03*
X197360000Y-104150000D03*
X194360000Y-103376000D03*
X197360000Y-103376000D03*
%TD*%
D16*
%TO.C,SCL*%
X52440000Y-53700000D03*
%TD*%
D11*
%TO.C,Lead (-)*%
X80930000Y-74010000D03*
%TD*%
D13*
%TO.C,Q2*%
X62720000Y-54605000D03*
X63990000Y-54605000D03*
X65270000Y-54605000D03*
X66540000Y-54605000D03*
D14*
X64630000Y-51335000D03*
%TD*%
D13*
%TO.C,Q3*%
X141900000Y-89325000D03*
X143170000Y-89325000D03*
X144450000Y-89325000D03*
X145720000Y-89325000D03*
D14*
X143810000Y-86055000D03*
%TD*%
D13*
%TO.C,Q2*%
X136400000Y-54605000D03*
X137670000Y-54605000D03*
X138950000Y-54605000D03*
X140220000Y-54605000D03*
D14*
X138310000Y-51335000D03*
%TD*%
D13*
%TO.C,Q3*%
X141900000Y-141405000D03*
X143170000Y-141405000D03*
X144450000Y-141405000D03*
X145720000Y-141405000D03*
D14*
X143810000Y-138135000D03*
%TD*%
D12*
%TO.C,GND*%
X128730000Y-88420000D03*
%TD*%
D13*
%TO.C,Q2*%
X210080000Y-141405000D03*
X211350000Y-141405000D03*
X212630000Y-141405000D03*
X213900000Y-141405000D03*
D14*
X211990000Y-138135000D03*
%TD*%
D13*
%TO.C,Q2*%
X173240000Y-54605000D03*
X174510000Y-54605000D03*
X175790000Y-54605000D03*
X177060000Y-54605000D03*
D14*
X175150000Y-51335000D03*
%TD*%
D10*
%TO.C,mouse-bite-3mm-slot*%
X83840000Y-89052000D03*
X86840000Y-89052000D03*
X86840000Y-88302000D03*
X83840000Y-88290000D03*
X83840000Y-87540000D03*
X86840000Y-87540000D03*
X83840000Y-86790000D03*
X86840000Y-86790000D03*
X83840000Y-86016000D03*
X86840000Y-86016000D03*
%TD*%
D11*
%TO.C,Lead (-)*%
X117770000Y-74010000D03*
%TD*%
%TO.C,Lead (-)*%
X228290000Y-108730000D03*
%TD*%
D10*
%TO.C,mouse-bite-3mm-slot*%
X175928000Y-42640000D03*
X175928000Y-45640000D03*
X176678000Y-45640000D03*
X176690000Y-42640000D03*
X177440000Y-42640000D03*
X177440000Y-45640000D03*
X178190000Y-42640000D03*
X178190000Y-45640000D03*
X178964000Y-42640000D03*
X178964000Y-45640000D03*
%TD*%
D12*
%TO.C,GND*%
X202410000Y-53700000D03*
%TD*%
D11*
%TO.C,Lead (-)*%
X228290000Y-91370000D03*
%TD*%
D13*
%TO.C,Q2*%
X210080000Y-124045000D03*
X211350000Y-124045000D03*
X212630000Y-124045000D03*
X213900000Y-124045000D03*
D14*
X211990000Y-120775000D03*
%TD*%
D15*
%TO.C,U1*%
X165067500Y-103730000D03*
X165067500Y-102780000D03*
X165067500Y-101830000D03*
X162792500Y-101830000D03*
X162792500Y-102780000D03*
X162792500Y-103730000D03*
%TD*%
D10*
%TO.C,mouse-bite-3mm-slot*%
X65408000Y-94720000D03*
X65408000Y-97720000D03*
X66158000Y-97720000D03*
X66170000Y-94720000D03*
X66920000Y-94720000D03*
X66920000Y-97720000D03*
X67670000Y-94720000D03*
X67670000Y-97720000D03*
X68444000Y-94720000D03*
X68444000Y-97720000D03*
%TD*%
D13*
%TO.C,Q1*%
X57220000Y-54605000D03*
X58490000Y-54605000D03*
X59770000Y-54605000D03*
X61040000Y-54605000D03*
D14*
X59130000Y-51335000D03*
%TD*%
D10*
%TO.C,mouse-bite-3mm-slot*%
X175928000Y-129440000D03*
X175928000Y-132440000D03*
X176678000Y-132440000D03*
X176690000Y-129440000D03*
X177440000Y-129440000D03*
X177440000Y-132440000D03*
X178190000Y-129440000D03*
X178190000Y-132440000D03*
X178964000Y-129440000D03*
X178964000Y-132440000D03*
%TD*%
D16*
%TO.C,SCL*%
X199800000Y-123140000D03*
%TD*%
D13*
%TO.C,Q4*%
X73720000Y-106685000D03*
X74990000Y-106685000D03*
X76270000Y-106685000D03*
X77540000Y-106685000D03*
D14*
X75630000Y-103415000D03*
%TD*%
D13*
%TO.C,Q4*%
X221080000Y-124045000D03*
X222350000Y-124045000D03*
X223630000Y-124045000D03*
X224900000Y-124045000D03*
D14*
X222990000Y-120775000D03*
%TD*%
D13*
%TO.C,Q4*%
X221080000Y-106685000D03*
X222350000Y-106685000D03*
X223630000Y-106685000D03*
X224900000Y-106685000D03*
D14*
X222990000Y-103415000D03*
%TD*%
D13*
%TO.C,Q4*%
X110560000Y-141405000D03*
X111830000Y-141405000D03*
X113110000Y-141405000D03*
X114380000Y-141405000D03*
D14*
X112470000Y-138135000D03*
%TD*%
D18*
%TO.C,F1*%
X117760000Y-87980000D03*
X117760000Y-85180000D03*
%TD*%
D17*
%TO.C,GND*%
X90670000Y-74860000D03*
%TD*%
D16*
%TO.C,SCL*%
X199800000Y-105780000D03*
%TD*%
D12*
%TO.C,SDA*%
X89270000Y-134500000D03*
%TD*%
D13*
%TO.C,Q1*%
X204580000Y-89325000D03*
X205850000Y-89325000D03*
X207130000Y-89325000D03*
X208400000Y-89325000D03*
D14*
X206490000Y-86055000D03*
%TD*%
D17*
%TO.C,GND*%
X53830000Y-109580000D03*
%TD*%
D18*
%TO.C,F1*%
X191440000Y-53260000D03*
X191440000Y-50460000D03*
%TD*%
D13*
%TO.C,Q2*%
X99560000Y-89325000D03*
X100830000Y-89325000D03*
X102110000Y-89325000D03*
X103380000Y-89325000D03*
D14*
X101470000Y-86055000D03*
%TD*%
D13*
%TO.C,Q1*%
X57220000Y-106685000D03*
X58490000Y-106685000D03*
X59770000Y-106685000D03*
X61040000Y-106685000D03*
D14*
X59130000Y-103415000D03*
%TD*%
D10*
%TO.C,mouse-bite-3mm-slot*%
X83840000Y-141132000D03*
X86840000Y-141132000D03*
X86840000Y-140382000D03*
X83840000Y-140370000D03*
X83840000Y-139620000D03*
X86840000Y-139620000D03*
X83840000Y-138870000D03*
X86840000Y-138870000D03*
X83840000Y-138096000D03*
X86840000Y-138096000D03*
%TD*%
D12*
%TO.C,5V*%
X55050000Y-65060000D03*
%TD*%
D15*
%TO.C,U1*%
X91387500Y-121090000D03*
X91387500Y-120140000D03*
X91387500Y-119190000D03*
X89112500Y-119190000D03*
X89112500Y-120140000D03*
X89112500Y-121090000D03*
%TD*%
D17*
%TO.C,GND*%
X127510000Y-144300000D03*
%TD*%
D16*
%TO.C,SCL*%
X126120000Y-105780000D03*
%TD*%
D17*
%TO.C,GND*%
X127510000Y-92220000D03*
%TD*%
D18*
%TO.C,F1*%
X191440000Y-70620000D03*
X191440000Y-67820000D03*
%TD*%
D12*
%TO.C,5V*%
X55050000Y-117140000D03*
%TD*%
D10*
%TO.C,mouse-bite-3mm-slot*%
X83840000Y-106412000D03*
X86840000Y-106412000D03*
X86840000Y-105662000D03*
X83840000Y-105650000D03*
X83840000Y-104900000D03*
X86840000Y-104900000D03*
X83840000Y-104150000D03*
X86840000Y-104150000D03*
X83840000Y-103376000D03*
X86840000Y-103376000D03*
%TD*%
D12*
%TO.C,GND*%
X91890000Y-71060000D03*
%TD*%
D13*
%TO.C,Q2*%
X173240000Y-141405000D03*
X174510000Y-141405000D03*
X175790000Y-141405000D03*
X177060000Y-141405000D03*
D14*
X175150000Y-138135000D03*
%TD*%
D13*
%TO.C,Q4*%
X221080000Y-54605000D03*
X222350000Y-54605000D03*
X223630000Y-54605000D03*
X224900000Y-54605000D03*
D14*
X222990000Y-51335000D03*
%TD*%
D12*
%TO.C,5V*%
X55050000Y-99780000D03*
%TD*%
D10*
%TO.C,mouse-bite-3mm-slot*%
X83840000Y-54332000D03*
X86840000Y-54332000D03*
X86840000Y-53582000D03*
X83840000Y-53570000D03*
X83840000Y-52820000D03*
X86840000Y-52820000D03*
X83840000Y-52070000D03*
X86840000Y-52070000D03*
X83840000Y-51296000D03*
X86840000Y-51296000D03*
%TD*%
D15*
%TO.C,U1*%
X54547500Y-138450000D03*
X54547500Y-137500000D03*
X54547500Y-136550000D03*
X52272500Y-136550000D03*
X52272500Y-137500000D03*
X52272500Y-138450000D03*
%TD*%
D16*
%TO.C,SCL*%
X162960000Y-105780000D03*
%TD*%
D12*
%TO.C,5V*%
X55050000Y-134500000D03*
%TD*%
D13*
%TO.C,Q3*%
X141900000Y-106685000D03*
X143170000Y-106685000D03*
X144450000Y-106685000D03*
X145720000Y-106685000D03*
D14*
X143810000Y-103415000D03*
%TD*%
D16*
%TO.C,SCL*%
X162960000Y-71060000D03*
%TD*%
D13*
%TO.C,Q1*%
X204580000Y-106685000D03*
X205850000Y-106685000D03*
X207130000Y-106685000D03*
X208400000Y-106685000D03*
D14*
X206490000Y-103415000D03*
%TD*%
D15*
%TO.C,U1*%
X165067500Y-51650000D03*
X165067500Y-50700000D03*
X165067500Y-49750000D03*
X162792500Y-49750000D03*
X162792500Y-50700000D03*
X162792500Y-51650000D03*
%TD*%
D10*
%TO.C,mouse-bite-3mm-slot*%
X157520000Y-123772000D03*
X160520000Y-123772000D03*
X160520000Y-123022000D03*
X157520000Y-123010000D03*
X157520000Y-122260000D03*
X160520000Y-122260000D03*
X157520000Y-121510000D03*
X160520000Y-121510000D03*
X157520000Y-120736000D03*
X160520000Y-120736000D03*
%TD*%
%TO.C,mouse-bite-3mm-slot*%
X139088000Y-77360000D03*
X139088000Y-80360000D03*
X139838000Y-80360000D03*
X139850000Y-77360000D03*
X140600000Y-77360000D03*
X140600000Y-80360000D03*
X141350000Y-77360000D03*
X141350000Y-80360000D03*
X142124000Y-77360000D03*
X142124000Y-80360000D03*
%TD*%
%TO.C,mouse-bite-3mm-slot*%
X139088000Y-42640000D03*
X139088000Y-45640000D03*
X139838000Y-45640000D03*
X139850000Y-42640000D03*
X140600000Y-42640000D03*
X140600000Y-45640000D03*
X141350000Y-42640000D03*
X141350000Y-45640000D03*
X142124000Y-42640000D03*
X142124000Y-45640000D03*
%TD*%
D17*
%TO.C,GND*%
X201190000Y-74860000D03*
%TD*%
D18*
%TO.C,F1*%
X80920000Y-105340000D03*
X80920000Y-102540000D03*
%TD*%
D12*
%TO.C,SDA*%
X126110000Y-47700000D03*
%TD*%
D16*
%TO.C,SCL*%
X126120000Y-88420000D03*
%TD*%
D12*
%TO.C,SDA*%
X89270000Y-99780000D03*
%TD*%
D15*
%TO.C,U1*%
X201907500Y-138450000D03*
X201907500Y-137500000D03*
X201907500Y-136550000D03*
X199632500Y-136550000D03*
X199632500Y-137500000D03*
X199632500Y-138450000D03*
%TD*%
D12*
%TO.C,SDA*%
X162950000Y-47700000D03*
%TD*%
%TO.C,5V*%
X202410000Y-117140000D03*
%TD*%
D10*
%TO.C,mouse-bite-3mm-slot*%
X120680000Y-106412000D03*
X123680000Y-106412000D03*
X123680000Y-105662000D03*
X120680000Y-105650000D03*
X120680000Y-104900000D03*
X123680000Y-104900000D03*
X120680000Y-104150000D03*
X123680000Y-104150000D03*
X120680000Y-103376000D03*
X123680000Y-103376000D03*
%TD*%
D16*
%TO.C,SCL*%
X52440000Y-123140000D03*
%TD*%
D10*
%TO.C,mouse-bite-3mm-slot*%
X139088000Y-129440000D03*
X139088000Y-132440000D03*
X139838000Y-132440000D03*
X139850000Y-129440000D03*
X140600000Y-129440000D03*
X140600000Y-132440000D03*
X141350000Y-129440000D03*
X141350000Y-132440000D03*
X142124000Y-129440000D03*
X142124000Y-132440000D03*
%TD*%
%TO.C,mouse-bite-3mm-slot*%
X65408000Y-77360000D03*
X65408000Y-80360000D03*
X66158000Y-80360000D03*
X66170000Y-77360000D03*
X66920000Y-77360000D03*
X66920000Y-80360000D03*
X67670000Y-77360000D03*
X67670000Y-80360000D03*
X68444000Y-77360000D03*
X68444000Y-80360000D03*
%TD*%
D12*
%TO.C,SDA*%
X162950000Y-134500000D03*
%TD*%
%TO.C,GND*%
X55050000Y-71060000D03*
%TD*%
D10*
%TO.C,mouse-bite-3mm-slot*%
X175928000Y-77360000D03*
X175928000Y-80360000D03*
X176678000Y-80360000D03*
X176690000Y-77360000D03*
X177440000Y-77360000D03*
X177440000Y-80360000D03*
X178190000Y-77360000D03*
X178190000Y-80360000D03*
X178964000Y-77360000D03*
X178964000Y-80360000D03*
%TD*%
D13*
%TO.C,Q3*%
X68220000Y-106685000D03*
X69490000Y-106685000D03*
X70770000Y-106685000D03*
X72040000Y-106685000D03*
D14*
X70130000Y-103415000D03*
%TD*%
D13*
%TO.C,Q4*%
X110560000Y-106685000D03*
X111830000Y-106685000D03*
X113110000Y-106685000D03*
X114380000Y-106685000D03*
D14*
X112470000Y-103415000D03*
%TD*%
D12*
%TO.C,GND*%
X165570000Y-123140000D03*
%TD*%
D11*
%TO.C,Lead (-)*%
X191450000Y-108730000D03*
%TD*%
D12*
%TO.C,GND*%
X128730000Y-140500000D03*
%TD*%
D10*
%TO.C,mouse-bite-3mm-slot*%
X120680000Y-141132000D03*
X123680000Y-141132000D03*
X123680000Y-140382000D03*
X120680000Y-140370000D03*
X120680000Y-139620000D03*
X123680000Y-139620000D03*
X120680000Y-138870000D03*
X123680000Y-138870000D03*
X120680000Y-138096000D03*
X123680000Y-138096000D03*
%TD*%
D13*
%TO.C,Q1*%
X94060000Y-106685000D03*
X95330000Y-106685000D03*
X96610000Y-106685000D03*
X97880000Y-106685000D03*
D14*
X95970000Y-103415000D03*
%TD*%
D10*
%TO.C,mouse-bite-3mm-slot*%
X194360000Y-71692000D03*
X197360000Y-71692000D03*
X197360000Y-70942000D03*
X194360000Y-70930000D03*
X194360000Y-70180000D03*
X197360000Y-70180000D03*
X194360000Y-69430000D03*
X197360000Y-69430000D03*
X194360000Y-68656000D03*
X197360000Y-68656000D03*
%TD*%
D12*
%TO.C,SDA*%
X89270000Y-65060000D03*
%TD*%
D13*
%TO.C,Q1*%
X130900000Y-89325000D03*
X132170000Y-89325000D03*
X133450000Y-89325000D03*
X134720000Y-89325000D03*
D14*
X132810000Y-86055000D03*
%TD*%
D16*
%TO.C,SCL*%
X199800000Y-88420000D03*
%TD*%
D12*
%TO.C,5V*%
X165570000Y-117140000D03*
%TD*%
D13*
%TO.C,Q2*%
X99560000Y-141405000D03*
X100830000Y-141405000D03*
X102110000Y-141405000D03*
X103380000Y-141405000D03*
D14*
X101470000Y-138135000D03*
%TD*%
D18*
%TO.C,F1*%
X228280000Y-140060000D03*
X228280000Y-137260000D03*
%TD*%
D12*
%TO.C,SDA*%
X199790000Y-65060000D03*
%TD*%
%TO.C,5V*%
X55050000Y-47700000D03*
%TD*%
D11*
%TO.C,Lead (-)*%
X154610000Y-108730000D03*
%TD*%
D13*
%TO.C,Q1*%
X94060000Y-54605000D03*
X95330000Y-54605000D03*
X96610000Y-54605000D03*
X97880000Y-54605000D03*
D14*
X95970000Y-51335000D03*
%TD*%
D12*
%TO.C,SDA*%
X52430000Y-65060000D03*
%TD*%
D13*
%TO.C,Q3*%
X105060000Y-89325000D03*
X106330000Y-89325000D03*
X107610000Y-89325000D03*
X108880000Y-89325000D03*
D14*
X106970000Y-86055000D03*
%TD*%
D18*
%TO.C,F1*%
X80920000Y-87980000D03*
X80920000Y-85180000D03*
%TD*%
D15*
%TO.C,U1*%
X54547500Y-86370000D03*
X54547500Y-85420000D03*
X54547500Y-84470000D03*
X52272500Y-84470000D03*
X52272500Y-85420000D03*
X52272500Y-86370000D03*
%TD*%
D11*
%TO.C,Lead (-)*%
X80930000Y-56650000D03*
%TD*%
D13*
%TO.C,Q2*%
X136400000Y-124045000D03*
X137670000Y-124045000D03*
X138950000Y-124045000D03*
X140220000Y-124045000D03*
D14*
X138310000Y-120775000D03*
%TD*%
D15*
%TO.C,U1*%
X165067500Y-69010000D03*
X165067500Y-68060000D03*
X165067500Y-67110000D03*
X162792500Y-67110000D03*
X162792500Y-68060000D03*
X162792500Y-69010000D03*
%TD*%
D11*
%TO.C,Lead (-)*%
X80930000Y-126090000D03*
%TD*%
D17*
%TO.C,GND*%
X53830000Y-57500000D03*
%TD*%
D11*
%TO.C,Lead (-)*%
X80930000Y-91370000D03*
%TD*%
D13*
%TO.C,Q1*%
X167740000Y-54605000D03*
X169010000Y-54605000D03*
X170290000Y-54605000D03*
X171560000Y-54605000D03*
D14*
X169650000Y-51335000D03*
%TD*%
D13*
%TO.C,Q2*%
X136400000Y-89325000D03*
X137670000Y-89325000D03*
X138950000Y-89325000D03*
X140220000Y-89325000D03*
D14*
X138310000Y-86055000D03*
%TD*%
D12*
%TO.C,GND*%
X91890000Y-88420000D03*
%TD*%
D10*
%TO.C,mouse-bite-3mm-slot*%
X65408000Y-129440000D03*
X65408000Y-132440000D03*
X66158000Y-132440000D03*
X66170000Y-129440000D03*
X66920000Y-129440000D03*
X66920000Y-132440000D03*
X67670000Y-129440000D03*
X67670000Y-132440000D03*
X68444000Y-129440000D03*
X68444000Y-132440000D03*
%TD*%
D16*
%TO.C,SCL*%
X52440000Y-71060000D03*
%TD*%
D17*
%TO.C,GND*%
X53830000Y-144300000D03*
%TD*%
D15*
%TO.C,U1*%
X201907500Y-103730000D03*
X201907500Y-102780000D03*
X201907500Y-101830000D03*
X199632500Y-101830000D03*
X199632500Y-102780000D03*
X199632500Y-103730000D03*
%TD*%
D10*
%TO.C,mouse-bite-3mm-slot*%
X175928000Y-146800000D03*
X175928000Y-149800000D03*
X176678000Y-149800000D03*
X176690000Y-146800000D03*
X177440000Y-146800000D03*
X177440000Y-149800000D03*
X178190000Y-146800000D03*
X178190000Y-149800000D03*
X178964000Y-146800000D03*
X178964000Y-149800000D03*
%TD*%
D11*
%TO.C,Lead (-)*%
X80930000Y-108730000D03*
%TD*%
D15*
%TO.C,U1*%
X201907500Y-121090000D03*
X201907500Y-120140000D03*
X201907500Y-119190000D03*
X199632500Y-119190000D03*
X199632500Y-120140000D03*
X199632500Y-121090000D03*
%TD*%
D12*
%TO.C,5V*%
X91890000Y-117140000D03*
%TD*%
D15*
%TO.C,U1*%
X165067500Y-138450000D03*
X165067500Y-137500000D03*
X165067500Y-136550000D03*
X162792500Y-136550000D03*
X162792500Y-137500000D03*
X162792500Y-138450000D03*
%TD*%
D16*
%TO.C,SCL*%
X89280000Y-53700000D03*
%TD*%
D18*
%TO.C,F1*%
X154600000Y-140060000D03*
X154600000Y-137260000D03*
%TD*%
D12*
%TO.C,GND*%
X165570000Y-88420000D03*
%TD*%
D17*
%TO.C,GND*%
X201190000Y-57500000D03*
%TD*%
D18*
%TO.C,F1*%
X191440000Y-140060000D03*
X191440000Y-137260000D03*
%TD*%
D12*
%TO.C,SDA*%
X52430000Y-47700000D03*
%TD*%
D13*
%TO.C,Q2*%
X173240000Y-89325000D03*
X174510000Y-89325000D03*
X175790000Y-89325000D03*
X177060000Y-89325000D03*
D14*
X175150000Y-86055000D03*
%TD*%
D18*
%TO.C,F1*%
X154600000Y-70620000D03*
X154600000Y-67820000D03*
%TD*%
D13*
%TO.C,Q3*%
X178740000Y-54605000D03*
X180010000Y-54605000D03*
X181290000Y-54605000D03*
X182560000Y-54605000D03*
D14*
X180650000Y-51335000D03*
%TD*%
D16*
%TO.C,SCL*%
X199800000Y-140500000D03*
%TD*%
D13*
%TO.C,Q3*%
X105060000Y-71965000D03*
X106330000Y-71965000D03*
X107610000Y-71965000D03*
X108880000Y-71965000D03*
D14*
X106970000Y-68695000D03*
%TD*%
D15*
%TO.C,U1*%
X128227500Y-103730000D03*
X128227500Y-102780000D03*
X128227500Y-101830000D03*
X125952500Y-101830000D03*
X125952500Y-102780000D03*
X125952500Y-103730000D03*
%TD*%
D17*
%TO.C,GND*%
X201190000Y-109580000D03*
%TD*%
D13*
%TO.C,Q2*%
X62720000Y-71965000D03*
X63990000Y-71965000D03*
X65270000Y-71965000D03*
X66540000Y-71965000D03*
D14*
X64630000Y-68695000D03*
%TD*%
D13*
%TO.C,Q4*%
X184240000Y-71965000D03*
X185510000Y-71965000D03*
X186790000Y-71965000D03*
X188060000Y-71965000D03*
D14*
X186150000Y-68695000D03*
%TD*%
D12*
%TO.C,5V*%
X91890000Y-82420000D03*
%TD*%
D13*
%TO.C,Q3*%
X178740000Y-141405000D03*
X180010000Y-141405000D03*
X181290000Y-141405000D03*
X182560000Y-141405000D03*
D14*
X180650000Y-138135000D03*
%TD*%
D11*
%TO.C,Lead (-)*%
X154610000Y-74010000D03*
%TD*%
D10*
%TO.C,mouse-bite-3mm-slot*%
X120680000Y-123772000D03*
X123680000Y-123772000D03*
X123680000Y-123022000D03*
X120680000Y-123010000D03*
X120680000Y-122260000D03*
X123680000Y-122260000D03*
X120680000Y-121510000D03*
X123680000Y-121510000D03*
X120680000Y-120736000D03*
X123680000Y-120736000D03*
%TD*%
D13*
%TO.C,Q4*%
X147400000Y-54605000D03*
X148670000Y-54605000D03*
X149950000Y-54605000D03*
X151220000Y-54605000D03*
D14*
X149310000Y-51335000D03*
%TD*%
D13*
%TO.C,Q2*%
X173240000Y-124045000D03*
X174510000Y-124045000D03*
X175790000Y-124045000D03*
X177060000Y-124045000D03*
D14*
X175150000Y-120775000D03*
%TD*%
D18*
%TO.C,F1*%
X228280000Y-53260000D03*
X228280000Y-50460000D03*
%TD*%
D15*
%TO.C,U1*%
X201907500Y-86370000D03*
X201907500Y-85420000D03*
X201907500Y-84470000D03*
X199632500Y-84470000D03*
X199632500Y-85420000D03*
X199632500Y-86370000D03*
%TD*%
D12*
%TO.C,5V*%
X202410000Y-82420000D03*
%TD*%
M02*
