M48
; DRILL file {KiCad 8.0.1} date 2024-05-29T13:53:15-0500
; FORMAT={-:-/ absolute / inch / decimal}
; #@! TF.CreationDate,2024-05-29T13:53:15-05:00
; #@! TF.GenerationSoftware,Kicad,Pcbnew,8.0.1
; #@! TF.FileFunction,Plated,1,2,PTH
FMAT,2
INCH
; #@! TA.AperFunction,Plated,PTH,ViaDrill
T1C0.0118
; #@! TA.AperFunction,Plated,PTH,ComponentDrill
T2C0.0236
; #@! TA.AperFunction,Plated,PTH,ComponentDrill
T3C0.1181
%
G90
G05
T1
X2.0524Y-2.0618
X2.0524Y-2.7453
X2.0524Y-3.4287
X2.0524Y-4.1122
X2.0524Y-4.7957
X2.0524Y-5.4791
X2.2189Y-2.0594
X2.2189Y-2.7429
X2.2189Y-3.4264
X2.2189Y-4.1098
X2.2189Y-4.7933
X2.2189Y-5.4768
X2.4362Y-1.9098
X2.4362Y-1.9335
X2.4362Y-1.9571
X2.4362Y-1.9807
X2.4362Y-2.0043
X2.4362Y-2.028
X2.4362Y-2.0516
X2.4362Y-2.5933
X2.4362Y-2.6169
X2.4362Y-2.6406
X2.4362Y-2.6642
X2.4362Y-2.6878
X2.4362Y-2.7114
X2.4362Y-2.735
X2.4362Y-3.2768
X2.4362Y-3.3004
X2.4362Y-3.324
X2.4362Y-3.3476
X2.4362Y-3.3713
X2.4362Y-3.3949
X2.4362Y-3.4185
X2.4362Y-3.9602
X2.4362Y-3.9839
X2.4362Y-4.0075
X2.4362Y-4.0311
X2.4362Y-4.0547
X2.4362Y-4.0783
X2.4362Y-4.102
X2.4362Y-4.6437
X2.4362Y-4.6673
X2.4362Y-4.6909
X2.4362Y-4.7146
X2.4362Y-4.7382
X2.4362Y-4.7618
X2.4362Y-4.7854
X2.4362Y-5.3272
X2.4362Y-5.3508
X2.4362Y-5.3744
X2.4362Y-5.398
X2.4362Y-5.4217
X2.4362Y-5.4453
X2.4362Y-5.4689
X2.6528Y-1.9102
X2.6528Y-1.9339
X2.6528Y-1.9575
X2.6528Y-1.9811
X2.6528Y-2.0047
X2.6528Y-2.0283
X2.6528Y-2.052
X2.6528Y-2.5937
X2.6528Y-2.6173
X2.6528Y-2.6409
X2.6528Y-2.6646
X2.6528Y-2.6882
X2.6528Y-2.7118
X2.6528Y-2.7354
X2.6528Y-3.2772
X2.6528Y-3.3008
X2.6528Y-3.3244
X2.6528Y-3.348
X2.6528Y-3.3717
X2.6528Y-3.3953
X2.6528Y-3.4189
X2.6528Y-3.9606
X2.6528Y-3.9843
X2.6528Y-4.0079
X2.6528Y-4.0315
X2.6528Y-4.0551
X2.6528Y-4.0787
X2.6528Y-4.1024
X2.6528Y-4.6441
X2.6528Y-4.6677
X2.6528Y-4.6913
X2.6528Y-4.715
X2.6528Y-4.7386
X2.6528Y-4.7622
X2.6528Y-4.7858
X2.6528Y-5.3276
X2.6528Y-5.3512
X2.6528Y-5.3748
X2.6528Y-5.3984
X2.6528Y-5.422
X2.6528Y-5.4457
X2.6528Y-5.4693
X2.8697Y-1.9102
X2.8697Y-1.9339
X2.8697Y-1.9575
X2.8697Y-1.9811
X2.8697Y-2.0047
X2.8697Y-2.0283
X2.8697Y-2.052
X2.8697Y-2.5937
X2.8697Y-2.6173
X2.8697Y-2.6409
X2.8697Y-2.6646
X2.8697Y-2.6882
X2.8697Y-2.7118
X2.8697Y-2.7354
X2.8697Y-3.2772
X2.8697Y-3.3008
X2.8697Y-3.3244
X2.8697Y-3.348
X2.8697Y-3.3717
X2.8697Y-3.3953
X2.8697Y-3.4189
X2.8697Y-3.9606
X2.8697Y-3.9843
X2.8697Y-4.0079
X2.8697Y-4.0315
X2.8697Y-4.0551
X2.8697Y-4.0787
X2.8697Y-4.1024
X2.8697Y-4.6441
X2.8697Y-4.6677
X2.8697Y-4.6913
X2.8697Y-4.715
X2.8697Y-4.7386
X2.8697Y-4.7622
X2.8697Y-4.7858
X2.8697Y-5.3276
X2.8697Y-5.3512
X2.8697Y-5.3748
X2.8697Y-5.3984
X2.8697Y-5.422
X2.8697Y-5.4457
X2.8697Y-5.4693
X3.0992Y-1.911
X3.0992Y-1.9346
X3.0992Y-1.9583
X3.0992Y-1.9819
X3.0992Y-2.0055
X3.0992Y-2.0291
X3.0992Y-2.0528
X3.0992Y-2.5945
X3.0992Y-2.6181
X3.0992Y-2.6417
X3.0992Y-2.6654
X3.0992Y-2.689
X3.0992Y-2.7126
X3.0992Y-2.7362
X3.0992Y-3.278
X3.0992Y-3.3016
X3.0992Y-3.3252
X3.0992Y-3.3488
X3.0992Y-3.3724
X3.0992Y-3.3961
X3.0992Y-3.4197
X3.0992Y-3.9614
X3.0992Y-3.985
X3.0992Y-4.0087
X3.0992Y-4.0323
X3.0992Y-4.0559
X3.0992Y-4.0795
X3.0992Y-4.1031
X3.0992Y-4.6449
X3.0992Y-4.6685
X3.0992Y-4.6921
X3.0992Y-4.7157
X3.0992Y-4.7394
X3.0992Y-4.763
X3.0992Y-4.7866
X3.0992Y-5.3283
X3.0992Y-5.352
X3.0992Y-5.3756
X3.0992Y-5.3992
X3.0992Y-5.4228
X3.0992Y-5.4465
X3.0992Y-5.4701
X3.1228Y-1.911
X3.1228Y-1.9346
X3.1228Y-1.9583
X3.1228Y-1.9819
X3.1228Y-2.0055
X3.1228Y-2.0291
X3.1228Y-2.0528
X3.1228Y-2.5945
X3.1228Y-2.6181
X3.1228Y-2.6417
X3.1228Y-2.6654
X3.1228Y-2.689
X3.1228Y-2.7126
X3.1228Y-2.7362
X3.1228Y-3.278
X3.1228Y-3.3016
X3.1228Y-3.3252
X3.1228Y-3.3488
X3.1228Y-3.3724
X3.1228Y-3.3961
X3.1228Y-3.4197
X3.1228Y-3.9614
X3.1228Y-3.985
X3.1228Y-4.0087
X3.1228Y-4.0323
X3.1228Y-4.0559
X3.1228Y-4.0795
X3.1228Y-4.1031
X3.1228Y-4.6449
X3.1228Y-4.6685
X3.1228Y-4.6921
X3.1228Y-4.7157
X3.1228Y-4.7394
X3.1228Y-4.763
X3.1228Y-4.7866
X3.1228Y-5.3283
X3.1228Y-5.352
X3.1228Y-5.3756
X3.1228Y-5.3992
X3.1228Y-5.4228
X3.1228Y-5.4465
X3.1228Y-5.4701
X3.2457Y-1.9114
X3.2457Y-1.935
X3.2457Y-1.9587
X3.2457Y-1.9823
X3.2457Y-2.0059
X3.2457Y-2.0295
X3.2457Y-2.0531
X3.2457Y-2.5949
X3.2457Y-2.6185
X3.2457Y-2.6421
X3.2457Y-2.6657
X3.2457Y-2.6894
X3.2457Y-2.713
X3.2457Y-2.7366
X3.2457Y-3.2783
X3.2457Y-3.302
X3.2457Y-3.3256
X3.2457Y-3.3492
X3.2457Y-3.3728
X3.2457Y-3.3965
X3.2457Y-3.4201
X3.2457Y-3.9618
X3.2457Y-3.9854
X3.2457Y-4.0091
X3.2457Y-4.0327
X3.2457Y-4.0563
X3.2457Y-4.0799
X3.2457Y-4.1035
X3.2457Y-4.6453
X3.2457Y-4.6689
X3.2457Y-4.6925
X3.2457Y-4.7161
X3.2457Y-4.7398
X3.2457Y-4.7634
X3.2457Y-4.787
X3.2457Y-5.3287
X3.2457Y-5.3524
X3.2457Y-5.376
X3.2457Y-5.3996
X3.2457Y-5.4232
X3.2457Y-5.4469
X3.2457Y-5.4705
X3.2693Y-1.9114
X3.2693Y-1.935
X3.2693Y-1.9587
X3.2693Y-1.9823
X3.2693Y-2.0059
X3.2693Y-2.0295
X3.2693Y-2.0531
X3.2693Y-2.5949
X3.2693Y-2.6185
X3.2693Y-2.6421
X3.2693Y-2.6657
X3.2693Y-2.6894
X3.2693Y-2.713
X3.2693Y-2.7366
X3.2693Y-3.2783
X3.2693Y-3.302
X3.2693Y-3.3256
X3.2693Y-3.3492
X3.2693Y-3.3728
X3.2693Y-3.3965
X3.2693Y-3.4201
X3.2693Y-3.9618
X3.2693Y-3.9854
X3.2693Y-4.0091
X3.2693Y-4.0327
X3.2693Y-4.0563
X3.2693Y-4.0799
X3.2693Y-4.1035
X3.2693Y-4.6453
X3.2693Y-4.6689
X3.2693Y-4.6925
X3.2693Y-4.7161
X3.2693Y-4.7398
X3.2693Y-4.7634
X3.2693Y-4.787
X3.2693Y-5.3287
X3.2693Y-5.3524
X3.2693Y-5.376
X3.2693Y-5.3996
X3.2693Y-5.4232
X3.2693Y-5.4469
X3.2693Y-5.4705
X3.5028Y-2.0618
X3.5028Y-2.7453
X3.5028Y-3.4287
X3.5028Y-4.1122
X3.5028Y-4.7957
X3.5028Y-5.4791
X3.6693Y-2.0594
X3.6693Y-2.7429
X3.6693Y-3.4264
X3.6693Y-4.1098
X3.6693Y-4.7933
X3.6693Y-5.4768
X3.8866Y-1.9098
X3.8866Y-1.9335
X3.8866Y-1.9571
X3.8866Y-1.9807
X3.8866Y-2.0043
X3.8866Y-2.028
X3.8866Y-2.0516
X3.8866Y-2.5933
X3.8866Y-2.6169
X3.8866Y-2.6406
X3.8866Y-2.6642
X3.8866Y-2.6878
X3.8866Y-2.7114
X3.8866Y-2.735
X3.8866Y-3.2768
X3.8866Y-3.3004
X3.8866Y-3.324
X3.8866Y-3.3476
X3.8866Y-3.3713
X3.8866Y-3.3949
X3.8866Y-3.4185
X3.8866Y-3.9602
X3.8866Y-3.9839
X3.8866Y-4.0075
X3.8866Y-4.0311
X3.8866Y-4.0547
X3.8866Y-4.0783
X3.8866Y-4.102
X3.8866Y-4.6437
X3.8866Y-4.6673
X3.8866Y-4.6909
X3.8866Y-4.7146
X3.8866Y-4.7382
X3.8866Y-4.7618
X3.8866Y-4.7854
X3.8866Y-5.3272
X3.8866Y-5.3508
X3.8866Y-5.3744
X3.8866Y-5.398
X3.8866Y-5.4217
X3.8866Y-5.4453
X3.8866Y-5.4689
X4.1031Y-1.9102
X4.1031Y-1.9339
X4.1031Y-1.9575
X4.1031Y-1.9811
X4.1031Y-2.0047
X4.1031Y-2.0283
X4.1031Y-2.052
X4.1031Y-2.5937
X4.1031Y-2.6173
X4.1031Y-2.6409
X4.1031Y-2.6646
X4.1031Y-2.6882
X4.1031Y-2.7118
X4.1031Y-2.7354
X4.1031Y-3.2772
X4.1031Y-3.3008
X4.1031Y-3.3244
X4.1031Y-3.348
X4.1031Y-3.3717
X4.1031Y-3.3953
X4.1031Y-3.4189
X4.1031Y-3.9606
X4.1031Y-3.9843
X4.1031Y-4.0079
X4.1031Y-4.0315
X4.1031Y-4.0551
X4.1031Y-4.0787
X4.1031Y-4.1024
X4.1031Y-4.6441
X4.1031Y-4.6677
X4.1031Y-4.6913
X4.1031Y-4.715
X4.1031Y-4.7386
X4.1031Y-4.7622
X4.1031Y-4.7858
X4.1031Y-5.3276
X4.1031Y-5.3512
X4.1031Y-5.3748
X4.1031Y-5.3984
X4.1031Y-5.422
X4.1031Y-5.4457
X4.1031Y-5.4693
X4.3201Y-1.9102
X4.3201Y-1.9339
X4.3201Y-1.9575
X4.3201Y-1.9811
X4.3201Y-2.0047
X4.3201Y-2.0283
X4.3201Y-2.052
X4.3201Y-2.5937
X4.3201Y-2.6173
X4.3201Y-2.6409
X4.3201Y-2.6646
X4.3201Y-2.6882
X4.3201Y-2.7118
X4.3201Y-2.7354
X4.3201Y-3.2772
X4.3201Y-3.3008
X4.3201Y-3.3244
X4.3201Y-3.348
X4.3201Y-3.3717
X4.3201Y-3.3953
X4.3201Y-3.4189
X4.3201Y-3.9606
X4.3201Y-3.9843
X4.3201Y-4.0079
X4.3201Y-4.0315
X4.3201Y-4.0551
X4.3201Y-4.0787
X4.3201Y-4.1024
X4.3201Y-4.6441
X4.3201Y-4.6677
X4.3201Y-4.6913
X4.3201Y-4.715
X4.3201Y-4.7386
X4.3201Y-4.7622
X4.3201Y-4.7858
X4.3201Y-5.3276
X4.3201Y-5.3512
X4.3201Y-5.3748
X4.3201Y-5.3984
X4.3201Y-5.422
X4.3201Y-5.4457
X4.3201Y-5.4693
X4.5496Y-1.911
X4.5496Y-1.9346
X4.5496Y-1.9583
X4.5496Y-1.9819
X4.5496Y-2.0055
X4.5496Y-2.0291
X4.5496Y-2.0528
X4.5496Y-2.5945
X4.5496Y-2.6181
X4.5496Y-2.6417
X4.5496Y-2.6654
X4.5496Y-2.689
X4.5496Y-2.7126
X4.5496Y-2.7362
X4.5496Y-3.278
X4.5496Y-3.3016
X4.5496Y-3.3252
X4.5496Y-3.3488
X4.5496Y-3.3724
X4.5496Y-3.3961
X4.5496Y-3.4197
X4.5496Y-3.9614
X4.5496Y-3.985
X4.5496Y-4.0087
X4.5496Y-4.0323
X4.5496Y-4.0559
X4.5496Y-4.0795
X4.5496Y-4.1031
X4.5496Y-4.6449
X4.5496Y-4.6685
X4.5496Y-4.6921
X4.5496Y-4.7157
X4.5496Y-4.7394
X4.5496Y-4.763
X4.5496Y-4.7866
X4.5496Y-5.3283
X4.5496Y-5.352
X4.5496Y-5.3756
X4.5496Y-5.3992
X4.5496Y-5.4228
X4.5496Y-5.4465
X4.5496Y-5.4701
X4.5732Y-1.911
X4.5732Y-1.9346
X4.5732Y-1.9583
X4.5732Y-1.9819
X4.5732Y-2.0055
X4.5732Y-2.0291
X4.5732Y-2.0528
X4.5732Y-2.5945
X4.5732Y-2.6181
X4.5732Y-2.6417
X4.5732Y-2.6654
X4.5732Y-2.689
X4.5732Y-2.7126
X4.5732Y-2.7362
X4.5732Y-3.278
X4.5732Y-3.3016
X4.5732Y-3.3252
X4.5732Y-3.3488
X4.5732Y-3.3724
X4.5732Y-3.3961
X4.5732Y-3.4197
X4.5732Y-3.9614
X4.5732Y-3.985
X4.5732Y-4.0087
X4.5732Y-4.0323
X4.5732Y-4.0559
X4.5732Y-4.0795
X4.5732Y-4.1031
X4.5732Y-4.6449
X4.5732Y-4.6685
X4.5732Y-4.6921
X4.5732Y-4.7157
X4.5732Y-4.7394
X4.5732Y-4.763
X4.5732Y-4.7866
X4.5732Y-5.3283
X4.5732Y-5.352
X4.5732Y-5.3756
X4.5732Y-5.3992
X4.5732Y-5.4228
X4.5732Y-5.4465
X4.5732Y-5.4701
X4.6961Y-1.9114
X4.6961Y-1.935
X4.6961Y-1.9587
X4.6961Y-1.9823
X4.6961Y-2.0059
X4.6961Y-2.0295
X4.6961Y-2.0531
X4.6961Y-2.5949
X4.6961Y-2.6185
X4.6961Y-2.6421
X4.6961Y-2.6657
X4.6961Y-2.6894
X4.6961Y-2.713
X4.6961Y-2.7366
X4.6961Y-3.2783
X4.6961Y-3.302
X4.6961Y-3.3256
X4.6961Y-3.3492
X4.6961Y-3.3728
X4.6961Y-3.3965
X4.6961Y-3.4201
X4.6961Y-3.9618
X4.6961Y-3.9854
X4.6961Y-4.0091
X4.6961Y-4.0327
X4.6961Y-4.0563
X4.6961Y-4.0799
X4.6961Y-4.1035
X4.6961Y-4.6453
X4.6961Y-4.6689
X4.6961Y-4.6925
X4.6961Y-4.7161
X4.6961Y-4.7398
X4.6961Y-4.7634
X4.6961Y-4.787
X4.6961Y-5.3287
X4.6961Y-5.3524
X4.6961Y-5.376
X4.6961Y-5.3996
X4.6961Y-5.4232
X4.6961Y-5.4469
X4.6961Y-5.4705
X4.7197Y-1.9114
X4.7197Y-1.935
X4.7197Y-1.9587
X4.7197Y-1.9823
X4.7197Y-2.0059
X4.7197Y-2.0295
X4.7197Y-2.0531
X4.7197Y-2.5949
X4.7197Y-2.6185
X4.7197Y-2.6421
X4.7197Y-2.6657
X4.7197Y-2.6894
X4.7197Y-2.713
X4.7197Y-2.7366
X4.7197Y-3.2783
X4.7197Y-3.302
X4.7197Y-3.3256
X4.7197Y-3.3492
X4.7197Y-3.3728
X4.7197Y-3.3965
X4.7197Y-3.4201
X4.7197Y-3.9618
X4.7197Y-3.9854
X4.7197Y-4.0091
X4.7197Y-4.0327
X4.7197Y-4.0563
X4.7197Y-4.0799
X4.7197Y-4.1035
X4.7197Y-4.6453
X4.7197Y-4.6689
X4.7197Y-4.6925
X4.7197Y-4.7161
X4.7197Y-4.7398
X4.7197Y-4.7634
X4.7197Y-4.787
X4.7197Y-5.3287
X4.7197Y-5.3524
X4.7197Y-5.376
X4.7197Y-5.3996
X4.7197Y-5.4232
X4.7197Y-5.4469
X4.7197Y-5.4705
X4.9532Y-2.0618
X4.9532Y-2.7453
X4.9532Y-3.4287
X4.9532Y-4.1122
X4.9532Y-4.7957
X4.9532Y-5.4791
X5.1197Y-2.0594
X5.1197Y-2.7429
X5.1197Y-3.4264
X5.1197Y-4.1098
X5.1197Y-4.7933
X5.1197Y-5.4768
X5.337Y-1.9098
X5.337Y-1.9335
X5.337Y-1.9571
X5.337Y-1.9807
X5.337Y-2.0043
X5.337Y-2.028
X5.337Y-2.0516
X5.337Y-2.5933
X5.337Y-2.6169
X5.337Y-2.6406
X5.337Y-2.6642
X5.337Y-2.6878
X5.337Y-2.7114
X5.337Y-2.735
X5.337Y-3.2768
X5.337Y-3.3004
X5.337Y-3.324
X5.337Y-3.3476
X5.337Y-3.3713
X5.337Y-3.3949
X5.337Y-3.4185
X5.337Y-3.9602
X5.337Y-3.9839
X5.337Y-4.0075
X5.337Y-4.0311
X5.337Y-4.0547
X5.337Y-4.0783
X5.337Y-4.102
X5.337Y-4.6437
X5.337Y-4.6673
X5.337Y-4.6909
X5.337Y-4.7146
X5.337Y-4.7382
X5.337Y-4.7618
X5.337Y-4.7854
X5.337Y-5.3272
X5.337Y-5.3508
X5.337Y-5.3744
X5.337Y-5.398
X5.337Y-5.4217
X5.337Y-5.4453
X5.337Y-5.4689
X5.5535Y-1.9102
X5.5535Y-1.9339
X5.5535Y-1.9575
X5.5535Y-1.9811
X5.5535Y-2.0047
X5.5535Y-2.0283
X5.5535Y-2.052
X5.5535Y-2.5937
X5.5535Y-2.6173
X5.5535Y-2.6409
X5.5535Y-2.6646
X5.5535Y-2.6882
X5.5535Y-2.7118
X5.5535Y-2.7354
X5.5535Y-3.2772
X5.5535Y-3.3008
X5.5535Y-3.3244
X5.5535Y-3.348
X5.5535Y-3.3717
X5.5535Y-3.3953
X5.5535Y-3.4189
X5.5535Y-3.9606
X5.5535Y-3.9843
X5.5535Y-4.0079
X5.5535Y-4.0315
X5.5535Y-4.0551
X5.5535Y-4.0787
X5.5535Y-4.1024
X5.5535Y-4.6441
X5.5535Y-4.6677
X5.5535Y-4.6913
X5.5535Y-4.715
X5.5535Y-4.7386
X5.5535Y-4.7622
X5.5535Y-4.7858
X5.5535Y-5.3276
X5.5535Y-5.3512
X5.5535Y-5.3748
X5.5535Y-5.3984
X5.5535Y-5.422
X5.5535Y-5.4457
X5.5535Y-5.4693
X5.7705Y-1.9102
X5.7705Y-1.9339
X5.7705Y-1.9575
X5.7705Y-1.9811
X5.7705Y-2.0047
X5.7705Y-2.0283
X5.7705Y-2.052
X5.7705Y-2.5937
X5.7705Y-2.6173
X5.7705Y-2.6409
X5.7705Y-2.6646
X5.7705Y-2.6882
X5.7705Y-2.7118
X5.7705Y-2.7354
X5.7705Y-3.2772
X5.7705Y-3.3008
X5.7705Y-3.3244
X5.7705Y-3.348
X5.7705Y-3.3717
X5.7705Y-3.3953
X5.7705Y-3.4189
X5.7705Y-3.9606
X5.7705Y-3.9843
X5.7705Y-4.0079
X5.7705Y-4.0315
X5.7705Y-4.0551
X5.7705Y-4.0787
X5.7705Y-4.1024
X5.7705Y-4.6441
X5.7705Y-4.6677
X5.7705Y-4.6913
X5.7705Y-4.715
X5.7705Y-4.7386
X5.7705Y-4.7622
X5.7705Y-4.7858
X5.7705Y-5.3276
X5.7705Y-5.3512
X5.7705Y-5.3748
X5.7705Y-5.3984
X5.7705Y-5.422
X5.7705Y-5.4457
X5.7705Y-5.4693
X6.0Y-1.911
X6.0Y-1.9346
X6.0Y-1.9583
X6.0Y-1.9819
X6.0Y-2.0055
X6.0Y-2.0291
X6.0Y-2.0528
X6.0Y-2.5945
X6.0Y-2.6181
X6.0Y-2.6417
X6.0Y-2.6654
X6.0Y-2.689
X6.0Y-2.7126
X6.0Y-2.7362
X6.0Y-3.278
X6.0Y-3.3016
X6.0Y-3.3252
X6.0Y-3.3488
X6.0Y-3.3724
X6.0Y-3.3961
X6.0Y-3.4197
X6.0Y-3.9614
X6.0Y-3.985
X6.0Y-4.0087
X6.0Y-4.0323
X6.0Y-4.0559
X6.0Y-4.0795
X6.0Y-4.1031
X6.0Y-4.6449
X6.0Y-4.6685
X6.0Y-4.6921
X6.0Y-4.7157
X6.0Y-4.7394
X6.0Y-4.763
X6.0Y-4.7866
X6.0Y-5.3283
X6.0Y-5.352
X6.0Y-5.3756
X6.0Y-5.3992
X6.0Y-5.4228
X6.0Y-5.4465
X6.0Y-5.4701
X6.0236Y-1.911
X6.0236Y-1.9346
X6.0236Y-1.9583
X6.0236Y-1.9819
X6.0236Y-2.0055
X6.0236Y-2.0291
X6.0236Y-2.0528
X6.0236Y-2.5945
X6.0236Y-2.6181
X6.0236Y-2.6417
X6.0236Y-2.6654
X6.0236Y-2.689
X6.0236Y-2.7126
X6.0236Y-2.7362
X6.0236Y-3.278
X6.0236Y-3.3016
X6.0236Y-3.3252
X6.0236Y-3.3488
X6.0236Y-3.3724
X6.0236Y-3.3961
X6.0236Y-3.4197
X6.0236Y-3.9614
X6.0236Y-3.985
X6.0236Y-4.0087
X6.0236Y-4.0323
X6.0236Y-4.0559
X6.0236Y-4.0795
X6.0236Y-4.1031
X6.0236Y-4.6449
X6.0236Y-4.6685
X6.0236Y-4.6921
X6.0236Y-4.7157
X6.0236Y-4.7394
X6.0236Y-4.763
X6.0236Y-4.7866
X6.0236Y-5.3283
X6.0236Y-5.352
X6.0236Y-5.3756
X6.0236Y-5.3992
X6.0236Y-5.4228
X6.0236Y-5.4465
X6.0236Y-5.4701
X6.1465Y-1.9114
X6.1465Y-1.935
X6.1465Y-1.9587
X6.1465Y-1.9823
X6.1465Y-2.0059
X6.1465Y-2.0295
X6.1465Y-2.0531
X6.1465Y-2.5949
X6.1465Y-2.6185
X6.1465Y-2.6421
X6.1465Y-2.6657
X6.1465Y-2.6894
X6.1465Y-2.713
X6.1465Y-2.7366
X6.1465Y-3.2783
X6.1465Y-3.302
X6.1465Y-3.3256
X6.1465Y-3.3492
X6.1465Y-3.3728
X6.1465Y-3.3965
X6.1465Y-3.4201
X6.1465Y-3.9618
X6.1465Y-3.9854
X6.1465Y-4.0091
X6.1465Y-4.0327
X6.1465Y-4.0563
X6.1465Y-4.0799
X6.1465Y-4.1035
X6.1465Y-4.6453
X6.1465Y-4.6689
X6.1465Y-4.6925
X6.1465Y-4.7161
X6.1465Y-4.7398
X6.1465Y-4.7634
X6.1465Y-4.787
X6.1465Y-5.3287
X6.1465Y-5.3524
X6.1465Y-5.376
X6.1465Y-5.3996
X6.1465Y-5.4232
X6.1465Y-5.4469
X6.1465Y-5.4705
X6.1701Y-1.9114
X6.1701Y-1.935
X6.1701Y-1.9587
X6.1701Y-1.9823
X6.1701Y-2.0059
X6.1701Y-2.0295
X6.1701Y-2.0531
X6.1701Y-2.5949
X6.1701Y-2.6185
X6.1701Y-2.6421
X6.1701Y-2.6657
X6.1701Y-2.6894
X6.1701Y-2.713
X6.1701Y-2.7366
X6.1701Y-3.2783
X6.1701Y-3.302
X6.1701Y-3.3256
X6.1701Y-3.3492
X6.1701Y-3.3728
X6.1701Y-3.3965
X6.1701Y-3.4201
X6.1701Y-3.9618
X6.1701Y-3.9854
X6.1701Y-4.0091
X6.1701Y-4.0327
X6.1701Y-4.0563
X6.1701Y-4.0799
X6.1701Y-4.1035
X6.1701Y-4.6453
X6.1701Y-4.6689
X6.1701Y-4.6925
X6.1701Y-4.7161
X6.1701Y-4.7398
X6.1701Y-4.7634
X6.1701Y-4.787
X6.1701Y-5.3287
X6.1701Y-5.3524
X6.1701Y-5.376
X6.1701Y-5.3996
X6.1701Y-5.4232
X6.1701Y-5.4469
X6.1701Y-5.4705
X6.4036Y-2.0618
X6.4036Y-2.7453
X6.4036Y-3.4287
X6.4036Y-4.1122
X6.4036Y-4.7957
X6.4036Y-5.4791
X6.5701Y-2.0594
X6.5701Y-2.7429
X6.5701Y-3.4264
X6.5701Y-4.1098
X6.5701Y-4.7933
X6.5701Y-5.4768
X6.7874Y-1.9098
X6.7874Y-1.9335
X6.7874Y-1.9571
X6.7874Y-1.9807
X6.7874Y-2.0043
X6.7874Y-2.028
X6.7874Y-2.0516
X6.7874Y-2.5933
X6.7874Y-2.6169
X6.7874Y-2.6406
X6.7874Y-2.6642
X6.7874Y-2.6878
X6.7874Y-2.7114
X6.7874Y-2.735
X6.7874Y-3.2768
X6.7874Y-3.3004
X6.7874Y-3.324
X6.7874Y-3.3476
X6.7874Y-3.3713
X6.7874Y-3.3949
X6.7874Y-3.4185
X6.7874Y-3.9602
X6.7874Y-3.9839
X6.7874Y-4.0075
X6.7874Y-4.0311
X6.7874Y-4.0547
X6.7874Y-4.0783
X6.7874Y-4.102
X6.7874Y-4.6437
X6.7874Y-4.6673
X6.7874Y-4.6909
X6.7874Y-4.7146
X6.7874Y-4.7382
X6.7874Y-4.7618
X6.7874Y-4.7854
X6.7874Y-5.3272
X6.7874Y-5.3508
X6.7874Y-5.3744
X6.7874Y-5.398
X6.7874Y-5.4217
X6.7874Y-5.4453
X6.7874Y-5.4689
X7.0039Y-1.9102
X7.0039Y-1.9339
X7.0039Y-1.9575
X7.0039Y-1.9811
X7.0039Y-2.0047
X7.0039Y-2.0283
X7.0039Y-2.052
X7.0039Y-2.5937
X7.0039Y-2.6173
X7.0039Y-2.6409
X7.0039Y-2.6646
X7.0039Y-2.6882
X7.0039Y-2.7118
X7.0039Y-2.7354
X7.0039Y-3.2772
X7.0039Y-3.3008
X7.0039Y-3.3244
X7.0039Y-3.348
X7.0039Y-3.3717
X7.0039Y-3.3953
X7.0039Y-3.4189
X7.0039Y-3.9606
X7.0039Y-3.9843
X7.0039Y-4.0079
X7.0039Y-4.0315
X7.0039Y-4.0551
X7.0039Y-4.0787
X7.0039Y-4.1024
X7.0039Y-4.6441
X7.0039Y-4.6677
X7.0039Y-4.6913
X7.0039Y-4.715
X7.0039Y-4.7386
X7.0039Y-4.7622
X7.0039Y-4.7858
X7.0039Y-5.3276
X7.0039Y-5.3512
X7.0039Y-5.3748
X7.0039Y-5.3984
X7.0039Y-5.422
X7.0039Y-5.4457
X7.0039Y-5.4693
X7.2209Y-1.9102
X7.2209Y-1.9339
X7.2209Y-1.9575
X7.2209Y-1.9811
X7.2209Y-2.0047
X7.2209Y-2.0283
X7.2209Y-2.052
X7.2209Y-2.5937
X7.2209Y-2.6173
X7.2209Y-2.6409
X7.2209Y-2.6646
X7.2209Y-2.6882
X7.2209Y-2.7118
X7.2209Y-2.7354
X7.2209Y-3.2772
X7.2209Y-3.3008
X7.2209Y-3.3244
X7.2209Y-3.348
X7.2209Y-3.3717
X7.2209Y-3.3953
X7.2209Y-3.4189
X7.2209Y-3.9606
X7.2209Y-3.9843
X7.2209Y-4.0079
X7.2209Y-4.0315
X7.2209Y-4.0551
X7.2209Y-4.0787
X7.2209Y-4.1024
X7.2209Y-4.6441
X7.2209Y-4.6677
X7.2209Y-4.6913
X7.2209Y-4.715
X7.2209Y-4.7386
X7.2209Y-4.7622
X7.2209Y-4.7858
X7.2209Y-5.3276
X7.2209Y-5.3512
X7.2209Y-5.3748
X7.2209Y-5.3984
X7.2209Y-5.422
X7.2209Y-5.4457
X7.2209Y-5.4693
X7.4504Y-1.911
X7.4504Y-1.9346
X7.4504Y-1.9583
X7.4504Y-1.9819
X7.4504Y-2.0055
X7.4504Y-2.0291
X7.4504Y-2.0528
X7.4504Y-2.5945
X7.4504Y-2.6181
X7.4504Y-2.6417
X7.4504Y-2.6654
X7.4504Y-2.689
X7.4504Y-2.7126
X7.4504Y-2.7362
X7.4504Y-3.278
X7.4504Y-3.3016
X7.4504Y-3.3252
X7.4504Y-3.3488
X7.4504Y-3.3724
X7.4504Y-3.3961
X7.4504Y-3.4197
X7.4504Y-3.9614
X7.4504Y-3.985
X7.4504Y-4.0087
X7.4504Y-4.0323
X7.4504Y-4.0559
X7.4504Y-4.0795
X7.4504Y-4.1031
X7.4504Y-4.6449
X7.4504Y-4.6685
X7.4504Y-4.6921
X7.4504Y-4.7157
X7.4504Y-4.7394
X7.4504Y-4.763
X7.4504Y-4.7866
X7.4504Y-5.3283
X7.4504Y-5.352
X7.4504Y-5.3756
X7.4504Y-5.3992
X7.4504Y-5.4228
X7.4504Y-5.4465
X7.4504Y-5.4701
X7.474Y-1.911
X7.474Y-1.9346
X7.474Y-1.9583
X7.474Y-1.9819
X7.474Y-2.0055
X7.474Y-2.0291
X7.474Y-2.0528
X7.474Y-2.5945
X7.474Y-2.6181
X7.474Y-2.6417
X7.474Y-2.6654
X7.474Y-2.689
X7.474Y-2.7126
X7.474Y-2.7362
X7.474Y-3.278
X7.474Y-3.3016
X7.474Y-3.3252
X7.474Y-3.3488
X7.474Y-3.3724
X7.474Y-3.3961
X7.474Y-3.4197
X7.474Y-3.9614
X7.474Y-3.985
X7.474Y-4.0087
X7.474Y-4.0323
X7.474Y-4.0559
X7.474Y-4.0795
X7.474Y-4.1031
X7.474Y-4.6449
X7.474Y-4.6685
X7.474Y-4.6921
X7.474Y-4.7157
X7.474Y-4.7394
X7.474Y-4.763
X7.474Y-4.7866
X7.474Y-5.3283
X7.474Y-5.352
X7.474Y-5.3756
X7.474Y-5.3992
X7.474Y-5.4228
X7.474Y-5.4465
X7.474Y-5.4701
X7.5969Y-1.9114
X7.5969Y-1.935
X7.5969Y-1.9587
X7.5969Y-1.9823
X7.5969Y-2.0059
X7.5969Y-2.0295
X7.5969Y-2.0531
X7.5969Y-2.5949
X7.5969Y-2.6185
X7.5969Y-2.6421
X7.5969Y-2.6657
X7.5969Y-2.6894
X7.5969Y-2.713
X7.5969Y-2.7366
X7.5969Y-3.2783
X7.5969Y-3.302
X7.5969Y-3.3256
X7.5969Y-3.3492
X7.5969Y-3.3728
X7.5969Y-3.3965
X7.5969Y-3.4201
X7.5969Y-3.9618
X7.5969Y-3.9854
X7.5969Y-4.0091
X7.5969Y-4.0327
X7.5969Y-4.0563
X7.5969Y-4.0799
X7.5969Y-4.1035
X7.5969Y-4.6453
X7.5969Y-4.6689
X7.5969Y-4.6925
X7.5969Y-4.7161
X7.5969Y-4.7398
X7.5969Y-4.7634
X7.5969Y-4.787
X7.5969Y-5.3287
X7.5969Y-5.3524
X7.5969Y-5.376
X7.5969Y-5.3996
X7.5969Y-5.4232
X7.5969Y-5.4469
X7.5969Y-5.4705
X7.6205Y-1.9114
X7.6205Y-1.935
X7.6205Y-1.9587
X7.6205Y-1.9823
X7.6205Y-2.0059
X7.6205Y-2.0295
X7.6205Y-2.0531
X7.6205Y-2.5949
X7.6205Y-2.6185
X7.6205Y-2.6421
X7.6205Y-2.6657
X7.6205Y-2.6894
X7.6205Y-2.713
X7.6205Y-2.7366
X7.6205Y-3.2783
X7.6205Y-3.302
X7.6205Y-3.3256
X7.6205Y-3.3492
X7.6205Y-3.3728
X7.6205Y-3.3965
X7.6205Y-3.4201
X7.6205Y-3.9618
X7.6205Y-3.9854
X7.6205Y-4.0091
X7.6205Y-4.0327
X7.6205Y-4.0563
X7.6205Y-4.0799
X7.6205Y-4.1035
X7.6205Y-4.6453
X7.6205Y-4.6689
X7.6205Y-4.6925
X7.6205Y-4.7161
X7.6205Y-4.7398
X7.6205Y-4.7634
X7.6205Y-4.787
X7.6205Y-5.3287
X7.6205Y-5.3524
X7.6205Y-5.376
X7.6205Y-5.3996
X7.6205Y-5.4232
X7.6205Y-5.4469
X7.6205Y-5.4705
X7.854Y-2.0618
X7.854Y-2.7453
X7.854Y-3.4287
X7.854Y-4.1122
X7.854Y-4.7957
X7.854Y-5.4791
X8.0205Y-2.0594
X8.0205Y-2.7429
X8.0205Y-3.4264
X8.0205Y-4.1098
X8.0205Y-4.7933
X8.0205Y-5.4768
X8.2378Y-1.9098
X8.2378Y-1.9335
X8.2378Y-1.9571
X8.2378Y-1.9807
X8.2378Y-2.0043
X8.2378Y-2.028
X8.2378Y-2.0516
X8.2378Y-2.5933
X8.2378Y-2.6169
X8.2378Y-2.6406
X8.2378Y-2.6642
X8.2378Y-2.6878
X8.2378Y-2.7114
X8.2378Y-2.735
X8.2378Y-3.2768
X8.2378Y-3.3004
X8.2378Y-3.324
X8.2378Y-3.3476
X8.2378Y-3.3713
X8.2378Y-3.3949
X8.2378Y-3.4185
X8.2378Y-3.9602
X8.2378Y-3.9839
X8.2378Y-4.0075
X8.2378Y-4.0311
X8.2378Y-4.0547
X8.2378Y-4.0783
X8.2378Y-4.102
X8.2378Y-4.6437
X8.2378Y-4.6673
X8.2378Y-4.6909
X8.2378Y-4.7146
X8.2378Y-4.7382
X8.2378Y-4.7618
X8.2378Y-4.7854
X8.2378Y-5.3272
X8.2378Y-5.3508
X8.2378Y-5.3744
X8.2378Y-5.398
X8.2378Y-5.4217
X8.2378Y-5.4453
X8.2378Y-5.4689
X8.4543Y-1.9102
X8.4543Y-1.9339
X8.4543Y-1.9575
X8.4543Y-1.9811
X8.4543Y-2.0047
X8.4543Y-2.0283
X8.4543Y-2.052
X8.4543Y-2.5937
X8.4543Y-2.6173
X8.4543Y-2.6409
X8.4543Y-2.6646
X8.4543Y-2.6882
X8.4543Y-2.7118
X8.4543Y-2.7354
X8.4543Y-3.2772
X8.4543Y-3.3008
X8.4543Y-3.3244
X8.4543Y-3.348
X8.4543Y-3.3717
X8.4543Y-3.3953
X8.4543Y-3.4189
X8.4543Y-3.9606
X8.4543Y-3.9843
X8.4543Y-4.0079
X8.4543Y-4.0315
X8.4543Y-4.0551
X8.4543Y-4.0787
X8.4543Y-4.1024
X8.4543Y-4.6441
X8.4543Y-4.6677
X8.4543Y-4.6913
X8.4543Y-4.715
X8.4543Y-4.7386
X8.4543Y-4.7622
X8.4543Y-4.7858
X8.4543Y-5.3276
X8.4543Y-5.3512
X8.4543Y-5.3748
X8.4543Y-5.3984
X8.4543Y-5.422
X8.4543Y-5.4457
X8.4543Y-5.4693
X8.6713Y-1.9102
X8.6713Y-1.9339
X8.6713Y-1.9575
X8.6713Y-1.9811
X8.6713Y-2.0047
X8.6713Y-2.0283
X8.6713Y-2.052
X8.6713Y-2.5937
X8.6713Y-2.6173
X8.6713Y-2.6409
X8.6713Y-2.6646
X8.6713Y-2.6882
X8.6713Y-2.7118
X8.6713Y-2.7354
X8.6713Y-3.2772
X8.6713Y-3.3008
X8.6713Y-3.3244
X8.6713Y-3.348
X8.6713Y-3.3717
X8.6713Y-3.3953
X8.6713Y-3.4189
X8.6713Y-3.9606
X8.6713Y-3.9843
X8.6713Y-4.0079
X8.6713Y-4.0315
X8.6713Y-4.0551
X8.6713Y-4.0787
X8.6713Y-4.1024
X8.6713Y-4.6441
X8.6713Y-4.6677
X8.6713Y-4.6913
X8.6713Y-4.715
X8.6713Y-4.7386
X8.6713Y-4.7622
X8.6713Y-4.7858
X8.6713Y-5.3276
X8.6713Y-5.3512
X8.6713Y-5.3748
X8.6713Y-5.3984
X8.6713Y-5.422
X8.6713Y-5.4457
X8.6713Y-5.4693
X8.9008Y-1.911
X8.9008Y-1.9346
X8.9008Y-1.9583
X8.9008Y-1.9819
X8.9008Y-2.0055
X8.9008Y-2.0291
X8.9008Y-2.0528
X8.9008Y-2.5945
X8.9008Y-2.6181
X8.9008Y-2.6417
X8.9008Y-2.6654
X8.9008Y-2.689
X8.9008Y-2.7126
X8.9008Y-2.7362
X8.9008Y-3.278
X8.9008Y-3.3016
X8.9008Y-3.3252
X8.9008Y-3.3488
X8.9008Y-3.3724
X8.9008Y-3.3961
X8.9008Y-3.4197
X8.9008Y-3.9614
X8.9008Y-3.985
X8.9008Y-4.0087
X8.9008Y-4.0323
X8.9008Y-4.0559
X8.9008Y-4.0795
X8.9008Y-4.1031
X8.9008Y-4.6449
X8.9008Y-4.6685
X8.9008Y-4.6921
X8.9008Y-4.7157
X8.9008Y-4.7394
X8.9008Y-4.763
X8.9008Y-4.7866
X8.9008Y-5.3283
X8.9008Y-5.352
X8.9008Y-5.3756
X8.9008Y-5.3992
X8.9008Y-5.4228
X8.9008Y-5.4465
X8.9008Y-5.4701
X8.9244Y-1.911
X8.9244Y-1.9346
X8.9244Y-1.9583
X8.9244Y-1.9819
X8.9244Y-2.0055
X8.9244Y-2.0291
X8.9244Y-2.0528
X8.9244Y-2.5945
X8.9244Y-2.6181
X8.9244Y-2.6417
X8.9244Y-2.6654
X8.9244Y-2.689
X8.9244Y-2.7126
X8.9244Y-2.7362
X8.9244Y-3.278
X8.9244Y-3.3016
X8.9244Y-3.3252
X8.9244Y-3.3488
X8.9244Y-3.3724
X8.9244Y-3.3961
X8.9244Y-3.4197
X8.9244Y-3.9614
X8.9244Y-3.985
X8.9244Y-4.0087
X8.9244Y-4.0323
X8.9244Y-4.0559
X8.9244Y-4.0795
X8.9244Y-4.1031
X8.9244Y-4.6449
X8.9244Y-4.6685
X8.9244Y-4.6921
X8.9244Y-4.7157
X8.9244Y-4.7394
X8.9244Y-4.763
X8.9244Y-4.7866
X8.9244Y-5.3283
X8.9244Y-5.352
X8.9244Y-5.3756
X8.9244Y-5.3992
X8.9244Y-5.4228
X8.9244Y-5.4465
X8.9244Y-5.4701
X9.0472Y-1.9114
X9.0472Y-1.935
X9.0472Y-1.9587
X9.0472Y-1.9823
X9.0472Y-2.0059
X9.0472Y-2.0295
X9.0472Y-2.0531
X9.0472Y-2.5949
X9.0472Y-2.6185
X9.0472Y-2.6421
X9.0472Y-2.6657
X9.0472Y-2.6894
X9.0472Y-2.713
X9.0472Y-2.7366
X9.0472Y-3.2783
X9.0472Y-3.302
X9.0472Y-3.3256
X9.0472Y-3.3492
X9.0472Y-3.3728
X9.0472Y-3.3965
X9.0472Y-3.4201
X9.0472Y-3.9618
X9.0472Y-3.9854
X9.0472Y-4.0091
X9.0472Y-4.0327
X9.0472Y-4.0563
X9.0472Y-4.0799
X9.0472Y-4.1035
X9.0472Y-4.6453
X9.0472Y-4.6689
X9.0472Y-4.6925
X9.0472Y-4.7161
X9.0472Y-4.7398
X9.0472Y-4.7634
X9.0472Y-4.787
X9.0472Y-5.3287
X9.0472Y-5.3524
X9.0472Y-5.376
X9.0472Y-5.3996
X9.0472Y-5.4232
X9.0472Y-5.4469
X9.0472Y-5.4705
X9.0709Y-1.9114
X9.0709Y-1.935
X9.0709Y-1.9587
X9.0709Y-1.9823
X9.0709Y-2.0059
X9.0709Y-2.0295
X9.0709Y-2.0531
X9.0709Y-2.5949
X9.0709Y-2.6185
X9.0709Y-2.6421
X9.0709Y-2.6657
X9.0709Y-2.6894
X9.0709Y-2.713
X9.0709Y-2.7366
X9.0709Y-3.2783
X9.0709Y-3.302
X9.0709Y-3.3256
X9.0709Y-3.3492
X9.0709Y-3.3728
X9.0709Y-3.3965
X9.0709Y-3.4201
X9.0709Y-3.9618
X9.0709Y-3.9854
X9.0709Y-4.0091
X9.0709Y-4.0327
X9.0709Y-4.0563
X9.0709Y-4.0799
X9.0709Y-4.1035
X9.0709Y-4.6453
X9.0709Y-4.6689
X9.0709Y-4.6925
X9.0709Y-4.7161
X9.0709Y-4.7398
X9.0709Y-4.7634
X9.0709Y-4.787
X9.0709Y-5.3287
X9.0709Y-5.3524
X9.0709Y-5.376
X9.0709Y-5.3996
X9.0709Y-5.4232
X9.0709Y-5.4469
X9.0709Y-5.4705
T2
X2.0642Y-1.878
X2.0642Y-2.5614
X2.0642Y-3.2449
X2.0642Y-3.9283
X2.0642Y-4.6118
X2.0642Y-5.2953
X2.0646Y-2.1142
X2.0646Y-2.7976
X2.0646Y-3.4811
X2.0646Y-4.1646
X2.0646Y-4.848
X2.0646Y-5.5315
X2.1673Y-1.878
X2.1673Y-2.1142
X2.1673Y-2.5614
X2.1673Y-2.7976
X2.1673Y-3.2449
X2.1673Y-3.4811
X2.1673Y-3.9283
X2.1673Y-4.1646
X2.1673Y-4.6118
X2.1673Y-4.848
X2.1673Y-5.2953
X2.1673Y-5.5315
X3.5146Y-1.878
X3.5146Y-2.5614
X3.5146Y-3.2449
X3.5146Y-3.9283
X3.5146Y-4.6118
X3.5146Y-5.2953
X3.515Y-2.1142
X3.515Y-2.7976
X3.515Y-3.4811
X3.515Y-4.1646
X3.515Y-4.848
X3.515Y-5.5315
X3.6177Y-1.878
X3.6177Y-2.1142
X3.6177Y-2.5614
X3.6177Y-2.7976
X3.6177Y-3.2449
X3.6177Y-3.4811
X3.6177Y-3.9283
X3.6177Y-4.1646
X3.6177Y-4.6118
X3.6177Y-4.848
X3.6177Y-5.2953
X3.6177Y-5.5315
X4.965Y-1.878
X4.965Y-2.5614
X4.965Y-3.2449
X4.965Y-3.9283
X4.965Y-4.6118
X4.965Y-5.2953
X4.9654Y-2.1142
X4.9654Y-2.7976
X4.9654Y-3.4811
X4.9654Y-4.1646
X4.9654Y-4.848
X4.9654Y-5.5315
X5.0681Y-1.878
X5.0681Y-2.1142
X5.0681Y-2.5614
X5.0681Y-2.7976
X5.0681Y-3.2449
X5.0681Y-3.4811
X5.0681Y-3.9283
X5.0681Y-4.1646
X5.0681Y-4.6118
X5.0681Y-4.848
X5.0681Y-5.2953
X5.0681Y-5.5315
X6.4154Y-1.878
X6.4154Y-2.5614
X6.4154Y-3.2449
X6.4154Y-3.9283
X6.4154Y-4.6118
X6.4154Y-5.2953
X6.4157Y-2.1142
X6.4157Y-2.7976
X6.4157Y-3.4811
X6.4157Y-4.1646
X6.4157Y-4.848
X6.4157Y-5.5315
X6.5185Y-1.878
X6.5185Y-2.1142
X6.5185Y-2.5614
X6.5185Y-2.7976
X6.5185Y-3.2449
X6.5185Y-3.4811
X6.5185Y-3.9283
X6.5185Y-4.1646
X6.5185Y-4.6118
X6.5185Y-4.848
X6.5185Y-5.2953
X6.5185Y-5.5315
X7.8657Y-1.878
X7.8657Y-2.5614
X7.8657Y-3.2449
X7.8657Y-3.9283
X7.8657Y-4.6118
X7.8657Y-5.2953
X7.8661Y-2.1142
X7.8661Y-2.7976
X7.8661Y-3.4811
X7.8661Y-4.1646
X7.8661Y-4.848
X7.8661Y-5.5315
X7.9689Y-1.878
X7.9689Y-2.1142
X7.9689Y-2.5614
X7.9689Y-2.7976
X7.9689Y-3.2449
X7.9689Y-3.4811
X7.9689Y-3.9283
X7.9689Y-4.1646
X7.9689Y-4.6118
X7.9689Y-4.848
X7.9689Y-5.2953
X7.9689Y-5.5315
T3
X2.1193Y-2.2638
X2.1193Y-2.9472
X2.1193Y-3.6307
X2.1193Y-4.3142
X2.1193Y-4.9976
X2.1193Y-5.6811
X3.1862Y-2.2303
X3.1862Y-2.9138
X3.1862Y-3.5972
X3.1862Y-4.2807
X3.1862Y-4.9642
X3.1862Y-5.6476
X3.5697Y-2.2638
X3.5697Y-2.9472
X3.5697Y-3.6307
X3.5697Y-4.3142
X3.5697Y-4.9976
X3.5697Y-5.6811
X4.6366Y-2.2303
X4.6366Y-2.9138
X4.6366Y-3.5972
X4.6366Y-4.2807
X4.6366Y-4.9642
X4.6366Y-5.6476
X5.0201Y-2.2638
X5.0201Y-2.9472
X5.0201Y-3.6307
X5.0201Y-4.3142
X5.0201Y-4.9976
X5.0201Y-5.6811
X6.087Y-2.2303
X6.087Y-2.9138
X6.087Y-3.5972
X6.087Y-4.2807
X6.087Y-4.9642
X6.087Y-5.6476
X6.4705Y-2.2638
X6.4705Y-2.9472
X6.4705Y-3.6307
X6.4705Y-4.3142
X6.4705Y-4.9976
X6.4705Y-5.6811
X7.5374Y-2.2303
X7.5374Y-2.9138
X7.5374Y-3.5972
X7.5374Y-4.2807
X7.5374Y-4.9642
X7.5374Y-5.6476
X7.9209Y-2.2638
X7.9209Y-2.9472
X7.9209Y-3.6307
X7.9209Y-4.3142
X7.9209Y-4.9976
X7.9209Y-5.6811
X8.9878Y-2.2303
X8.9878Y-2.9138
X8.9878Y-3.5972
X8.9878Y-4.2807
X8.9878Y-4.9642
X8.9878Y-5.6476
M30
