M48
; DRILL file {KiCad 8.0.1} date 2024-05-29T13:53:15-0500
; FORMAT={-:-/ absolute / inch / decimal}
; #@! TF.CreationDate,2024-05-29T13:53:15-05:00
; #@! TF.GenerationSoftware,Kicad,Pcbnew,8.0.1
; #@! TF.FileFunction,NonPlated,1,2,NPTH
FMAT,2
INCH
; #@! TA.AperFunction,NonPlated,NPTH,ComponentDrill
T1C0.0197
%
G90
G05
T1
X2.5751Y-1.6787
X2.5751Y-1.7969
X2.5751Y-2.3622
X2.5751Y-2.4803
X2.5751Y-3.0457
X2.5751Y-3.1638
X2.5751Y-3.7291
X2.5751Y-3.8472
X2.5751Y-4.4126
X2.5751Y-4.5307
X2.5751Y-5.0961
X2.5751Y-5.2142
X2.5751Y-5.7795
X2.5751Y-5.8976
X2.6046Y-1.7969
X2.6046Y-2.4803
X2.6046Y-3.1638
X2.6046Y-3.8472
X2.6046Y-4.5307
X2.6046Y-5.2142
X2.6046Y-5.8976
X2.6051Y-1.6787
X2.6051Y-2.3622
X2.6051Y-3.0457
X2.6051Y-3.7291
X2.6051Y-4.4126
X2.6051Y-5.0961
X2.6051Y-5.7795
X2.6346Y-1.6787
X2.6346Y-1.7969
X2.6346Y-2.3622
X2.6346Y-2.4803
X2.6346Y-3.0457
X2.6346Y-3.1638
X2.6346Y-3.7291
X2.6346Y-3.8472
X2.6346Y-4.4126
X2.6346Y-4.5307
X2.6346Y-5.0961
X2.6346Y-5.2142
X2.6346Y-5.7795
X2.6346Y-5.8976
X2.6642Y-1.6787
X2.6642Y-1.7969
X2.6642Y-2.3622
X2.6642Y-2.4803
X2.6642Y-3.0457
X2.6642Y-3.1638
X2.6642Y-3.7291
X2.6642Y-3.8472
X2.6642Y-4.4126
X2.6642Y-4.5307
X2.6642Y-5.0961
X2.6642Y-5.2142
X2.6642Y-5.7795
X2.6642Y-5.8976
X2.6946Y-1.6787
X2.6946Y-1.7969
X2.6946Y-2.3622
X2.6946Y-2.4803
X2.6946Y-3.0457
X2.6946Y-3.1638
X2.6946Y-3.7291
X2.6946Y-3.8472
X2.6946Y-4.4126
X2.6946Y-4.5307
X2.6946Y-5.0961
X2.6946Y-5.2142
X2.6946Y-5.7795
X2.6946Y-5.8976
X3.3008Y-2.0195
X3.3008Y-2.05
X3.3008Y-2.0795
X3.3008Y-2.1091
X3.3008Y-2.1391
X3.3008Y-2.703
X3.3008Y-2.7335
X3.3008Y-2.763
X3.3008Y-2.7925
X3.3008Y-2.8225
X3.3008Y-3.3865
X3.3008Y-3.4169
X3.3008Y-3.4465
X3.3008Y-3.476
X3.3008Y-3.506
X3.3008Y-4.0699
X3.3008Y-4.1004
X3.3008Y-4.1299
X3.3008Y-4.1594
X3.3008Y-4.1894
X3.3008Y-4.7534
X3.3008Y-4.7839
X3.3008Y-4.8134
X3.3008Y-4.8429
X3.3008Y-4.8729
X3.3008Y-5.4369
X3.3008Y-5.4673
X3.3008Y-5.4969
X3.3008Y-5.5264
X3.3008Y-5.5564
X3.4189Y-2.0195
X3.4189Y-2.05
X3.4189Y-2.0795
X3.4189Y-2.1095
X3.4189Y-2.1391
X3.4189Y-2.703
X3.4189Y-2.7335
X3.4189Y-2.763
X3.4189Y-2.793
X3.4189Y-2.8225
X3.4189Y-3.3865
X3.4189Y-3.4169
X3.4189Y-3.4465
X3.4189Y-3.4765
X3.4189Y-3.506
X3.4189Y-4.0699
X3.4189Y-4.1004
X3.4189Y-4.1299
X3.4189Y-4.1599
X3.4189Y-4.1894
X3.4189Y-4.7534
X3.4189Y-4.7839
X3.4189Y-4.8134
X3.4189Y-4.8434
X3.4189Y-4.8729
X3.4189Y-5.4369
X3.4189Y-5.4673
X3.4189Y-5.4969
X3.4189Y-5.5269
X3.4189Y-5.5564
X4.0255Y-1.6787
X4.0255Y-1.7969
X4.0255Y-2.3622
X4.0255Y-2.4803
X4.0255Y-3.0457
X4.0255Y-3.1638
X4.0255Y-3.7291
X4.0255Y-3.8472
X4.0255Y-4.4126
X4.0255Y-4.5307
X4.0255Y-5.0961
X4.0255Y-5.2142
X4.0255Y-5.7795
X4.0255Y-5.8976
X4.055Y-1.7969
X4.055Y-2.4803
X4.055Y-3.1638
X4.055Y-3.8472
X4.055Y-4.5307
X4.055Y-5.2142
X4.055Y-5.8976
X4.0555Y-1.6787
X4.0555Y-2.3622
X4.0555Y-3.0457
X4.0555Y-3.7291
X4.0555Y-4.4126
X4.0555Y-5.0961
X4.0555Y-5.7795
X4.085Y-1.6787
X4.085Y-1.7969
X4.085Y-2.3622
X4.085Y-2.4803
X4.085Y-3.0457
X4.085Y-3.1638
X4.085Y-3.7291
X4.085Y-3.8472
X4.085Y-4.4126
X4.085Y-4.5307
X4.085Y-5.0961
X4.085Y-5.2142
X4.085Y-5.7795
X4.085Y-5.8976
X4.1146Y-1.6787
X4.1146Y-1.7969
X4.1146Y-2.3622
X4.1146Y-2.4803
X4.1146Y-3.0457
X4.1146Y-3.1638
X4.1146Y-3.7291
X4.1146Y-3.8472
X4.1146Y-4.4126
X4.1146Y-4.5307
X4.1146Y-5.0961
X4.1146Y-5.2142
X4.1146Y-5.7795
X4.1146Y-5.8976
X4.145Y-1.6787
X4.145Y-1.7969
X4.145Y-2.3622
X4.145Y-2.4803
X4.145Y-3.0457
X4.145Y-3.1638
X4.145Y-3.7291
X4.145Y-3.8472
X4.145Y-4.4126
X4.145Y-4.5307
X4.145Y-5.0961
X4.145Y-5.2142
X4.145Y-5.7795
X4.145Y-5.8976
X4.7512Y-2.0195
X4.7512Y-2.05
X4.7512Y-2.0795
X4.7512Y-2.1091
X4.7512Y-2.1391
X4.7512Y-2.703
X4.7512Y-2.7335
X4.7512Y-2.763
X4.7512Y-2.7925
X4.7512Y-2.8225
X4.7512Y-3.3865
X4.7512Y-3.4169
X4.7512Y-3.4465
X4.7512Y-3.476
X4.7512Y-3.506
X4.7512Y-4.0699
X4.7512Y-4.1004
X4.7512Y-4.1299
X4.7512Y-4.1594
X4.7512Y-4.1894
X4.7512Y-4.7534
X4.7512Y-4.7839
X4.7512Y-4.8134
X4.7512Y-4.8429
X4.7512Y-4.8729
X4.7512Y-5.4369
X4.7512Y-5.4673
X4.7512Y-5.4969
X4.7512Y-5.5264
X4.7512Y-5.5564
X4.8693Y-2.0195
X4.8693Y-2.05
X4.8693Y-2.0795
X4.8693Y-2.1095
X4.8693Y-2.1391
X4.8693Y-2.703
X4.8693Y-2.7335
X4.8693Y-2.763
X4.8693Y-2.793
X4.8693Y-2.8225
X4.8693Y-3.3865
X4.8693Y-3.4169
X4.8693Y-3.4465
X4.8693Y-3.4765
X4.8693Y-3.506
X4.8693Y-4.0699
X4.8693Y-4.1004
X4.8693Y-4.1299
X4.8693Y-4.1599
X4.8693Y-4.1894
X4.8693Y-4.7534
X4.8693Y-4.7839
X4.8693Y-4.8134
X4.8693Y-4.8434
X4.8693Y-4.8729
X4.8693Y-5.4369
X4.8693Y-5.4673
X4.8693Y-5.4969
X4.8693Y-5.5269
X4.8693Y-5.5564
X5.4759Y-1.6787
X5.4759Y-1.7969
X5.4759Y-2.3622
X5.4759Y-2.4803
X5.4759Y-3.0457
X5.4759Y-3.1638
X5.4759Y-3.7291
X5.4759Y-3.8472
X5.4759Y-4.4126
X5.4759Y-4.5307
X5.4759Y-5.0961
X5.4759Y-5.2142
X5.4759Y-5.7795
X5.4759Y-5.8976
X5.5054Y-1.7969
X5.5054Y-2.4803
X5.5054Y-3.1638
X5.5054Y-3.8472
X5.5054Y-4.5307
X5.5054Y-5.2142
X5.5054Y-5.8976
X5.5059Y-1.6787
X5.5059Y-2.3622
X5.5059Y-3.0457
X5.5059Y-3.7291
X5.5059Y-4.4126
X5.5059Y-5.0961
X5.5059Y-5.7795
X5.5354Y-1.6787
X5.5354Y-1.7969
X5.5354Y-2.3622
X5.5354Y-2.4803
X5.5354Y-3.0457
X5.5354Y-3.1638
X5.5354Y-3.7291
X5.5354Y-3.8472
X5.5354Y-4.4126
X5.5354Y-4.5307
X5.5354Y-5.0961
X5.5354Y-5.2142
X5.5354Y-5.7795
X5.5354Y-5.8976
X5.565Y-1.6787
X5.565Y-1.7969
X5.565Y-2.3622
X5.565Y-2.4803
X5.565Y-3.0457
X5.565Y-3.1638
X5.565Y-3.7291
X5.565Y-3.8472
X5.565Y-4.4126
X5.565Y-4.5307
X5.565Y-5.0961
X5.565Y-5.2142
X5.565Y-5.7795
X5.565Y-5.8976
X5.5954Y-1.6787
X5.5954Y-1.7969
X5.5954Y-2.3622
X5.5954Y-2.4803
X5.5954Y-3.0457
X5.5954Y-3.1638
X5.5954Y-3.7291
X5.5954Y-3.8472
X5.5954Y-4.4126
X5.5954Y-4.5307
X5.5954Y-5.0961
X5.5954Y-5.2142
X5.5954Y-5.7795
X5.5954Y-5.8976
X6.2016Y-2.0195
X6.2016Y-2.05
X6.2016Y-2.0795
X6.2016Y-2.1091
X6.2016Y-2.1391
X6.2016Y-2.703
X6.2016Y-2.7335
X6.2016Y-2.763
X6.2016Y-2.7925
X6.2016Y-2.8225
X6.2016Y-3.3865
X6.2016Y-3.4169
X6.2016Y-3.4465
X6.2016Y-3.476
X6.2016Y-3.506
X6.2016Y-4.0699
X6.2016Y-4.1004
X6.2016Y-4.1299
X6.2016Y-4.1594
X6.2016Y-4.1894
X6.2016Y-4.7534
X6.2016Y-4.7839
X6.2016Y-4.8134
X6.2016Y-4.8429
X6.2016Y-4.8729
X6.2016Y-5.4369
X6.2016Y-5.4673
X6.2016Y-5.4969
X6.2016Y-5.5264
X6.2016Y-5.5564
X6.3197Y-2.0195
X6.3197Y-2.05
X6.3197Y-2.0795
X6.3197Y-2.1095
X6.3197Y-2.1391
X6.3197Y-2.703
X6.3197Y-2.7335
X6.3197Y-2.763
X6.3197Y-2.793
X6.3197Y-2.8225
X6.3197Y-3.3865
X6.3197Y-3.4169
X6.3197Y-3.4465
X6.3197Y-3.4765
X6.3197Y-3.506
X6.3197Y-4.0699
X6.3197Y-4.1004
X6.3197Y-4.1299
X6.3197Y-4.1599
X6.3197Y-4.1894
X6.3197Y-4.7534
X6.3197Y-4.7839
X6.3197Y-4.8134
X6.3197Y-4.8434
X6.3197Y-4.8729
X6.3197Y-5.4369
X6.3197Y-5.4673
X6.3197Y-5.4969
X6.3197Y-5.5269
X6.3197Y-5.5564
X6.9263Y-1.6787
X6.9263Y-1.7969
X6.9263Y-2.3622
X6.9263Y-2.4803
X6.9263Y-3.0457
X6.9263Y-3.1638
X6.9263Y-3.7291
X6.9263Y-3.8472
X6.9263Y-4.4126
X6.9263Y-4.5307
X6.9263Y-5.0961
X6.9263Y-5.2142
X6.9263Y-5.7795
X6.9263Y-5.8976
X6.9558Y-1.7969
X6.9558Y-2.4803
X6.9558Y-3.1638
X6.9558Y-3.8472
X6.9558Y-4.5307
X6.9558Y-5.2142
X6.9558Y-5.8976
X6.9563Y-1.6787
X6.9563Y-2.3622
X6.9563Y-3.0457
X6.9563Y-3.7291
X6.9563Y-4.4126
X6.9563Y-5.0961
X6.9563Y-5.7795
X6.9858Y-1.6787
X6.9858Y-1.7969
X6.9858Y-2.3622
X6.9858Y-2.4803
X6.9858Y-3.0457
X6.9858Y-3.1638
X6.9858Y-3.7291
X6.9858Y-3.8472
X6.9858Y-4.4126
X6.9858Y-4.5307
X6.9858Y-5.0961
X6.9858Y-5.2142
X6.9858Y-5.7795
X6.9858Y-5.8976
X7.0154Y-1.6787
X7.0154Y-1.7969
X7.0154Y-2.3622
X7.0154Y-2.4803
X7.0154Y-3.0457
X7.0154Y-3.1638
X7.0154Y-3.7291
X7.0154Y-3.8472
X7.0154Y-4.4126
X7.0154Y-4.5307
X7.0154Y-5.0961
X7.0154Y-5.2142
X7.0154Y-5.7795
X7.0154Y-5.8976
X7.0458Y-1.6787
X7.0458Y-1.7969
X7.0458Y-2.3622
X7.0458Y-2.4803
X7.0458Y-3.0457
X7.0458Y-3.1638
X7.0458Y-3.7291
X7.0458Y-3.8472
X7.0458Y-4.4126
X7.0458Y-4.5307
X7.0458Y-5.0961
X7.0458Y-5.2142
X7.0458Y-5.7795
X7.0458Y-5.8976
X7.652Y-2.0195
X7.652Y-2.05
X7.652Y-2.0795
X7.652Y-2.1091
X7.652Y-2.1391
X7.652Y-2.703
X7.652Y-2.7335
X7.652Y-2.763
X7.652Y-2.7925
X7.652Y-2.8225
X7.652Y-3.3865
X7.652Y-3.4169
X7.652Y-3.4465
X7.652Y-3.476
X7.652Y-3.506
X7.652Y-4.0699
X7.652Y-4.1004
X7.652Y-4.1299
X7.652Y-4.1594
X7.652Y-4.1894
X7.652Y-4.7534
X7.652Y-4.7839
X7.652Y-4.8134
X7.652Y-4.8429
X7.652Y-4.8729
X7.652Y-5.4369
X7.652Y-5.4673
X7.652Y-5.4969
X7.652Y-5.5264
X7.652Y-5.5564
X7.7701Y-2.0195
X7.7701Y-2.05
X7.7701Y-2.0795
X7.7701Y-2.1095
X7.7701Y-2.1391
X7.7701Y-2.703
X7.7701Y-2.7335
X7.7701Y-2.763
X7.7701Y-2.793
X7.7701Y-2.8225
X7.7701Y-3.3865
X7.7701Y-3.4169
X7.7701Y-3.4465
X7.7701Y-3.4765
X7.7701Y-3.506
X7.7701Y-4.0699
X7.7701Y-4.1004
X7.7701Y-4.1299
X7.7701Y-4.1599
X7.7701Y-4.1894
X7.7701Y-4.7534
X7.7701Y-4.7839
X7.7701Y-4.8134
X7.7701Y-4.8434
X7.7701Y-4.8729
X7.7701Y-5.4369
X7.7701Y-5.4673
X7.7701Y-5.4969
X7.7701Y-5.5269
X7.7701Y-5.5564
X8.3767Y-1.6787
X8.3767Y-1.7969
X8.3767Y-2.3622
X8.3767Y-2.4803
X8.3767Y-3.0457
X8.3767Y-3.1638
X8.3767Y-3.7291
X8.3767Y-3.8472
X8.3767Y-4.4126
X8.3767Y-4.5307
X8.3767Y-5.0961
X8.3767Y-5.2142
X8.3767Y-5.7795
X8.3767Y-5.8976
X8.4062Y-1.7969
X8.4062Y-2.4803
X8.4062Y-3.1638
X8.4062Y-3.8472
X8.4062Y-4.5307
X8.4062Y-5.2142
X8.4062Y-5.8976
X8.4067Y-1.6787
X8.4067Y-2.3622
X8.4067Y-3.0457
X8.4067Y-3.7291
X8.4067Y-4.4126
X8.4067Y-5.0961
X8.4067Y-5.7795
X8.4362Y-1.6787
X8.4362Y-1.7969
X8.4362Y-2.3622
X8.4362Y-2.4803
X8.4362Y-3.0457
X8.4362Y-3.1638
X8.4362Y-3.7291
X8.4362Y-3.8472
X8.4362Y-4.4126
X8.4362Y-4.5307
X8.4362Y-5.0961
X8.4362Y-5.2142
X8.4362Y-5.7795
X8.4362Y-5.8976
X8.4657Y-1.6787
X8.4657Y-1.7969
X8.4657Y-2.3622
X8.4657Y-2.4803
X8.4657Y-3.0457
X8.4657Y-3.1638
X8.4657Y-3.7291
X8.4657Y-3.8472
X8.4657Y-4.4126
X8.4657Y-4.5307
X8.4657Y-5.0961
X8.4657Y-5.2142
X8.4657Y-5.7795
X8.4657Y-5.8976
X8.4962Y-1.6787
X8.4962Y-1.7969
X8.4962Y-2.3622
X8.4962Y-2.4803
X8.4962Y-3.0457
X8.4962Y-3.1638
X8.4962Y-3.7291
X8.4962Y-3.8472
X8.4962Y-4.4126
X8.4962Y-4.5307
X8.4962Y-5.0961
X8.4962Y-5.2142
X8.4962Y-5.7795
X8.4962Y-5.8976
M30
