%TF.GenerationSoftware,KiCad,Pcbnew,8.0.1*%
%TF.CreationDate,2024-05-29T13:53:18-05:00*%
%TF.ProjectId,eve PCB Project,65766520-5043-4422-9050-726f6a656374,rev?*%
%TF.SameCoordinates,Original*%
%TF.FileFunction,Drillmap*%
%TF.FilePolarity,Positive*%
%FSLAX45Y45*%
G04 Gerber Fmt 4.5, Leading zero omitted, Abs format (unit mm)*
G04 Created by KiCad (PCBNEW 8.0.1) date 2024-05-29 13:53:18*
%MOMM*%
%LPD*%
G01*
G04 APERTURE LIST*
%ADD10C,0.050000*%
%ADD11C,0.100000*%
%ADD12C,0.200000*%
G04 APERTURE END LIST*
D10*
X23120000Y-3464000D02*
X23120000Y-4264000D01*
X19736000Y-7318000D02*
X19736000Y-7536000D01*
X15552000Y-9472000D02*
X14360000Y-9472000D01*
X16052000Y-6500000D02*
X16052000Y-6718000D01*
X16252000Y-7736000D02*
G75*
G02*
X16052000Y-7536000I0J200000D01*
G01*
X10676000Y-6000000D02*
X11868000Y-6000000D01*
X14360000Y-4264000D02*
X17444000Y-4264000D01*
X8884000Y-6000000D02*
G75*
G02*
X8684000Y-5800000I0J200000D01*
G01*
X19436000Y-10790000D02*
X19436000Y-11008000D01*
X8684000Y-13444000D02*
X8684000Y-13662000D01*
X14360000Y-13244000D02*
X15552000Y-13244000D01*
X8684000Y-4764000D02*
G75*
G02*
X8884000Y-4564000I200000J0D01*
G01*
X8684000Y-14262000D02*
X8684000Y-14480000D01*
X19436000Y-9054000D02*
X19436000Y-9272000D01*
X15752000Y-10790000D02*
X15752000Y-11008000D01*
X8184000Y-13244000D02*
G75*
G02*
X8384000Y-13444000I0J-200000D01*
G01*
X12368000Y-8236000D02*
G75*
G02*
X12568000Y-8036000I200000J0D01*
G01*
X8884000Y-7736000D02*
G75*
G02*
X8684000Y-7536000I0J200000D01*
G01*
X10076000Y-7736000D02*
X8884000Y-7736000D01*
X10676000Y-4264000D02*
X13760000Y-4264000D01*
X19736000Y-13444000D02*
G75*
G02*
X19936000Y-13244000I200000J0D01*
G01*
X19936000Y-8036000D02*
X21128000Y-8036000D01*
X6992000Y-11508000D02*
X8184000Y-11508000D01*
X14360000Y-8036000D02*
X15552000Y-8036000D01*
X10076000Y-14980000D02*
X6992000Y-14980000D01*
X23120000Y-11708000D02*
X23120000Y-12744000D01*
X5000000Y-14980000D02*
X5000000Y-15780000D01*
X8384000Y-5582000D02*
X8384000Y-5800000D01*
X19736000Y-4764000D02*
X19736000Y-4982000D01*
X8684000Y-13444000D02*
G75*
G02*
X8884000Y-13244000I200000J0D01*
G01*
X5200000Y-8036000D02*
X6392000Y-8036000D01*
X12368000Y-12526000D02*
X12368000Y-12744000D01*
X12368000Y-5582000D02*
X12368000Y-5800000D01*
X16052000Y-7318000D02*
X16052000Y-7536000D01*
X19436000Y-7536000D02*
G75*
G02*
X19236000Y-7736000I-200000J0D01*
G01*
X23120000Y-12744000D02*
G75*
G02*
X22920000Y-12944000I-200000J0D01*
G01*
X5000000Y-3464000D02*
X5000000Y-4264000D01*
X21728000Y-6000000D02*
X22920000Y-6000000D01*
X15752000Y-13662000D02*
X15752000Y-13444000D01*
X6392000Y-12944000D02*
X5200000Y-12944000D01*
X12068000Y-9972000D02*
X12068000Y-10190000D01*
X12568000Y-9472000D02*
G75*
G02*
X12368000Y-9272000I0J200000D01*
G01*
X16252000Y-13244000D02*
X17444000Y-13244000D01*
X8384000Y-11008000D02*
G75*
G02*
X8184000Y-11208000I-200000J0D01*
G01*
X8684000Y-9972000D02*
G75*
G02*
X8884000Y-9772000I200000J0D01*
G01*
X10676000Y-8036000D02*
X11868000Y-8036000D01*
X19436000Y-5800000D02*
G75*
G02*
X19236000Y-6000000I-200000J0D01*
G01*
X23120000Y-14980000D02*
X21728000Y-14980000D01*
X6992000Y-9772000D02*
X8184000Y-9772000D01*
X16252000Y-6000000D02*
G75*
G02*
X16052000Y-5800000I0J200000D01*
G01*
X8384000Y-9972000D02*
X8384000Y-10190000D01*
X12368000Y-9054000D02*
X12368000Y-9272000D01*
X19436000Y-5582000D02*
X19436000Y-5800000D01*
X18044000Y-8036000D02*
X19236000Y-8036000D01*
X23120000Y-8236000D02*
X23120000Y-9272000D01*
X15752000Y-11008000D02*
G75*
G02*
X15552000Y-11208000I-200000J0D01*
G01*
X5200000Y-11508000D02*
X6392000Y-11508000D01*
X19736000Y-11708000D02*
G75*
G02*
X19936000Y-11508000I200000J0D01*
G01*
X8384000Y-10790000D02*
X8384000Y-11008000D01*
X8684000Y-8236000D02*
X8684000Y-8454000D01*
X19436000Y-13444000D02*
X19436000Y-13662000D01*
X8384000Y-8236000D02*
X8384000Y-8454000D01*
X8384000Y-12744000D02*
G75*
G02*
X8184000Y-12944000I-200000J0D01*
G01*
X12068000Y-10790000D02*
X12068000Y-11008000D01*
X15752000Y-14480000D02*
G75*
G02*
X15552000Y-14680000I-200000J0D01*
G01*
X21728000Y-14680000D02*
X22920000Y-14680000D01*
X5200000Y-12944000D02*
G75*
G02*
X5000000Y-12744000I0J200000D01*
G01*
X8884000Y-12944000D02*
G75*
G02*
X8684000Y-12744000I0J200000D01*
G01*
X16052000Y-4764000D02*
X16052000Y-4982000D01*
X8684000Y-11708000D02*
X8684000Y-11926000D01*
X8384000Y-12526000D02*
X8384000Y-12744000D01*
X5200000Y-14680000D02*
X6392000Y-14680000D01*
X18044000Y-11508000D02*
X19236000Y-11508000D01*
X15552000Y-8036000D02*
G75*
G02*
X15752000Y-8236000I0J-200000D01*
G01*
X8184000Y-12944000D02*
X6992000Y-12944000D01*
X11868000Y-8036000D02*
G75*
G02*
X12068000Y-8236000I0J-200000D01*
G01*
X16052000Y-10790000D02*
X16052000Y-11008000D01*
X16052000Y-11708000D02*
G75*
G02*
X16252000Y-11508000I200000J0D01*
G01*
X12368000Y-4764000D02*
X12368000Y-4982000D01*
X19936000Y-13244000D02*
X21128000Y-13244000D01*
X19236000Y-13244000D02*
G75*
G02*
X19436000Y-13444000I0J-200000D01*
G01*
X12068000Y-11708000D02*
X12068000Y-11926000D01*
X16052000Y-11708000D02*
X16052000Y-11926000D01*
X12368000Y-11708000D02*
X12368000Y-11926000D01*
X6992000Y-4564000D02*
X8184000Y-4564000D01*
X16052000Y-9972000D02*
G75*
G02*
X16252000Y-9772000I200000J0D01*
G01*
X5000000Y-7536000D02*
X5000000Y-6500000D01*
X19736000Y-10790000D02*
X19736000Y-11008000D01*
X19736000Y-5582000D02*
X19736000Y-5800000D01*
X16052000Y-4764000D02*
G75*
G02*
X16252000Y-4564000I200000J0D01*
G01*
X18044000Y-6300000D02*
X19236000Y-6300000D01*
X19436000Y-12744000D02*
G75*
G02*
X19236000Y-12944000I-200000J0D01*
G01*
X19436000Y-11008000D02*
G75*
G02*
X19236000Y-11208000I-200000J0D01*
G01*
X16252000Y-9472000D02*
G75*
G02*
X16052000Y-9272000I0J200000D01*
G01*
X11868000Y-12944000D02*
X10676000Y-12944000D01*
X23120000Y-4764000D02*
X23120000Y-5800000D01*
X5000000Y-9272000D02*
X5000000Y-8236000D01*
X16052000Y-9054000D02*
X16052000Y-9272000D01*
X19236000Y-4564000D02*
G75*
G02*
X19436000Y-4764000I0J-200000D01*
G01*
X11868000Y-11208000D02*
X10676000Y-11208000D01*
X19236000Y-9472000D02*
X18044000Y-9472000D01*
X6392000Y-7736000D02*
X5200000Y-7736000D01*
X19736000Y-13444000D02*
X19736000Y-13662000D01*
X8384000Y-14480000D02*
G75*
G02*
X8184000Y-14680000I-200000J0D01*
G01*
X13760000Y-14980000D02*
X10676000Y-14980000D01*
X12068000Y-6500000D02*
X12068000Y-6718000D01*
X19736000Y-12526000D02*
X19736000Y-12744000D01*
X16252000Y-6300000D02*
X17444000Y-6300000D01*
X6992000Y-4264000D02*
X10076000Y-4264000D01*
X18044000Y-14680000D02*
X19236000Y-14680000D01*
X17444000Y-11208000D02*
X16252000Y-11208000D01*
X15752000Y-9972000D02*
X15752000Y-10190000D01*
X12368000Y-9972000D02*
G75*
G02*
X12568000Y-9772000I200000J0D01*
G01*
X12368000Y-13444000D02*
X12368000Y-13662000D01*
X23120000Y-6500000D02*
X23120000Y-7536000D01*
X12068000Y-13444000D02*
X12068000Y-13662000D01*
X19736000Y-6500000D02*
X19736000Y-6718000D01*
X15752000Y-9272000D02*
G75*
G02*
X15552000Y-9472000I-200000J0D01*
G01*
X12368000Y-7318000D02*
X12368000Y-7536000D01*
X15752000Y-9054000D02*
X15752000Y-9272000D01*
X6392000Y-11208000D02*
X5200000Y-11208000D01*
X19436000Y-8236000D02*
X19436000Y-8454000D01*
X16052000Y-5582000D02*
X16052000Y-5800000D01*
X21128000Y-7736000D02*
X19936000Y-7736000D01*
X12068000Y-7318000D02*
X12068000Y-7536000D01*
X12068000Y-14262000D02*
X12068000Y-14480000D01*
X19236000Y-12944000D02*
X18044000Y-12944000D01*
X8384000Y-9054000D02*
X8384000Y-9272000D01*
X6992000Y-13244000D02*
X8184000Y-13244000D01*
X21128000Y-11208000D02*
X19936000Y-11208000D01*
X14360000Y-11508000D02*
X15552000Y-11508000D01*
X6392000Y-9472000D02*
X5200000Y-9472000D01*
X12568000Y-12944000D02*
G75*
G02*
X12368000Y-12744000I0J200000D01*
G01*
X15752000Y-5800000D02*
G75*
G02*
X15552000Y-6000000I-200000J0D01*
G01*
X14360000Y-9772000D02*
X15552000Y-9772000D01*
X16252000Y-11208000D02*
G75*
G02*
X16052000Y-11008000I0J200000D01*
G01*
X8384000Y-13444000D02*
X8384000Y-13662000D01*
X15752000Y-4764000D02*
X15752000Y-4982000D01*
X12568000Y-6000000D02*
G75*
G02*
X12368000Y-5800000I0J200000D01*
G01*
X19236000Y-7736000D02*
X18044000Y-7736000D01*
X12368000Y-6500000D02*
X12368000Y-6718000D01*
X5000000Y-11708000D02*
G75*
G02*
X5200000Y-11508000I200000J0D01*
G01*
X16052000Y-14262000D02*
X16052000Y-14480000D01*
X12068000Y-8236000D02*
X12068000Y-8454000D01*
X19436000Y-9972000D02*
X19436000Y-10190000D01*
X8684000Y-10790000D02*
X8684000Y-11008000D01*
X5200000Y-13244000D02*
X6392000Y-13244000D01*
X8884000Y-4564000D02*
X10076000Y-4564000D01*
X19436000Y-12526000D02*
X19436000Y-12744000D01*
X23120000Y-5800000D02*
G75*
G02*
X22920000Y-6000000I-200000J0D01*
G01*
X12368000Y-4764000D02*
G75*
G02*
X12568000Y-4564000I200000J0D01*
G01*
X19936000Y-6300000D02*
X21128000Y-6300000D01*
X17444000Y-9472000D02*
X16252000Y-9472000D01*
X8384000Y-6500000D02*
X8384000Y-6718000D01*
X14360000Y-4564000D02*
X15552000Y-4564000D01*
X8684000Y-9972000D02*
X8684000Y-10190000D01*
X12568000Y-8036000D02*
X13760000Y-8036000D01*
X11868000Y-13244000D02*
G75*
G02*
X12068000Y-13444000I0J-200000D01*
G01*
X23120000Y-9272000D02*
G75*
G02*
X22920000Y-9472000I-200000J0D01*
G01*
X23120000Y-14980000D02*
X23120000Y-15780000D01*
X5000000Y-6500000D02*
G75*
G02*
X5200000Y-6300000I200000J0D01*
G01*
X19936000Y-14680000D02*
X21128000Y-14680000D01*
X16252000Y-7736000D02*
X17444000Y-7736000D01*
X16052000Y-8236000D02*
G75*
G02*
X16252000Y-8036000I200000J0D01*
G01*
X11868000Y-4564000D02*
G75*
G02*
X12068000Y-4764000I0J-200000D01*
G01*
X18044000Y-4264000D02*
X21128000Y-4264000D01*
X15752000Y-6500000D02*
X15752000Y-6718000D01*
X10076000Y-11208000D02*
X8884000Y-11208000D01*
X8184000Y-11208000D02*
X6992000Y-11208000D01*
X10076000Y-9772000D02*
X8884000Y-9772000D01*
X16252000Y-14680000D02*
G75*
G02*
X16052000Y-14480000I0J200000D01*
G01*
X11868000Y-6300000D02*
G75*
G02*
X12068000Y-6500000I0J-200000D01*
G01*
X5000000Y-8236000D02*
G75*
G02*
X5200000Y-8036000I200000J0D01*
G01*
X12368000Y-13444000D02*
G75*
G02*
X12568000Y-13244000I200000J0D01*
G01*
X17444000Y-14980000D02*
X14360000Y-14980000D01*
X22920000Y-12944000D02*
X21728000Y-12944000D01*
X6992000Y-8036000D02*
X8184000Y-8036000D01*
X19236000Y-11208000D02*
X18044000Y-11208000D01*
X8684000Y-12526000D02*
X8684000Y-12744000D01*
X5000000Y-13444000D02*
G75*
G02*
X5200000Y-13244000I200000J0D01*
G01*
X21728000Y-9772000D02*
X22920000Y-9772000D01*
X8384000Y-7536000D02*
G75*
G02*
X8184000Y-7736000I-200000J0D01*
G01*
X19936000Y-9472000D02*
G75*
G02*
X19736000Y-9272000I0J200000D01*
G01*
X19436000Y-9272000D02*
G75*
G02*
X19236000Y-9472000I-200000J0D01*
G01*
X15752000Y-12526000D02*
X15752000Y-12744000D01*
X10676000Y-13244000D02*
X11868000Y-13244000D01*
X8684000Y-6500000D02*
X8684000Y-6718000D01*
X12368000Y-14262000D02*
X12368000Y-14480000D01*
X12068000Y-9054000D02*
X12068000Y-9272000D01*
X8884000Y-8036000D02*
X10076000Y-8036000D01*
X12568000Y-6000000D02*
X13760000Y-6000000D01*
X8884000Y-6300000D02*
X10076000Y-6300000D01*
X5000000Y-9972000D02*
G75*
G02*
X5200000Y-9772000I200000J0D01*
G01*
X6992000Y-6300000D02*
X8184000Y-6300000D01*
X21728000Y-11508000D02*
X22920000Y-11508000D01*
X6992000Y-6000000D02*
X8184000Y-6000000D01*
X19736000Y-9972000D02*
X19736000Y-10190000D01*
X14360000Y-11208000D02*
X15552000Y-11208000D01*
X5200000Y-6000000D02*
X6392000Y-6000000D01*
X5200000Y-7736000D02*
G75*
G02*
X5000000Y-7536000I0J200000D01*
G01*
X8884000Y-6000000D02*
X10076000Y-6000000D01*
X8384000Y-7318000D02*
X8384000Y-7536000D01*
X16252000Y-9772000D02*
X17444000Y-9772000D01*
X15552000Y-12944000D02*
X14360000Y-12944000D01*
X10676000Y-9472000D02*
X11868000Y-9472000D01*
X12068000Y-11008000D02*
G75*
G02*
X11868000Y-11208000I-200000J0D01*
G01*
X12568000Y-13244000D02*
X13760000Y-13244000D01*
X10676000Y-6300000D02*
X11868000Y-6300000D01*
X8384000Y-4764000D02*
X8384000Y-4982000D01*
X5200000Y-6000000D02*
G75*
G02*
X5000000Y-5800000I0J200000D01*
G01*
X19436000Y-6500000D02*
X19436000Y-6718000D01*
X22920000Y-11208000D02*
X21728000Y-11208000D01*
X16252000Y-12944000D02*
G75*
G02*
X16052000Y-12744000I0J200000D01*
G01*
X18044000Y-4564000D02*
X19236000Y-4564000D01*
X14360000Y-6000000D02*
X15552000Y-6000000D01*
X16052000Y-8236000D02*
X16052000Y-8454000D01*
X8884000Y-14680000D02*
X10076000Y-14680000D01*
X8684000Y-4764000D02*
X8684000Y-4982000D01*
X19936000Y-11508000D02*
X21128000Y-11508000D01*
X16252000Y-4564000D02*
X17444000Y-4564000D01*
X19236000Y-9772000D02*
G75*
G02*
X19436000Y-9972000I0J-200000D01*
G01*
X5200000Y-11208000D02*
G75*
G02*
X5000000Y-11008000I0J200000D01*
G01*
X8884000Y-9472000D02*
X10076000Y-9472000D01*
X8184000Y-7736000D02*
X6992000Y-7736000D01*
X8684000Y-7318000D02*
X8684000Y-7536000D01*
X10676000Y-4564000D02*
X11868000Y-4564000D01*
X12368000Y-10790000D02*
X12368000Y-11008000D01*
X15552000Y-4564000D02*
G75*
G02*
X15752000Y-4764000I0J-200000D01*
G01*
X19736000Y-8236000D02*
G75*
G02*
X19936000Y-8036000I200000J0D01*
G01*
X12568000Y-9772000D02*
X13760000Y-9772000D01*
X10676000Y-14680000D02*
X11868000Y-14680000D01*
X16252000Y-11508000D02*
X17444000Y-11508000D01*
X13760000Y-9472000D02*
X12568000Y-9472000D01*
X23120000Y-13444000D02*
X23120000Y-14480000D01*
X5000000Y-4264000D02*
X6392000Y-4264000D01*
X8184000Y-9772000D02*
G75*
G02*
X8384000Y-9972000I0J-200000D01*
G01*
X15752000Y-14262000D02*
X15752000Y-14480000D01*
X15752000Y-8236000D02*
X15752000Y-8454000D01*
X19736000Y-11708000D02*
X19736000Y-11926000D01*
X5200000Y-9772000D02*
X6392000Y-9772000D01*
X14360000Y-14680000D02*
X15552000Y-14680000D01*
X11868000Y-9772000D02*
G75*
G02*
X12068000Y-9972000I0J-200000D01*
G01*
X12068000Y-5582000D02*
X12068000Y-5800000D01*
X5000000Y-12744000D02*
X5000000Y-11708000D01*
X19736000Y-6500000D02*
G75*
G02*
X19936000Y-6300000I200000J0D01*
G01*
X12568000Y-6300000D02*
X13760000Y-6300000D01*
X12568000Y-7736000D02*
G75*
G02*
X12368000Y-7536000I0J200000D01*
G01*
X12068000Y-9272000D02*
G75*
G02*
X11868000Y-9472000I-200000J0D01*
G01*
X5000000Y-14480000D02*
X5000000Y-13444000D01*
X12068000Y-12526000D02*
X12068000Y-12744000D01*
X8184000Y-4564000D02*
G75*
G02*
X8384000Y-4764000I0J-200000D01*
G01*
X22920000Y-7736000D02*
X21728000Y-7736000D01*
X5200000Y-6300000D02*
X6392000Y-6300000D01*
X18044000Y-6000000D02*
X19236000Y-6000000D01*
X8384000Y-9272000D02*
G75*
G02*
X8184000Y-9472000I-200000J0D01*
G01*
X19936000Y-6000000D02*
G75*
G02*
X19736000Y-5800000I0J200000D01*
G01*
X6392000Y-14980000D02*
X5000000Y-14980000D01*
X8384000Y-11708000D02*
X8384000Y-11926000D01*
X22920000Y-8036000D02*
G75*
G02*
X23120000Y-8236000I0J-200000D01*
G01*
X16052000Y-9972000D02*
X16052000Y-10190000D01*
X23120000Y-7536000D02*
G75*
G02*
X22920000Y-7736000I-200000J0D01*
G01*
X21728000Y-4564000D02*
X22920000Y-4564000D01*
X11868000Y-11508000D02*
G75*
G02*
X12068000Y-11708000I0J-200000D01*
G01*
X5200000Y-9472000D02*
G75*
G02*
X5000000Y-9272000I0J200000D01*
G01*
X5200000Y-14680000D02*
G75*
G02*
X5000000Y-14480000I0J200000D01*
G01*
X22920000Y-4564000D02*
G75*
G02*
X23120000Y-4764000I0J-200000D01*
G01*
X22920000Y-11508000D02*
G75*
G02*
X23120000Y-11708000I0J-200000D01*
G01*
X19936000Y-6000000D02*
X21128000Y-6000000D01*
X8384000Y-5800000D02*
G75*
G02*
X8184000Y-6000000I-200000J0D01*
G01*
X13760000Y-7736000D02*
X12568000Y-7736000D01*
X19436000Y-7318000D02*
X19436000Y-7536000D01*
X16252000Y-14680000D02*
X17444000Y-14680000D01*
X16052000Y-6500000D02*
G75*
G02*
X16252000Y-6300000I200000J0D01*
G01*
X19236000Y-8036000D02*
G75*
G02*
X19436000Y-8236000I0J-200000D01*
G01*
X19236000Y-11508000D02*
G75*
G02*
X19436000Y-11708000I0J-200000D01*
G01*
X19736000Y-9054000D02*
X19736000Y-9272000D01*
X19436000Y-11708000D02*
X19436000Y-11926000D01*
X12568000Y-4564000D02*
X13760000Y-4564000D01*
X19736000Y-4764000D02*
G75*
G02*
X19936000Y-4564000I200000J0D01*
G01*
X15752000Y-11708000D02*
X15752000Y-11926000D01*
X15552000Y-7736000D02*
X14360000Y-7736000D01*
X15552000Y-11508000D02*
G75*
G02*
X15752000Y-11708000I0J-200000D01*
G01*
X8184000Y-8036000D02*
G75*
G02*
X8384000Y-8236000I0J-200000D01*
G01*
X11868000Y-7736000D02*
X10676000Y-7736000D01*
X23120000Y-11008000D02*
G75*
G02*
X22920000Y-11208000I-200000J0D01*
G01*
X8184000Y-6300000D02*
G75*
G02*
X8384000Y-6500000I0J-200000D01*
G01*
X12568000Y-14680000D02*
G75*
G02*
X12368000Y-14480000I0J200000D01*
G01*
X19736000Y-9972000D02*
G75*
G02*
X19936000Y-9772000I200000J0D01*
G01*
X8884000Y-13244000D02*
X10076000Y-13244000D01*
X10076000Y-12944000D02*
X8884000Y-12944000D01*
X8884000Y-9472000D02*
G75*
G02*
X8684000Y-9272000I0J200000D01*
G01*
X21728000Y-8036000D02*
X22920000Y-8036000D01*
X12568000Y-11208000D02*
G75*
G02*
X12368000Y-11008000I0J200000D01*
G01*
X19936000Y-11208000D02*
G75*
G02*
X19736000Y-11008000I0J200000D01*
G01*
X22920000Y-9472000D02*
X21728000Y-9472000D01*
X12068000Y-14480000D02*
G75*
G02*
X11868000Y-14680000I-200000J0D01*
G01*
X19736000Y-14262000D02*
X19736000Y-14480000D01*
X6992000Y-14680000D02*
X8184000Y-14680000D01*
X16252000Y-8036000D02*
X17444000Y-8036000D01*
X19936000Y-4564000D02*
X21128000Y-4564000D01*
X11868000Y-9772000D02*
X10676000Y-9772000D01*
X19936000Y-12944000D02*
G75*
G02*
X19736000Y-12744000I0J200000D01*
G01*
X19936000Y-9472000D02*
X21128000Y-9472000D01*
X19436000Y-4764000D02*
X19436000Y-4982000D01*
X13760000Y-12944000D02*
X12568000Y-12944000D01*
X15752000Y-5582000D02*
X15752000Y-5800000D01*
X21728000Y-13244000D02*
X22920000Y-13244000D01*
X5200000Y-4564000D02*
X6392000Y-4564000D01*
X8684000Y-6500000D02*
G75*
G02*
X8884000Y-6300000I200000J0D01*
G01*
X12368000Y-6500000D02*
G75*
G02*
X12568000Y-6300000I200000J0D01*
G01*
X16052000Y-12526000D02*
X16052000Y-12744000D01*
X8184000Y-9472000D02*
X6992000Y-9472000D01*
X12068000Y-4764000D02*
X12068000Y-4982000D01*
X18044000Y-13244000D02*
X19236000Y-13244000D01*
X5000000Y-11008000D02*
X5000000Y-9972000D01*
X5000000Y-15780000D02*
X23120000Y-15780000D01*
X22920000Y-6300000D02*
G75*
G02*
X23120000Y-6500000I0J-200000D01*
G01*
X22920000Y-13244000D02*
G75*
G02*
X23120000Y-13444000I0J-200000D01*
G01*
X12368000Y-8236000D02*
X12368000Y-8454000D01*
X8884000Y-11508000D02*
X10076000Y-11508000D01*
X19436000Y-14262000D02*
X19436000Y-14480000D01*
X19936000Y-9772000D02*
X21128000Y-9772000D01*
X15552000Y-6300000D02*
G75*
G02*
X15752000Y-6500000I0J-200000D01*
G01*
X15752000Y-7536000D02*
G75*
G02*
X15552000Y-7736000I-200000J0D01*
G01*
X15752000Y-12744000D02*
G75*
G02*
X15552000Y-12944000I-200000J0D01*
G01*
X16252000Y-6000000D02*
X17444000Y-6000000D01*
X22920000Y-9772000D02*
G75*
G02*
X23120000Y-9972000I0J-200000D01*
G01*
X23120000Y-9972000D02*
X23120000Y-11008000D01*
X19236000Y-6300000D02*
G75*
G02*
X19436000Y-6500000I0J-200000D01*
G01*
X19436000Y-14480000D02*
G75*
G02*
X19236000Y-14680000I-200000J0D01*
G01*
X16052000Y-13662000D02*
X16052000Y-13444000D01*
X8884000Y-11208000D02*
G75*
G02*
X8684000Y-11008000I0J200000D01*
G01*
X5000000Y-3464000D02*
X23120000Y-3464000D01*
X8684000Y-5582000D02*
X8684000Y-5800000D01*
X5000000Y-4764000D02*
G75*
G02*
X5200000Y-4564000I200000J0D01*
G01*
X12068000Y-12744000D02*
G75*
G02*
X11868000Y-12944000I-200000J0D01*
G01*
X19736000Y-8236000D02*
X19736000Y-8454000D01*
X23120000Y-14480000D02*
G75*
G02*
X22920000Y-14680000I-200000J0D01*
G01*
X14360000Y-6300000D02*
X15552000Y-6300000D01*
X16052000Y-13444000D02*
G75*
G02*
X16252000Y-13244000I200000J0D01*
G01*
X8884000Y-14680000D02*
G75*
G02*
X8684000Y-14480000I0J200000D01*
G01*
X19936000Y-14680000D02*
G75*
G02*
X19736000Y-14480000I0J200000D01*
G01*
X8184000Y-11508000D02*
G75*
G02*
X8384000Y-11708000I0J-200000D01*
G01*
X5000000Y-5800000D02*
X5000000Y-4764000D01*
X8684000Y-11708000D02*
G75*
G02*
X8884000Y-11508000I200000J0D01*
G01*
X21728000Y-6300000D02*
X22920000Y-6300000D01*
X8684000Y-8236000D02*
G75*
G02*
X8884000Y-8036000I200000J0D01*
G01*
X12568000Y-11208000D02*
X13760000Y-11208000D01*
X15752000Y-7318000D02*
X15752000Y-7536000D01*
X8684000Y-9054000D02*
X8684000Y-9272000D01*
X15552000Y-9772000D02*
G75*
G02*
X15752000Y-9972000I0J-200000D01*
G01*
X21128000Y-12944000D02*
X19936000Y-12944000D01*
X12568000Y-14680000D02*
X13760000Y-14680000D01*
X19936000Y-7736000D02*
G75*
G02*
X19736000Y-7536000I0J200000D01*
G01*
X10676000Y-11508000D02*
X11868000Y-11508000D01*
X21728000Y-4264000D02*
X23120000Y-4264000D01*
X12068000Y-5800000D02*
G75*
G02*
X11868000Y-6000000I-200000J0D01*
G01*
X12368000Y-11708000D02*
G75*
G02*
X12568000Y-11508000I200000J0D01*
G01*
X12568000Y-11508000D02*
X13760000Y-11508000D01*
X8384000Y-14262000D02*
X8384000Y-14480000D01*
X15552000Y-13244000D02*
G75*
G02*
X15752000Y-13444000I0J-200000D01*
G01*
X17444000Y-12944000D02*
X16252000Y-12944000D01*
X21128000Y-14980000D02*
X18044000Y-14980000D01*
X12068000Y-7536000D02*
G75*
G02*
X11868000Y-7736000I-200000J0D01*
G01*
X12368000Y-9972000D02*
X12368000Y-10190000D01*
X18044000Y-9772000D02*
X19236000Y-9772000D01*
X17444000Y-9472000D02*
G75*
G02*
X17444000Y-9772000I0J-150000D01*
G01*
X18044000Y-9772000D02*
G75*
G02*
X18044000Y-9472000I0J150000D01*
G01*
X17444000Y-11208000D02*
G75*
G02*
X17444000Y-11508000I0J-150000D01*
G01*
X18044000Y-11508000D02*
G75*
G02*
X18044000Y-11208000I0J150000D01*
G01*
X21128000Y-4264000D02*
G75*
G02*
X21128000Y-4564000I0J-150000D01*
G01*
X21728000Y-4564000D02*
G75*
G02*
X21728000Y-4264000I0J150000D01*
G01*
D11*
X15752000Y-9054000D02*
G75*
G02*
X16052000Y-9054000I150000J0D01*
G01*
X16052000Y-8454000D02*
G75*
G02*
X15752000Y-8454000I-150000J0D01*
G01*
X12068000Y-9054000D02*
G75*
G02*
X12368000Y-9054000I150000J0D01*
G01*
X12368000Y-8454000D02*
G75*
G02*
X12068000Y-8454000I-150000J0D01*
G01*
D10*
X10076000Y-9472000D02*
G75*
G02*
X10076000Y-9772000I0J-150000D01*
G01*
X10676000Y-9772000D02*
G75*
G02*
X10676000Y-9472000I0J150000D01*
G01*
D11*
X19436000Y-14262000D02*
G75*
G02*
X19736000Y-14262000I150000J0D01*
G01*
X19736000Y-13662000D02*
G75*
G02*
X19436000Y-13662000I-150000J0D01*
G01*
D10*
X10076000Y-11208000D02*
G75*
G02*
X10076000Y-11508000I0J-150000D01*
G01*
X10676000Y-11508000D02*
G75*
G02*
X10676000Y-11208000I0J150000D01*
G01*
D11*
X12068000Y-7318000D02*
G75*
G02*
X12368000Y-7318000I150000J0D01*
G01*
X12368000Y-6718000D02*
G75*
G02*
X12068000Y-6718000I-150000J0D01*
G01*
D10*
X6392000Y-4264000D02*
G75*
G02*
X6392000Y-4564000I0J-150000D01*
G01*
X6992000Y-4564000D02*
G75*
G02*
X6992000Y-4264000I0J150000D01*
G01*
D11*
X19436000Y-12526000D02*
G75*
G02*
X19736000Y-12526000I150000J0D01*
G01*
X19736000Y-11926000D02*
G75*
G02*
X19436000Y-11926000I-150000J0D01*
G01*
X15752000Y-7318000D02*
G75*
G02*
X16052000Y-7318000I150000J0D01*
G01*
X16052000Y-6718000D02*
G75*
G02*
X15752000Y-6718000I-150000J0D01*
G01*
X15752000Y-14262000D02*
G75*
G02*
X16052000Y-14262000I150000J0D01*
G01*
X16052000Y-13662000D02*
G75*
G02*
X15752000Y-13662000I-150000J0D01*
G01*
D10*
X13760000Y-9472000D02*
G75*
G02*
X13760000Y-9772000I0J-150000D01*
G01*
X14360000Y-9772000D02*
G75*
G02*
X14360000Y-9472000I0J150000D01*
G01*
D11*
X12068000Y-5582000D02*
G75*
G02*
X12368000Y-5582000I150000J0D01*
G01*
X12368000Y-4982000D02*
G75*
G02*
X12068000Y-4982000I-150000J0D01*
G01*
D10*
X21128000Y-11208000D02*
G75*
G02*
X21128000Y-11508000I0J-150000D01*
G01*
X21728000Y-11508000D02*
G75*
G02*
X21728000Y-11208000I0J150000D01*
G01*
X10076000Y-6000000D02*
G75*
G02*
X10076000Y-6300000I0J-150000D01*
G01*
X10676000Y-6300000D02*
G75*
G02*
X10676000Y-6000000I0J150000D01*
G01*
X21128000Y-9472000D02*
G75*
G02*
X21128000Y-9772000I0J-150000D01*
G01*
X21728000Y-9772000D02*
G75*
G02*
X21728000Y-9472000I0J150000D01*
G01*
X21128000Y-14680000D02*
G75*
G02*
X21128000Y-14980000I0J-150000D01*
G01*
X21728000Y-14980000D02*
G75*
G02*
X21728000Y-14680000I0J150000D01*
G01*
X10076000Y-7736000D02*
G75*
G02*
X10076000Y-8036000I0J-150000D01*
G01*
X10676000Y-8036000D02*
G75*
G02*
X10676000Y-7736000I0J150000D01*
G01*
X19436000Y-5582000D02*
G75*
G02*
X19736000Y-5582000I150000J0D01*
G01*
X19736000Y-4982000D02*
G75*
G02*
X19436000Y-4982000I-150000J0D01*
G01*
D11*
X15752000Y-10790000D02*
G75*
G02*
X16052000Y-10790000I150000J0D01*
G01*
X16052000Y-10190000D02*
G75*
G02*
X15752000Y-10190000I-150000J0D01*
G01*
D10*
X13760000Y-11208000D02*
G75*
G02*
X13760000Y-11508000I0J-150000D01*
G01*
X14360000Y-11508000D02*
G75*
G02*
X14360000Y-11208000I0J150000D01*
G01*
X21128000Y-12944000D02*
G75*
G02*
X21128000Y-13244000I0J-150000D01*
G01*
X21728000Y-13244000D02*
G75*
G02*
X21728000Y-12944000I0J150000D01*
G01*
D11*
X19436000Y-9054000D02*
G75*
G02*
X19736000Y-9054000I150000J0D01*
G01*
X19736000Y-8454000D02*
G75*
G02*
X19436000Y-8454000I-150000J0D01*
G01*
D10*
X6392000Y-14680000D02*
G75*
G02*
X6392000Y-14980000I0J-150000D01*
G01*
X6992000Y-14980000D02*
G75*
G02*
X6992000Y-14680000I0J150000D01*
G01*
X17444000Y-6000000D02*
G75*
G02*
X17444000Y-6300000I0J-150000D01*
G01*
X18044000Y-6300000D02*
G75*
G02*
X18044000Y-6000000I0J150000D01*
G01*
D11*
X8384000Y-12526000D02*
G75*
G02*
X8684000Y-12526000I150000J0D01*
G01*
X8684000Y-11926000D02*
G75*
G02*
X8384000Y-11926000I-150000J0D01*
G01*
D10*
X10076000Y-12944000D02*
G75*
G02*
X10076000Y-13244000I0J-150000D01*
G01*
X10676000Y-13244000D02*
G75*
G02*
X10676000Y-12944000I0J150000D01*
G01*
X10076000Y-14680000D02*
G75*
G02*
X10076000Y-14980000I0J-150000D01*
G01*
X10676000Y-14980000D02*
G75*
G02*
X10676000Y-14680000I0J150000D01*
G01*
X13760000Y-14680000D02*
G75*
G02*
X13760000Y-14980000I0J-150000D01*
G01*
X14360000Y-14980000D02*
G75*
G02*
X14360000Y-14680000I0J150000D01*
G01*
X21128000Y-6000000D02*
G75*
G02*
X21128000Y-6300000I0J-150000D01*
G01*
X21728000Y-6300000D02*
G75*
G02*
X21728000Y-6000000I0J150000D01*
G01*
X6392000Y-6000000D02*
G75*
G02*
X6392000Y-6300000I0J-150000D01*
G01*
X6992000Y-6300000D02*
G75*
G02*
X6992000Y-6000000I0J150000D01*
G01*
X8384000Y-7318000D02*
G75*
G02*
X8684000Y-7318000I150000J0D01*
G01*
X8684000Y-6718000D02*
G75*
G02*
X8384000Y-6718000I-150000J0D01*
G01*
X10076000Y-4264000D02*
G75*
G02*
X10076000Y-4564000I0J-150000D01*
G01*
X10676000Y-4564000D02*
G75*
G02*
X10676000Y-4264000I0J150000D01*
G01*
X13760000Y-6000000D02*
G75*
G02*
X13760000Y-6300000I0J-150000D01*
G01*
X14360000Y-6300000D02*
G75*
G02*
X14360000Y-6000000I0J150000D01*
G01*
X6392000Y-11208000D02*
G75*
G02*
X6392000Y-11508000I0J-150000D01*
G01*
X6992000Y-11508000D02*
G75*
G02*
X6992000Y-11208000I0J150000D01*
G01*
D11*
X15752000Y-5582000D02*
G75*
G02*
X16052000Y-5582000I150000J0D01*
G01*
X16052000Y-4982000D02*
G75*
G02*
X15752000Y-4982000I-150000J0D01*
G01*
D10*
X21128000Y-7736000D02*
G75*
G02*
X21128000Y-8036000I0J-150000D01*
G01*
X21728000Y-8036000D02*
G75*
G02*
X21728000Y-7736000I0J150000D01*
G01*
D11*
X19436000Y-10790000D02*
G75*
G02*
X19736000Y-10790000I150000J0D01*
G01*
X19736000Y-10190000D02*
G75*
G02*
X19436000Y-10190000I-150000J0D01*
G01*
X8384000Y-9054000D02*
G75*
G02*
X8684000Y-9054000I150000J0D01*
G01*
X8684000Y-8454000D02*
G75*
G02*
X8384000Y-8454000I-150000J0D01*
G01*
D10*
X17444000Y-4264000D02*
G75*
G02*
X17444000Y-4564000I0J-150000D01*
G01*
X18044000Y-4564000D02*
G75*
G02*
X18044000Y-4264000I0J150000D01*
G01*
X6392000Y-9472000D02*
G75*
G02*
X6392000Y-9772000I0J-150000D01*
G01*
X6992000Y-9772000D02*
G75*
G02*
X6992000Y-9472000I0J150000D01*
G01*
X17444000Y-12944000D02*
G75*
G02*
X17444000Y-13244000I0J-150000D01*
G01*
X18044000Y-13244000D02*
G75*
G02*
X18044000Y-12944000I0J150000D01*
G01*
D11*
X8384000Y-14262000D02*
G75*
G02*
X8684000Y-14262000I150000J0D01*
G01*
X8684000Y-13662000D02*
G75*
G02*
X8384000Y-13662000I-150000J0D01*
G01*
X8384000Y-10790000D02*
G75*
G02*
X8684000Y-10790000I150000J0D01*
G01*
X8684000Y-10190000D02*
G75*
G02*
X8384000Y-10190000I-150000J0D01*
G01*
X8384000Y-5582000D02*
G75*
G02*
X8684000Y-5582000I150000J0D01*
G01*
X8684000Y-4982000D02*
G75*
G02*
X8384000Y-4982000I-150000J0D01*
G01*
X15752000Y-12526000D02*
G75*
G02*
X16052000Y-12526000I150000J0D01*
G01*
X16052000Y-11926000D02*
G75*
G02*
X15752000Y-11926000I-150000J0D01*
G01*
D10*
X13760000Y-7736000D02*
G75*
G02*
X13760000Y-8036000I0J-150000D01*
G01*
X14360000Y-8036000D02*
G75*
G02*
X14360000Y-7736000I0J150000D01*
G01*
X13760000Y-4264000D02*
G75*
G02*
X13760000Y-4564000I0J-150000D01*
G01*
X14360000Y-4564000D02*
G75*
G02*
X14360000Y-4264000I0J150000D01*
G01*
D11*
X12068000Y-10790000D02*
G75*
G02*
X12368000Y-10790000I150000J0D01*
G01*
X12368000Y-10190000D02*
G75*
G02*
X12068000Y-10190000I-150000J0D01*
G01*
D10*
X13760000Y-12944000D02*
G75*
G02*
X13760000Y-13244000I0J-150000D01*
G01*
X14360000Y-13244000D02*
G75*
G02*
X14360000Y-12944000I0J150000D01*
G01*
X6392000Y-7736000D02*
G75*
G02*
X6392000Y-8036000I0J-150000D01*
G01*
X6992000Y-8036000D02*
G75*
G02*
X6992000Y-7736000I0J150000D01*
G01*
X17444000Y-7736000D02*
G75*
G02*
X17444000Y-8036000I0J-150000D01*
G01*
X18044000Y-8036000D02*
G75*
G02*
X18044000Y-7736000I0J150000D01*
G01*
D11*
X12068000Y-14262000D02*
G75*
G02*
X12368000Y-14262000I150000J0D01*
G01*
X12368000Y-13662000D02*
G75*
G02*
X12068000Y-13662000I-150000J0D01*
G01*
X19436000Y-7318000D02*
G75*
G02*
X19736000Y-7318000I150000J0D01*
G01*
X19736000Y-6718000D02*
G75*
G02*
X19436000Y-6718000I-150000J0D01*
G01*
D10*
X6392000Y-12944000D02*
G75*
G02*
X6392000Y-13244000I0J-150000D01*
G01*
X6992000Y-13244000D02*
G75*
G02*
X6992000Y-12944000I0J150000D01*
G01*
X17444000Y-14680000D02*
G75*
G02*
X17444000Y-14980000I0J-150000D01*
G01*
X18044000Y-14980000D02*
G75*
G02*
X18044000Y-14680000I0J150000D01*
G01*
D11*
X12068000Y-12526000D02*
G75*
G02*
X12368000Y-12526000I150000J0D01*
G01*
X12368000Y-11926000D02*
G75*
G02*
X12068000Y-11926000I-150000J0D01*
G01*
D12*
D11*
X6515800Y-4239000D02*
X6565800Y-4289000D01*
X6565800Y-4239000D02*
X6515800Y-4289000D01*
X6515800Y-4539000D02*
X6565800Y-4589000D01*
X6565800Y-4539000D02*
X6515800Y-4589000D01*
X6515800Y-5975000D02*
X6565800Y-6025000D01*
X6565800Y-5975000D02*
X6515800Y-6025000D01*
X6515800Y-6275000D02*
X6565800Y-6325000D01*
X6565800Y-6275000D02*
X6515800Y-6325000D01*
X6515800Y-7711000D02*
X6565800Y-7761000D01*
X6565800Y-7711000D02*
X6515800Y-7761000D01*
X6515800Y-8011000D02*
X6565800Y-8061000D01*
X6565800Y-8011000D02*
X6515800Y-8061000D01*
X6515800Y-9447000D02*
X6565800Y-9497000D01*
X6565800Y-9447000D02*
X6515800Y-9497000D01*
X6515800Y-9747000D02*
X6565800Y-9797000D01*
X6565800Y-9747000D02*
X6515800Y-9797000D01*
X6515800Y-11183000D02*
X6565800Y-11233000D01*
X6565800Y-11183000D02*
X6515800Y-11233000D01*
X6515800Y-11483000D02*
X6565800Y-11533000D01*
X6565800Y-11483000D02*
X6515800Y-11533000D01*
X6515800Y-12919000D02*
X6565800Y-12969000D01*
X6565800Y-12919000D02*
X6515800Y-12969000D01*
X6515800Y-13219000D02*
X6565800Y-13269000D01*
X6565800Y-13219000D02*
X6515800Y-13269000D01*
X6515800Y-14655000D02*
X6565800Y-14705000D01*
X6565800Y-14655000D02*
X6515800Y-14705000D01*
X6515800Y-14955000D02*
X6565800Y-15005000D01*
X6565800Y-14955000D02*
X6515800Y-15005000D01*
X6590800Y-4539000D02*
X6640800Y-4589000D01*
X6640800Y-4539000D02*
X6590800Y-4589000D01*
X6590800Y-6275000D02*
X6640800Y-6325000D01*
X6640800Y-6275000D02*
X6590800Y-6325000D01*
X6590800Y-8011000D02*
X6640800Y-8061000D01*
X6640800Y-8011000D02*
X6590800Y-8061000D01*
X6590800Y-9747000D02*
X6640800Y-9797000D01*
X6640800Y-9747000D02*
X6590800Y-9797000D01*
X6590800Y-11483000D02*
X6640800Y-11533000D01*
X6640800Y-11483000D02*
X6590800Y-11533000D01*
X6590800Y-13219000D02*
X6640800Y-13269000D01*
X6640800Y-13219000D02*
X6590800Y-13269000D01*
X6590800Y-14955000D02*
X6640800Y-15005000D01*
X6640800Y-14955000D02*
X6590800Y-15005000D01*
X6592000Y-4239000D02*
X6642000Y-4289000D01*
X6642000Y-4239000D02*
X6592000Y-4289000D01*
X6592000Y-5975000D02*
X6642000Y-6025000D01*
X6642000Y-5975000D02*
X6592000Y-6025000D01*
X6592000Y-7711000D02*
X6642000Y-7761000D01*
X6642000Y-7711000D02*
X6592000Y-7761000D01*
X6592000Y-9447000D02*
X6642000Y-9497000D01*
X6642000Y-9447000D02*
X6592000Y-9497000D01*
X6592000Y-11183000D02*
X6642000Y-11233000D01*
X6642000Y-11183000D02*
X6592000Y-11233000D01*
X6592000Y-12919000D02*
X6642000Y-12969000D01*
X6642000Y-12919000D02*
X6592000Y-12969000D01*
X6592000Y-14655000D02*
X6642000Y-14705000D01*
X6642000Y-14655000D02*
X6592000Y-14705000D01*
X6667000Y-4239000D02*
X6717000Y-4289000D01*
X6717000Y-4239000D02*
X6667000Y-4289000D01*
X6667000Y-4539000D02*
X6717000Y-4589000D01*
X6717000Y-4539000D02*
X6667000Y-4589000D01*
X6667000Y-5975000D02*
X6717000Y-6025000D01*
X6717000Y-5975000D02*
X6667000Y-6025000D01*
X6667000Y-6275000D02*
X6717000Y-6325000D01*
X6717000Y-6275000D02*
X6667000Y-6325000D01*
X6667000Y-7711000D02*
X6717000Y-7761000D01*
X6717000Y-7711000D02*
X6667000Y-7761000D01*
X6667000Y-8011000D02*
X6717000Y-8061000D01*
X6717000Y-8011000D02*
X6667000Y-8061000D01*
X6667000Y-9447000D02*
X6717000Y-9497000D01*
X6717000Y-9447000D02*
X6667000Y-9497000D01*
X6667000Y-9747000D02*
X6717000Y-9797000D01*
X6717000Y-9747000D02*
X6667000Y-9797000D01*
X6667000Y-11183000D02*
X6717000Y-11233000D01*
X6717000Y-11183000D02*
X6667000Y-11233000D01*
X6667000Y-11483000D02*
X6717000Y-11533000D01*
X6717000Y-11483000D02*
X6667000Y-11533000D01*
X6667000Y-12919000D02*
X6717000Y-12969000D01*
X6717000Y-12919000D02*
X6667000Y-12969000D01*
X6667000Y-13219000D02*
X6717000Y-13269000D01*
X6717000Y-13219000D02*
X6667000Y-13269000D01*
X6667000Y-14655000D02*
X6717000Y-14705000D01*
X6717000Y-14655000D02*
X6667000Y-14705000D01*
X6667000Y-14955000D02*
X6717000Y-15005000D01*
X6717000Y-14955000D02*
X6667000Y-15005000D01*
X6742000Y-4239000D02*
X6792000Y-4289000D01*
X6792000Y-4239000D02*
X6742000Y-4289000D01*
X6742000Y-4539000D02*
X6792000Y-4589000D01*
X6792000Y-4539000D02*
X6742000Y-4589000D01*
X6742000Y-5975000D02*
X6792000Y-6025000D01*
X6792000Y-5975000D02*
X6742000Y-6025000D01*
X6742000Y-6275000D02*
X6792000Y-6325000D01*
X6792000Y-6275000D02*
X6742000Y-6325000D01*
X6742000Y-7711000D02*
X6792000Y-7761000D01*
X6792000Y-7711000D02*
X6742000Y-7761000D01*
X6742000Y-8011000D02*
X6792000Y-8061000D01*
X6792000Y-8011000D02*
X6742000Y-8061000D01*
X6742000Y-9447000D02*
X6792000Y-9497000D01*
X6792000Y-9447000D02*
X6742000Y-9497000D01*
X6742000Y-9747000D02*
X6792000Y-9797000D01*
X6792000Y-9747000D02*
X6742000Y-9797000D01*
X6742000Y-11183000D02*
X6792000Y-11233000D01*
X6792000Y-11183000D02*
X6742000Y-11233000D01*
X6742000Y-11483000D02*
X6792000Y-11533000D01*
X6792000Y-11483000D02*
X6742000Y-11533000D01*
X6742000Y-12919000D02*
X6792000Y-12969000D01*
X6792000Y-12919000D02*
X6742000Y-12969000D01*
X6742000Y-13219000D02*
X6792000Y-13269000D01*
X6792000Y-13219000D02*
X6742000Y-13269000D01*
X6742000Y-14655000D02*
X6792000Y-14705000D01*
X6792000Y-14655000D02*
X6742000Y-14705000D01*
X6742000Y-14955000D02*
X6792000Y-15005000D01*
X6792000Y-14955000D02*
X6742000Y-15005000D01*
X6819400Y-4239000D02*
X6869400Y-4289000D01*
X6869400Y-4239000D02*
X6819400Y-4289000D01*
X6819400Y-4539000D02*
X6869400Y-4589000D01*
X6869400Y-4539000D02*
X6819400Y-4589000D01*
X6819400Y-5975000D02*
X6869400Y-6025000D01*
X6869400Y-5975000D02*
X6819400Y-6025000D01*
X6819400Y-6275000D02*
X6869400Y-6325000D01*
X6869400Y-6275000D02*
X6819400Y-6325000D01*
X6819400Y-7711000D02*
X6869400Y-7761000D01*
X6869400Y-7711000D02*
X6819400Y-7761000D01*
X6819400Y-8011000D02*
X6869400Y-8061000D01*
X6869400Y-8011000D02*
X6819400Y-8061000D01*
X6819400Y-9447000D02*
X6869400Y-9497000D01*
X6869400Y-9447000D02*
X6819400Y-9497000D01*
X6819400Y-9747000D02*
X6869400Y-9797000D01*
X6869400Y-9747000D02*
X6819400Y-9797000D01*
X6819400Y-11183000D02*
X6869400Y-11233000D01*
X6869400Y-11183000D02*
X6819400Y-11233000D01*
X6819400Y-11483000D02*
X6869400Y-11533000D01*
X6869400Y-11483000D02*
X6819400Y-11533000D01*
X6819400Y-12919000D02*
X6869400Y-12969000D01*
X6869400Y-12919000D02*
X6819400Y-12969000D01*
X6819400Y-13219000D02*
X6869400Y-13269000D01*
X6869400Y-13219000D02*
X6819400Y-13269000D01*
X6819400Y-14655000D02*
X6869400Y-14705000D01*
X6869400Y-14655000D02*
X6819400Y-14705000D01*
X6819400Y-14955000D02*
X6869400Y-15005000D01*
X6869400Y-14955000D02*
X6819400Y-15005000D01*
X8359000Y-5104600D02*
X8409000Y-5154600D01*
X8409000Y-5104600D02*
X8359000Y-5154600D01*
X8359000Y-5182000D02*
X8409000Y-5232000D01*
X8409000Y-5182000D02*
X8359000Y-5232000D01*
X8359000Y-5257000D02*
X8409000Y-5307000D01*
X8409000Y-5257000D02*
X8359000Y-5307000D01*
X8359000Y-5332000D02*
X8409000Y-5382000D01*
X8409000Y-5332000D02*
X8359000Y-5382000D01*
X8359000Y-5408200D02*
X8409000Y-5458200D01*
X8409000Y-5408200D02*
X8359000Y-5458200D01*
X8359000Y-6840600D02*
X8409000Y-6890600D01*
X8409000Y-6840600D02*
X8359000Y-6890600D01*
X8359000Y-6918000D02*
X8409000Y-6968000D01*
X8409000Y-6918000D02*
X8359000Y-6968000D01*
X8359000Y-6993000D02*
X8409000Y-7043000D01*
X8409000Y-6993000D02*
X8359000Y-7043000D01*
X8359000Y-7068000D02*
X8409000Y-7118000D01*
X8409000Y-7068000D02*
X8359000Y-7118000D01*
X8359000Y-7144200D02*
X8409000Y-7194200D01*
X8409000Y-7144200D02*
X8359000Y-7194200D01*
X8359000Y-8576600D02*
X8409000Y-8626600D01*
X8409000Y-8576600D02*
X8359000Y-8626600D01*
X8359000Y-8654000D02*
X8409000Y-8704000D01*
X8409000Y-8654000D02*
X8359000Y-8704000D01*
X8359000Y-8729000D02*
X8409000Y-8779000D01*
X8409000Y-8729000D02*
X8359000Y-8779000D01*
X8359000Y-8804000D02*
X8409000Y-8854000D01*
X8409000Y-8804000D02*
X8359000Y-8854000D01*
X8359000Y-8880200D02*
X8409000Y-8930200D01*
X8409000Y-8880200D02*
X8359000Y-8930200D01*
X8359000Y-10312600D02*
X8409000Y-10362600D01*
X8409000Y-10312600D02*
X8359000Y-10362600D01*
X8359000Y-10390000D02*
X8409000Y-10440000D01*
X8409000Y-10390000D02*
X8359000Y-10440000D01*
X8359000Y-10465000D02*
X8409000Y-10515000D01*
X8409000Y-10465000D02*
X8359000Y-10515000D01*
X8359000Y-10540000D02*
X8409000Y-10590000D01*
X8409000Y-10540000D02*
X8359000Y-10590000D01*
X8359000Y-10616200D02*
X8409000Y-10666200D01*
X8409000Y-10616200D02*
X8359000Y-10666200D01*
X8359000Y-12048600D02*
X8409000Y-12098600D01*
X8409000Y-12048600D02*
X8359000Y-12098600D01*
X8359000Y-12126000D02*
X8409000Y-12176000D01*
X8409000Y-12126000D02*
X8359000Y-12176000D01*
X8359000Y-12201000D02*
X8409000Y-12251000D01*
X8409000Y-12201000D02*
X8359000Y-12251000D01*
X8359000Y-12276000D02*
X8409000Y-12326000D01*
X8409000Y-12276000D02*
X8359000Y-12326000D01*
X8359000Y-12352200D02*
X8409000Y-12402200D01*
X8409000Y-12352200D02*
X8359000Y-12402200D01*
X8359000Y-13784600D02*
X8409000Y-13834600D01*
X8409000Y-13784600D02*
X8359000Y-13834600D01*
X8359000Y-13862000D02*
X8409000Y-13912000D01*
X8409000Y-13862000D02*
X8359000Y-13912000D01*
X8359000Y-13937000D02*
X8409000Y-13987000D01*
X8409000Y-13937000D02*
X8359000Y-13987000D01*
X8359000Y-14012000D02*
X8409000Y-14062000D01*
X8409000Y-14012000D02*
X8359000Y-14062000D01*
X8359000Y-14088200D02*
X8409000Y-14138200D01*
X8409000Y-14088200D02*
X8359000Y-14138200D01*
X8659000Y-5104600D02*
X8709000Y-5154600D01*
X8709000Y-5104600D02*
X8659000Y-5154600D01*
X8659000Y-5182000D02*
X8709000Y-5232000D01*
X8709000Y-5182000D02*
X8659000Y-5232000D01*
X8659000Y-5257000D02*
X8709000Y-5307000D01*
X8709000Y-5257000D02*
X8659000Y-5307000D01*
X8659000Y-5333200D02*
X8709000Y-5383200D01*
X8709000Y-5333200D02*
X8659000Y-5383200D01*
X8659000Y-5408200D02*
X8709000Y-5458200D01*
X8709000Y-5408200D02*
X8659000Y-5458200D01*
X8659000Y-6840600D02*
X8709000Y-6890600D01*
X8709000Y-6840600D02*
X8659000Y-6890600D01*
X8659000Y-6918000D02*
X8709000Y-6968000D01*
X8709000Y-6918000D02*
X8659000Y-6968000D01*
X8659000Y-6993000D02*
X8709000Y-7043000D01*
X8709000Y-6993000D02*
X8659000Y-7043000D01*
X8659000Y-7069200D02*
X8709000Y-7119200D01*
X8709000Y-7069200D02*
X8659000Y-7119200D01*
X8659000Y-7144200D02*
X8709000Y-7194200D01*
X8709000Y-7144200D02*
X8659000Y-7194200D01*
X8659000Y-8576600D02*
X8709000Y-8626600D01*
X8709000Y-8576600D02*
X8659000Y-8626600D01*
X8659000Y-8654000D02*
X8709000Y-8704000D01*
X8709000Y-8654000D02*
X8659000Y-8704000D01*
X8659000Y-8729000D02*
X8709000Y-8779000D01*
X8709000Y-8729000D02*
X8659000Y-8779000D01*
X8659000Y-8805200D02*
X8709000Y-8855200D01*
X8709000Y-8805200D02*
X8659000Y-8855200D01*
X8659000Y-8880200D02*
X8709000Y-8930200D01*
X8709000Y-8880200D02*
X8659000Y-8930200D01*
X8659000Y-10312600D02*
X8709000Y-10362600D01*
X8709000Y-10312600D02*
X8659000Y-10362600D01*
X8659000Y-10390000D02*
X8709000Y-10440000D01*
X8709000Y-10390000D02*
X8659000Y-10440000D01*
X8659000Y-10465000D02*
X8709000Y-10515000D01*
X8709000Y-10465000D02*
X8659000Y-10515000D01*
X8659000Y-10541200D02*
X8709000Y-10591200D01*
X8709000Y-10541200D02*
X8659000Y-10591200D01*
X8659000Y-10616200D02*
X8709000Y-10666200D01*
X8709000Y-10616200D02*
X8659000Y-10666200D01*
X8659000Y-12048600D02*
X8709000Y-12098600D01*
X8709000Y-12048600D02*
X8659000Y-12098600D01*
X8659000Y-12126000D02*
X8709000Y-12176000D01*
X8709000Y-12126000D02*
X8659000Y-12176000D01*
X8659000Y-12201000D02*
X8709000Y-12251000D01*
X8709000Y-12201000D02*
X8659000Y-12251000D01*
X8659000Y-12277200D02*
X8709000Y-12327200D01*
X8709000Y-12277200D02*
X8659000Y-12327200D01*
X8659000Y-12352200D02*
X8709000Y-12402200D01*
X8709000Y-12352200D02*
X8659000Y-12402200D01*
X8659000Y-13784600D02*
X8709000Y-13834600D01*
X8709000Y-13784600D02*
X8659000Y-13834600D01*
X8659000Y-13862000D02*
X8709000Y-13912000D01*
X8709000Y-13862000D02*
X8659000Y-13912000D01*
X8659000Y-13937000D02*
X8709000Y-13987000D01*
X8709000Y-13937000D02*
X8659000Y-13987000D01*
X8659000Y-14013200D02*
X8709000Y-14063200D01*
X8709000Y-14013200D02*
X8659000Y-14063200D01*
X8659000Y-14088200D02*
X8709000Y-14138200D01*
X8709000Y-14088200D02*
X8659000Y-14138200D01*
X10199800Y-4239000D02*
X10249800Y-4289000D01*
X10249800Y-4239000D02*
X10199800Y-4289000D01*
X10199800Y-4539000D02*
X10249800Y-4589000D01*
X10249800Y-4539000D02*
X10199800Y-4589000D01*
X10199800Y-5975000D02*
X10249800Y-6025000D01*
X10249800Y-5975000D02*
X10199800Y-6025000D01*
X10199800Y-6275000D02*
X10249800Y-6325000D01*
X10249800Y-6275000D02*
X10199800Y-6325000D01*
X10199800Y-7711000D02*
X10249800Y-7761000D01*
X10249800Y-7711000D02*
X10199800Y-7761000D01*
X10199800Y-8011000D02*
X10249800Y-8061000D01*
X10249800Y-8011000D02*
X10199800Y-8061000D01*
X10199800Y-9447000D02*
X10249800Y-9497000D01*
X10249800Y-9447000D02*
X10199800Y-9497000D01*
X10199800Y-9747000D02*
X10249800Y-9797000D01*
X10249800Y-9747000D02*
X10199800Y-9797000D01*
X10199800Y-11183000D02*
X10249800Y-11233000D01*
X10249800Y-11183000D02*
X10199800Y-11233000D01*
X10199800Y-11483000D02*
X10249800Y-11533000D01*
X10249800Y-11483000D02*
X10199800Y-11533000D01*
X10199800Y-12919000D02*
X10249800Y-12969000D01*
X10249800Y-12919000D02*
X10199800Y-12969000D01*
X10199800Y-13219000D02*
X10249800Y-13269000D01*
X10249800Y-13219000D02*
X10199800Y-13269000D01*
X10199800Y-14655000D02*
X10249800Y-14705000D01*
X10249800Y-14655000D02*
X10199800Y-14705000D01*
X10199800Y-14955000D02*
X10249800Y-15005000D01*
X10249800Y-14955000D02*
X10199800Y-15005000D01*
X10274800Y-4539000D02*
X10324800Y-4589000D01*
X10324800Y-4539000D02*
X10274800Y-4589000D01*
X10274800Y-6275000D02*
X10324800Y-6325000D01*
X10324800Y-6275000D02*
X10274800Y-6325000D01*
X10274800Y-8011000D02*
X10324800Y-8061000D01*
X10324800Y-8011000D02*
X10274800Y-8061000D01*
X10274800Y-9747000D02*
X10324800Y-9797000D01*
X10324800Y-9747000D02*
X10274800Y-9797000D01*
X10274800Y-11483000D02*
X10324800Y-11533000D01*
X10324800Y-11483000D02*
X10274800Y-11533000D01*
X10274800Y-13219000D02*
X10324800Y-13269000D01*
X10324800Y-13219000D02*
X10274800Y-13269000D01*
X10274800Y-14955000D02*
X10324800Y-15005000D01*
X10324800Y-14955000D02*
X10274800Y-15005000D01*
X10276000Y-4239000D02*
X10326000Y-4289000D01*
X10326000Y-4239000D02*
X10276000Y-4289000D01*
X10276000Y-5975000D02*
X10326000Y-6025000D01*
X10326000Y-5975000D02*
X10276000Y-6025000D01*
X10276000Y-7711000D02*
X10326000Y-7761000D01*
X10326000Y-7711000D02*
X10276000Y-7761000D01*
X10276000Y-9447000D02*
X10326000Y-9497000D01*
X10326000Y-9447000D02*
X10276000Y-9497000D01*
X10276000Y-11183000D02*
X10326000Y-11233000D01*
X10326000Y-11183000D02*
X10276000Y-11233000D01*
X10276000Y-12919000D02*
X10326000Y-12969000D01*
X10326000Y-12919000D02*
X10276000Y-12969000D01*
X10276000Y-14655000D02*
X10326000Y-14705000D01*
X10326000Y-14655000D02*
X10276000Y-14705000D01*
X10351000Y-4239000D02*
X10401000Y-4289000D01*
X10401000Y-4239000D02*
X10351000Y-4289000D01*
X10351000Y-4539000D02*
X10401000Y-4589000D01*
X10401000Y-4539000D02*
X10351000Y-4589000D01*
X10351000Y-5975000D02*
X10401000Y-6025000D01*
X10401000Y-5975000D02*
X10351000Y-6025000D01*
X10351000Y-6275000D02*
X10401000Y-6325000D01*
X10401000Y-6275000D02*
X10351000Y-6325000D01*
X10351000Y-7711000D02*
X10401000Y-7761000D01*
X10401000Y-7711000D02*
X10351000Y-7761000D01*
X10351000Y-8011000D02*
X10401000Y-8061000D01*
X10401000Y-8011000D02*
X10351000Y-8061000D01*
X10351000Y-9447000D02*
X10401000Y-9497000D01*
X10401000Y-9447000D02*
X10351000Y-9497000D01*
X10351000Y-9747000D02*
X10401000Y-9797000D01*
X10401000Y-9747000D02*
X10351000Y-9797000D01*
X10351000Y-11183000D02*
X10401000Y-11233000D01*
X10401000Y-11183000D02*
X10351000Y-11233000D01*
X10351000Y-11483000D02*
X10401000Y-11533000D01*
X10401000Y-11483000D02*
X10351000Y-11533000D01*
X10351000Y-12919000D02*
X10401000Y-12969000D01*
X10401000Y-12919000D02*
X10351000Y-12969000D01*
X10351000Y-13219000D02*
X10401000Y-13269000D01*
X10401000Y-13219000D02*
X10351000Y-13269000D01*
X10351000Y-14655000D02*
X10401000Y-14705000D01*
X10401000Y-14655000D02*
X10351000Y-14705000D01*
X10351000Y-14955000D02*
X10401000Y-15005000D01*
X10401000Y-14955000D02*
X10351000Y-15005000D01*
X10426000Y-4239000D02*
X10476000Y-4289000D01*
X10476000Y-4239000D02*
X10426000Y-4289000D01*
X10426000Y-4539000D02*
X10476000Y-4589000D01*
X10476000Y-4539000D02*
X10426000Y-4589000D01*
X10426000Y-5975000D02*
X10476000Y-6025000D01*
X10476000Y-5975000D02*
X10426000Y-6025000D01*
X10426000Y-6275000D02*
X10476000Y-6325000D01*
X10476000Y-6275000D02*
X10426000Y-6325000D01*
X10426000Y-7711000D02*
X10476000Y-7761000D01*
X10476000Y-7711000D02*
X10426000Y-7761000D01*
X10426000Y-8011000D02*
X10476000Y-8061000D01*
X10476000Y-8011000D02*
X10426000Y-8061000D01*
X10426000Y-9447000D02*
X10476000Y-9497000D01*
X10476000Y-9447000D02*
X10426000Y-9497000D01*
X10426000Y-9747000D02*
X10476000Y-9797000D01*
X10476000Y-9747000D02*
X10426000Y-9797000D01*
X10426000Y-11183000D02*
X10476000Y-11233000D01*
X10476000Y-11183000D02*
X10426000Y-11233000D01*
X10426000Y-11483000D02*
X10476000Y-11533000D01*
X10476000Y-11483000D02*
X10426000Y-11533000D01*
X10426000Y-12919000D02*
X10476000Y-12969000D01*
X10476000Y-12919000D02*
X10426000Y-12969000D01*
X10426000Y-13219000D02*
X10476000Y-13269000D01*
X10476000Y-13219000D02*
X10426000Y-13269000D01*
X10426000Y-14655000D02*
X10476000Y-14705000D01*
X10476000Y-14655000D02*
X10426000Y-14705000D01*
X10426000Y-14955000D02*
X10476000Y-15005000D01*
X10476000Y-14955000D02*
X10426000Y-15005000D01*
X10503400Y-4239000D02*
X10553400Y-4289000D01*
X10553400Y-4239000D02*
X10503400Y-4289000D01*
X10503400Y-4539000D02*
X10553400Y-4589000D01*
X10553400Y-4539000D02*
X10503400Y-4589000D01*
X10503400Y-5975000D02*
X10553400Y-6025000D01*
X10553400Y-5975000D02*
X10503400Y-6025000D01*
X10503400Y-6275000D02*
X10553400Y-6325000D01*
X10553400Y-6275000D02*
X10503400Y-6325000D01*
X10503400Y-7711000D02*
X10553400Y-7761000D01*
X10553400Y-7711000D02*
X10503400Y-7761000D01*
X10503400Y-8011000D02*
X10553400Y-8061000D01*
X10553400Y-8011000D02*
X10503400Y-8061000D01*
X10503400Y-9447000D02*
X10553400Y-9497000D01*
X10553400Y-9447000D02*
X10503400Y-9497000D01*
X10503400Y-9747000D02*
X10553400Y-9797000D01*
X10553400Y-9747000D02*
X10503400Y-9797000D01*
X10503400Y-11183000D02*
X10553400Y-11233000D01*
X10553400Y-11183000D02*
X10503400Y-11233000D01*
X10503400Y-11483000D02*
X10553400Y-11533000D01*
X10553400Y-11483000D02*
X10503400Y-11533000D01*
X10503400Y-12919000D02*
X10553400Y-12969000D01*
X10553400Y-12919000D02*
X10503400Y-12969000D01*
X10503400Y-13219000D02*
X10553400Y-13269000D01*
X10553400Y-13219000D02*
X10503400Y-13269000D01*
X10503400Y-14655000D02*
X10553400Y-14705000D01*
X10553400Y-14655000D02*
X10503400Y-14705000D01*
X10503400Y-14955000D02*
X10553400Y-15005000D01*
X10553400Y-14955000D02*
X10503400Y-15005000D01*
X12043000Y-5104600D02*
X12093000Y-5154600D01*
X12093000Y-5104600D02*
X12043000Y-5154600D01*
X12043000Y-5182000D02*
X12093000Y-5232000D01*
X12093000Y-5182000D02*
X12043000Y-5232000D01*
X12043000Y-5257000D02*
X12093000Y-5307000D01*
X12093000Y-5257000D02*
X12043000Y-5307000D01*
X12043000Y-5332000D02*
X12093000Y-5382000D01*
X12093000Y-5332000D02*
X12043000Y-5382000D01*
X12043000Y-5408200D02*
X12093000Y-5458200D01*
X12093000Y-5408200D02*
X12043000Y-5458200D01*
X12043000Y-6840600D02*
X12093000Y-6890600D01*
X12093000Y-6840600D02*
X12043000Y-6890600D01*
X12043000Y-6918000D02*
X12093000Y-6968000D01*
X12093000Y-6918000D02*
X12043000Y-6968000D01*
X12043000Y-6993000D02*
X12093000Y-7043000D01*
X12093000Y-6993000D02*
X12043000Y-7043000D01*
X12043000Y-7068000D02*
X12093000Y-7118000D01*
X12093000Y-7068000D02*
X12043000Y-7118000D01*
X12043000Y-7144200D02*
X12093000Y-7194200D01*
X12093000Y-7144200D02*
X12043000Y-7194200D01*
X12043000Y-8576600D02*
X12093000Y-8626600D01*
X12093000Y-8576600D02*
X12043000Y-8626600D01*
X12043000Y-8654000D02*
X12093000Y-8704000D01*
X12093000Y-8654000D02*
X12043000Y-8704000D01*
X12043000Y-8729000D02*
X12093000Y-8779000D01*
X12093000Y-8729000D02*
X12043000Y-8779000D01*
X12043000Y-8804000D02*
X12093000Y-8854000D01*
X12093000Y-8804000D02*
X12043000Y-8854000D01*
X12043000Y-8880200D02*
X12093000Y-8930200D01*
X12093000Y-8880200D02*
X12043000Y-8930200D01*
X12043000Y-10312600D02*
X12093000Y-10362600D01*
X12093000Y-10312600D02*
X12043000Y-10362600D01*
X12043000Y-10390000D02*
X12093000Y-10440000D01*
X12093000Y-10390000D02*
X12043000Y-10440000D01*
X12043000Y-10465000D02*
X12093000Y-10515000D01*
X12093000Y-10465000D02*
X12043000Y-10515000D01*
X12043000Y-10540000D02*
X12093000Y-10590000D01*
X12093000Y-10540000D02*
X12043000Y-10590000D01*
X12043000Y-10616200D02*
X12093000Y-10666200D01*
X12093000Y-10616200D02*
X12043000Y-10666200D01*
X12043000Y-12048600D02*
X12093000Y-12098600D01*
X12093000Y-12048600D02*
X12043000Y-12098600D01*
X12043000Y-12126000D02*
X12093000Y-12176000D01*
X12093000Y-12126000D02*
X12043000Y-12176000D01*
X12043000Y-12201000D02*
X12093000Y-12251000D01*
X12093000Y-12201000D02*
X12043000Y-12251000D01*
X12043000Y-12276000D02*
X12093000Y-12326000D01*
X12093000Y-12276000D02*
X12043000Y-12326000D01*
X12043000Y-12352200D02*
X12093000Y-12402200D01*
X12093000Y-12352200D02*
X12043000Y-12402200D01*
X12043000Y-13784600D02*
X12093000Y-13834600D01*
X12093000Y-13784600D02*
X12043000Y-13834600D01*
X12043000Y-13862000D02*
X12093000Y-13912000D01*
X12093000Y-13862000D02*
X12043000Y-13912000D01*
X12043000Y-13937000D02*
X12093000Y-13987000D01*
X12093000Y-13937000D02*
X12043000Y-13987000D01*
X12043000Y-14012000D02*
X12093000Y-14062000D01*
X12093000Y-14012000D02*
X12043000Y-14062000D01*
X12043000Y-14088200D02*
X12093000Y-14138200D01*
X12093000Y-14088200D02*
X12043000Y-14138200D01*
X12343000Y-5104600D02*
X12393000Y-5154600D01*
X12393000Y-5104600D02*
X12343000Y-5154600D01*
X12343000Y-5182000D02*
X12393000Y-5232000D01*
X12393000Y-5182000D02*
X12343000Y-5232000D01*
X12343000Y-5257000D02*
X12393000Y-5307000D01*
X12393000Y-5257000D02*
X12343000Y-5307000D01*
X12343000Y-5333200D02*
X12393000Y-5383200D01*
X12393000Y-5333200D02*
X12343000Y-5383200D01*
X12343000Y-5408200D02*
X12393000Y-5458200D01*
X12393000Y-5408200D02*
X12343000Y-5458200D01*
X12343000Y-6840600D02*
X12393000Y-6890600D01*
X12393000Y-6840600D02*
X12343000Y-6890600D01*
X12343000Y-6918000D02*
X12393000Y-6968000D01*
X12393000Y-6918000D02*
X12343000Y-6968000D01*
X12343000Y-6993000D02*
X12393000Y-7043000D01*
X12393000Y-6993000D02*
X12343000Y-7043000D01*
X12343000Y-7069200D02*
X12393000Y-7119200D01*
X12393000Y-7069200D02*
X12343000Y-7119200D01*
X12343000Y-7144200D02*
X12393000Y-7194200D01*
X12393000Y-7144200D02*
X12343000Y-7194200D01*
X12343000Y-8576600D02*
X12393000Y-8626600D01*
X12393000Y-8576600D02*
X12343000Y-8626600D01*
X12343000Y-8654000D02*
X12393000Y-8704000D01*
X12393000Y-8654000D02*
X12343000Y-8704000D01*
X12343000Y-8729000D02*
X12393000Y-8779000D01*
X12393000Y-8729000D02*
X12343000Y-8779000D01*
X12343000Y-8805200D02*
X12393000Y-8855200D01*
X12393000Y-8805200D02*
X12343000Y-8855200D01*
X12343000Y-8880200D02*
X12393000Y-8930200D01*
X12393000Y-8880200D02*
X12343000Y-8930200D01*
X12343000Y-10312600D02*
X12393000Y-10362600D01*
X12393000Y-10312600D02*
X12343000Y-10362600D01*
X12343000Y-10390000D02*
X12393000Y-10440000D01*
X12393000Y-10390000D02*
X12343000Y-10440000D01*
X12343000Y-10465000D02*
X12393000Y-10515000D01*
X12393000Y-10465000D02*
X12343000Y-10515000D01*
X12343000Y-10541200D02*
X12393000Y-10591200D01*
X12393000Y-10541200D02*
X12343000Y-10591200D01*
X12343000Y-10616200D02*
X12393000Y-10666200D01*
X12393000Y-10616200D02*
X12343000Y-10666200D01*
X12343000Y-12048600D02*
X12393000Y-12098600D01*
X12393000Y-12048600D02*
X12343000Y-12098600D01*
X12343000Y-12126000D02*
X12393000Y-12176000D01*
X12393000Y-12126000D02*
X12343000Y-12176000D01*
X12343000Y-12201000D02*
X12393000Y-12251000D01*
X12393000Y-12201000D02*
X12343000Y-12251000D01*
X12343000Y-12277200D02*
X12393000Y-12327200D01*
X12393000Y-12277200D02*
X12343000Y-12327200D01*
X12343000Y-12352200D02*
X12393000Y-12402200D01*
X12393000Y-12352200D02*
X12343000Y-12402200D01*
X12343000Y-13784600D02*
X12393000Y-13834600D01*
X12393000Y-13784600D02*
X12343000Y-13834600D01*
X12343000Y-13862000D02*
X12393000Y-13912000D01*
X12393000Y-13862000D02*
X12343000Y-13912000D01*
X12343000Y-13937000D02*
X12393000Y-13987000D01*
X12393000Y-13937000D02*
X12343000Y-13987000D01*
X12343000Y-14013200D02*
X12393000Y-14063200D01*
X12393000Y-14013200D02*
X12343000Y-14063200D01*
X12343000Y-14088200D02*
X12393000Y-14138200D01*
X12393000Y-14088200D02*
X12343000Y-14138200D01*
X13883800Y-4239000D02*
X13933800Y-4289000D01*
X13933800Y-4239000D02*
X13883800Y-4289000D01*
X13883800Y-4539000D02*
X13933800Y-4589000D01*
X13933800Y-4539000D02*
X13883800Y-4589000D01*
X13883800Y-5975000D02*
X13933800Y-6025000D01*
X13933800Y-5975000D02*
X13883800Y-6025000D01*
X13883800Y-6275000D02*
X13933800Y-6325000D01*
X13933800Y-6275000D02*
X13883800Y-6325000D01*
X13883800Y-7711000D02*
X13933800Y-7761000D01*
X13933800Y-7711000D02*
X13883800Y-7761000D01*
X13883800Y-8011000D02*
X13933800Y-8061000D01*
X13933800Y-8011000D02*
X13883800Y-8061000D01*
X13883800Y-9447000D02*
X13933800Y-9497000D01*
X13933800Y-9447000D02*
X13883800Y-9497000D01*
X13883800Y-9747000D02*
X13933800Y-9797000D01*
X13933800Y-9747000D02*
X13883800Y-9797000D01*
X13883800Y-11183000D02*
X13933800Y-11233000D01*
X13933800Y-11183000D02*
X13883800Y-11233000D01*
X13883800Y-11483000D02*
X13933800Y-11533000D01*
X13933800Y-11483000D02*
X13883800Y-11533000D01*
X13883800Y-12919000D02*
X13933800Y-12969000D01*
X13933800Y-12919000D02*
X13883800Y-12969000D01*
X13883800Y-13219000D02*
X13933800Y-13269000D01*
X13933800Y-13219000D02*
X13883800Y-13269000D01*
X13883800Y-14655000D02*
X13933800Y-14705000D01*
X13933800Y-14655000D02*
X13883800Y-14705000D01*
X13883800Y-14955000D02*
X13933800Y-15005000D01*
X13933800Y-14955000D02*
X13883800Y-15005000D01*
X13958800Y-4539000D02*
X14008800Y-4589000D01*
X14008800Y-4539000D02*
X13958800Y-4589000D01*
X13958800Y-6275000D02*
X14008800Y-6325000D01*
X14008800Y-6275000D02*
X13958800Y-6325000D01*
X13958800Y-8011000D02*
X14008800Y-8061000D01*
X14008800Y-8011000D02*
X13958800Y-8061000D01*
X13958800Y-9747000D02*
X14008800Y-9797000D01*
X14008800Y-9747000D02*
X13958800Y-9797000D01*
X13958800Y-11483000D02*
X14008800Y-11533000D01*
X14008800Y-11483000D02*
X13958800Y-11533000D01*
X13958800Y-13219000D02*
X14008800Y-13269000D01*
X14008800Y-13219000D02*
X13958800Y-13269000D01*
X13958800Y-14955000D02*
X14008800Y-15005000D01*
X14008800Y-14955000D02*
X13958800Y-15005000D01*
X13960000Y-4239000D02*
X14010000Y-4289000D01*
X14010000Y-4239000D02*
X13960000Y-4289000D01*
X13960000Y-5975000D02*
X14010000Y-6025000D01*
X14010000Y-5975000D02*
X13960000Y-6025000D01*
X13960000Y-7711000D02*
X14010000Y-7761000D01*
X14010000Y-7711000D02*
X13960000Y-7761000D01*
X13960000Y-9447000D02*
X14010000Y-9497000D01*
X14010000Y-9447000D02*
X13960000Y-9497000D01*
X13960000Y-11183000D02*
X14010000Y-11233000D01*
X14010000Y-11183000D02*
X13960000Y-11233000D01*
X13960000Y-12919000D02*
X14010000Y-12969000D01*
X14010000Y-12919000D02*
X13960000Y-12969000D01*
X13960000Y-14655000D02*
X14010000Y-14705000D01*
X14010000Y-14655000D02*
X13960000Y-14705000D01*
X14035000Y-4239000D02*
X14085000Y-4289000D01*
X14085000Y-4239000D02*
X14035000Y-4289000D01*
X14035000Y-4539000D02*
X14085000Y-4589000D01*
X14085000Y-4539000D02*
X14035000Y-4589000D01*
X14035000Y-5975000D02*
X14085000Y-6025000D01*
X14085000Y-5975000D02*
X14035000Y-6025000D01*
X14035000Y-6275000D02*
X14085000Y-6325000D01*
X14085000Y-6275000D02*
X14035000Y-6325000D01*
X14035000Y-7711000D02*
X14085000Y-7761000D01*
X14085000Y-7711000D02*
X14035000Y-7761000D01*
X14035000Y-8011000D02*
X14085000Y-8061000D01*
X14085000Y-8011000D02*
X14035000Y-8061000D01*
X14035000Y-9447000D02*
X14085000Y-9497000D01*
X14085000Y-9447000D02*
X14035000Y-9497000D01*
X14035000Y-9747000D02*
X14085000Y-9797000D01*
X14085000Y-9747000D02*
X14035000Y-9797000D01*
X14035000Y-11183000D02*
X14085000Y-11233000D01*
X14085000Y-11183000D02*
X14035000Y-11233000D01*
X14035000Y-11483000D02*
X14085000Y-11533000D01*
X14085000Y-11483000D02*
X14035000Y-11533000D01*
X14035000Y-12919000D02*
X14085000Y-12969000D01*
X14085000Y-12919000D02*
X14035000Y-12969000D01*
X14035000Y-13219000D02*
X14085000Y-13269000D01*
X14085000Y-13219000D02*
X14035000Y-13269000D01*
X14035000Y-14655000D02*
X14085000Y-14705000D01*
X14085000Y-14655000D02*
X14035000Y-14705000D01*
X14035000Y-14955000D02*
X14085000Y-15005000D01*
X14085000Y-14955000D02*
X14035000Y-15005000D01*
X14110000Y-4239000D02*
X14160000Y-4289000D01*
X14160000Y-4239000D02*
X14110000Y-4289000D01*
X14110000Y-4539000D02*
X14160000Y-4589000D01*
X14160000Y-4539000D02*
X14110000Y-4589000D01*
X14110000Y-5975000D02*
X14160000Y-6025000D01*
X14160000Y-5975000D02*
X14110000Y-6025000D01*
X14110000Y-6275000D02*
X14160000Y-6325000D01*
X14160000Y-6275000D02*
X14110000Y-6325000D01*
X14110000Y-7711000D02*
X14160000Y-7761000D01*
X14160000Y-7711000D02*
X14110000Y-7761000D01*
X14110000Y-8011000D02*
X14160000Y-8061000D01*
X14160000Y-8011000D02*
X14110000Y-8061000D01*
X14110000Y-9447000D02*
X14160000Y-9497000D01*
X14160000Y-9447000D02*
X14110000Y-9497000D01*
X14110000Y-9747000D02*
X14160000Y-9797000D01*
X14160000Y-9747000D02*
X14110000Y-9797000D01*
X14110000Y-11183000D02*
X14160000Y-11233000D01*
X14160000Y-11183000D02*
X14110000Y-11233000D01*
X14110000Y-11483000D02*
X14160000Y-11533000D01*
X14160000Y-11483000D02*
X14110000Y-11533000D01*
X14110000Y-12919000D02*
X14160000Y-12969000D01*
X14160000Y-12919000D02*
X14110000Y-12969000D01*
X14110000Y-13219000D02*
X14160000Y-13269000D01*
X14160000Y-13219000D02*
X14110000Y-13269000D01*
X14110000Y-14655000D02*
X14160000Y-14705000D01*
X14160000Y-14655000D02*
X14110000Y-14705000D01*
X14110000Y-14955000D02*
X14160000Y-15005000D01*
X14160000Y-14955000D02*
X14110000Y-15005000D01*
X14187400Y-4239000D02*
X14237400Y-4289000D01*
X14237400Y-4239000D02*
X14187400Y-4289000D01*
X14187400Y-4539000D02*
X14237400Y-4589000D01*
X14237400Y-4539000D02*
X14187400Y-4589000D01*
X14187400Y-5975000D02*
X14237400Y-6025000D01*
X14237400Y-5975000D02*
X14187400Y-6025000D01*
X14187400Y-6275000D02*
X14237400Y-6325000D01*
X14237400Y-6275000D02*
X14187400Y-6325000D01*
X14187400Y-7711000D02*
X14237400Y-7761000D01*
X14237400Y-7711000D02*
X14187400Y-7761000D01*
X14187400Y-8011000D02*
X14237400Y-8061000D01*
X14237400Y-8011000D02*
X14187400Y-8061000D01*
X14187400Y-9447000D02*
X14237400Y-9497000D01*
X14237400Y-9447000D02*
X14187400Y-9497000D01*
X14187400Y-9747000D02*
X14237400Y-9797000D01*
X14237400Y-9747000D02*
X14187400Y-9797000D01*
X14187400Y-11183000D02*
X14237400Y-11233000D01*
X14237400Y-11183000D02*
X14187400Y-11233000D01*
X14187400Y-11483000D02*
X14237400Y-11533000D01*
X14237400Y-11483000D02*
X14187400Y-11533000D01*
X14187400Y-12919000D02*
X14237400Y-12969000D01*
X14237400Y-12919000D02*
X14187400Y-12969000D01*
X14187400Y-13219000D02*
X14237400Y-13269000D01*
X14237400Y-13219000D02*
X14187400Y-13269000D01*
X14187400Y-14655000D02*
X14237400Y-14705000D01*
X14237400Y-14655000D02*
X14187400Y-14705000D01*
X14187400Y-14955000D02*
X14237400Y-15005000D01*
X14237400Y-14955000D02*
X14187400Y-15005000D01*
X15727000Y-5104600D02*
X15777000Y-5154600D01*
X15777000Y-5104600D02*
X15727000Y-5154600D01*
X15727000Y-5182000D02*
X15777000Y-5232000D01*
X15777000Y-5182000D02*
X15727000Y-5232000D01*
X15727000Y-5257000D02*
X15777000Y-5307000D01*
X15777000Y-5257000D02*
X15727000Y-5307000D01*
X15727000Y-5332000D02*
X15777000Y-5382000D01*
X15777000Y-5332000D02*
X15727000Y-5382000D01*
X15727000Y-5408200D02*
X15777000Y-5458200D01*
X15777000Y-5408200D02*
X15727000Y-5458200D01*
X15727000Y-6840600D02*
X15777000Y-6890600D01*
X15777000Y-6840600D02*
X15727000Y-6890600D01*
X15727000Y-6918000D02*
X15777000Y-6968000D01*
X15777000Y-6918000D02*
X15727000Y-6968000D01*
X15727000Y-6993000D02*
X15777000Y-7043000D01*
X15777000Y-6993000D02*
X15727000Y-7043000D01*
X15727000Y-7068000D02*
X15777000Y-7118000D01*
X15777000Y-7068000D02*
X15727000Y-7118000D01*
X15727000Y-7144200D02*
X15777000Y-7194200D01*
X15777000Y-7144200D02*
X15727000Y-7194200D01*
X15727000Y-8576600D02*
X15777000Y-8626600D01*
X15777000Y-8576600D02*
X15727000Y-8626600D01*
X15727000Y-8654000D02*
X15777000Y-8704000D01*
X15777000Y-8654000D02*
X15727000Y-8704000D01*
X15727000Y-8729000D02*
X15777000Y-8779000D01*
X15777000Y-8729000D02*
X15727000Y-8779000D01*
X15727000Y-8804000D02*
X15777000Y-8854000D01*
X15777000Y-8804000D02*
X15727000Y-8854000D01*
X15727000Y-8880200D02*
X15777000Y-8930200D01*
X15777000Y-8880200D02*
X15727000Y-8930200D01*
X15727000Y-10312600D02*
X15777000Y-10362600D01*
X15777000Y-10312600D02*
X15727000Y-10362600D01*
X15727000Y-10390000D02*
X15777000Y-10440000D01*
X15777000Y-10390000D02*
X15727000Y-10440000D01*
X15727000Y-10465000D02*
X15777000Y-10515000D01*
X15777000Y-10465000D02*
X15727000Y-10515000D01*
X15727000Y-10540000D02*
X15777000Y-10590000D01*
X15777000Y-10540000D02*
X15727000Y-10590000D01*
X15727000Y-10616200D02*
X15777000Y-10666200D01*
X15777000Y-10616200D02*
X15727000Y-10666200D01*
X15727000Y-12048600D02*
X15777000Y-12098600D01*
X15777000Y-12048600D02*
X15727000Y-12098600D01*
X15727000Y-12126000D02*
X15777000Y-12176000D01*
X15777000Y-12126000D02*
X15727000Y-12176000D01*
X15727000Y-12201000D02*
X15777000Y-12251000D01*
X15777000Y-12201000D02*
X15727000Y-12251000D01*
X15727000Y-12276000D02*
X15777000Y-12326000D01*
X15777000Y-12276000D02*
X15727000Y-12326000D01*
X15727000Y-12352200D02*
X15777000Y-12402200D01*
X15777000Y-12352200D02*
X15727000Y-12402200D01*
X15727000Y-13784600D02*
X15777000Y-13834600D01*
X15777000Y-13784600D02*
X15727000Y-13834600D01*
X15727000Y-13862000D02*
X15777000Y-13912000D01*
X15777000Y-13862000D02*
X15727000Y-13912000D01*
X15727000Y-13937000D02*
X15777000Y-13987000D01*
X15777000Y-13937000D02*
X15727000Y-13987000D01*
X15727000Y-14012000D02*
X15777000Y-14062000D01*
X15777000Y-14012000D02*
X15727000Y-14062000D01*
X15727000Y-14088200D02*
X15777000Y-14138200D01*
X15777000Y-14088200D02*
X15727000Y-14138200D01*
X16027000Y-5104600D02*
X16077000Y-5154600D01*
X16077000Y-5104600D02*
X16027000Y-5154600D01*
X16027000Y-5182000D02*
X16077000Y-5232000D01*
X16077000Y-5182000D02*
X16027000Y-5232000D01*
X16027000Y-5257000D02*
X16077000Y-5307000D01*
X16077000Y-5257000D02*
X16027000Y-5307000D01*
X16027000Y-5333200D02*
X16077000Y-5383200D01*
X16077000Y-5333200D02*
X16027000Y-5383200D01*
X16027000Y-5408200D02*
X16077000Y-5458200D01*
X16077000Y-5408200D02*
X16027000Y-5458200D01*
X16027000Y-6840600D02*
X16077000Y-6890600D01*
X16077000Y-6840600D02*
X16027000Y-6890600D01*
X16027000Y-6918000D02*
X16077000Y-6968000D01*
X16077000Y-6918000D02*
X16027000Y-6968000D01*
X16027000Y-6993000D02*
X16077000Y-7043000D01*
X16077000Y-6993000D02*
X16027000Y-7043000D01*
X16027000Y-7069200D02*
X16077000Y-7119200D01*
X16077000Y-7069200D02*
X16027000Y-7119200D01*
X16027000Y-7144200D02*
X16077000Y-7194200D01*
X16077000Y-7144200D02*
X16027000Y-7194200D01*
X16027000Y-8576600D02*
X16077000Y-8626600D01*
X16077000Y-8576600D02*
X16027000Y-8626600D01*
X16027000Y-8654000D02*
X16077000Y-8704000D01*
X16077000Y-8654000D02*
X16027000Y-8704000D01*
X16027000Y-8729000D02*
X16077000Y-8779000D01*
X16077000Y-8729000D02*
X16027000Y-8779000D01*
X16027000Y-8805200D02*
X16077000Y-8855200D01*
X16077000Y-8805200D02*
X16027000Y-8855200D01*
X16027000Y-8880200D02*
X16077000Y-8930200D01*
X16077000Y-8880200D02*
X16027000Y-8930200D01*
X16027000Y-10312600D02*
X16077000Y-10362600D01*
X16077000Y-10312600D02*
X16027000Y-10362600D01*
X16027000Y-10390000D02*
X16077000Y-10440000D01*
X16077000Y-10390000D02*
X16027000Y-10440000D01*
X16027000Y-10465000D02*
X16077000Y-10515000D01*
X16077000Y-10465000D02*
X16027000Y-10515000D01*
X16027000Y-10541200D02*
X16077000Y-10591200D01*
X16077000Y-10541200D02*
X16027000Y-10591200D01*
X16027000Y-10616200D02*
X16077000Y-10666200D01*
X16077000Y-10616200D02*
X16027000Y-10666200D01*
X16027000Y-12048600D02*
X16077000Y-12098600D01*
X16077000Y-12048600D02*
X16027000Y-12098600D01*
X16027000Y-12126000D02*
X16077000Y-12176000D01*
X16077000Y-12126000D02*
X16027000Y-12176000D01*
X16027000Y-12201000D02*
X16077000Y-12251000D01*
X16077000Y-12201000D02*
X16027000Y-12251000D01*
X16027000Y-12277200D02*
X16077000Y-12327200D01*
X16077000Y-12277200D02*
X16027000Y-12327200D01*
X16027000Y-12352200D02*
X16077000Y-12402200D01*
X16077000Y-12352200D02*
X16027000Y-12402200D01*
X16027000Y-13784600D02*
X16077000Y-13834600D01*
X16077000Y-13784600D02*
X16027000Y-13834600D01*
X16027000Y-13862000D02*
X16077000Y-13912000D01*
X16077000Y-13862000D02*
X16027000Y-13912000D01*
X16027000Y-13937000D02*
X16077000Y-13987000D01*
X16077000Y-13937000D02*
X16027000Y-13987000D01*
X16027000Y-14013200D02*
X16077000Y-14063200D01*
X16077000Y-14013200D02*
X16027000Y-14063200D01*
X16027000Y-14088200D02*
X16077000Y-14138200D01*
X16077000Y-14088200D02*
X16027000Y-14138200D01*
X17567800Y-4239000D02*
X17617800Y-4289000D01*
X17617800Y-4239000D02*
X17567800Y-4289000D01*
X17567800Y-4539000D02*
X17617800Y-4589000D01*
X17617800Y-4539000D02*
X17567800Y-4589000D01*
X17567800Y-5975000D02*
X17617800Y-6025000D01*
X17617800Y-5975000D02*
X17567800Y-6025000D01*
X17567800Y-6275000D02*
X17617800Y-6325000D01*
X17617800Y-6275000D02*
X17567800Y-6325000D01*
X17567800Y-7711000D02*
X17617800Y-7761000D01*
X17617800Y-7711000D02*
X17567800Y-7761000D01*
X17567800Y-8011000D02*
X17617800Y-8061000D01*
X17617800Y-8011000D02*
X17567800Y-8061000D01*
X17567800Y-9447000D02*
X17617800Y-9497000D01*
X17617800Y-9447000D02*
X17567800Y-9497000D01*
X17567800Y-9747000D02*
X17617800Y-9797000D01*
X17617800Y-9747000D02*
X17567800Y-9797000D01*
X17567800Y-11183000D02*
X17617800Y-11233000D01*
X17617800Y-11183000D02*
X17567800Y-11233000D01*
X17567800Y-11483000D02*
X17617800Y-11533000D01*
X17617800Y-11483000D02*
X17567800Y-11533000D01*
X17567800Y-12919000D02*
X17617800Y-12969000D01*
X17617800Y-12919000D02*
X17567800Y-12969000D01*
X17567800Y-13219000D02*
X17617800Y-13269000D01*
X17617800Y-13219000D02*
X17567800Y-13269000D01*
X17567800Y-14655000D02*
X17617800Y-14705000D01*
X17617800Y-14655000D02*
X17567800Y-14705000D01*
X17567800Y-14955000D02*
X17617800Y-15005000D01*
X17617800Y-14955000D02*
X17567800Y-15005000D01*
X17642800Y-4539000D02*
X17692800Y-4589000D01*
X17692800Y-4539000D02*
X17642800Y-4589000D01*
X17642800Y-6275000D02*
X17692800Y-6325000D01*
X17692800Y-6275000D02*
X17642800Y-6325000D01*
X17642800Y-8011000D02*
X17692800Y-8061000D01*
X17692800Y-8011000D02*
X17642800Y-8061000D01*
X17642800Y-9747000D02*
X17692800Y-9797000D01*
X17692800Y-9747000D02*
X17642800Y-9797000D01*
X17642800Y-11483000D02*
X17692800Y-11533000D01*
X17692800Y-11483000D02*
X17642800Y-11533000D01*
X17642800Y-13219000D02*
X17692800Y-13269000D01*
X17692800Y-13219000D02*
X17642800Y-13269000D01*
X17642800Y-14955000D02*
X17692800Y-15005000D01*
X17692800Y-14955000D02*
X17642800Y-15005000D01*
X17644000Y-4239000D02*
X17694000Y-4289000D01*
X17694000Y-4239000D02*
X17644000Y-4289000D01*
X17644000Y-5975000D02*
X17694000Y-6025000D01*
X17694000Y-5975000D02*
X17644000Y-6025000D01*
X17644000Y-7711000D02*
X17694000Y-7761000D01*
X17694000Y-7711000D02*
X17644000Y-7761000D01*
X17644000Y-9447000D02*
X17694000Y-9497000D01*
X17694000Y-9447000D02*
X17644000Y-9497000D01*
X17644000Y-11183000D02*
X17694000Y-11233000D01*
X17694000Y-11183000D02*
X17644000Y-11233000D01*
X17644000Y-12919000D02*
X17694000Y-12969000D01*
X17694000Y-12919000D02*
X17644000Y-12969000D01*
X17644000Y-14655000D02*
X17694000Y-14705000D01*
X17694000Y-14655000D02*
X17644000Y-14705000D01*
X17719000Y-4239000D02*
X17769000Y-4289000D01*
X17769000Y-4239000D02*
X17719000Y-4289000D01*
X17719000Y-4539000D02*
X17769000Y-4589000D01*
X17769000Y-4539000D02*
X17719000Y-4589000D01*
X17719000Y-5975000D02*
X17769000Y-6025000D01*
X17769000Y-5975000D02*
X17719000Y-6025000D01*
X17719000Y-6275000D02*
X17769000Y-6325000D01*
X17769000Y-6275000D02*
X17719000Y-6325000D01*
X17719000Y-7711000D02*
X17769000Y-7761000D01*
X17769000Y-7711000D02*
X17719000Y-7761000D01*
X17719000Y-8011000D02*
X17769000Y-8061000D01*
X17769000Y-8011000D02*
X17719000Y-8061000D01*
X17719000Y-9447000D02*
X17769000Y-9497000D01*
X17769000Y-9447000D02*
X17719000Y-9497000D01*
X17719000Y-9747000D02*
X17769000Y-9797000D01*
X17769000Y-9747000D02*
X17719000Y-9797000D01*
X17719000Y-11183000D02*
X17769000Y-11233000D01*
X17769000Y-11183000D02*
X17719000Y-11233000D01*
X17719000Y-11483000D02*
X17769000Y-11533000D01*
X17769000Y-11483000D02*
X17719000Y-11533000D01*
X17719000Y-12919000D02*
X17769000Y-12969000D01*
X17769000Y-12919000D02*
X17719000Y-12969000D01*
X17719000Y-13219000D02*
X17769000Y-13269000D01*
X17769000Y-13219000D02*
X17719000Y-13269000D01*
X17719000Y-14655000D02*
X17769000Y-14705000D01*
X17769000Y-14655000D02*
X17719000Y-14705000D01*
X17719000Y-14955000D02*
X17769000Y-15005000D01*
X17769000Y-14955000D02*
X17719000Y-15005000D01*
X17794000Y-4239000D02*
X17844000Y-4289000D01*
X17844000Y-4239000D02*
X17794000Y-4289000D01*
X17794000Y-4539000D02*
X17844000Y-4589000D01*
X17844000Y-4539000D02*
X17794000Y-4589000D01*
X17794000Y-5975000D02*
X17844000Y-6025000D01*
X17844000Y-5975000D02*
X17794000Y-6025000D01*
X17794000Y-6275000D02*
X17844000Y-6325000D01*
X17844000Y-6275000D02*
X17794000Y-6325000D01*
X17794000Y-7711000D02*
X17844000Y-7761000D01*
X17844000Y-7711000D02*
X17794000Y-7761000D01*
X17794000Y-8011000D02*
X17844000Y-8061000D01*
X17844000Y-8011000D02*
X17794000Y-8061000D01*
X17794000Y-9447000D02*
X17844000Y-9497000D01*
X17844000Y-9447000D02*
X17794000Y-9497000D01*
X17794000Y-9747000D02*
X17844000Y-9797000D01*
X17844000Y-9747000D02*
X17794000Y-9797000D01*
X17794000Y-11183000D02*
X17844000Y-11233000D01*
X17844000Y-11183000D02*
X17794000Y-11233000D01*
X17794000Y-11483000D02*
X17844000Y-11533000D01*
X17844000Y-11483000D02*
X17794000Y-11533000D01*
X17794000Y-12919000D02*
X17844000Y-12969000D01*
X17844000Y-12919000D02*
X17794000Y-12969000D01*
X17794000Y-13219000D02*
X17844000Y-13269000D01*
X17844000Y-13219000D02*
X17794000Y-13269000D01*
X17794000Y-14655000D02*
X17844000Y-14705000D01*
X17844000Y-14655000D02*
X17794000Y-14705000D01*
X17794000Y-14955000D02*
X17844000Y-15005000D01*
X17844000Y-14955000D02*
X17794000Y-15005000D01*
X17871400Y-4239000D02*
X17921400Y-4289000D01*
X17921400Y-4239000D02*
X17871400Y-4289000D01*
X17871400Y-4539000D02*
X17921400Y-4589000D01*
X17921400Y-4539000D02*
X17871400Y-4589000D01*
X17871400Y-5975000D02*
X17921400Y-6025000D01*
X17921400Y-5975000D02*
X17871400Y-6025000D01*
X17871400Y-6275000D02*
X17921400Y-6325000D01*
X17921400Y-6275000D02*
X17871400Y-6325000D01*
X17871400Y-7711000D02*
X17921400Y-7761000D01*
X17921400Y-7711000D02*
X17871400Y-7761000D01*
X17871400Y-8011000D02*
X17921400Y-8061000D01*
X17921400Y-8011000D02*
X17871400Y-8061000D01*
X17871400Y-9447000D02*
X17921400Y-9497000D01*
X17921400Y-9447000D02*
X17871400Y-9497000D01*
X17871400Y-9747000D02*
X17921400Y-9797000D01*
X17921400Y-9747000D02*
X17871400Y-9797000D01*
X17871400Y-11183000D02*
X17921400Y-11233000D01*
X17921400Y-11183000D02*
X17871400Y-11233000D01*
X17871400Y-11483000D02*
X17921400Y-11533000D01*
X17921400Y-11483000D02*
X17871400Y-11533000D01*
X17871400Y-12919000D02*
X17921400Y-12969000D01*
X17921400Y-12919000D02*
X17871400Y-12969000D01*
X17871400Y-13219000D02*
X17921400Y-13269000D01*
X17921400Y-13219000D02*
X17871400Y-13269000D01*
X17871400Y-14655000D02*
X17921400Y-14705000D01*
X17921400Y-14655000D02*
X17871400Y-14705000D01*
X17871400Y-14955000D02*
X17921400Y-15005000D01*
X17921400Y-14955000D02*
X17871400Y-15005000D01*
X19411000Y-5104600D02*
X19461000Y-5154600D01*
X19461000Y-5104600D02*
X19411000Y-5154600D01*
X19411000Y-5182000D02*
X19461000Y-5232000D01*
X19461000Y-5182000D02*
X19411000Y-5232000D01*
X19411000Y-5257000D02*
X19461000Y-5307000D01*
X19461000Y-5257000D02*
X19411000Y-5307000D01*
X19411000Y-5332000D02*
X19461000Y-5382000D01*
X19461000Y-5332000D02*
X19411000Y-5382000D01*
X19411000Y-5408200D02*
X19461000Y-5458200D01*
X19461000Y-5408200D02*
X19411000Y-5458200D01*
X19411000Y-6840600D02*
X19461000Y-6890600D01*
X19461000Y-6840600D02*
X19411000Y-6890600D01*
X19411000Y-6918000D02*
X19461000Y-6968000D01*
X19461000Y-6918000D02*
X19411000Y-6968000D01*
X19411000Y-6993000D02*
X19461000Y-7043000D01*
X19461000Y-6993000D02*
X19411000Y-7043000D01*
X19411000Y-7068000D02*
X19461000Y-7118000D01*
X19461000Y-7068000D02*
X19411000Y-7118000D01*
X19411000Y-7144200D02*
X19461000Y-7194200D01*
X19461000Y-7144200D02*
X19411000Y-7194200D01*
X19411000Y-8576600D02*
X19461000Y-8626600D01*
X19461000Y-8576600D02*
X19411000Y-8626600D01*
X19411000Y-8654000D02*
X19461000Y-8704000D01*
X19461000Y-8654000D02*
X19411000Y-8704000D01*
X19411000Y-8729000D02*
X19461000Y-8779000D01*
X19461000Y-8729000D02*
X19411000Y-8779000D01*
X19411000Y-8804000D02*
X19461000Y-8854000D01*
X19461000Y-8804000D02*
X19411000Y-8854000D01*
X19411000Y-8880200D02*
X19461000Y-8930200D01*
X19461000Y-8880200D02*
X19411000Y-8930200D01*
X19411000Y-10312600D02*
X19461000Y-10362600D01*
X19461000Y-10312600D02*
X19411000Y-10362600D01*
X19411000Y-10390000D02*
X19461000Y-10440000D01*
X19461000Y-10390000D02*
X19411000Y-10440000D01*
X19411000Y-10465000D02*
X19461000Y-10515000D01*
X19461000Y-10465000D02*
X19411000Y-10515000D01*
X19411000Y-10540000D02*
X19461000Y-10590000D01*
X19461000Y-10540000D02*
X19411000Y-10590000D01*
X19411000Y-10616200D02*
X19461000Y-10666200D01*
X19461000Y-10616200D02*
X19411000Y-10666200D01*
X19411000Y-12048600D02*
X19461000Y-12098600D01*
X19461000Y-12048600D02*
X19411000Y-12098600D01*
X19411000Y-12126000D02*
X19461000Y-12176000D01*
X19461000Y-12126000D02*
X19411000Y-12176000D01*
X19411000Y-12201000D02*
X19461000Y-12251000D01*
X19461000Y-12201000D02*
X19411000Y-12251000D01*
X19411000Y-12276000D02*
X19461000Y-12326000D01*
X19461000Y-12276000D02*
X19411000Y-12326000D01*
X19411000Y-12352200D02*
X19461000Y-12402200D01*
X19461000Y-12352200D02*
X19411000Y-12402200D01*
X19411000Y-13784600D02*
X19461000Y-13834600D01*
X19461000Y-13784600D02*
X19411000Y-13834600D01*
X19411000Y-13862000D02*
X19461000Y-13912000D01*
X19461000Y-13862000D02*
X19411000Y-13912000D01*
X19411000Y-13937000D02*
X19461000Y-13987000D01*
X19461000Y-13937000D02*
X19411000Y-13987000D01*
X19411000Y-14012000D02*
X19461000Y-14062000D01*
X19461000Y-14012000D02*
X19411000Y-14062000D01*
X19411000Y-14088200D02*
X19461000Y-14138200D01*
X19461000Y-14088200D02*
X19411000Y-14138200D01*
X19711000Y-5104600D02*
X19761000Y-5154600D01*
X19761000Y-5104600D02*
X19711000Y-5154600D01*
X19711000Y-5182000D02*
X19761000Y-5232000D01*
X19761000Y-5182000D02*
X19711000Y-5232000D01*
X19711000Y-5257000D02*
X19761000Y-5307000D01*
X19761000Y-5257000D02*
X19711000Y-5307000D01*
X19711000Y-5333200D02*
X19761000Y-5383200D01*
X19761000Y-5333200D02*
X19711000Y-5383200D01*
X19711000Y-5408200D02*
X19761000Y-5458200D01*
X19761000Y-5408200D02*
X19711000Y-5458200D01*
X19711000Y-6840600D02*
X19761000Y-6890600D01*
X19761000Y-6840600D02*
X19711000Y-6890600D01*
X19711000Y-6918000D02*
X19761000Y-6968000D01*
X19761000Y-6918000D02*
X19711000Y-6968000D01*
X19711000Y-6993000D02*
X19761000Y-7043000D01*
X19761000Y-6993000D02*
X19711000Y-7043000D01*
X19711000Y-7069200D02*
X19761000Y-7119200D01*
X19761000Y-7069200D02*
X19711000Y-7119200D01*
X19711000Y-7144200D02*
X19761000Y-7194200D01*
X19761000Y-7144200D02*
X19711000Y-7194200D01*
X19711000Y-8576600D02*
X19761000Y-8626600D01*
X19761000Y-8576600D02*
X19711000Y-8626600D01*
X19711000Y-8654000D02*
X19761000Y-8704000D01*
X19761000Y-8654000D02*
X19711000Y-8704000D01*
X19711000Y-8729000D02*
X19761000Y-8779000D01*
X19761000Y-8729000D02*
X19711000Y-8779000D01*
X19711000Y-8805200D02*
X19761000Y-8855200D01*
X19761000Y-8805200D02*
X19711000Y-8855200D01*
X19711000Y-8880200D02*
X19761000Y-8930200D01*
X19761000Y-8880200D02*
X19711000Y-8930200D01*
X19711000Y-10312600D02*
X19761000Y-10362600D01*
X19761000Y-10312600D02*
X19711000Y-10362600D01*
X19711000Y-10390000D02*
X19761000Y-10440000D01*
X19761000Y-10390000D02*
X19711000Y-10440000D01*
X19711000Y-10465000D02*
X19761000Y-10515000D01*
X19761000Y-10465000D02*
X19711000Y-10515000D01*
X19711000Y-10541200D02*
X19761000Y-10591200D01*
X19761000Y-10541200D02*
X19711000Y-10591200D01*
X19711000Y-10616200D02*
X19761000Y-10666200D01*
X19761000Y-10616200D02*
X19711000Y-10666200D01*
X19711000Y-12048600D02*
X19761000Y-12098600D01*
X19761000Y-12048600D02*
X19711000Y-12098600D01*
X19711000Y-12126000D02*
X19761000Y-12176000D01*
X19761000Y-12126000D02*
X19711000Y-12176000D01*
X19711000Y-12201000D02*
X19761000Y-12251000D01*
X19761000Y-12201000D02*
X19711000Y-12251000D01*
X19711000Y-12277200D02*
X19761000Y-12327200D01*
X19761000Y-12277200D02*
X19711000Y-12327200D01*
X19711000Y-12352200D02*
X19761000Y-12402200D01*
X19761000Y-12352200D02*
X19711000Y-12402200D01*
X19711000Y-13784600D02*
X19761000Y-13834600D01*
X19761000Y-13784600D02*
X19711000Y-13834600D01*
X19711000Y-13862000D02*
X19761000Y-13912000D01*
X19761000Y-13862000D02*
X19711000Y-13912000D01*
X19711000Y-13937000D02*
X19761000Y-13987000D01*
X19761000Y-13937000D02*
X19711000Y-13987000D01*
X19711000Y-14013200D02*
X19761000Y-14063200D01*
X19761000Y-14013200D02*
X19711000Y-14063200D01*
X19711000Y-14088200D02*
X19761000Y-14138200D01*
X19761000Y-14088200D02*
X19711000Y-14138200D01*
X21251800Y-4239000D02*
X21301800Y-4289000D01*
X21301800Y-4239000D02*
X21251800Y-4289000D01*
X21251800Y-4539000D02*
X21301800Y-4589000D01*
X21301800Y-4539000D02*
X21251800Y-4589000D01*
X21251800Y-5975000D02*
X21301800Y-6025000D01*
X21301800Y-5975000D02*
X21251800Y-6025000D01*
X21251800Y-6275000D02*
X21301800Y-6325000D01*
X21301800Y-6275000D02*
X21251800Y-6325000D01*
X21251800Y-7711000D02*
X21301800Y-7761000D01*
X21301800Y-7711000D02*
X21251800Y-7761000D01*
X21251800Y-8011000D02*
X21301800Y-8061000D01*
X21301800Y-8011000D02*
X21251800Y-8061000D01*
X21251800Y-9447000D02*
X21301800Y-9497000D01*
X21301800Y-9447000D02*
X21251800Y-9497000D01*
X21251800Y-9747000D02*
X21301800Y-9797000D01*
X21301800Y-9747000D02*
X21251800Y-9797000D01*
X21251800Y-11183000D02*
X21301800Y-11233000D01*
X21301800Y-11183000D02*
X21251800Y-11233000D01*
X21251800Y-11483000D02*
X21301800Y-11533000D01*
X21301800Y-11483000D02*
X21251800Y-11533000D01*
X21251800Y-12919000D02*
X21301800Y-12969000D01*
X21301800Y-12919000D02*
X21251800Y-12969000D01*
X21251800Y-13219000D02*
X21301800Y-13269000D01*
X21301800Y-13219000D02*
X21251800Y-13269000D01*
X21251800Y-14655000D02*
X21301800Y-14705000D01*
X21301800Y-14655000D02*
X21251800Y-14705000D01*
X21251800Y-14955000D02*
X21301800Y-15005000D01*
X21301800Y-14955000D02*
X21251800Y-15005000D01*
X21326800Y-4539000D02*
X21376800Y-4589000D01*
X21376800Y-4539000D02*
X21326800Y-4589000D01*
X21326800Y-6275000D02*
X21376800Y-6325000D01*
X21376800Y-6275000D02*
X21326800Y-6325000D01*
X21326800Y-8011000D02*
X21376800Y-8061000D01*
X21376800Y-8011000D02*
X21326800Y-8061000D01*
X21326800Y-9747000D02*
X21376800Y-9797000D01*
X21376800Y-9747000D02*
X21326800Y-9797000D01*
X21326800Y-11483000D02*
X21376800Y-11533000D01*
X21376800Y-11483000D02*
X21326800Y-11533000D01*
X21326800Y-13219000D02*
X21376800Y-13269000D01*
X21376800Y-13219000D02*
X21326800Y-13269000D01*
X21326800Y-14955000D02*
X21376800Y-15005000D01*
X21376800Y-14955000D02*
X21326800Y-15005000D01*
X21328000Y-4239000D02*
X21378000Y-4289000D01*
X21378000Y-4239000D02*
X21328000Y-4289000D01*
X21328000Y-5975000D02*
X21378000Y-6025000D01*
X21378000Y-5975000D02*
X21328000Y-6025000D01*
X21328000Y-7711000D02*
X21378000Y-7761000D01*
X21378000Y-7711000D02*
X21328000Y-7761000D01*
X21328000Y-9447000D02*
X21378000Y-9497000D01*
X21378000Y-9447000D02*
X21328000Y-9497000D01*
X21328000Y-11183000D02*
X21378000Y-11233000D01*
X21378000Y-11183000D02*
X21328000Y-11233000D01*
X21328000Y-12919000D02*
X21378000Y-12969000D01*
X21378000Y-12919000D02*
X21328000Y-12969000D01*
X21328000Y-14655000D02*
X21378000Y-14705000D01*
X21378000Y-14655000D02*
X21328000Y-14705000D01*
X21403000Y-4239000D02*
X21453000Y-4289000D01*
X21453000Y-4239000D02*
X21403000Y-4289000D01*
X21403000Y-4539000D02*
X21453000Y-4589000D01*
X21453000Y-4539000D02*
X21403000Y-4589000D01*
X21403000Y-5975000D02*
X21453000Y-6025000D01*
X21453000Y-5975000D02*
X21403000Y-6025000D01*
X21403000Y-6275000D02*
X21453000Y-6325000D01*
X21453000Y-6275000D02*
X21403000Y-6325000D01*
X21403000Y-7711000D02*
X21453000Y-7761000D01*
X21453000Y-7711000D02*
X21403000Y-7761000D01*
X21403000Y-8011000D02*
X21453000Y-8061000D01*
X21453000Y-8011000D02*
X21403000Y-8061000D01*
X21403000Y-9447000D02*
X21453000Y-9497000D01*
X21453000Y-9447000D02*
X21403000Y-9497000D01*
X21403000Y-9747000D02*
X21453000Y-9797000D01*
X21453000Y-9747000D02*
X21403000Y-9797000D01*
X21403000Y-11183000D02*
X21453000Y-11233000D01*
X21453000Y-11183000D02*
X21403000Y-11233000D01*
X21403000Y-11483000D02*
X21453000Y-11533000D01*
X21453000Y-11483000D02*
X21403000Y-11533000D01*
X21403000Y-12919000D02*
X21453000Y-12969000D01*
X21453000Y-12919000D02*
X21403000Y-12969000D01*
X21403000Y-13219000D02*
X21453000Y-13269000D01*
X21453000Y-13219000D02*
X21403000Y-13269000D01*
X21403000Y-14655000D02*
X21453000Y-14705000D01*
X21453000Y-14655000D02*
X21403000Y-14705000D01*
X21403000Y-14955000D02*
X21453000Y-15005000D01*
X21453000Y-14955000D02*
X21403000Y-15005000D01*
X21478000Y-4239000D02*
X21528000Y-4289000D01*
X21528000Y-4239000D02*
X21478000Y-4289000D01*
X21478000Y-4539000D02*
X21528000Y-4589000D01*
X21528000Y-4539000D02*
X21478000Y-4589000D01*
X21478000Y-5975000D02*
X21528000Y-6025000D01*
X21528000Y-5975000D02*
X21478000Y-6025000D01*
X21478000Y-6275000D02*
X21528000Y-6325000D01*
X21528000Y-6275000D02*
X21478000Y-6325000D01*
X21478000Y-7711000D02*
X21528000Y-7761000D01*
X21528000Y-7711000D02*
X21478000Y-7761000D01*
X21478000Y-8011000D02*
X21528000Y-8061000D01*
X21528000Y-8011000D02*
X21478000Y-8061000D01*
X21478000Y-9447000D02*
X21528000Y-9497000D01*
X21528000Y-9447000D02*
X21478000Y-9497000D01*
X21478000Y-9747000D02*
X21528000Y-9797000D01*
X21528000Y-9747000D02*
X21478000Y-9797000D01*
X21478000Y-11183000D02*
X21528000Y-11233000D01*
X21528000Y-11183000D02*
X21478000Y-11233000D01*
X21478000Y-11483000D02*
X21528000Y-11533000D01*
X21528000Y-11483000D02*
X21478000Y-11533000D01*
X21478000Y-12919000D02*
X21528000Y-12969000D01*
X21528000Y-12919000D02*
X21478000Y-12969000D01*
X21478000Y-13219000D02*
X21528000Y-13269000D01*
X21528000Y-13219000D02*
X21478000Y-13269000D01*
X21478000Y-14655000D02*
X21528000Y-14705000D01*
X21528000Y-14655000D02*
X21478000Y-14705000D01*
X21478000Y-14955000D02*
X21528000Y-15005000D01*
X21528000Y-14955000D02*
X21478000Y-15005000D01*
X21555400Y-4239000D02*
X21605400Y-4289000D01*
X21605400Y-4239000D02*
X21555400Y-4289000D01*
X21555400Y-4539000D02*
X21605400Y-4589000D01*
X21605400Y-4539000D02*
X21555400Y-4589000D01*
X21555400Y-5975000D02*
X21605400Y-6025000D01*
X21605400Y-5975000D02*
X21555400Y-6025000D01*
X21555400Y-6275000D02*
X21605400Y-6325000D01*
X21605400Y-6275000D02*
X21555400Y-6325000D01*
X21555400Y-7711000D02*
X21605400Y-7761000D01*
X21605400Y-7711000D02*
X21555400Y-7761000D01*
X21555400Y-8011000D02*
X21605400Y-8061000D01*
X21605400Y-8011000D02*
X21555400Y-8061000D01*
X21555400Y-9447000D02*
X21605400Y-9497000D01*
X21605400Y-9447000D02*
X21555400Y-9497000D01*
X21555400Y-9747000D02*
X21605400Y-9797000D01*
X21605400Y-9747000D02*
X21555400Y-9797000D01*
X21555400Y-11183000D02*
X21605400Y-11233000D01*
X21605400Y-11183000D02*
X21555400Y-11233000D01*
X21555400Y-11483000D02*
X21605400Y-11533000D01*
X21605400Y-11483000D02*
X21555400Y-11533000D01*
X21555400Y-12919000D02*
X21605400Y-12969000D01*
X21605400Y-12919000D02*
X21555400Y-12969000D01*
X21555400Y-13219000D02*
X21605400Y-13269000D01*
X21605400Y-13219000D02*
X21555400Y-13269000D01*
X21555400Y-14655000D02*
X21605400Y-14705000D01*
X21605400Y-14655000D02*
X21555400Y-14705000D01*
X21555400Y-14955000D02*
X21605400Y-15005000D01*
X21605400Y-14955000D02*
X21555400Y-15005000D01*
D12*
X5258277Y-16093984D02*
X5258277Y-15893984D01*
X5258277Y-15893984D02*
X5305896Y-15893984D01*
X5305896Y-15893984D02*
X5334467Y-15903508D01*
X5334467Y-15903508D02*
X5353515Y-15922555D01*
X5353515Y-15922555D02*
X5363039Y-15941603D01*
X5363039Y-15941603D02*
X5372563Y-15979698D01*
X5372563Y-15979698D02*
X5372563Y-16008269D01*
X5372563Y-16008269D02*
X5363039Y-16046365D01*
X5363039Y-16046365D02*
X5353515Y-16065412D01*
X5353515Y-16065412D02*
X5334467Y-16084460D01*
X5334467Y-16084460D02*
X5305896Y-16093984D01*
X5305896Y-16093984D02*
X5258277Y-16093984D01*
X5458277Y-16093984D02*
X5458277Y-15960650D01*
X5458277Y-15998746D02*
X5467801Y-15979698D01*
X5467801Y-15979698D02*
X5477324Y-15970174D01*
X5477324Y-15970174D02*
X5496372Y-15960650D01*
X5496372Y-15960650D02*
X5515420Y-15960650D01*
X5582086Y-16093984D02*
X5582086Y-15960650D01*
X5582086Y-15893984D02*
X5572563Y-15903508D01*
X5572563Y-15903508D02*
X5582086Y-15913031D01*
X5582086Y-15913031D02*
X5591610Y-15903508D01*
X5591610Y-15903508D02*
X5582086Y-15893984D01*
X5582086Y-15893984D02*
X5582086Y-15913031D01*
X5705896Y-16093984D02*
X5686848Y-16084460D01*
X5686848Y-16084460D02*
X5677324Y-16065412D01*
X5677324Y-16065412D02*
X5677324Y-15893984D01*
X5810658Y-16093984D02*
X5791610Y-16084460D01*
X5791610Y-16084460D02*
X5782086Y-16065412D01*
X5782086Y-16065412D02*
X5782086Y-15893984D01*
X6039229Y-16093984D02*
X6039229Y-15893984D01*
X6039229Y-15893984D02*
X6105896Y-16036841D01*
X6105896Y-16036841D02*
X6172562Y-15893984D01*
X6172562Y-15893984D02*
X6172562Y-16093984D01*
X6353515Y-16093984D02*
X6353515Y-15989222D01*
X6353515Y-15989222D02*
X6343991Y-15970174D01*
X6343991Y-15970174D02*
X6324943Y-15960650D01*
X6324943Y-15960650D02*
X6286848Y-15960650D01*
X6286848Y-15960650D02*
X6267801Y-15970174D01*
X6353515Y-16084460D02*
X6334467Y-16093984D01*
X6334467Y-16093984D02*
X6286848Y-16093984D01*
X6286848Y-16093984D02*
X6267801Y-16084460D01*
X6267801Y-16084460D02*
X6258277Y-16065412D01*
X6258277Y-16065412D02*
X6258277Y-16046365D01*
X6258277Y-16046365D02*
X6267801Y-16027317D01*
X6267801Y-16027317D02*
X6286848Y-16017793D01*
X6286848Y-16017793D02*
X6334467Y-16017793D01*
X6334467Y-16017793D02*
X6353515Y-16008269D01*
X6448753Y-15960650D02*
X6448753Y-16160650D01*
X6448753Y-15970174D02*
X6467801Y-15960650D01*
X6467801Y-15960650D02*
X6505896Y-15960650D01*
X6505896Y-15960650D02*
X6524943Y-15970174D01*
X6524943Y-15970174D02*
X6534467Y-15979698D01*
X6534467Y-15979698D02*
X6543991Y-15998746D01*
X6543991Y-15998746D02*
X6543991Y-16055888D01*
X6543991Y-16055888D02*
X6534467Y-16074936D01*
X6534467Y-16074936D02*
X6524943Y-16084460D01*
X6524943Y-16084460D02*
X6505896Y-16093984D01*
X6505896Y-16093984D02*
X6467801Y-16093984D01*
X6467801Y-16093984D02*
X6448753Y-16084460D01*
X6629705Y-16074936D02*
X6639229Y-16084460D01*
X6639229Y-16084460D02*
X6629705Y-16093984D01*
X6629705Y-16093984D02*
X6620182Y-16084460D01*
X6620182Y-16084460D02*
X6629705Y-16074936D01*
X6629705Y-16074936D02*
X6629705Y-16093984D01*
X6629705Y-15970174D02*
X6639229Y-15979698D01*
X6639229Y-15979698D02*
X6629705Y-15989222D01*
X6629705Y-15989222D02*
X6620182Y-15979698D01*
X6620182Y-15979698D02*
X6629705Y-15970174D01*
X6629705Y-15970174D02*
X6629705Y-15989222D01*
D11*
X4947500Y-16397500D02*
X4997500Y-16447500D01*
X4997500Y-16397500D02*
X4947500Y-16447500D01*
D12*
X5296372Y-16313984D02*
X5315420Y-16313984D01*
X5315420Y-16313984D02*
X5334467Y-16323508D01*
X5334467Y-16323508D02*
X5343991Y-16333031D01*
X5343991Y-16333031D02*
X5353515Y-16352079D01*
X5353515Y-16352079D02*
X5363039Y-16390174D01*
X5363039Y-16390174D02*
X5363039Y-16437793D01*
X5363039Y-16437793D02*
X5353515Y-16475888D01*
X5353515Y-16475888D02*
X5343991Y-16494936D01*
X5343991Y-16494936D02*
X5334467Y-16504460D01*
X5334467Y-16504460D02*
X5315420Y-16513984D01*
X5315420Y-16513984D02*
X5296372Y-16513984D01*
X5296372Y-16513984D02*
X5277324Y-16504460D01*
X5277324Y-16504460D02*
X5267801Y-16494936D01*
X5267801Y-16494936D02*
X5258277Y-16475888D01*
X5258277Y-16475888D02*
X5248753Y-16437793D01*
X5248753Y-16437793D02*
X5248753Y-16390174D01*
X5248753Y-16390174D02*
X5258277Y-16352079D01*
X5258277Y-16352079D02*
X5267801Y-16333031D01*
X5267801Y-16333031D02*
X5277324Y-16323508D01*
X5277324Y-16323508D02*
X5296372Y-16313984D01*
X5448753Y-16494936D02*
X5458277Y-16504460D01*
X5458277Y-16504460D02*
X5448753Y-16513984D01*
X5448753Y-16513984D02*
X5439229Y-16504460D01*
X5439229Y-16504460D02*
X5448753Y-16494936D01*
X5448753Y-16494936D02*
X5448753Y-16513984D01*
X5639229Y-16313984D02*
X5543991Y-16313984D01*
X5543991Y-16313984D02*
X5534467Y-16409222D01*
X5534467Y-16409222D02*
X5543991Y-16399698D01*
X5543991Y-16399698D02*
X5563039Y-16390174D01*
X5563039Y-16390174D02*
X5610658Y-16390174D01*
X5610658Y-16390174D02*
X5629705Y-16399698D01*
X5629705Y-16399698D02*
X5639229Y-16409222D01*
X5639229Y-16409222D02*
X5648753Y-16428269D01*
X5648753Y-16428269D02*
X5648753Y-16475888D01*
X5648753Y-16475888D02*
X5639229Y-16494936D01*
X5639229Y-16494936D02*
X5629705Y-16504460D01*
X5629705Y-16504460D02*
X5610658Y-16513984D01*
X5610658Y-16513984D02*
X5563039Y-16513984D01*
X5563039Y-16513984D02*
X5543991Y-16504460D01*
X5543991Y-16504460D02*
X5534467Y-16494936D01*
X5772562Y-16313984D02*
X5791610Y-16313984D01*
X5791610Y-16313984D02*
X5810658Y-16323508D01*
X5810658Y-16323508D02*
X5820182Y-16333031D01*
X5820182Y-16333031D02*
X5829705Y-16352079D01*
X5829705Y-16352079D02*
X5839229Y-16390174D01*
X5839229Y-16390174D02*
X5839229Y-16437793D01*
X5839229Y-16437793D02*
X5829705Y-16475888D01*
X5829705Y-16475888D02*
X5820182Y-16494936D01*
X5820182Y-16494936D02*
X5810658Y-16504460D01*
X5810658Y-16504460D02*
X5791610Y-16513984D01*
X5791610Y-16513984D02*
X5772562Y-16513984D01*
X5772562Y-16513984D02*
X5753515Y-16504460D01*
X5753515Y-16504460D02*
X5743991Y-16494936D01*
X5743991Y-16494936D02*
X5734467Y-16475888D01*
X5734467Y-16475888D02*
X5724943Y-16437793D01*
X5724943Y-16437793D02*
X5724943Y-16390174D01*
X5724943Y-16390174D02*
X5734467Y-16352079D01*
X5734467Y-16352079D02*
X5743991Y-16333031D01*
X5743991Y-16333031D02*
X5753515Y-16323508D01*
X5753515Y-16323508D02*
X5772562Y-16313984D01*
X5963039Y-16313984D02*
X5982086Y-16313984D01*
X5982086Y-16313984D02*
X6001134Y-16323508D01*
X6001134Y-16323508D02*
X6010658Y-16333031D01*
X6010658Y-16333031D02*
X6020182Y-16352079D01*
X6020182Y-16352079D02*
X6029705Y-16390174D01*
X6029705Y-16390174D02*
X6029705Y-16437793D01*
X6029705Y-16437793D02*
X6020182Y-16475888D01*
X6020182Y-16475888D02*
X6010658Y-16494936D01*
X6010658Y-16494936D02*
X6001134Y-16504460D01*
X6001134Y-16504460D02*
X5982086Y-16513984D01*
X5982086Y-16513984D02*
X5963039Y-16513984D01*
X5963039Y-16513984D02*
X5943991Y-16504460D01*
X5943991Y-16504460D02*
X5934467Y-16494936D01*
X5934467Y-16494936D02*
X5924943Y-16475888D01*
X5924943Y-16475888D02*
X5915420Y-16437793D01*
X5915420Y-16437793D02*
X5915420Y-16390174D01*
X5915420Y-16390174D02*
X5924943Y-16352079D01*
X5924943Y-16352079D02*
X5934467Y-16333031D01*
X5934467Y-16333031D02*
X5943991Y-16323508D01*
X5943991Y-16323508D02*
X5963039Y-16313984D01*
X6115420Y-16513984D02*
X6115420Y-16380650D01*
X6115420Y-16399698D02*
X6124943Y-16390174D01*
X6124943Y-16390174D02*
X6143991Y-16380650D01*
X6143991Y-16380650D02*
X6172563Y-16380650D01*
X6172563Y-16380650D02*
X6191610Y-16390174D01*
X6191610Y-16390174D02*
X6201134Y-16409222D01*
X6201134Y-16409222D02*
X6201134Y-16513984D01*
X6201134Y-16409222D02*
X6210658Y-16390174D01*
X6210658Y-16390174D02*
X6229705Y-16380650D01*
X6229705Y-16380650D02*
X6258277Y-16380650D01*
X6258277Y-16380650D02*
X6277324Y-16390174D01*
X6277324Y-16390174D02*
X6286848Y-16409222D01*
X6286848Y-16409222D02*
X6286848Y-16513984D01*
X6382086Y-16513984D02*
X6382086Y-16380650D01*
X6382086Y-16399698D02*
X6391610Y-16390174D01*
X6391610Y-16390174D02*
X6410658Y-16380650D01*
X6410658Y-16380650D02*
X6439229Y-16380650D01*
X6439229Y-16380650D02*
X6458277Y-16390174D01*
X6458277Y-16390174D02*
X6467801Y-16409222D01*
X6467801Y-16409222D02*
X6467801Y-16513984D01*
X6467801Y-16409222D02*
X6477324Y-16390174D01*
X6477324Y-16390174D02*
X6496372Y-16380650D01*
X6496372Y-16380650D02*
X6524943Y-16380650D01*
X6524943Y-16380650D02*
X6543991Y-16390174D01*
X6543991Y-16390174D02*
X6553515Y-16409222D01*
X6553515Y-16409222D02*
X6553515Y-16513984D01*
X6943991Y-16304460D02*
X6772563Y-16561603D01*
X7201134Y-16313984D02*
X7220182Y-16313984D01*
X7220182Y-16313984D02*
X7239229Y-16323508D01*
X7239229Y-16323508D02*
X7248753Y-16333031D01*
X7248753Y-16333031D02*
X7258277Y-16352079D01*
X7258277Y-16352079D02*
X7267801Y-16390174D01*
X7267801Y-16390174D02*
X7267801Y-16437793D01*
X7267801Y-16437793D02*
X7258277Y-16475888D01*
X7258277Y-16475888D02*
X7248753Y-16494936D01*
X7248753Y-16494936D02*
X7239229Y-16504460D01*
X7239229Y-16504460D02*
X7220182Y-16513984D01*
X7220182Y-16513984D02*
X7201134Y-16513984D01*
X7201134Y-16513984D02*
X7182086Y-16504460D01*
X7182086Y-16504460D02*
X7172563Y-16494936D01*
X7172563Y-16494936D02*
X7163039Y-16475888D01*
X7163039Y-16475888D02*
X7153515Y-16437793D01*
X7153515Y-16437793D02*
X7153515Y-16390174D01*
X7153515Y-16390174D02*
X7163039Y-16352079D01*
X7163039Y-16352079D02*
X7172563Y-16333031D01*
X7172563Y-16333031D02*
X7182086Y-16323508D01*
X7182086Y-16323508D02*
X7201134Y-16313984D01*
X7353515Y-16494936D02*
X7363039Y-16504460D01*
X7363039Y-16504460D02*
X7353515Y-16513984D01*
X7353515Y-16513984D02*
X7343991Y-16504460D01*
X7343991Y-16504460D02*
X7353515Y-16494936D01*
X7353515Y-16494936D02*
X7353515Y-16513984D01*
X7486848Y-16313984D02*
X7505896Y-16313984D01*
X7505896Y-16313984D02*
X7524944Y-16323508D01*
X7524944Y-16323508D02*
X7534467Y-16333031D01*
X7534467Y-16333031D02*
X7543991Y-16352079D01*
X7543991Y-16352079D02*
X7553515Y-16390174D01*
X7553515Y-16390174D02*
X7553515Y-16437793D01*
X7553515Y-16437793D02*
X7543991Y-16475888D01*
X7543991Y-16475888D02*
X7534467Y-16494936D01*
X7534467Y-16494936D02*
X7524944Y-16504460D01*
X7524944Y-16504460D02*
X7505896Y-16513984D01*
X7505896Y-16513984D02*
X7486848Y-16513984D01*
X7486848Y-16513984D02*
X7467801Y-16504460D01*
X7467801Y-16504460D02*
X7458277Y-16494936D01*
X7458277Y-16494936D02*
X7448753Y-16475888D01*
X7448753Y-16475888D02*
X7439229Y-16437793D01*
X7439229Y-16437793D02*
X7439229Y-16390174D01*
X7439229Y-16390174D02*
X7448753Y-16352079D01*
X7448753Y-16352079D02*
X7458277Y-16333031D01*
X7458277Y-16333031D02*
X7467801Y-16323508D01*
X7467801Y-16323508D02*
X7486848Y-16313984D01*
X7743991Y-16513984D02*
X7629706Y-16513984D01*
X7686848Y-16513984D02*
X7686848Y-16313984D01*
X7686848Y-16313984D02*
X7667801Y-16342555D01*
X7667801Y-16342555D02*
X7648753Y-16361603D01*
X7648753Y-16361603D02*
X7629706Y-16371127D01*
X7839229Y-16513984D02*
X7877325Y-16513984D01*
X7877325Y-16513984D02*
X7896372Y-16504460D01*
X7896372Y-16504460D02*
X7905896Y-16494936D01*
X7905896Y-16494936D02*
X7924944Y-16466365D01*
X7924944Y-16466365D02*
X7934467Y-16428269D01*
X7934467Y-16428269D02*
X7934467Y-16352079D01*
X7934467Y-16352079D02*
X7924944Y-16333031D01*
X7924944Y-16333031D02*
X7915420Y-16323508D01*
X7915420Y-16323508D02*
X7896372Y-16313984D01*
X7896372Y-16313984D02*
X7858277Y-16313984D01*
X7858277Y-16313984D02*
X7839229Y-16323508D01*
X7839229Y-16323508D02*
X7829706Y-16333031D01*
X7829706Y-16333031D02*
X7820182Y-16352079D01*
X7820182Y-16352079D02*
X7820182Y-16399698D01*
X7820182Y-16399698D02*
X7829706Y-16418746D01*
X7829706Y-16418746D02*
X7839229Y-16428269D01*
X7839229Y-16428269D02*
X7858277Y-16437793D01*
X7858277Y-16437793D02*
X7896372Y-16437793D01*
X7896372Y-16437793D02*
X7915420Y-16428269D01*
X7915420Y-16428269D02*
X7924944Y-16418746D01*
X7924944Y-16418746D02*
X7934467Y-16399698D01*
X8001134Y-16313984D02*
X8134467Y-16313984D01*
X8134467Y-16313984D02*
X8048753Y-16513984D01*
X8201134Y-16313984D02*
X8201134Y-16352079D01*
X8277325Y-16313984D02*
X8277325Y-16352079D01*
X8572563Y-16590174D02*
X8563039Y-16580650D01*
X8563039Y-16580650D02*
X8543991Y-16552079D01*
X8543991Y-16552079D02*
X8534468Y-16533031D01*
X8534468Y-16533031D02*
X8524944Y-16504460D01*
X8524944Y-16504460D02*
X8515420Y-16456841D01*
X8515420Y-16456841D02*
X8515420Y-16418746D01*
X8515420Y-16418746D02*
X8524944Y-16371127D01*
X8524944Y-16371127D02*
X8534468Y-16342555D01*
X8534468Y-16342555D02*
X8543991Y-16323508D01*
X8543991Y-16323508D02*
X8563039Y-16294936D01*
X8563039Y-16294936D02*
X8572563Y-16285412D01*
X8743991Y-16313984D02*
X8648753Y-16313984D01*
X8648753Y-16313984D02*
X8639230Y-16409222D01*
X8639230Y-16409222D02*
X8648753Y-16399698D01*
X8648753Y-16399698D02*
X8667801Y-16390174D01*
X8667801Y-16390174D02*
X8715420Y-16390174D01*
X8715420Y-16390174D02*
X8734468Y-16399698D01*
X8734468Y-16399698D02*
X8743991Y-16409222D01*
X8743991Y-16409222D02*
X8753515Y-16428269D01*
X8753515Y-16428269D02*
X8753515Y-16475888D01*
X8753515Y-16475888D02*
X8743991Y-16494936D01*
X8743991Y-16494936D02*
X8734468Y-16504460D01*
X8734468Y-16504460D02*
X8715420Y-16513984D01*
X8715420Y-16513984D02*
X8667801Y-16513984D01*
X8667801Y-16513984D02*
X8648753Y-16504460D01*
X8648753Y-16504460D02*
X8639230Y-16494936D01*
X8848753Y-16513984D02*
X8886849Y-16513984D01*
X8886849Y-16513984D02*
X8905896Y-16504460D01*
X8905896Y-16504460D02*
X8915420Y-16494936D01*
X8915420Y-16494936D02*
X8934468Y-16466365D01*
X8934468Y-16466365D02*
X8943991Y-16428269D01*
X8943991Y-16428269D02*
X8943991Y-16352079D01*
X8943991Y-16352079D02*
X8934468Y-16333031D01*
X8934468Y-16333031D02*
X8924944Y-16323508D01*
X8924944Y-16323508D02*
X8905896Y-16313984D01*
X8905896Y-16313984D02*
X8867801Y-16313984D01*
X8867801Y-16313984D02*
X8848753Y-16323508D01*
X8848753Y-16323508D02*
X8839230Y-16333031D01*
X8839230Y-16333031D02*
X8829706Y-16352079D01*
X8829706Y-16352079D02*
X8829706Y-16399698D01*
X8829706Y-16399698D02*
X8839230Y-16418746D01*
X8839230Y-16418746D02*
X8848753Y-16428269D01*
X8848753Y-16428269D02*
X8867801Y-16437793D01*
X8867801Y-16437793D02*
X8905896Y-16437793D01*
X8905896Y-16437793D02*
X8924944Y-16428269D01*
X8924944Y-16428269D02*
X8934468Y-16418746D01*
X8934468Y-16418746D02*
X8943991Y-16399698D01*
X9067801Y-16313984D02*
X9086849Y-16313984D01*
X9086849Y-16313984D02*
X9105896Y-16323508D01*
X9105896Y-16323508D02*
X9115420Y-16333031D01*
X9115420Y-16333031D02*
X9124944Y-16352079D01*
X9124944Y-16352079D02*
X9134468Y-16390174D01*
X9134468Y-16390174D02*
X9134468Y-16437793D01*
X9134468Y-16437793D02*
X9124944Y-16475888D01*
X9124944Y-16475888D02*
X9115420Y-16494936D01*
X9115420Y-16494936D02*
X9105896Y-16504460D01*
X9105896Y-16504460D02*
X9086849Y-16513984D01*
X9086849Y-16513984D02*
X9067801Y-16513984D01*
X9067801Y-16513984D02*
X9048753Y-16504460D01*
X9048753Y-16504460D02*
X9039230Y-16494936D01*
X9039230Y-16494936D02*
X9029706Y-16475888D01*
X9029706Y-16475888D02*
X9020182Y-16437793D01*
X9020182Y-16437793D02*
X9020182Y-16390174D01*
X9020182Y-16390174D02*
X9029706Y-16352079D01*
X9029706Y-16352079D02*
X9039230Y-16333031D01*
X9039230Y-16333031D02*
X9048753Y-16323508D01*
X9048753Y-16323508D02*
X9067801Y-16313984D01*
X9372563Y-16513984D02*
X9372563Y-16313984D01*
X9458277Y-16513984D02*
X9458277Y-16409222D01*
X9458277Y-16409222D02*
X9448753Y-16390174D01*
X9448753Y-16390174D02*
X9429706Y-16380650D01*
X9429706Y-16380650D02*
X9401134Y-16380650D01*
X9401134Y-16380650D02*
X9382087Y-16390174D01*
X9382087Y-16390174D02*
X9372563Y-16399698D01*
X9582087Y-16513984D02*
X9563039Y-16504460D01*
X9563039Y-16504460D02*
X9553515Y-16494936D01*
X9553515Y-16494936D02*
X9543992Y-16475888D01*
X9543992Y-16475888D02*
X9543992Y-16418746D01*
X9543992Y-16418746D02*
X9553515Y-16399698D01*
X9553515Y-16399698D02*
X9563039Y-16390174D01*
X9563039Y-16390174D02*
X9582087Y-16380650D01*
X9582087Y-16380650D02*
X9610658Y-16380650D01*
X9610658Y-16380650D02*
X9629706Y-16390174D01*
X9629706Y-16390174D02*
X9639230Y-16399698D01*
X9639230Y-16399698D02*
X9648753Y-16418746D01*
X9648753Y-16418746D02*
X9648753Y-16475888D01*
X9648753Y-16475888D02*
X9639230Y-16494936D01*
X9639230Y-16494936D02*
X9629706Y-16504460D01*
X9629706Y-16504460D02*
X9610658Y-16513984D01*
X9610658Y-16513984D02*
X9582087Y-16513984D01*
X9763039Y-16513984D02*
X9743992Y-16504460D01*
X9743992Y-16504460D02*
X9734468Y-16485412D01*
X9734468Y-16485412D02*
X9734468Y-16313984D01*
X9915420Y-16504460D02*
X9896373Y-16513984D01*
X9896373Y-16513984D02*
X9858277Y-16513984D01*
X9858277Y-16513984D02*
X9839230Y-16504460D01*
X9839230Y-16504460D02*
X9829706Y-16485412D01*
X9829706Y-16485412D02*
X9829706Y-16409222D01*
X9829706Y-16409222D02*
X9839230Y-16390174D01*
X9839230Y-16390174D02*
X9858277Y-16380650D01*
X9858277Y-16380650D02*
X9896373Y-16380650D01*
X9896373Y-16380650D02*
X9915420Y-16390174D01*
X9915420Y-16390174D02*
X9924944Y-16409222D01*
X9924944Y-16409222D02*
X9924944Y-16428269D01*
X9924944Y-16428269D02*
X9829706Y-16447317D01*
X10001134Y-16504460D02*
X10020182Y-16513984D01*
X10020182Y-16513984D02*
X10058277Y-16513984D01*
X10058277Y-16513984D02*
X10077325Y-16504460D01*
X10077325Y-16504460D02*
X10086849Y-16485412D01*
X10086849Y-16485412D02*
X10086849Y-16475888D01*
X10086849Y-16475888D02*
X10077325Y-16456841D01*
X10077325Y-16456841D02*
X10058277Y-16447317D01*
X10058277Y-16447317D02*
X10029706Y-16447317D01*
X10029706Y-16447317D02*
X10010658Y-16437793D01*
X10010658Y-16437793D02*
X10001134Y-16418746D01*
X10001134Y-16418746D02*
X10001134Y-16409222D01*
X10001134Y-16409222D02*
X10010658Y-16390174D01*
X10010658Y-16390174D02*
X10029706Y-16380650D01*
X10029706Y-16380650D02*
X10058277Y-16380650D01*
X10058277Y-16380650D02*
X10077325Y-16390174D01*
X10153515Y-16590174D02*
X10163039Y-16580650D01*
X10163039Y-16580650D02*
X10182087Y-16552079D01*
X10182087Y-16552079D02*
X10191611Y-16533031D01*
X10191611Y-16533031D02*
X10201134Y-16504460D01*
X10201134Y-16504460D02*
X10210658Y-16456841D01*
X10210658Y-16456841D02*
X10210658Y-16418746D01*
X10210658Y-16418746D02*
X10201134Y-16371127D01*
X10201134Y-16371127D02*
X10191611Y-16342555D01*
X10191611Y-16342555D02*
X10182087Y-16323508D01*
X10182087Y-16323508D02*
X10163039Y-16294936D01*
X10163039Y-16294936D02*
X10153515Y-16285412D01*
X10515420Y-16590174D02*
X10505896Y-16580650D01*
X10505896Y-16580650D02*
X10486849Y-16552079D01*
X10486849Y-16552079D02*
X10477325Y-16533031D01*
X10477325Y-16533031D02*
X10467801Y-16504460D01*
X10467801Y-16504460D02*
X10458277Y-16456841D01*
X10458277Y-16456841D02*
X10458277Y-16418746D01*
X10458277Y-16418746D02*
X10467801Y-16371127D01*
X10467801Y-16371127D02*
X10477325Y-16342555D01*
X10477325Y-16342555D02*
X10486849Y-16323508D01*
X10486849Y-16323508D02*
X10505896Y-16294936D01*
X10505896Y-16294936D02*
X10515420Y-16285412D01*
X10591611Y-16380650D02*
X10591611Y-16513984D01*
X10591611Y-16399698D02*
X10601134Y-16390174D01*
X10601134Y-16390174D02*
X10620182Y-16380650D01*
X10620182Y-16380650D02*
X10648754Y-16380650D01*
X10648754Y-16380650D02*
X10667801Y-16390174D01*
X10667801Y-16390174D02*
X10677325Y-16409222D01*
X10677325Y-16409222D02*
X10677325Y-16513984D01*
X10801134Y-16513984D02*
X10782087Y-16504460D01*
X10782087Y-16504460D02*
X10772563Y-16494936D01*
X10772563Y-16494936D02*
X10763039Y-16475888D01*
X10763039Y-16475888D02*
X10763039Y-16418746D01*
X10763039Y-16418746D02*
X10772563Y-16399698D01*
X10772563Y-16399698D02*
X10782087Y-16390174D01*
X10782087Y-16390174D02*
X10801134Y-16380650D01*
X10801134Y-16380650D02*
X10829706Y-16380650D01*
X10829706Y-16380650D02*
X10848754Y-16390174D01*
X10848754Y-16390174D02*
X10858277Y-16399698D01*
X10858277Y-16399698D02*
X10867801Y-16418746D01*
X10867801Y-16418746D02*
X10867801Y-16475888D01*
X10867801Y-16475888D02*
X10858277Y-16494936D01*
X10858277Y-16494936D02*
X10848754Y-16504460D01*
X10848754Y-16504460D02*
X10829706Y-16513984D01*
X10829706Y-16513984D02*
X10801134Y-16513984D01*
X10924944Y-16380650D02*
X11001134Y-16380650D01*
X10953515Y-16313984D02*
X10953515Y-16485412D01*
X10953515Y-16485412D02*
X10963039Y-16504460D01*
X10963039Y-16504460D02*
X10982087Y-16513984D01*
X10982087Y-16513984D02*
X11001134Y-16513984D01*
X11220182Y-16380650D02*
X11220182Y-16580650D01*
X11220182Y-16390174D02*
X11239230Y-16380650D01*
X11239230Y-16380650D02*
X11277325Y-16380650D01*
X11277325Y-16380650D02*
X11296373Y-16390174D01*
X11296373Y-16390174D02*
X11305896Y-16399698D01*
X11305896Y-16399698D02*
X11315420Y-16418746D01*
X11315420Y-16418746D02*
X11315420Y-16475888D01*
X11315420Y-16475888D02*
X11305896Y-16494936D01*
X11305896Y-16494936D02*
X11296373Y-16504460D01*
X11296373Y-16504460D02*
X11277325Y-16513984D01*
X11277325Y-16513984D02*
X11239230Y-16513984D01*
X11239230Y-16513984D02*
X11220182Y-16504460D01*
X11429706Y-16513984D02*
X11410658Y-16504460D01*
X11410658Y-16504460D02*
X11401134Y-16485412D01*
X11401134Y-16485412D02*
X11401134Y-16313984D01*
X11591611Y-16513984D02*
X11591611Y-16409222D01*
X11591611Y-16409222D02*
X11582087Y-16390174D01*
X11582087Y-16390174D02*
X11563039Y-16380650D01*
X11563039Y-16380650D02*
X11524944Y-16380650D01*
X11524944Y-16380650D02*
X11505896Y-16390174D01*
X11591611Y-16504460D02*
X11572563Y-16513984D01*
X11572563Y-16513984D02*
X11524944Y-16513984D01*
X11524944Y-16513984D02*
X11505896Y-16504460D01*
X11505896Y-16504460D02*
X11496373Y-16485412D01*
X11496373Y-16485412D02*
X11496373Y-16466365D01*
X11496373Y-16466365D02*
X11505896Y-16447317D01*
X11505896Y-16447317D02*
X11524944Y-16437793D01*
X11524944Y-16437793D02*
X11572563Y-16437793D01*
X11572563Y-16437793D02*
X11591611Y-16428269D01*
X11658277Y-16380650D02*
X11734468Y-16380650D01*
X11686849Y-16313984D02*
X11686849Y-16485412D01*
X11686849Y-16485412D02*
X11696373Y-16504460D01*
X11696373Y-16504460D02*
X11715420Y-16513984D01*
X11715420Y-16513984D02*
X11734468Y-16513984D01*
X11877325Y-16504460D02*
X11858277Y-16513984D01*
X11858277Y-16513984D02*
X11820182Y-16513984D01*
X11820182Y-16513984D02*
X11801134Y-16504460D01*
X11801134Y-16504460D02*
X11791611Y-16485412D01*
X11791611Y-16485412D02*
X11791611Y-16409222D01*
X11791611Y-16409222D02*
X11801134Y-16390174D01*
X11801134Y-16390174D02*
X11820182Y-16380650D01*
X11820182Y-16380650D02*
X11858277Y-16380650D01*
X11858277Y-16380650D02*
X11877325Y-16390174D01*
X11877325Y-16390174D02*
X11886849Y-16409222D01*
X11886849Y-16409222D02*
X11886849Y-16428269D01*
X11886849Y-16428269D02*
X11791611Y-16447317D01*
X12058277Y-16513984D02*
X12058277Y-16313984D01*
X12058277Y-16504460D02*
X12039230Y-16513984D01*
X12039230Y-16513984D02*
X12001134Y-16513984D01*
X12001134Y-16513984D02*
X11982087Y-16504460D01*
X11982087Y-16504460D02*
X11972563Y-16494936D01*
X11972563Y-16494936D02*
X11963039Y-16475888D01*
X11963039Y-16475888D02*
X11963039Y-16418746D01*
X11963039Y-16418746D02*
X11972563Y-16399698D01*
X11972563Y-16399698D02*
X11982087Y-16390174D01*
X11982087Y-16390174D02*
X12001134Y-16380650D01*
X12001134Y-16380650D02*
X12039230Y-16380650D01*
X12039230Y-16380650D02*
X12058277Y-16390174D01*
X12134468Y-16590174D02*
X12143992Y-16580650D01*
X12143992Y-16580650D02*
X12163039Y-16552079D01*
X12163039Y-16552079D02*
X12172563Y-16533031D01*
X12172563Y-16533031D02*
X12182087Y-16504460D01*
X12182087Y-16504460D02*
X12191611Y-16456841D01*
X12191611Y-16456841D02*
X12191611Y-16418746D01*
X12191611Y-16418746D02*
X12182087Y-16371127D01*
X12182087Y-16371127D02*
X12172563Y-16342555D01*
X12172563Y-16342555D02*
X12163039Y-16323508D01*
X12163039Y-16323508D02*
X12143992Y-16294936D01*
X12143992Y-16294936D02*
X12134468Y-16285412D01*
M02*
